<svg width="645" height="428" viewBox="0 0 645 428" fill="none" xmlns="http://www.w3.org/2000/svg">
<rect width="645" height="428" rx="30" fill="#333333"/>
<mask id="mask0" mask-type="alpha" maskUnits="userSpaceOnUse" x="0" y="0" width="645" height="235">
<rect width="645" height="234.597" rx="30" transform="matrix(-1 0 0 1 645 0)" fill="#333333"/>
</mask>
<g mask="url(#mask0)">
<ellipse rx="75.5" ry="52.7145" transform="matrix(-1 0 0 1 614.5 13.6149)" fill="#404040"/>
</g>
<path fill-rule="evenodd" clip-rule="evenodd" d="M322 185.02C352.939 185.02 378.02 159.939 378.02 129C378.02 98.0608 352.939 72.9796 322 72.9796C291.061 72.9796 265.98 98.0608 265.98 129C265.98 159.939 291.061 185.02 322 185.02ZM322 190C355.689 190 383 162.689 383 129C383 95.3106 355.689 68 322 68C288.311 68 261 95.3106 261 129C261 162.689 288.311 190 322 190Z" fill="#B18E4E"/>
<path fill-rule="evenodd" clip-rule="evenodd" d="M321.569 107.588C326.313 107.588 330.159 103.742 330.159 98.9981C330.159 94.2541 326.313 90.4083 321.569 90.4083C316.825 90.4083 312.98 94.2541 312.98 98.9981C312.98 103.742 316.825 107.588 321.569 107.588ZM321.569 112.567C329.064 112.567 335.139 106.492 335.139 98.9981C335.139 91.5039 329.064 85.4287 321.569 85.4287C314.075 85.4287 308 91.5039 308 98.9981C308 106.492 314.075 112.567 321.569 112.567Z" fill="#B18E4E"/>
<path fill-rule="evenodd" clip-rule="evenodd" d="M330.159 161.492V131.614C330.159 126.87 326.313 123.025 321.569 123.025C316.825 123.025 312.98 126.87 312.98 131.614V161.492C312.98 166.236 316.825 170.082 321.569 170.082C326.313 170.082 330.159 166.236 330.159 161.492ZM321.569 118.045C314.075 118.045 308 124.12 308 131.614V161.492C308 168.986 314.075 175.061 321.569 175.061C329.064 175.061 335.139 168.986 335.139 161.492V131.614C335.139 124.12 329.064 118.045 321.569 118.045Z" fill="#B18E4E"/>
<path fill-rule="evenodd" clip-rule="evenodd" d="M292.748 96.2514C293.784 97.1559 293.89 98.7287 292.986 99.7645C281.9 112.46 279.835 124.847 281.478 135.079C283.141 145.438 288.637 153.755 292.871 157.989C293.843 158.961 293.843 160.537 292.871 161.51C291.899 162.482 290.322 162.482 289.35 161.51C284.496 156.656 278.415 147.419 276.561 135.868C274.687 124.191 277.166 110.31 289.235 96.4891C290.14 95.4534 291.712 95.3469 292.748 96.2514Z" fill="#B18E4E"/>
<path fill-rule="evenodd" clip-rule="evenodd" d="M350.971 96.2511C349.935 97.1556 349.828 98.7285 350.733 99.7642C361.819 112.459 363.883 124.846 362.241 135.079C360.578 145.438 355.081 153.755 350.848 157.988C349.875 158.961 349.875 160.537 350.848 161.51C351.82 162.482 353.396 162.482 354.369 161.51C359.223 156.655 365.304 147.419 367.158 135.868C369.032 124.19 366.553 110.31 354.484 96.4889C353.579 95.4531 352.006 95.3467 350.971 96.2511Z" fill="#B18E4E"/>
<path d="M124.543 276.484V269.828H128.027C130.731 269.828 131.875 271.076 131.875 273.182C131.875 275.21 130.731 276.484 128.027 276.484H124.543ZM134.293 273.182C134.293 270.218 132.291 267.878 128.027 267.878H122.177V286H124.543V278.434H128.027C132.525 278.434 134.293 275.938 134.293 273.182ZM137.233 286H139.599V266.76H137.233V286ZM149.69 273.52C152.134 273.52 154.214 275.054 154.188 277.836H145.192C145.452 275.054 147.376 273.52 149.69 273.52ZM156.346 281.606H153.798C153.278 283.14 151.926 284.232 149.794 284.232C147.376 284.232 145.348 282.646 145.166 279.76H156.554C156.606 279.266 156.632 278.85 156.632 278.33C156.632 274.43 153.928 271.518 149.794 271.518C145.634 271.518 142.748 274.352 142.748 278.85C142.748 283.374 145.738 286.234 149.794 286.234C153.33 286.234 155.618 284.206 156.346 281.606ZM158.871 278.824C158.871 283.244 161.809 286.234 165.605 286.234C168.231 286.234 170.077 284.882 170.935 283.348V286H173.327V271.752H170.935V274.352C170.103 272.87 168.283 271.518 165.631 271.518C161.809 271.518 158.871 274.378 158.871 278.824ZM170.935 278.85C170.935 282.204 168.699 284.154 166.099 284.154C163.499 284.154 161.289 282.178 161.289 278.824C161.289 275.47 163.499 273.572 166.099 273.572C168.699 273.572 170.935 275.548 170.935 278.85ZM187.569 282.126C187.465 277.03 179.197 278.876 179.197 275.496C179.197 274.352 180.237 273.52 181.979 273.52C183.877 273.52 184.969 274.56 185.073 275.99H187.439C187.283 273.208 185.203 271.518 182.057 271.518C178.885 271.518 176.831 273.312 176.831 275.496C176.831 280.8 185.255 278.954 185.255 282.126C185.255 283.296 184.215 284.232 182.343 284.232C180.341 284.232 179.119 283.192 178.989 281.814H176.545C176.701 284.414 179.041 286.234 182.369 286.234C185.515 286.234 187.569 284.466 187.569 282.126ZM196.967 273.52C199.411 273.52 201.491 275.054 201.465 277.836H192.469C192.729 275.054 194.653 273.52 196.967 273.52ZM203.623 281.606H201.075C200.555 283.14 199.203 284.232 197.071 284.232C194.653 284.232 192.625 282.646 192.443 279.76H203.831C203.883 279.266 203.909 278.85 203.909 278.33C203.909 274.43 201.205 271.518 197.071 271.518C192.911 271.518 190.025 274.352 190.025 278.85C190.025 283.374 193.015 286.234 197.071 286.234C200.607 286.234 202.895 284.206 203.623 281.606ZM214.484 282.1C214.484 284.96 215.914 286 218.436 286H220.568V283.998H218.826C217.37 283.998 216.85 283.504 216.85 282.1V273.702H220.568V271.752H216.85V268.164H214.484V271.752H212.638V273.702H214.484V282.1ZM228.843 283.296L224.371 271.752H221.745L227.491 285.844L224.683 292.708H227.127L235.707 271.752H233.263L228.843 283.296ZM240.451 274.378V271.752H238.085V292.76H240.451V283.374C241.335 284.83 243.181 286.234 245.781 286.234C249.603 286.234 252.541 283.244 252.541 278.824C252.541 274.378 249.603 271.518 245.781 271.518C243.181 271.518 241.309 272.87 240.451 274.378ZM250.123 278.824C250.123 282.178 247.913 284.154 245.287 284.154C242.713 284.154 240.451 282.204 240.451 278.85C240.451 275.548 242.713 273.572 245.287 273.572C247.913 273.572 250.123 275.47 250.123 278.824ZM261.713 273.52C264.157 273.52 266.237 275.054 266.211 277.836H257.215C257.475 275.054 259.399 273.52 261.713 273.52ZM268.369 281.606H265.821C265.301 283.14 263.949 284.232 261.817 284.232C259.399 284.232 257.371 282.646 257.189 279.76H268.577C268.629 279.266 268.655 278.85 268.655 278.33C268.655 274.43 265.951 271.518 261.817 271.518C257.657 271.518 254.771 274.352 254.771 278.85C254.771 283.374 257.761 286.234 261.817 286.234C265.353 286.234 267.641 284.206 268.369 281.606ZM284.118 283.296L279.646 271.752H277.02L282.766 285.844L279.958 292.708H282.402L290.982 271.752H288.538L284.118 283.296ZM306.88 278.85C306.88 274.352 303.734 271.518 299.678 271.518C295.648 271.518 292.476 274.352 292.476 278.85C292.476 283.374 295.544 286.234 299.574 286.234C303.63 286.234 306.88 283.374 306.88 278.85ZM294.894 278.85C294.894 275.262 297.156 273.572 299.652 273.572C302.096 273.572 304.462 275.262 304.462 278.85C304.462 282.464 302.044 284.154 299.574 284.154C297.104 284.154 294.894 282.464 294.894 278.85ZM322.627 271.752H320.261V279.578C320.261 282.646 318.623 284.154 316.179 284.154C313.787 284.154 312.201 282.672 312.201 279.786V271.752H309.861V280.098C309.861 284.18 312.435 286.208 315.711 286.208C317.609 286.208 319.351 285.376 320.261 283.894V286H322.627V271.752ZM328.988 278.252C328.988 274.95 330.704 273.936 332.966 273.936H333.59V271.492C331.328 271.492 329.794 272.48 328.988 274.066V271.752H326.622V286H328.988V278.252ZM348.895 267.878H343.253V286H348.895C354.849 286 358.515 282.594 358.515 276.978C358.515 271.362 354.849 267.878 348.895 267.878ZM345.619 284.05V269.802H348.895C353.627 269.802 356.097 272.558 356.097 276.978C356.097 281.398 353.627 284.05 348.895 284.05H345.619ZM367.694 273.52C370.138 273.52 372.218 275.054 372.192 277.836H363.196C363.456 275.054 365.38 273.52 367.694 273.52ZM374.35 281.606H371.802C371.282 283.14 369.93 284.232 367.798 284.232C365.38 284.232 363.352 282.646 363.17 279.76H374.558C374.61 279.266 374.636 278.85 374.636 278.33C374.636 274.43 371.932 271.518 367.798 271.518C363.638 271.518 360.752 274.352 360.752 278.85C360.752 283.374 363.742 286.234 367.798 286.234C371.334 286.234 373.622 284.206 374.35 281.606ZM388.003 282.126C387.899 277.03 379.631 278.876 379.631 275.496C379.631 274.352 380.671 273.52 382.413 273.52C384.311 273.52 385.403 274.56 385.507 275.99H387.873C387.717 273.208 385.637 271.518 382.491 271.518C379.319 271.518 377.265 273.312 377.265 275.496C377.265 280.8 385.689 278.954 385.689 282.126C385.689 283.296 384.649 284.232 382.777 284.232C380.775 284.232 379.553 283.192 379.423 281.814H376.979C377.135 284.414 379.475 286.234 382.803 286.234C385.949 286.234 388.003 284.466 388.003 282.126ZM391.343 286H393.709V271.752H391.343V286ZM392.565 269.438C393.423 269.438 394.125 268.736 394.125 267.826C394.125 266.916 393.423 266.214 392.565 266.214C391.655 266.214 390.953 266.916 390.953 267.826C390.953 268.736 391.655 269.438 392.565 269.438ZM400.107 278.252C400.107 274.95 401.823 273.936 404.085 273.936H404.709V271.492C402.447 271.492 400.913 272.48 400.107 274.066V271.752H397.741V286H400.107V278.252ZM413.498 273.52C415.942 273.52 418.022 275.054 417.996 277.836H409C409.26 275.054 411.184 273.52 413.498 273.52ZM420.154 281.606H417.606C417.086 283.14 415.734 284.232 413.602 284.232C411.184 284.232 409.156 282.646 408.974 279.76H420.362C420.414 279.266 420.44 278.85 420.44 278.33C420.44 274.43 417.736 271.518 413.602 271.518C409.442 271.518 406.556 274.352 406.556 278.85C406.556 283.374 409.546 286.234 413.602 286.234C417.138 286.234 419.426 284.206 420.154 281.606ZM422.68 278.824C422.68 283.244 425.618 286.234 429.44 286.234C432.04 286.234 433.886 284.908 434.744 283.322V286H437.136V266.76H434.744V274.3C433.756 272.662 431.702 271.518 429.466 271.518C425.618 271.518 422.68 274.378 422.68 278.824ZM434.744 278.85C434.744 282.204 432.508 284.154 429.908 284.154C427.308 284.154 425.098 282.178 425.098 278.824C425.098 275.47 427.308 273.572 429.908 273.572C432.508 273.572 434.744 275.548 434.744 278.85ZM459.947 267.852V282.256L450.431 267.852H448.065V286H450.431V271.57L459.947 286H462.313V267.852H459.947ZM465.463 278.824C465.463 283.244 468.401 286.234 472.197 286.234C474.823 286.234 476.669 284.882 477.527 283.348V286H479.919V271.752H477.527V274.352C476.695 272.87 474.875 271.518 472.223 271.518C468.401 271.518 465.463 274.378 465.463 278.824ZM477.527 278.85C477.527 282.204 475.291 284.154 472.691 284.154C470.091 284.154 467.881 282.178 467.881 278.824C467.881 275.47 470.091 273.572 472.691 273.572C475.291 273.572 477.527 275.548 477.527 278.85ZM504.483 286H506.823V277.602C506.823 273.52 504.301 271.492 501.051 271.492C498.867 271.492 496.839 272.61 496.007 274.664C495.071 272.532 493.121 271.492 490.781 271.492C488.909 271.492 487.219 272.298 486.283 273.806V271.752H483.917V286H486.283V278.148C486.283 275.08 487.921 273.546 490.313 273.546C492.653 273.546 494.213 275.028 494.213 277.94V286H496.553V278.148C496.553 275.08 498.191 273.546 500.583 273.546C502.923 273.546 504.483 275.028 504.483 277.94V286ZM516.762 273.52C519.206 273.52 521.286 275.054 521.26 277.836H512.264C512.524 275.054 514.448 273.52 516.762 273.52ZM523.418 281.606H520.87C520.35 283.14 518.998 284.232 516.866 284.232C514.448 284.232 512.42 282.646 512.238 279.76H523.626C523.678 279.266 523.704 278.85 523.704 278.33C523.704 274.43 521 271.518 516.866 271.518C512.706 271.518 509.82 274.352 509.82 278.85C509.82 283.374 512.81 286.234 516.866 286.234C520.402 286.234 522.69 284.206 523.418 281.606ZM159.247 317.85C159.247 313.352 156.101 310.518 152.045 310.518C148.015 310.518 144.843 313.352 144.843 317.85C144.843 322.374 147.911 325.234 151.941 325.234C155.997 325.234 159.247 322.374 159.247 317.85ZM147.261 317.85C147.261 314.262 149.523 312.572 152.019 312.572C154.463 312.572 156.829 314.262 156.829 317.85C156.829 321.464 154.411 323.154 151.941 323.154C149.471 323.154 147.261 321.464 147.261 317.85ZM164.723 317.252C164.723 313.95 166.439 312.936 168.701 312.936H169.325V310.492C167.063 310.492 165.529 311.48 164.723 313.066V310.752H162.357V325H164.723V317.252ZM184.63 306.878H178.988V325H184.63C190.584 325 194.25 321.594 194.25 315.978C194.25 310.362 190.584 306.878 184.63 306.878ZM181.354 323.05V308.802H184.63C189.362 308.802 191.832 311.558 191.832 315.978C191.832 320.398 189.362 323.05 184.63 323.05H181.354ZM203.429 312.52C205.873 312.52 207.953 314.054 207.927 316.836H198.931C199.191 314.054 201.115 312.52 203.429 312.52ZM210.085 320.606H207.537C207.017 322.14 205.665 323.232 203.533 323.232C201.115 323.232 199.087 321.646 198.905 318.76H210.293C210.345 318.266 210.371 317.85 210.371 317.33C210.371 313.43 207.667 310.518 203.533 310.518C199.373 310.518 196.487 313.352 196.487 317.85C196.487 322.374 199.477 325.234 203.533 325.234C207.069 325.234 209.357 323.206 210.085 320.606ZM223.738 321.126C223.634 316.03 215.366 317.876 215.366 314.496C215.366 313.352 216.406 312.52 218.148 312.52C220.046 312.52 221.138 313.56 221.242 314.99H223.608C223.452 312.208 221.372 310.518 218.226 310.518C215.054 310.518 213 312.312 213 314.496C213 319.8 221.424 317.954 221.424 321.126C221.424 322.296 220.384 323.232 218.512 323.232C216.51 323.232 215.288 322.192 215.158 320.814H212.714C212.87 323.414 215.21 325.234 218.538 325.234C221.684 325.234 223.738 323.466 223.738 321.126ZM227.078 325H229.444V310.752H227.078V325ZM228.3 308.438C229.158 308.438 229.86 307.736 229.86 306.826C229.86 305.916 229.158 305.214 228.3 305.214C227.39 305.214 226.688 305.916 226.688 306.826C226.688 307.736 227.39 308.438 228.3 308.438ZM232.593 317.824C232.593 322.244 235.531 325.234 239.353 325.234C241.953 325.234 243.799 323.856 244.657 322.322V325.312C244.657 328.354 242.759 329.966 240.237 329.966C237.897 329.966 236.207 328.796 235.687 327.08H233.347C233.815 330.122 236.493 332.02 240.237 332.02C244.423 332.02 247.049 329.238 247.049 325.312V310.752H244.657V313.352C243.825 311.818 241.953 310.518 239.353 310.518C235.531 310.518 232.593 313.378 232.593 317.824ZM244.657 317.85C244.657 321.204 242.421 323.154 239.821 323.154C237.221 323.154 235.011 321.178 235.011 317.824C235.011 314.47 237.221 312.572 239.821 312.572C242.421 312.572 244.657 314.548 244.657 317.85ZM261.473 325H263.813V316.602C263.813 312.52 261.291 310.492 257.989 310.492C256.065 310.492 254.349 311.298 253.413 312.78V310.752H251.047V325H253.413V317.122C253.413 314.054 255.077 312.546 257.495 312.546C259.887 312.546 261.473 314.028 261.473 316.94V325ZM266.794 317.824C266.794 322.244 269.732 325.234 273.528 325.234C276.154 325.234 278 323.882 278.858 322.348V325H281.25V310.752H278.858V313.352C278.026 311.87 276.206 310.518 273.554 310.518C269.732 310.518 266.794 313.378 266.794 317.824ZM278.858 317.85C278.858 321.204 276.622 323.154 274.022 323.154C271.422 323.154 269.212 321.178 269.212 317.824C269.212 314.47 271.422 312.572 274.022 312.572C276.622 312.572 278.858 314.548 278.858 317.85ZM285.768 321.1C285.768 323.96 287.198 325 289.72 325H291.852V322.998H290.11C288.654 322.998 288.134 322.504 288.134 321.1V312.702H291.852V310.752H288.134V307.164H285.768V310.752H283.922V312.702H285.768V321.1ZM294.719 325H297.085V310.752H294.719V325ZM295.941 308.438C296.799 308.438 297.501 307.736 297.501 306.826C297.501 305.916 296.799 305.214 295.941 305.214C295.031 305.214 294.329 305.916 294.329 306.826C294.329 307.736 295.031 308.438 295.941 308.438ZM314.637 317.85C314.637 313.352 311.491 310.518 307.435 310.518C303.405 310.518 300.233 313.352 300.233 317.85C300.233 322.374 303.301 325.234 307.331 325.234C311.387 325.234 314.637 322.374 314.637 317.85ZM302.651 317.85C302.651 314.262 304.913 312.572 307.409 312.572C309.853 312.572 312.219 314.262 312.219 317.85C312.219 321.464 309.801 323.154 307.331 323.154C304.861 323.154 302.651 321.464 302.651 317.85ZM328.174 325H330.514V316.602C330.514 312.52 327.992 310.492 324.69 310.492C322.766 310.492 321.05 311.298 320.114 312.78V310.752H317.748V325H320.114V317.122C320.114 314.054 321.778 312.546 324.196 312.546C326.588 312.546 328.174 314.028 328.174 316.94V325ZM340.427 317.824C340.427 322.244 343.365 325.234 347.161 325.234C349.787 325.234 351.633 323.882 352.491 322.348V325H354.883V310.752H352.491V313.352C351.659 311.87 349.839 310.518 347.187 310.518C343.365 310.518 340.427 313.378 340.427 317.824ZM352.491 317.85C352.491 321.204 350.255 323.154 347.655 323.154C345.055 323.154 342.845 321.178 342.845 317.824C342.845 314.47 345.055 312.572 347.655 312.572C350.255 312.572 352.491 314.548 352.491 317.85ZM369.307 325H371.647V316.602C371.647 312.52 369.125 310.492 365.823 310.492C363.899 310.492 362.183 311.298 361.247 312.78V310.752H358.881V325H361.247V317.122C361.247 314.054 362.911 312.546 365.329 312.546C367.721 312.546 369.307 314.028 369.307 316.94V325ZM374.628 317.824C374.628 322.244 377.566 325.234 381.388 325.234C383.988 325.234 385.834 323.908 386.692 322.322V325H389.084V305.76H386.692V313.3C385.704 311.662 383.65 310.518 381.414 310.518C377.566 310.518 374.628 313.378 374.628 317.824ZM386.692 317.85C386.692 321.204 384.456 323.154 381.856 323.154C379.256 323.154 377.046 321.178 377.046 317.824C377.046 314.47 379.256 312.572 381.856 312.572C384.456 312.572 386.692 314.548 386.692 317.85ZM399.13 317.85C399.13 322.374 402.016 325.234 406.072 325.234C409.608 325.234 411.922 323.258 412.65 320.424H410.102C409.582 322.218 408.178 323.232 406.072 323.232C403.472 323.232 401.548 321.386 401.548 317.85C401.548 314.366 403.472 312.52 406.072 312.52C408.178 312.52 409.608 313.612 410.102 315.328H412.65C411.922 312.338 409.608 310.518 406.072 310.518C402.016 310.518 399.13 313.378 399.13 317.85ZM415.807 325H418.173V305.76H415.807V325ZM422.205 325H424.571V310.752H422.205V325ZM423.427 308.438C424.285 308.438 424.987 307.736 424.987 306.826C424.987 305.916 424.285 305.214 423.427 305.214C422.517 305.214 421.815 305.916 421.815 306.826C421.815 307.736 422.517 308.438 423.427 308.438ZM427.72 317.85C427.72 322.374 430.606 325.234 434.662 325.234C438.198 325.234 440.512 323.258 441.24 320.424H438.692C438.172 322.218 436.768 323.232 434.662 323.232C432.062 323.232 430.138 321.386 430.138 317.85C430.138 314.366 432.062 312.52 434.662 312.52C436.768 312.52 438.198 313.612 438.692 315.328H441.24C440.512 312.338 438.198 310.518 434.662 310.518C430.606 310.518 427.72 313.378 427.72 317.85ZM444.397 325H446.763V318.708L452.353 325H455.577L448.843 317.85L455.551 310.752H452.249L446.763 317.07V305.76H444.397V325Z" fill="white"/>
<path d="M482.285 315.822C482.285 310.336 478.151 306.488 472.951 306.488C467.777 306.488 463.565 310.336 463.565 315.822C463.565 321.308 467.777 325.182 472.951 325.182C478.125 325.182 482.285 321.308 482.285 315.822ZM468.115 315.822C468.115 312.572 469.987 310.518 472.951 310.518C475.863 310.518 477.761 312.572 477.761 315.822C477.761 319.02 475.863 321.126 472.951 321.126C469.987 321.126 468.115 319.02 468.115 315.822ZM495.34 325H500.774L493.442 315.692L500.514 306.748H495.288L489.204 314.756V306.748H484.758V325H489.204V316.94L495.34 325Z" fill="#B18E4E"/>
</svg>
