<svg width="645" height="583" viewBox="0 0 645 583" fill="none" xmlns="http://www.w3.org/2000/svg">
<rect width="645" height="583" rx="30" fill="#333333"/>
<mask id="mask0" mask-type="alpha" maskUnits="userSpaceOnUse" x="0" y="0" width="645" height="317">
<rect width="645" height="316.816" rx="30" transform="matrix(-1 0 0 1 645 0)" fill="#333333"/>
</mask>
<g mask="url(#mask0)">
<ellipse rx="75.5" ry="71.1892" transform="matrix(-1 0 0 1 614.5 18.3866)" fill="#404040"/>
</g>
<path fill-rule="evenodd" clip-rule="evenodd" d="M322 185.02C352.939 185.02 378.02 159.939 378.02 129C378.02 98.0608 352.939 72.9796 322 72.9796C291.061 72.9796 265.98 98.0608 265.98 129C265.98 159.939 291.061 185.02 322 185.02ZM322 190C355.689 190 383 162.689 383 129C383 95.3106 355.689 68 322 68C288.311 68 261 95.3106 261 129C261 162.689 288.311 190 322 190Z" fill="#B18E4E"/>
<path fill-rule="evenodd" clip-rule="evenodd" d="M321.569 107.588C326.313 107.588 330.159 103.742 330.159 98.9981C330.159 94.2541 326.313 90.4083 321.569 90.4083C316.825 90.4083 312.98 94.2541 312.98 98.9981C312.98 103.742 316.825 107.588 321.569 107.588ZM321.569 112.567C329.064 112.567 335.139 106.492 335.139 98.9981C335.139 91.5039 329.064 85.4287 321.569 85.4287C314.075 85.4287 308 91.5039 308 98.9981C308 106.492 314.075 112.567 321.569 112.567Z" fill="#B18E4E"/>
<path fill-rule="evenodd" clip-rule="evenodd" d="M330.159 161.492V131.614C330.159 126.87 326.313 123.025 321.569 123.025C316.825 123.025 312.98 126.87 312.98 131.614V161.492C312.98 166.236 316.825 170.082 321.569 170.082C326.313 170.082 330.159 166.236 330.159 161.492ZM321.569 118.045C314.075 118.045 308 124.12 308 131.614V161.492C308 168.986 314.075 175.061 321.569 175.061C329.064 175.061 335.139 168.986 335.139 161.492V131.614C335.139 124.12 329.064 118.045 321.569 118.045Z" fill="#B18E4E"/>
<path fill-rule="evenodd" clip-rule="evenodd" d="M292.748 96.2514C293.784 97.1559 293.89 98.7287 292.986 99.7645C281.9 112.46 279.835 124.847 281.478 135.079C283.141 145.438 288.637 153.755 292.871 157.989C293.843 158.961 293.843 160.537 292.871 161.51C291.899 162.482 290.322 162.482 289.35 161.51C284.496 156.656 278.415 147.419 276.561 135.868C274.687 124.191 277.166 110.31 289.235 96.4891C290.14 95.4534 291.712 95.3469 292.748 96.2514Z" fill="#B18E4E"/>
<path fill-rule="evenodd" clip-rule="evenodd" d="M350.971 96.2511C349.935 97.1556 349.828 98.7285 350.733 99.7642C361.819 112.459 363.883 124.846 362.241 135.079C360.578 145.438 355.081 153.755 350.848 157.988C349.875 158.961 349.875 160.537 350.848 161.51C351.82 162.482 353.396 162.482 354.369 161.51C359.223 156.655 365.304 147.419 367.158 135.868C369.032 124.19 366.553 110.31 354.484 96.4889C353.579 95.4531 352.006 95.3467 350.971 96.2511Z" fill="#B18E4E"/>
<path d="M107.412 276.484V269.828H110.896C113.6 269.828 114.744 271.076 114.744 273.182C114.744 275.21 113.6 276.484 110.896 276.484H107.412ZM117.162 273.182C117.162 270.218 115.16 267.878 110.896 267.878H105.046V286H107.412V278.434H110.896C115.394 278.434 117.162 275.938 117.162 273.182ZM120.103 286H122.469V266.76H120.103V286ZM132.559 273.52C135.003 273.52 137.083 275.054 137.057 277.836H128.061C128.321 275.054 130.245 273.52 132.559 273.52ZM139.215 281.606H136.667C136.147 283.14 134.795 284.232 132.663 284.232C130.245 284.232 128.217 282.646 128.035 279.76H139.423C139.475 279.266 139.501 278.85 139.501 278.33C139.501 274.43 136.797 271.518 132.663 271.518C128.503 271.518 125.617 274.352 125.617 278.85C125.617 283.374 128.607 286.234 132.663 286.234C136.199 286.234 138.487 284.206 139.215 281.606ZM141.74 278.824C141.74 283.244 144.678 286.234 148.474 286.234C151.1 286.234 152.946 284.882 153.804 283.348V286H156.196V271.752H153.804V274.352C152.972 272.87 151.152 271.518 148.5 271.518C144.678 271.518 141.74 274.378 141.74 278.824ZM153.804 278.85C153.804 282.204 151.568 284.154 148.968 284.154C146.368 284.154 144.158 282.178 144.158 278.824C144.158 275.47 146.368 273.572 148.968 273.572C151.568 273.572 153.804 275.548 153.804 278.85ZM170.438 282.126C170.334 277.03 162.066 278.876 162.066 275.496C162.066 274.352 163.106 273.52 164.848 273.52C166.746 273.52 167.838 274.56 167.942 275.99H170.308C170.152 273.208 168.072 271.518 164.926 271.518C161.754 271.518 159.7 273.312 159.7 275.496C159.7 280.8 168.124 278.954 168.124 282.126C168.124 283.296 167.084 284.232 165.212 284.232C163.21 284.232 161.988 283.192 161.858 281.814H159.414C159.57 284.414 161.91 286.234 165.238 286.234C168.384 286.234 170.438 284.466 170.438 282.126ZM179.836 273.52C182.28 273.52 184.36 275.054 184.334 277.836H175.338C175.598 275.054 177.522 273.52 179.836 273.52ZM186.492 281.606H183.944C183.424 283.14 182.072 284.232 179.94 284.232C177.522 284.232 175.494 282.646 175.312 279.76H186.7C186.752 279.266 186.778 278.85 186.778 278.33C186.778 274.43 184.074 271.518 179.94 271.518C175.78 271.518 172.894 274.352 172.894 278.85C172.894 283.374 175.884 286.234 179.94 286.234C183.476 286.234 185.764 284.206 186.492 281.606ZM197.353 282.1C197.353 284.96 198.783 286 201.305 286H203.437V283.998H201.695C200.239 283.998 199.719 283.504 199.719 282.1V273.702H203.437V271.752H199.719V268.164H197.353V271.752H195.507V273.702H197.353V282.1ZM211.712 283.296L207.24 271.752H204.614L210.36 285.844L207.552 292.708H209.996L218.576 271.752H216.132L211.712 283.296ZM223.32 274.378V271.752H220.954V292.76H223.32V283.374C224.204 284.83 226.05 286.234 228.65 286.234C232.472 286.234 235.41 283.244 235.41 278.824C235.41 274.378 232.472 271.518 228.65 271.518C226.05 271.518 224.178 272.87 223.32 274.378ZM232.992 278.824C232.992 282.178 230.782 284.154 228.156 284.154C225.582 284.154 223.32 282.204 223.32 278.85C223.32 275.548 225.582 273.572 228.156 273.572C230.782 273.572 232.992 275.47 232.992 278.824ZM244.582 273.52C247.026 273.52 249.106 275.054 249.08 277.836H240.084C240.344 275.054 242.268 273.52 244.582 273.52ZM251.238 281.606H248.69C248.17 283.14 246.818 284.232 244.686 284.232C242.268 284.232 240.24 282.646 240.058 279.76H251.446C251.498 279.266 251.524 278.85 251.524 278.33C251.524 274.43 248.82 271.518 244.686 271.518C240.526 271.518 237.64 274.352 237.64 278.85C237.64 283.374 240.63 286.234 244.686 286.234C248.222 286.234 250.51 284.206 251.238 281.606ZM266.987 283.296L262.515 271.752H259.889L265.635 285.844L262.827 292.708H265.271L273.851 271.752H271.407L266.987 283.296ZM289.75 278.85C289.75 274.352 286.604 271.518 282.548 271.518C278.518 271.518 275.346 274.352 275.346 278.85C275.346 283.374 278.414 286.234 282.444 286.234C286.5 286.234 289.75 283.374 289.75 278.85ZM277.764 278.85C277.764 275.262 280.026 273.572 282.522 273.572C284.966 273.572 287.332 275.262 287.332 278.85C287.332 282.464 284.914 284.154 282.444 284.154C279.974 284.154 277.764 282.464 277.764 278.85ZM305.496 271.752H303.13V279.578C303.13 282.646 301.492 284.154 299.048 284.154C296.656 284.154 295.07 282.672 295.07 279.786V271.752H292.73V280.098C292.73 284.18 295.304 286.208 298.58 286.208C300.478 286.208 302.22 285.376 303.13 283.894V286H305.496V271.752ZM311.857 278.252C311.857 274.95 313.573 273.936 315.835 273.936H316.459V271.492C314.197 271.492 312.663 272.48 311.857 274.066V271.752H309.491V286H311.857V278.252ZM331.764 267.878H326.122V286H331.764C337.718 286 341.384 282.594 341.384 276.978C341.384 271.362 337.718 267.878 331.764 267.878ZM328.488 284.05V269.802H331.764C336.496 269.802 338.966 272.558 338.966 276.978C338.966 281.398 336.496 284.05 331.764 284.05H328.488ZM350.563 273.52C353.007 273.52 355.087 275.054 355.061 277.836H346.065C346.325 275.054 348.249 273.52 350.563 273.52ZM357.219 281.606H354.671C354.151 283.14 352.799 284.232 350.667 284.232C348.249 284.232 346.221 282.646 346.039 279.76H357.427C357.479 279.266 357.505 278.85 357.505 278.33C357.505 274.43 354.801 271.518 350.667 271.518C346.507 271.518 343.621 274.352 343.621 278.85C343.621 283.374 346.611 286.234 350.667 286.234C354.203 286.234 356.491 284.206 357.219 281.606ZM370.872 282.126C370.768 277.03 362.5 278.876 362.5 275.496C362.5 274.352 363.54 273.52 365.282 273.52C367.18 273.52 368.272 274.56 368.376 275.99H370.742C370.586 273.208 368.506 271.518 365.36 271.518C362.188 271.518 360.134 273.312 360.134 275.496C360.134 280.8 368.558 278.954 368.558 282.126C368.558 283.296 367.518 284.232 365.646 284.232C363.644 284.232 362.422 283.192 362.292 281.814H359.848C360.004 284.414 362.344 286.234 365.672 286.234C368.818 286.234 370.872 284.466 370.872 282.126ZM374.212 286H376.578V271.752H374.212V286ZM375.434 269.438C376.292 269.438 376.994 268.736 376.994 267.826C376.994 266.916 376.292 266.214 375.434 266.214C374.524 266.214 373.822 266.916 373.822 267.826C373.822 268.736 374.524 269.438 375.434 269.438ZM382.976 278.252C382.976 274.95 384.692 273.936 386.954 273.936H387.578V271.492C385.316 271.492 383.782 272.48 382.976 274.066V271.752H380.61V286H382.976V278.252ZM396.368 273.52C398.812 273.52 400.892 275.054 400.866 277.836H391.87C392.13 275.054 394.054 273.52 396.368 273.52ZM403.024 281.606H400.476C399.956 283.14 398.604 284.232 396.472 284.232C394.054 284.232 392.026 282.646 391.844 279.76H403.232C403.284 279.266 403.31 278.85 403.31 278.33C403.31 274.43 400.606 271.518 396.472 271.518C392.312 271.518 389.426 274.352 389.426 278.85C389.426 283.374 392.416 286.234 396.472 286.234C400.008 286.234 402.296 284.206 403.024 281.606ZM405.549 278.824C405.549 283.244 408.487 286.234 412.309 286.234C414.909 286.234 416.755 284.908 417.613 283.322V286H420.005V266.76H417.613V274.3C416.625 272.662 414.571 271.518 412.335 271.518C408.487 271.518 405.549 274.378 405.549 278.824ZM417.613 278.85C417.613 282.204 415.377 284.154 412.777 284.154C410.177 284.154 407.967 282.178 407.967 278.824C407.967 275.47 410.177 273.572 412.777 273.572C415.377 273.572 417.613 275.548 417.613 278.85ZM442.817 267.852V282.256L433.301 267.852H430.935V286H433.301V271.57L442.817 286H445.183V267.852H442.817ZM448.332 278.824C448.332 283.244 451.27 286.234 455.066 286.234C457.692 286.234 459.538 284.882 460.396 283.348V286H462.788V271.752H460.396V274.352C459.564 272.87 457.744 271.518 455.092 271.518C451.27 271.518 448.332 274.378 448.332 278.824ZM460.396 278.85C460.396 282.204 458.16 284.154 455.56 284.154C452.96 284.154 450.75 282.178 450.75 278.824C450.75 275.47 452.96 273.572 455.56 273.572C458.16 273.572 460.396 275.548 460.396 278.85ZM487.352 286H489.692V277.602C489.692 273.52 487.17 271.492 483.92 271.492C481.736 271.492 479.708 272.61 478.876 274.664C477.94 272.532 475.99 271.492 473.65 271.492C471.778 271.492 470.088 272.298 469.152 273.806V271.752H466.786V286H469.152V278.148C469.152 275.08 470.79 273.546 473.182 273.546C475.522 273.546 477.082 275.028 477.082 277.94V286H479.422V278.148C479.422 275.08 481.06 273.546 483.452 273.546C485.792 273.546 487.352 275.028 487.352 277.94V286ZM499.631 273.52C502.075 273.52 504.155 275.054 504.129 277.836H495.133C495.393 275.054 497.317 273.52 499.631 273.52ZM506.287 281.606H503.739C503.219 283.14 501.867 284.232 499.735 284.232C497.317 284.232 495.289 282.646 495.107 279.76H506.495C506.547 279.266 506.573 278.85 506.573 278.33C506.573 274.43 503.869 271.518 499.735 271.518C495.575 271.518 492.689 274.352 492.689 278.85C492.689 283.374 495.679 286.234 499.735 286.234C503.271 286.234 505.559 284.206 506.287 281.606ZM530.148 278.85C530.148 274.352 527.002 271.518 522.946 271.518C518.916 271.518 515.744 274.352 515.744 278.85C515.744 283.374 518.812 286.234 522.842 286.234C526.898 286.234 530.148 283.374 530.148 278.85ZM518.162 278.85C518.162 275.262 520.424 273.572 522.92 273.572C525.364 273.572 527.73 275.262 527.73 278.85C527.73 282.464 525.312 284.154 522.842 284.154C520.372 284.154 518.162 282.464 518.162 278.85ZM535.625 278.252C535.625 274.95 537.341 273.936 539.603 273.936H540.227V271.492C537.965 271.492 536.431 272.48 535.625 274.066V271.752H533.259V286H535.625V278.252ZM141.475 325H143.971L137.445 306.982H134.715L128.163 325H130.659L132.115 320.97H140.019L141.475 325ZM139.343 319.046H132.791L136.067 309.894L139.343 319.046ZM145.942 317.85C145.942 322.374 148.828 325.234 152.884 325.234C156.42 325.234 158.734 323.258 159.462 320.424H156.914C156.394 322.218 154.99 323.232 152.884 323.232C150.284 323.232 148.36 321.386 148.36 317.85C148.36 314.366 150.284 312.52 152.884 312.52C154.99 312.52 156.42 313.612 156.914 315.328H159.462C158.734 312.338 156.42 310.518 152.884 310.518C148.828 310.518 145.942 313.378 145.942 317.85ZM161.735 317.85C161.735 322.374 164.621 325.234 168.677 325.234C172.213 325.234 174.527 323.258 175.255 320.424H172.707C172.187 322.218 170.783 323.232 168.677 323.232C166.077 323.232 164.153 321.386 164.153 317.85C164.153 314.366 166.077 312.52 168.677 312.52C170.783 312.52 172.213 313.612 172.707 315.328H175.255C174.527 312.338 172.213 310.518 168.677 310.518C164.621 310.518 161.735 313.378 161.735 317.85ZM191.932 317.85C191.932 313.352 188.786 310.518 184.73 310.518C180.7 310.518 177.528 313.352 177.528 317.85C177.528 322.374 180.596 325.234 184.626 325.234C188.682 325.234 191.932 322.374 191.932 317.85ZM179.946 317.85C179.946 314.262 182.208 312.572 184.704 312.572C187.148 312.572 189.514 314.262 189.514 317.85C189.514 321.464 187.096 323.154 184.626 323.154C182.156 323.154 179.946 321.464 179.946 317.85ZM207.679 310.752H205.313V318.578C205.313 321.646 203.675 323.154 201.231 323.154C198.839 323.154 197.253 321.672 197.253 318.786V310.752H194.913V319.098C194.913 323.18 197.487 325.208 200.763 325.208C202.661 325.208 204.403 324.376 205.313 322.894V325H207.679V310.752ZM222.1 325H224.44V316.602C224.44 312.52 221.918 310.492 218.616 310.492C216.692 310.492 214.976 311.298 214.04 312.78V310.752H211.674V325H214.04V317.122C214.04 314.054 215.704 312.546 218.122 312.546C220.514 312.546 222.1 314.028 222.1 316.94V325ZM228.825 321.1C228.825 323.96 230.255 325 232.777 325H234.909V322.998H233.167C231.711 322.998 231.191 322.504 231.191 321.1V312.702H234.909V310.752H231.191V307.164H228.825V310.752H226.979V312.702H228.825V321.1ZM256.589 306.852V321.256L247.073 306.852H244.707V325H247.073V310.57L256.589 325H258.955V306.852H256.589ZM275.624 310.752H273.258V318.578C273.258 321.646 271.62 323.154 269.176 323.154C266.784 323.154 265.198 321.672 265.198 318.786V310.752H262.858V319.098C262.858 323.18 265.432 325.208 268.708 325.208C270.606 325.208 272.348 324.376 273.258 322.894V325H275.624V310.752ZM300.185 325H302.525V316.602C302.525 312.52 300.003 310.492 296.753 310.492C294.569 310.492 292.541 311.61 291.709 313.664C290.773 311.532 288.823 310.492 286.483 310.492C284.611 310.492 282.921 311.298 281.985 312.806V310.752H279.619V325H281.985V317.148C281.985 314.08 283.623 312.546 286.015 312.546C288.355 312.546 289.915 314.028 289.915 316.94V325H292.255V317.148C292.255 314.08 293.893 312.546 296.285 312.546C298.625 312.546 300.185 314.028 300.185 316.94V325ZM308.772 313.404V305.76H306.406V325H308.772V322.374C309.656 323.934 311.502 325.234 314.102 325.234C317.924 325.234 320.862 322.244 320.862 317.824C320.862 313.378 317.95 310.518 314.102 310.518C311.58 310.518 309.682 311.818 308.772 313.404ZM318.444 317.824C318.444 321.178 316.234 323.154 313.608 323.154C311.034 323.154 308.772 321.204 308.772 317.85C308.772 314.548 311.034 312.572 313.608 312.572C316.234 312.572 318.444 314.47 318.444 317.824ZM330.035 312.52C332.479 312.52 334.559 314.054 334.533 316.836H325.537C325.797 314.054 327.721 312.52 330.035 312.52ZM336.691 320.606H334.143C333.623 322.14 332.271 323.232 330.139 323.232C327.721 323.232 325.693 321.646 325.511 318.76H336.899C336.951 318.266 336.977 317.85 336.977 317.33C336.977 313.43 334.273 310.518 330.139 310.518C325.979 310.518 323.093 313.352 323.093 317.85C323.093 322.374 326.083 325.234 330.139 325.234C333.675 325.234 335.963 323.206 336.691 320.606ZM342.466 317.252C342.466 313.95 344.182 312.936 346.444 312.936H347.068V310.492C344.806 310.492 343.272 311.48 342.466 313.066V310.752H340.1V325H342.466V317.252ZM355.847 317.824C355.847 322.244 358.785 325.234 362.581 325.234C365.207 325.234 367.053 323.882 367.911 322.348V325H370.303V310.752H367.911V313.352C367.079 311.87 365.259 310.518 362.607 310.518C358.785 310.518 355.847 313.378 355.847 317.824ZM367.911 317.85C367.911 321.204 365.675 323.154 363.075 323.154C360.475 323.154 358.265 321.178 358.265 317.824C358.265 314.47 360.475 312.572 363.075 312.572C365.675 312.572 367.911 314.548 367.911 317.85ZM384.727 325H387.067V316.602C387.067 312.52 384.545 310.492 381.243 310.492C379.319 310.492 377.603 311.298 376.667 312.78V310.752H374.301V325H376.667V317.122C376.667 314.054 378.331 312.546 380.749 312.546C383.141 312.546 384.727 314.028 384.727 316.94V325ZM390.048 317.824C390.048 322.244 392.986 325.234 396.808 325.234C399.408 325.234 401.254 323.908 402.112 322.322V325H404.504V305.76H402.112V313.3C401.124 311.662 399.07 310.518 396.834 310.518C392.986 310.518 390.048 313.378 390.048 317.824ZM402.112 317.85C402.112 321.204 399.876 323.154 397.276 323.154C394.676 323.154 392.466 321.178 392.466 317.824C392.466 314.47 394.676 312.572 397.276 312.572C399.876 312.572 402.112 314.548 402.112 317.85ZM414.55 317.85C414.55 322.374 417.436 325.234 421.492 325.234C425.028 325.234 427.342 323.258 428.07 320.424H425.522C425.002 322.218 423.598 323.232 421.492 323.232C418.892 323.232 416.968 321.386 416.968 317.85C416.968 314.366 418.892 312.52 421.492 312.52C423.598 312.52 425.028 313.612 425.522 315.328H428.07C427.342 312.338 425.028 310.518 421.492 310.518C417.436 310.518 414.55 313.378 414.55 317.85ZM431.227 325H433.593V305.76H431.227V325ZM437.625 325H439.991V310.752H437.625V325ZM438.847 308.438C439.705 308.438 440.407 307.736 440.407 306.826C440.407 305.916 439.705 305.214 438.847 305.214C437.937 305.214 437.235 305.916 437.235 306.826C437.235 307.736 437.937 308.438 438.847 308.438ZM443.139 317.85C443.139 322.374 446.025 325.234 450.081 325.234C453.617 325.234 455.931 323.258 456.659 320.424H454.111C453.591 322.218 452.187 323.232 450.081 323.232C447.481 323.232 445.557 321.386 445.557 317.85C445.557 314.366 447.481 312.52 450.081 312.52C452.187 312.52 453.617 313.612 454.111 315.328H456.659C455.931 312.338 453.617 310.518 450.081 310.518C446.025 310.518 443.139 313.378 443.139 317.85ZM459.816 325H462.182V318.708L467.772 325H470.996L464.262 317.85L470.97 310.752H467.668L462.182 317.07V305.76H459.816V325Z" fill="white"/>
<path d="M497.705 315.822C497.705 310.336 493.571 306.488 488.371 306.488C483.197 306.488 478.985 310.336 478.985 315.822C478.985 321.308 483.197 325.182 488.371 325.182C493.545 325.182 497.705 321.308 497.705 315.822ZM483.535 315.822C483.535 312.572 485.407 310.518 488.371 310.518C491.283 310.518 493.181 312.572 493.181 315.822C493.181 319.02 491.283 321.126 488.371 321.126C485.407 321.126 483.535 319.02 483.535 315.822ZM510.76 325H516.194L508.862 315.692L515.934 306.748H510.708L504.624 314.756V306.748H500.178V325H504.624V316.94L510.76 325Z" fill="#B18E4E"/>
<path d="M95.5545 408.484V401.828H99.0385C101.743 401.828 102.887 403.076 102.887 405.182C102.887 407.21 101.743 408.484 99.0385 408.484H95.5545ZM105.305 405.182C105.305 402.218 103.303 399.878 99.0385 399.878H93.1885V418H95.5545V410.434H99.0385C103.537 410.434 105.305 407.938 105.305 405.182ZM108.245 418H110.611V398.76H108.245V418ZM120.702 405.52C123.146 405.52 125.226 407.054 125.2 409.836H116.204C116.464 407.054 118.388 405.52 120.702 405.52ZM127.358 413.606H124.81C124.29 415.14 122.938 416.232 120.806 416.232C118.388 416.232 116.36 414.646 116.178 411.76H127.566C127.618 411.266 127.644 410.85 127.644 410.33C127.644 406.43 124.94 403.518 120.806 403.518C116.646 403.518 113.76 406.352 113.76 410.85C113.76 415.374 116.75 418.234 120.806 418.234C124.342 418.234 126.63 416.206 127.358 413.606ZM129.883 410.824C129.883 415.244 132.821 418.234 136.617 418.234C139.243 418.234 141.089 416.882 141.947 415.348V418H144.339V403.752H141.947V406.352C141.115 404.87 139.295 403.518 136.643 403.518C132.821 403.518 129.883 406.378 129.883 410.824ZM141.947 410.85C141.947 414.204 139.711 416.154 137.111 416.154C134.511 416.154 132.301 414.178 132.301 410.824C132.301 407.47 134.511 405.572 137.111 405.572C139.711 405.572 141.947 407.548 141.947 410.85ZM158.581 414.126C158.477 409.03 150.209 410.876 150.209 407.496C150.209 406.352 151.249 405.52 152.991 405.52C154.889 405.52 155.981 406.56 156.085 407.99H158.451C158.295 405.208 156.215 403.518 153.069 403.518C149.897 403.518 147.843 405.312 147.843 407.496C147.843 412.8 156.267 410.954 156.267 414.126C156.267 415.296 155.227 416.232 153.355 416.232C151.353 416.232 150.131 415.192 150.001 413.814H147.557C147.713 416.414 150.053 418.234 153.381 418.234C156.527 418.234 158.581 416.466 158.581 414.126ZM167.979 405.52C170.423 405.52 172.503 407.054 172.477 409.836H163.481C163.741 407.054 165.665 405.52 167.979 405.52ZM174.635 413.606H172.087C171.567 415.14 170.215 416.232 168.083 416.232C165.665 416.232 163.637 414.646 163.455 411.76H174.843C174.895 411.266 174.921 410.85 174.921 410.33C174.921 406.43 172.217 403.518 168.083 403.518C163.923 403.518 161.037 406.352 161.037 410.85C161.037 415.374 164.027 418.234 168.083 418.234C171.619 418.234 173.907 416.206 174.635 413.606ZM187.342 410.252C187.342 406.95 189.058 405.936 191.32 405.936H191.944V403.492C189.682 403.492 188.148 404.48 187.342 406.066V403.752H184.976V418H187.342V410.252ZM200.733 405.52C203.177 405.52 205.257 407.054 205.231 409.836H196.235C196.495 407.054 198.419 405.52 200.733 405.52ZM207.389 413.606H204.841C204.321 415.14 202.969 416.232 200.837 416.232C198.419 416.232 196.391 414.646 196.209 411.76H207.597C207.649 411.266 207.675 410.85 207.675 410.33C207.675 406.43 204.971 403.518 200.837 403.518C196.677 403.518 193.791 406.352 193.791 410.85C193.791 415.374 196.781 418.234 200.837 418.234C204.373 418.234 206.661 416.206 207.389 413.606ZM231.364 418H233.704V409.602C233.704 405.52 231.182 403.492 227.932 403.492C225.748 403.492 223.72 404.61 222.888 406.664C221.952 404.532 220.002 403.492 217.662 403.492C215.79 403.492 214.1 404.298 213.164 405.806V403.752H210.798V418H213.164V410.148C213.164 407.08 214.802 405.546 217.194 405.546C219.534 405.546 221.094 407.028 221.094 409.94V418H223.434V410.148C223.434 407.08 225.072 405.546 227.464 405.546C229.804 405.546 231.364 407.028 231.364 409.94V418ZM243.643 405.52C246.087 405.52 248.167 407.054 248.141 409.836H239.145C239.405 407.054 241.329 405.52 243.643 405.52ZM250.299 413.606H247.751C247.231 415.14 245.879 416.232 243.747 416.232C241.329 416.232 239.301 414.646 239.119 411.76H250.507C250.559 411.266 250.585 410.85 250.585 410.33C250.585 406.43 247.881 403.518 243.747 403.518C239.587 403.518 236.701 406.352 236.701 410.85C236.701 415.374 239.691 418.234 243.747 418.234C247.283 418.234 249.571 416.206 250.299 413.606ZM274.274 418H276.614V409.602C276.614 405.52 274.092 403.492 270.842 403.492C268.658 403.492 266.63 404.61 265.798 406.664C264.862 404.532 262.912 403.492 260.572 403.492C258.7 403.492 257.01 404.298 256.074 405.806V403.752H253.708V418H256.074V410.148C256.074 407.08 257.712 405.546 260.104 405.546C262.444 405.546 264.004 407.028 264.004 409.94V418H266.344V410.148C266.344 407.08 267.982 405.546 270.374 405.546C272.714 405.546 274.274 407.028 274.274 409.94V418ZM282.861 406.404V398.76H280.495V418H282.861V415.374C283.745 416.934 285.591 418.234 288.191 418.234C292.013 418.234 294.951 415.244 294.951 410.824C294.951 406.378 292.039 403.518 288.191 403.518C285.669 403.518 283.771 404.818 282.861 406.404ZM292.533 410.824C292.533 414.178 290.323 416.154 287.697 416.154C285.123 416.154 282.861 414.204 282.861 410.85C282.861 407.548 285.123 405.572 287.697 405.572C290.323 405.572 292.533 407.47 292.533 410.824ZM304.123 405.52C306.567 405.52 308.647 407.054 308.621 409.836H299.625C299.885 407.054 301.809 405.52 304.123 405.52ZM310.779 413.606H308.231C307.711 415.14 306.359 416.232 304.227 416.232C301.809 416.232 299.781 414.646 299.599 411.76H310.987C311.039 411.266 311.065 410.85 311.065 410.33C311.065 406.43 308.361 403.518 304.227 403.518C300.067 403.518 297.181 406.352 297.181 410.85C297.181 415.374 300.171 418.234 304.227 418.234C307.763 418.234 310.051 416.206 310.779 413.606ZM316.555 410.252C316.555 406.95 318.271 405.936 320.533 405.936H321.157V403.492C318.895 403.492 317.361 404.48 316.555 406.066V403.752H314.189V418H316.555V410.252ZM321.834 421.718H323.42L326.332 414.724H323.732L321.834 421.718ZM348.142 418H350.638L344.112 399.982H341.382L334.83 418H337.326L338.782 413.97H346.686L348.142 418ZM346.01 412.046H339.458L342.734 402.894L346.01 412.046ZM352.609 410.85C352.609 415.374 355.495 418.234 359.551 418.234C363.087 418.234 365.401 416.258 366.129 413.424H363.581C363.061 415.218 361.657 416.232 359.551 416.232C356.951 416.232 355.027 414.386 355.027 410.85C355.027 407.366 356.951 405.52 359.551 405.52C361.657 405.52 363.087 406.612 363.581 408.328H366.129C365.401 405.338 363.087 403.518 359.551 403.518C355.495 403.518 352.609 406.378 352.609 410.85ZM368.402 410.85C368.402 415.374 371.288 418.234 375.344 418.234C378.88 418.234 381.194 416.258 381.922 413.424H379.374C378.854 415.218 377.45 416.232 375.344 416.232C372.744 416.232 370.82 414.386 370.82 410.85C370.82 407.366 372.744 405.52 375.344 405.52C377.45 405.52 378.88 406.612 379.374 408.328H381.922C381.194 405.338 378.88 403.518 375.344 403.518C371.288 403.518 368.402 406.378 368.402 410.85ZM398.599 410.85C398.599 406.352 395.453 403.518 391.397 403.518C387.367 403.518 384.195 406.352 384.195 410.85C384.195 415.374 387.263 418.234 391.293 418.234C395.349 418.234 398.599 415.374 398.599 410.85ZM386.613 410.85C386.613 407.262 388.875 405.572 391.371 405.572C393.815 405.572 396.181 407.262 396.181 410.85C396.181 414.464 393.763 416.154 391.293 416.154C388.823 416.154 386.613 414.464 386.613 410.85ZM414.346 403.752H411.98V411.578C411.98 414.646 410.342 416.154 407.898 416.154C405.506 416.154 403.92 414.672 403.92 411.786V403.752H401.58V412.098C401.58 416.18 404.154 418.208 407.43 418.208C409.328 418.208 411.07 417.376 411.98 415.894V418H414.346V403.752ZM428.767 418H431.107V409.602C431.107 405.52 428.585 403.492 425.283 403.492C423.359 403.492 421.643 404.298 420.707 405.78V403.752H418.341V418H420.707V410.122C420.707 407.054 422.371 405.546 424.789 405.546C427.181 405.546 428.767 407.028 428.767 409.94V418ZM435.492 414.1C435.492 416.96 436.922 418 439.444 418H441.576V415.998H439.834C438.378 415.998 437.858 415.504 437.858 414.1V405.702H441.576V403.752H437.858V400.164H435.492V403.752H433.646V405.702H435.492V414.1ZM461.8 418H464.14V409.602C464.14 405.52 461.618 403.492 458.316 403.492C456.392 403.492 454.676 404.298 453.74 405.78V403.752H451.374V418H453.74V410.122C453.74 407.054 455.404 405.546 457.822 405.546C460.214 405.546 461.8 407.028 461.8 409.94V418ZM480.641 403.752H478.275V411.578C478.275 414.646 476.637 416.154 474.193 416.154C471.801 416.154 470.215 414.672 470.215 411.786V403.752H467.875V412.098C467.875 416.18 470.449 418.208 473.725 418.208C475.623 418.208 477.365 417.376 478.275 415.894V418H480.641V403.752ZM505.202 418H507.542V409.602C507.542 405.52 505.02 403.492 501.77 403.492C499.586 403.492 497.558 404.61 496.726 406.664C495.79 404.532 493.84 403.492 491.5 403.492C489.628 403.492 487.938 404.298 487.002 405.806V403.752H484.636V418H487.002V410.148C487.002 407.08 488.64 405.546 491.032 405.546C493.372 405.546 494.932 407.028 494.932 409.94V418H497.272V410.148C497.272 407.08 498.91 405.546 501.302 405.546C503.642 405.546 505.202 407.028 505.202 409.94V418ZM513.789 406.404V398.76H511.423V418H513.789V415.374C514.673 416.934 516.519 418.234 519.119 418.234C522.941 418.234 525.879 415.244 525.879 410.824C525.879 406.378 522.967 403.518 519.119 403.518C516.597 403.518 514.699 404.818 513.789 406.404ZM523.461 410.824C523.461 414.178 521.251 416.154 518.625 416.154C516.051 416.154 513.789 414.204 513.789 410.85C513.789 407.548 516.051 405.572 518.625 405.572C521.251 405.572 523.461 407.47 523.461 410.824ZM535.051 405.52C537.495 405.52 539.575 407.054 539.549 409.836H530.553C530.813 407.054 532.737 405.52 535.051 405.52ZM541.707 413.606H539.159C538.639 415.14 537.287 416.232 535.155 416.232C532.737 416.232 530.709 414.646 530.527 411.76H541.915C541.967 411.266 541.993 410.85 541.993 410.33C541.993 406.43 539.289 403.518 535.155 403.518C530.995 403.518 528.109 406.352 528.109 410.85C528.109 415.374 531.099 418.234 535.155 418.234C538.691 418.234 540.979 416.206 541.707 413.606ZM547.482 410.252C547.482 406.95 549.198 405.936 551.46 405.936H552.084V403.492C549.822 403.492 548.288 404.48 547.482 406.066V403.752H545.116V418H547.482V410.252ZM125.218 453.126C125.114 448.03 116.846 449.876 116.846 446.496C116.846 445.352 117.886 444.52 119.628 444.52C121.526 444.52 122.618 445.56 122.722 446.99H125.088C124.932 444.208 122.852 442.518 119.706 442.518C116.534 442.518 114.48 444.312 114.48 446.496C114.48 451.8 122.904 449.954 122.904 453.126C122.904 454.296 121.864 455.232 119.992 455.232C117.99 455.232 116.768 454.192 116.638 452.814H114.194C114.35 455.414 116.69 457.234 120.018 457.234C123.164 457.234 125.218 455.466 125.218 453.126ZM128.558 457H130.924V449.122C130.924 446.054 132.588 444.546 135.006 444.546C137.398 444.546 138.984 446.028 138.984 448.94V457H141.324V448.602C141.324 444.52 138.802 442.492 135.63 442.492C133.628 442.492 131.86 443.298 130.924 444.806V437.76H128.558V457ZM158.709 449.85C158.709 445.352 155.563 442.518 151.507 442.518C147.477 442.518 144.305 445.352 144.305 449.85C144.305 454.374 147.373 457.234 151.403 457.234C155.459 457.234 158.709 454.374 158.709 449.85ZM146.723 449.85C146.723 446.262 148.985 444.572 151.481 444.572C153.925 444.572 156.291 446.262 156.291 449.85C156.291 453.464 153.873 455.154 151.403 455.154C148.933 455.154 146.723 453.464 146.723 449.85ZM174.455 442.752H172.089V450.578C172.089 453.646 170.451 455.154 168.007 455.154C165.615 455.154 164.029 453.672 164.029 450.786V442.752H161.689V451.098C161.689 455.18 164.263 457.208 167.539 457.208C169.437 457.208 171.179 456.376 172.089 454.894V457H174.455V442.752ZM178.45 457H180.816V437.76H178.45V457ZM183.965 449.824C183.965 454.244 186.903 457.234 190.725 457.234C193.325 457.234 195.171 455.908 196.029 454.322V457H198.421V437.76H196.029V445.3C195.041 443.662 192.987 442.518 190.751 442.518C186.903 442.518 183.965 445.378 183.965 449.824ZM196.029 449.85C196.029 453.204 193.793 455.154 191.193 455.154C188.593 455.154 186.383 453.178 186.383 449.824C186.383 446.47 188.593 444.572 191.193 444.572C193.793 444.572 196.029 446.548 196.029 449.85ZM211.717 445.404V437.76H209.351V457H211.717V454.374C212.601 455.934 214.447 457.234 217.047 457.234C220.869 457.234 223.807 454.244 223.807 449.824C223.807 445.378 220.895 442.518 217.047 442.518C214.525 442.518 212.627 443.818 211.717 445.404ZM221.389 449.824C221.389 453.178 219.179 455.154 216.553 455.154C213.979 455.154 211.717 453.204 211.717 449.85C211.717 446.548 213.979 444.572 216.553 444.572C219.179 444.572 221.389 446.47 221.389 449.824ZM232.979 444.52C235.423 444.52 237.503 446.054 237.477 448.836H228.481C228.741 446.054 230.665 444.52 232.979 444.52ZM239.635 452.606H237.087C236.567 454.14 235.215 455.232 233.083 455.232C230.665 455.232 228.637 453.646 228.455 450.76H239.843C239.895 450.266 239.921 449.85 239.921 449.33C239.921 445.43 237.217 442.518 233.083 442.518C228.923 442.518 226.037 445.352 226.037 449.85C226.037 454.374 229.027 457.234 233.083 457.234C236.619 457.234 238.907 455.206 239.635 452.606ZM249.092 449.824C249.092 454.244 252.03 457.234 255.826 457.234C258.452 457.234 260.298 455.882 261.156 454.348V457H263.548V442.752H261.156V445.352C260.324 443.87 258.504 442.518 255.852 442.518C252.03 442.518 249.092 445.378 249.092 449.824ZM261.156 449.85C261.156 453.204 258.92 455.154 256.32 455.154C253.72 455.154 251.51 453.178 251.51 449.824C251.51 446.47 253.72 444.572 256.32 444.572C258.92 444.572 261.156 446.548 261.156 449.85ZM277.79 453.126C277.686 448.03 269.418 449.876 269.418 446.496C269.418 445.352 270.458 444.52 272.2 444.52C274.098 444.52 275.19 445.56 275.294 446.99H277.66C277.504 444.208 275.424 442.518 272.278 442.518C269.106 442.518 267.052 444.312 267.052 446.496C267.052 451.8 275.476 449.954 275.476 453.126C275.476 454.296 274.436 455.232 272.564 455.232C270.562 455.232 269.34 454.192 269.21 452.814H266.766C266.922 455.414 269.262 457.234 272.59 457.234C275.736 457.234 277.79 455.466 277.79 453.126ZM290.428 445.378V442.752H288.062V463.76H290.428V454.374C291.312 455.83 293.158 457.234 295.758 457.234C299.58 457.234 302.518 454.244 302.518 449.824C302.518 445.378 299.58 442.518 295.758 442.518C293.158 442.518 291.286 443.87 290.428 445.378ZM300.1 449.824C300.1 453.178 297.89 455.154 295.264 455.154C292.69 455.154 290.428 453.204 290.428 449.85C290.428 446.548 292.69 444.572 295.264 444.572C297.89 444.572 300.1 446.47 300.1 449.824ZM311.69 444.52C314.134 444.52 316.214 446.054 316.188 448.836H307.192C307.452 446.054 309.376 444.52 311.69 444.52ZM318.346 452.606H315.798C315.278 454.14 313.926 455.232 311.794 455.232C309.376 455.232 307.348 453.646 307.166 450.76H318.554C318.606 450.266 318.632 449.85 318.632 449.33C318.632 445.43 315.928 442.518 311.794 442.518C307.634 442.518 304.748 445.352 304.748 449.85C304.748 454.374 307.738 457.234 311.794 457.234C315.33 457.234 317.618 455.206 318.346 452.606ZM324.121 449.252C324.121 445.95 325.837 444.936 328.099 444.936H328.723V442.492C326.461 442.492 324.927 443.48 324.121 445.066V442.752H321.755V457H324.121V449.252ZM337.502 447.926C337.502 453.36 341.48 457.156 346.55 457.156C350.476 457.156 353.596 455.206 354.948 451.722H352.114C351.126 453.88 349.202 455.102 346.55 455.102C342.754 455.102 339.92 452.346 339.92 447.926C339.92 443.48 342.754 440.724 346.55 440.724C349.202 440.724 351.126 441.946 352.114 444.13H354.948C353.596 440.62 350.476 438.644 346.55 438.644C341.48 438.644 337.502 442.492 337.502 447.926ZM358.47 457H360.836V437.76H358.47V457ZM377.504 442.752H375.138V450.578C375.138 453.646 373.5 455.154 371.056 455.154C368.664 455.154 367.078 453.672 367.078 450.786V442.752H364.738V451.098C364.738 455.18 367.312 457.208 370.588 457.208C372.486 457.208 374.228 456.376 375.138 454.894V457H377.504V442.752ZM383.865 445.404V437.76H381.499V457H383.865V454.374C384.749 455.934 386.595 457.234 389.195 457.234C393.017 457.234 395.955 454.244 395.955 449.824C395.955 445.378 393.043 442.518 389.195 442.518C386.673 442.518 384.775 443.818 383.865 445.404ZM393.537 449.824C393.537 453.178 391.327 455.154 388.701 455.154C386.127 455.154 383.865 453.204 383.865 449.85C383.865 446.548 386.127 444.572 388.701 444.572C391.327 444.572 393.537 446.47 393.537 449.824ZM405.117 449.824C405.117 454.244 408.055 457.234 411.877 457.234C414.477 457.234 416.323 455.908 417.181 454.322V457H419.573V437.76H417.181V445.3C416.193 443.662 414.139 442.518 411.903 442.518C408.055 442.518 405.117 445.378 405.117 449.824ZM417.181 449.85C417.181 453.204 414.945 455.154 412.345 455.154C409.745 455.154 407.535 453.178 407.535 449.824C407.535 446.47 409.745 444.572 412.345 444.572C414.945 444.572 417.181 446.548 417.181 449.85ZM422.687 449.824C422.687 454.244 425.625 457.234 429.421 457.234C432.047 457.234 433.893 455.882 434.751 454.348V457H437.143V442.752H434.751V445.352C433.919 443.87 432.099 442.518 429.447 442.518C425.625 442.518 422.687 445.378 422.687 449.824ZM434.751 449.85C434.751 453.204 432.515 455.154 429.915 455.154C427.315 455.154 425.105 453.178 425.105 449.824C425.105 446.47 427.315 444.572 429.915 444.572C432.515 444.572 434.751 446.548 434.751 449.85ZM441.662 453.1C441.662 455.96 443.092 457 445.614 457H447.746V454.998H446.004C444.548 454.998 444.028 454.504 444.028 453.1V444.702H447.746V442.752H444.028V439.164H441.662V442.752H439.816V444.702H441.662V453.1ZM449.728 449.824C449.728 454.244 452.666 457.234 456.462 457.234C459.088 457.234 460.934 455.882 461.792 454.348V457H464.184V442.752H461.792V445.352C460.96 443.87 459.14 442.518 456.488 442.518C452.666 442.518 449.728 445.378 449.728 449.824ZM461.792 449.85C461.792 453.204 459.556 455.154 456.956 455.154C454.356 455.154 452.146 453.178 452.146 449.824C452.146 446.47 454.356 444.572 456.956 444.572C459.556 444.572 461.792 446.548 461.792 449.85ZM470.549 445.404V437.76H468.183V457H470.549V454.374C471.433 455.934 473.279 457.234 475.879 457.234C479.701 457.234 482.639 454.244 482.639 449.824C482.639 445.378 479.727 442.518 475.879 442.518C473.357 442.518 471.459 443.818 470.549 445.404ZM480.221 449.824C480.221 453.178 478.011 455.154 475.385 455.154C472.811 455.154 470.549 453.204 470.549 449.85C470.549 446.548 472.811 444.572 475.385 444.572C478.011 444.572 480.221 446.47 480.221 449.824ZM484.869 449.824C484.869 454.244 487.807 457.234 491.603 457.234C494.229 457.234 496.075 455.882 496.933 454.348V457H499.325V442.752H496.933V445.352C496.101 443.87 494.281 442.518 491.629 442.518C487.807 442.518 484.869 445.378 484.869 449.824ZM496.933 449.85C496.933 453.204 494.697 455.154 492.097 455.154C489.497 455.154 487.287 453.178 487.287 449.824C487.287 446.47 489.497 444.572 492.097 444.572C494.697 444.572 496.933 446.548 496.933 449.85ZM513.567 453.126C513.463 448.03 505.195 449.876 505.195 446.496C505.195 445.352 506.235 444.52 507.977 444.52C509.875 444.52 510.967 445.56 511.071 446.99H513.437C513.281 444.208 511.201 442.518 508.055 442.518C504.883 442.518 502.829 444.312 502.829 446.496C502.829 451.8 511.253 449.954 511.253 453.126C511.253 454.296 510.213 455.232 508.341 455.232C506.339 455.232 505.117 454.192 504.987 452.814H502.543C502.699 455.414 505.039 457.234 508.367 457.234C511.513 457.234 513.567 455.466 513.567 453.126ZM522.965 444.52C525.409 444.52 527.489 446.054 527.463 448.836H518.467C518.727 446.054 520.651 444.52 522.965 444.52ZM529.621 452.606H527.073C526.553 454.14 525.201 455.232 523.069 455.232C520.651 455.232 518.623 453.646 518.441 450.76H529.829C529.881 450.266 529.907 449.85 529.907 449.33C529.907 445.43 527.203 442.518 523.069 442.518C518.909 442.518 516.023 445.352 516.023 449.85C516.023 454.374 519.013 457.234 523.069 457.234C526.605 457.234 528.893 455.206 529.621 452.606Z" fill="white"/>
<path d="M211.032 501.434V501.018C207.548 497.404 205.572 492.23 205.572 486.952C205.572 481.726 207.548 476.344 211.266 472.678V472.262H206.898C203.284 475.564 201.308 481.076 201.308 486.952C201.308 492.828 203.284 498.21 206.638 501.434H211.032ZM224.229 477.748H213.049V496H224.229V492.438H217.495V488.434H223.449V485.002H217.495V481.31H224.229V477.748ZM235.695 496H240.687L235.695 488.798L240.557 481.492H235.747L233.407 485.496L230.625 481.492H225.633L230.547 488.59L225.763 496H230.573L232.913 491.97L235.695 496ZM241.516 488.72C241.516 493.296 244.35 496.208 247.886 496.208C250.044 496.208 251.578 495.22 252.384 493.946V496H256.83V481.492H252.384V483.546C251.604 482.272 250.07 481.284 247.912 481.284C244.35 481.284 241.516 484.144 241.516 488.72ZM252.384 488.746C252.384 491.06 250.902 492.334 249.212 492.334C247.548 492.334 246.04 491.034 246.04 488.72C246.04 486.406 247.548 485.158 249.212 485.158C250.902 485.158 252.384 486.432 252.384 488.746ZM280.041 496H284.461V487.524C284.461 483.624 282.147 481.336 278.559 481.336C276.453 481.336 274.633 482.506 273.671 484.04C272.683 482.298 270.915 481.336 268.731 481.336C266.833 481.336 265.351 482.142 264.493 483.312V481.492H260.047V496H264.493V488.122C264.493 486.224 265.585 485.184 267.275 485.184C268.965 485.184 270.057 486.224 270.057 488.122V496H274.477V488.122C274.477 486.224 275.569 485.184 277.259 485.184C278.949 485.184 280.041 486.224 280.041 488.122V496ZM292.016 483.546V481.492H287.57V502.916H292.016V493.972C292.822 495.194 294.356 496.208 296.488 496.208C300.05 496.208 302.884 493.296 302.884 488.72C302.884 484.144 300.05 481.284 296.488 481.284C294.356 481.284 292.822 482.272 292.016 483.546ZM298.36 488.72C298.36 491.034 296.852 492.334 295.162 492.334C293.498 492.334 291.99 491.06 291.99 488.746C291.99 486.432 293.498 485.158 295.162 485.158C296.852 485.158 298.36 486.406 298.36 488.72ZM305.216 496H309.662V476.76H305.216V496ZM319.28 484.846C320.762 484.846 322.01 485.756 322.01 487.342H316.446C316.706 485.73 317.824 484.846 319.28 484.846ZM326.222 491.19H321.49C321.126 491.97 320.424 492.594 319.176 492.594C317.746 492.594 316.576 491.71 316.42 489.812H326.482C326.534 489.37 326.56 488.928 326.56 488.512C326.56 484.092 323.57 481.284 319.332 481.284C315.016 481.284 312 484.144 312 488.746C312 493.348 315.068 496.208 319.332 496.208C322.946 496.208 325.52 494.024 326.222 491.19ZM333.612 493.816C333.612 492.438 332.546 491.372 330.986 491.372C329.4 491.372 328.334 492.438 328.334 493.816C328.334 495.142 329.4 496.208 330.986 496.208C332.546 496.208 333.612 495.142 333.612 493.816ZM333.612 483.234C333.612 481.856 332.546 480.79 330.986 480.79C329.4 480.79 328.334 481.856 328.334 483.234C328.334 484.56 329.4 485.626 330.986 485.626C332.546 485.626 333.612 484.56 333.612 483.234ZM341.804 496H346.25V481.492H341.804V496ZM344.04 479.984C345.6 479.984 346.666 478.918 346.666 477.592C346.666 476.24 345.6 475.174 344.04 475.174C342.454 475.174 341.388 476.24 341.388 477.592C341.388 478.918 342.454 479.984 344.04 479.984ZM354.178 493.816C354.178 492.438 353.112 491.372 351.552 491.372C349.966 491.372 348.9 492.438 348.9 493.816C348.9 495.142 349.966 496.208 351.552 496.208C353.112 496.208 354.178 495.142 354.178 493.816ZM363.206 484.846C364.688 484.846 365.936 485.756 365.936 487.342H360.372C360.632 485.73 361.75 484.846 363.206 484.846ZM370.148 491.19H365.416C365.052 491.97 364.35 492.594 363.102 492.594C361.672 492.594 360.502 491.71 360.346 489.812H370.408C370.46 489.37 370.486 488.928 370.486 488.512C370.486 484.092 367.496 481.284 363.258 481.284C358.942 481.284 355.926 484.144 355.926 488.746C355.926 493.348 358.994 496.208 363.258 496.208C366.872 496.208 369.446 494.024 370.148 491.19ZM390.925 477.748H378.029V481.388H385.829L378.029 492.62V496H390.925V492.36H383.073L390.925 481.128V477.748ZM406.414 477.748H393.518V481.388H401.318L393.518 492.62V496H406.414V492.36H398.562L406.414 481.128V477.748ZM409.058 488.72H420.498V485.028H409.058V488.72ZM426.064 496H430.692V477.02H423.49V481.154H426.064V496ZM432.979 501.434V501.018C436.463 497.404 438.439 492.23 438.439 486.952C438.439 481.726 436.463 476.344 432.745 472.678V472.262H437.113C440.727 475.564 442.703 481.076 442.703 486.952C442.703 492.828 440.727 498.21 437.373 501.434H432.979Z" fill="#B18E4E"/>
</svg>
