<svg width="59" height="59" viewBox="0 0 59 59" fill="none" xmlns="http://www.w3.org/2000/svg">
<rect width="59" height="59" rx="4.25" fill="#BFA465"/>
<path d="M22.2562 14.75C17.1438 14.75 12.8336 18.1868 11.4724 22.8838H14.1081C15.3732 19.5987 18.5402 17.2621 22.2557 17.2621C27.084 17.2621 31.0002 21.1938 31.0002 26.0431C31.0002 27.4577 30.6565 28.7896 30.0672 29.9731L31.7258 32.1133C32.8475 30.3582 33.5002 28.2804 33.5002 26.0431C33.5013 19.8045 28.4677 14.75 22.2562 14.75Z" fill="#272727"/>
<path d="M26.9944 33.8007C25.599 34.7553 23.9135 35.3125 22.0966 35.3125C19.6463 35.3125 17.4377 34.2763 15.8525 32.6316H20.096V30.2266H14.1951H11.6648H11.4993C13.032 34.6262 17.1905 37.8241 22.096 37.8241C24.4983 37.8241 26.7196 37.0604 28.5481 35.7699L26.9944 33.8007Z" fill="#272727"/>
<path d="M37.2691 37.8237C42.3838 37.8237 46.6945 34.3864 48.0579 29.6883H45.4189C44.1548 32.9756 40.9878 35.3122 37.2691 35.3122C32.4397 35.3122 28.5262 31.3794 28.5262 26.5312C28.5262 25.116 28.8705 23.7841 29.4597 22.6006L27.799 20.4609C26.6812 22.2149 26.0273 24.2961 26.0273 26.5318C26.0268 32.7676 31.0625 37.8237 37.2691 37.8237Z" fill="#272727"/>
<path d="M32.3689 19.261C33.7654 18.3065 35.4543 17.7509 37.269 17.7509C39.7204 17.7509 41.9257 18.7838 43.5147 20.4296H39.269V22.8336H45.1738H47.703H47.8668C46.3324 18.4356 42.1723 15.2383 37.269 15.2383C34.8678 15.2383 32.6476 15.9991 30.8169 17.2897L32.3689 19.261Z" fill="#272727"/>
<path d="M13.3205 43.376V42.7724H14.7313V44.2097C14.5939 44.3565 14.3948 44.4856 14.1332 44.5976C13.8728 44.709 13.6085 44.7648 13.3404 44.7648C13.0005 44.7648 12.7037 44.6859 12.451 44.5281C12.1983 44.3703 12.0079 44.1441 11.881 43.8511C11.7541 43.5576 11.6907 43.2381 11.6907 42.8927C11.6907 42.5181 11.7613 42.1854 11.9031 41.8941C12.0449 41.6027 12.2529 41.3798 12.5255 41.2242C12.734 41.1051 12.9928 41.0449 13.3034 41.0449C13.7067 41.0449 14.0218 41.1376 14.2486 41.3236C14.4753 41.5095 14.621 41.766 14.6861 42.0938L14.0295 42.2295C13.9837 42.0541 13.8982 41.9161 13.7724 41.8157C13.6472 41.7147 13.4899 41.6634 13.3018 41.6634C13.0171 41.6634 12.7897 41.7644 12.6215 41.9658C12.4532 42.1672 12.3693 42.4662 12.3693 42.8635C12.3693 43.2905 12.4548 43.6116 12.6275 43.8251C12.7991 44.0392 13.0248 44.1457 13.3034 44.1457C13.4408 44.1457 13.5793 44.1154 13.7178 44.0552C13.8563 43.9951 13.9754 43.9223 14.0748 43.8362V43.3755H13.3205V43.376Z" fill="#272727"/>
<path d="M15.3521 41.1133H16.0087V43.0587C16.0087 43.3677 16.0164 43.568 16.0324 43.659C16.0606 43.8063 16.1268 43.9239 16.2316 44.0132C16.3364 44.1026 16.4799 44.1468 16.6614 44.1468C16.8457 44.1468 16.9847 44.1048 17.0785 44.0204C17.1723 43.936 17.2286 43.8328 17.2479 43.7103C17.2667 43.5878 17.276 43.3843 17.276 43.1007V41.1133H17.9326V42.9991C17.9326 43.4306 17.915 43.7346 17.8796 43.9128C17.8443 44.091 17.7792 44.2411 17.6838 44.3636C17.5889 44.4861 17.462 44.5837 17.3031 44.6566C17.1442 44.7294 16.9367 44.7658 16.6807 44.7658C16.3717 44.7658 16.1372 44.7261 15.9772 44.6466C15.8178 44.5672 15.6914 44.4651 15.5987 44.3382C15.5061 44.2119 15.4448 44.0789 15.4156 43.9399C15.3725 43.7346 15.3516 43.4306 15.3516 43.0289V41.1133H15.3521Z" fill="#272727"/>
<path d="M18.6467 44.6989V41.1445H19.3033V44.0953H20.9409V44.6989H18.6467V44.6989Z" fill="#272727"/>
<path d="M21.2388 43.5278L21.8804 43.4599C21.9185 43.696 21.9969 43.8698 22.1149 43.9807C22.2325 44.0916 22.3914 44.1468 22.5911 44.1468C22.803 44.1468 22.963 44.0977 23.0695 43.999C23.177 43.9002 23.2306 43.7849 23.2306 43.653C23.2306 43.5686 23.2079 43.4963 23.1627 43.4367C23.1175 43.3771 23.0386 43.3253 22.9265 43.2811C22.8499 43.2519 22.6744 43.1995 22.4002 43.1239C22.0476 43.0279 21.8004 42.9093 21.6586 42.7686C21.4589 42.5716 21.3591 42.3305 21.3591 42.0463C21.3591 41.8632 21.4054 41.6927 21.4997 41.5338C21.5935 41.3743 21.7293 41.2529 21.9064 41.1702C22.0835 41.0869 22.297 41.0449 22.5475 41.0449C22.9563 41.0449 23.2642 41.1442 23.4711 41.3412C23.6775 41.5382 23.7862 41.8019 23.7966 42.1319L23.1401 42.1622C23.1119 41.9774 23.0518 41.8444 22.9586 41.7633C22.8659 41.6822 22.7257 41.6419 22.5403 41.6419C22.3483 41.6419 22.1983 41.6855 22.0901 41.7721C22.02 41.8278 21.9853 41.9023 21.9853 41.9956C21.9853 42.0805 22.0178 42.1539 22.0829 42.2141C22.1662 42.2908 22.3676 42.3708 22.6871 42.4546C23.0066 42.5379 23.2438 42.6246 23.3966 42.7139C23.55 42.8033 23.6703 42.9253 23.7564 43.0797C23.843 43.2348 23.8866 43.4262 23.8866 43.6536C23.8866 43.8599 23.8347 44.053 23.731 44.2334C23.6273 44.4139 23.4805 44.5479 23.2907 44.6351C23.1009 44.7223 22.8648 44.7664 22.5817 44.7664C22.1701 44.7664 21.854 44.661 21.6333 44.4503C21.4142 44.2384 21.2818 43.9311 21.2388 43.5278Z" fill="#272727"/>
<path d="M24.4561 44.698V41.1133H25.1126V42.5246H26.3954V41.1133H27.052V44.6974H26.3954V43.1277H25.1126V44.6974H24.4561V44.698Z" fill="#272727"/>
<path d="M30.6712 44.6974H29.9644L29.6808 43.8825H28.3754L28.1084 44.6974H27.4038L28.6563 41.1133H29.3504L30.6712 44.6974ZM29.4624 43.2789L29.0077 41.9508L28.573 43.2789H29.4624Z" fill="#272727"/>
<path d="M31.0312 44.698V41.1133H31.6713L33.001 43.5029V41.1133H33.6123V44.6974H32.9519L31.6426 42.3591V44.6974H31.0312V44.698Z" fill="#272727"/>
<path d="M37.6582 43.3766L38.2993 43.5956C38.2016 43.989 38.0389 44.2809 37.8115 44.4712C37.5842 44.6621 37.2957 44.7576 36.9459 44.7576C36.5133 44.7576 36.158 44.5954 35.8793 44.2688C35.6007 43.9438 35.4617 43.4985 35.4617 42.9335C35.4617 42.3354 35.6018 41.8714 35.8821 41.5409C36.1624 41.2099 36.5304 41.0449 36.9872 41.0449C37.3856 41.0449 37.7089 41.1746 37.9583 41.4333C38.1062 41.5867 38.2176 41.8069 38.2921 42.0938L37.6433 42.2676C37.6046 42.0811 37.5241 41.9338 37.4016 41.8262C37.2791 41.7175 37.1307 41.664 36.9558 41.664C36.7136 41.664 36.5177 41.76 36.3671 41.9509C36.2165 42.1418 36.1414 42.4519 36.1414 42.8795C36.1414 43.3335 36.2154 43.6569 36.3632 43.85C36.5111 44.0425 36.7025 44.1391 36.9392 44.1391C37.113 44.1391 37.2631 44.0779 37.3889 43.9554C37.5136 43.8323 37.603 43.6398 37.6582 43.3766Z" fill="#272727"/>
<path d="M38.8774 44.6989V41.1445H39.534V44.0953H41.1716V44.6989H38.8774V44.6989Z" fill="#272727"/>
<path d="M41.6504 41.1133H42.307V43.0587C42.307 43.3677 42.3147 43.568 42.3312 43.659C42.3594 43.8063 42.4256 43.9239 42.5304 44.0132C42.6353 44.1026 42.7782 44.1468 42.9597 44.1468C43.1445 44.1468 43.2836 44.1048 43.3773 44.0204C43.4706 43.936 43.5274 43.8328 43.5462 43.7103C43.5655 43.5878 43.5749 43.3843 43.5749 43.1007V41.1133H44.2314V42.9991C44.2314 43.4306 44.2138 43.7346 44.1779 43.9128C44.1426 44.091 44.0775 44.2411 43.9826 44.3636C43.8877 44.4861 43.7608 44.5837 43.6019 44.6566C43.443 44.7294 43.2355 44.7658 42.9795 44.7658C42.67 44.7658 42.4355 44.7261 42.2761 44.6466C42.1161 44.5672 41.9903 44.4651 41.8976 44.3382C41.8049 44.2119 41.7436 44.0789 41.7144 43.9399C41.6714 43.7346 41.6504 43.4306 41.6504 43.0289V41.1133Z" fill="#272727"/>
<path d="M44.9377 41.1133H46.2349C46.4915 41.1133 46.6829 41.1249 46.8087 41.1491C46.9351 41.1723 47.0476 41.2225 47.1475 41.2981C47.2473 41.3737 47.3301 41.4741 47.3963 41.5994C47.4631 41.7252 47.4962 41.8653 47.4962 42.0215C47.4962 42.1903 47.4553 42.3453 47.3726 42.4866C47.2904 42.6278 47.1789 42.7338 47.0377 42.8044C47.2358 42.8678 47.388 42.9754 47.4945 43.1271C47.601 43.2794 47.6545 43.4587 47.6545 43.6645C47.6545 43.8268 47.6203 43.9845 47.5519 44.1374C47.4829 44.2902 47.3897 44.4127 47.2711 44.5043C47.1519 44.5959 47.0057 44.6522 46.8319 44.6731C46.7232 44.6864 46.46 44.6941 46.0423 44.698H44.9383V41.1133H44.9377ZM45.5943 41.7169V42.5467H46.0214C46.2757 42.5467 46.4335 42.5428 46.4953 42.5346C46.6068 42.5197 46.6945 42.4766 46.7585 42.406C46.8225 42.3348 46.8539 42.2416 46.8539 42.1252C46.8539 42.0143 46.8269 41.9238 46.7717 41.8554C46.7166 41.7853 46.6349 41.7434 46.5262 41.729C46.4617 41.7213 46.2757 41.7169 45.969 41.7169H45.5943V41.7169ZM45.5943 43.1509V44.0943H46.199C46.4346 44.0943 46.5836 44.0872 46.6465 44.0723C46.7436 44.053 46.8225 44.0061 46.8837 43.9316C46.9444 43.8571 46.9753 43.7572 46.9753 43.6314C46.9753 43.5255 46.9516 43.4361 46.9047 43.3622C46.8584 43.2883 46.7894 43.2347 46.7011 43.2005C46.6117 43.1674 46.4192 43.1498 46.1218 43.1498H45.5943V43.1509Z" fill="#272727"/>
</svg>
