<svg width="138" height="88" viewBox="0 0 138 88" fill="none" xmlns="http://www.w3.org/2000/svg">
<g clip-path="url(#clip0)">
<path d="M7.04 0.000976562H130.24C134.128 0.000976562 137.28 3.15296 137.28 7.04098V80.961C137.28 84.8492 134.128 88.001 130.24 88.001H7.04C3.15198 88.001 0 84.8492 0 80.961V7.04098C0 3.15296 3.15198 0.000976562 7.04 0.000976562V0.000976562Z" fill="#2557D6"/>
<path d="M0.0438487 41.4814H6.63346L8.11926 38.0477H11.4457L12.9276 41.4814H25.8931V38.8564L27.0505 41.4929H33.7813L34.9387 38.8173V41.4816H67.1607L67.1458 35.845H67.7692C68.2055 35.8597 68.3331 35.8982 68.3331 36.5888V41.4816H84.9983V40.1695C86.3428 40.8595 88.4335 41.4816 91.1844 41.4816H98.1955L99.6959 38.0479H103.022L104.49 41.4816H118V38.22L120.046 41.4816H130.873V19.9199H120.158V22.4662L118.658 19.9199H107.663V22.4662L106.286 19.9199H91.4348C88.9492 19.9199 86.764 20.2523 84.9987 21.1788V19.9199H74.7504V21.1788C73.627 20.2238 72.0965 19.9199 70.3944 19.9199H32.9522L30.4399 25.4887L27.8599 19.9199H16.0671V22.4662L14.7714 19.9199H4.71383L0.0429688 30.1712V41.4811H0.0434967L0.0438487 41.4814ZM41.6397 38.3715H37.686L37.6714 26.2638L32.079 38.3713H28.6928L23.0858 26.253V38.3713H15.2414L13.7595 34.9232H5.72918L4.2323 38.3713H0.0433208L6.94974 22.912H12.6801L19.2395 37.5489V22.912H25.5343L30.5816 33.3993L35.2182 22.912H41.6395L41.6397 38.3715V38.3715ZM12.4413 31.7147L9.80164 25.5517L7.1766 31.7147H12.4413ZM57.3741 38.3712H44.4904V22.9119H57.3741V26.1311H48.3472V28.9177H57.1578V32.0866H48.3471V35.174H57.3739L57.3741 38.3712ZM75.5303 27.0755C75.5303 29.5402 73.8134 30.8137 72.813 31.196C73.6567 31.5037 74.3778 32.0475 74.7208 32.4979C75.2654 33.2668 75.3594 33.9536 75.3594 35.3343V38.3712H71.4691L71.4544 36.4216C71.4544 35.4915 71.5474 34.1537 70.8458 33.4099C70.2823 32.8661 69.4232 32.7481 68.0346 32.7481H63.8945V38.3713H60.0377V22.9119H68.9083C70.8793 22.9119 72.3316 22.9617 73.5784 23.6523C74.7986 24.3429 75.5303 25.351 75.5303 27.0755V27.0755ZM70.6552 29.3709C70.1249 29.6792 69.4984 29.6894 68.7472 29.6894H64.0621V26.2557H68.8109C69.4829 26.2557 70.1844 26.2846 70.6401 26.5345C71.1403 26.7598 71.4499 27.239 71.4499 27.9011C71.4499 28.577 71.1552 29.1206 70.6552 29.3709V29.3709ZM81.7158 38.3712H77.7808V22.9119H81.7158V38.3712ZM127.398 38.3712H121.933L114.623 26.768V38.3712H106.768L105.268 34.923H97.2559L95.8002 38.3712H91.2861C89.4119 38.3712 87.0378 37.9739 85.6941 36.6613C84.3387 35.3487 83.6335 33.5708 83.6335 30.7595C83.6335 28.4668 84.055 26.3708 85.7124 24.7145C86.9593 23.4807 88.9121 22.9119 91.5697 22.9119H95.3035V26.2244H91.6478C90.2403 26.2244 89.4453 26.425 88.6801 27.1401C88.0227 27.7911 87.5716 29.0215 87.5716 30.642C87.5716 32.2981 87.915 33.4925 88.6317 34.2725C89.2253 34.8843 90.3047 35.0698 91.3196 35.0698H93.0517L98.4873 22.9124H104.266L110.796 37.5346V22.9126H116.669L123.448 33.6792V22.9126H127.398V38.3712V38.3712ZM103.955 31.7149L101.286 25.5519L98.6318 31.7149H103.955ZM137.226 63.0569C136.289 64.3694 134.464 65.0348 131.993 65.0348H124.544V61.719H131.962C132.698 61.719 133.213 61.6262 133.523 61.3362C133.816 61.0768 133.982 60.7107 133.979 60.3279C133.979 59.8771 133.792 59.5195 133.508 59.3051C133.228 59.069 132.821 58.9619 132.149 58.9619C128.528 58.844 124.01 59.0689 124.01 54.1758C124.01 51.9332 125.496 49.5723 129.543 49.5723H137.225V46.496H130.087C127.934 46.496 126.369 46.9906 125.261 47.7587V46.4959H114.703C113.015 46.4959 111.033 46.897 110.096 47.7587V46.4959H91.2426V47.7587C89.7424 46.7217 87.2108 46.4959 86.042 46.4959H73.6066V47.7587C72.4194 46.6573 69.78 46.4959 68.1706 46.4959H54.2531L51.0685 49.7983L48.0855 46.4959H27.2946V68.0717H47.693L50.9747 64.7168L54.0662 68.0717L66.64 68.0824V63.007H67.8757C69.544 63.0316 71.5118 62.9668 73.2477 62.248V68.071H83.619V62.4474H84.1192C84.7578 62.4474 84.8206 62.4728 84.8206 63.0837V68.0703H116.326C118.326 68.0703 120.417 67.58 121.575 66.6896V68.0703H131.569C133.648 68.0703 135.679 67.791 137.224 67.0761L137.225 63.0562L137.226 63.0569ZM74.7567 54.7577C74.7567 59.0531 71.4119 59.94 68.0407 59.94H63.2284V65.1265H55.7324L50.9832 60.0074L46.0478 65.1265H30.7706V49.6633H46.2824L51.0275 54.732L55.9335 49.6633H68.2572C71.3177 49.6633 74.7567 50.4752 74.7567 54.7577V54.7577ZM44.094 61.874H34.6115V58.7976H43.0788V55.6426H34.6115V52.8312H44.2807L48.4993 57.3375L44.094 61.874ZM59.3726 63.6446L53.4512 57.3457L59.3726 51.2473V63.6446V63.6446ZM68.1298 56.769H63.1458V52.8312H68.1745C69.567 52.8312 70.5336 53.375 70.5336 54.727C70.5336 56.0645 69.6117 56.769 68.1298 56.769V56.769ZM94.2412 49.6633H107.113V52.8613H98.082V55.6725H106.893V58.8275H98.082V61.904L107.113 61.918V65.1265H94.2408L94.2412 49.6633V49.6633ZM89.2922 57.9404C90.1507 58.244 90.8525 58.7881 91.1814 59.2384C91.7261 59.9937 91.8048 60.6982 91.8205 62.061V65.1265H87.9481V63.1919C87.9481 62.2616 88.0416 60.8842 87.3247 60.1651C86.7613 59.6112 85.9021 59.4789 84.4953 59.4789H80.3734V65.1267H76.4979V49.6635H85.4024C87.3548 49.6635 88.7769 49.7462 90.0429 50.3932C91.2599 51.0979 92.0257 52.0629 92.0257 53.8271C92.0255 56.295 90.3072 57.5545 89.2922 57.9404V57.9404ZM87.1125 55.9856C86.5964 56.279 85.9586 56.3043 85.2085 56.3043H80.523V52.8315H85.2718C85.9586 52.8315 86.6459 52.8456 87.1125 53.1108C87.6123 53.3613 87.9111 53.8405 87.9111 54.5018C87.9111 55.1632 87.6121 55.6961 87.1125 55.9856V55.9856ZM121.929 56.9707C122.68 57.715 123.082 58.6552 123.082 60.2466C123.082 63.573 120.914 65.1258 117.023 65.1258H109.512V61.81H116.994C117.725 61.81 118.244 61.7176 118.569 61.4272C118.834 61.1882 119.024 60.8406 119.024 60.4189C119.024 59.9681 118.819 59.6107 118.554 59.3961C118.259 59.1603 117.852 59.0531 117.18 59.0531C113.574 58.9352 109.057 59.1603 109.057 54.2673C109.057 52.0244 110.527 49.6635 114.571 49.6635H122.303V52.9547H115.228C114.527 52.9547 114.071 52.9802 113.683 53.234C113.26 53.4843 113.104 53.856 113.104 54.3462C113.104 54.9294 113.462 55.3265 113.948 55.4983C114.354 55.6338 114.792 55.6734 115.448 55.6734L117.525 55.7272C119.618 55.7758 121.055 56.1229 121.929 56.9707V56.9707ZM137.233 52.8312H130.204C129.502 52.8312 129.035 52.8565 128.643 53.1105C128.236 53.3609 128.08 53.7325 128.08 54.2231C128.08 54.8064 128.423 55.2031 128.923 55.3749C129.33 55.5106 129.767 55.5502 130.409 55.5502L132.5 55.6037C134.609 55.6537 136.016 56.0011 136.875 56.8484C137.032 56.9663 137.125 57.0986 137.233 57.2312V52.8312H137.233V52.8312Z" fill="white"/>
</g>
<defs>
<clipPath id="clip0">
<rect width="137.28" height="88" fill="white"/>
</clipPath>
</defs>
</svg>
