<svg width="10" height="11" viewBox="0 0 10 11" fill="none" xmlns="http://www.w3.org/2000/svg">
<path d="M1 2.79999H1.9H9.1" stroke="#B18E4E" stroke-linecap="round" stroke-linejoin="round"/>
<path d="M3.25039 2.8V1.9C3.25039 1.66131 3.34521 1.43239 3.51399 1.2636C3.68278 1.09482 3.9117 1 4.15039 1H5.95039C6.18909 1 6.418 1.09482 6.58679 1.2636C6.75557 1.43239 6.85039 1.66131 6.85039 1.9V2.8M8.20039 2.8V9.1C8.20039 9.33869 8.10557 9.56761 7.93679 9.7364C7.768 9.90518 7.53909 10 7.30039 10H2.80039C2.5617 10 2.33278 9.90518 2.16399 9.7364C1.99521 9.56761 1.90039 9.33869 1.90039 9.1V2.8H8.20039Z" stroke="#B18E4E" stroke-linecap="round" stroke-linejoin="round"/>
<path d="M4.15039 5.04999V7.74999" stroke="#B18E4E" stroke-linecap="round" stroke-linejoin="round"/>
<path d="M5.94922 5.04999V7.74999" stroke="#B18E4E" stroke-linecap="round" stroke-linejoin="round"/>
</svg>
