<svg width="17" height="17" viewBox="0 0 17 17" fill="none" xmlns="http://www.w3.org/2000/svg">
<path d="M7.70924 2.58057H2.49094C2.09552 2.58057 1.71629 2.73765 1.43669 3.01725C1.15708 3.29686 1 3.67609 1 4.07151V14.5081C1 14.9035 1.15708 15.2828 1.43669 15.5624C1.71629 15.842 2.09552 15.999 2.49094 15.999H12.9275C13.323 15.999 13.7022 15.842 13.9818 15.5624C14.2614 15.2828 14.4185 14.9035 14.4185 14.5081V9.28981" stroke="white" stroke-linecap="round" stroke-linejoin="round"/>
<path d="M13.3001 1.46318C13.5967 1.16661 13.9989 1 14.4183 1C14.8377 1 15.2399 1.16661 15.5365 1.46318C15.8331 1.75974 15.9997 2.16197 15.9997 2.58138C15.9997 3.00079 15.8331 3.40302 15.5365 3.69959L8.45454 10.7816L5.47266 11.527L6.21813 8.54515L13.3001 1.46318Z" stroke="white" stroke-linecap="round" stroke-linejoin="round"/>
</svg>
