<svg width="37" height="37" viewBox="0 0 37 37" fill="none" xmlns="http://www.w3.org/2000/svg">
<path d="M16.1875 26.5938H20.8125V34.6875H16.1875V26.5938Z" fill="#DBD3C2"/>
<path d="M33.5312 32.375H31.2188V9.25C31.2188 8.55625 30.7563 8.09375 30.0625 8.09375H28.9062V3.46875C28.9062 2.775 28.4438 2.3125 27.75 2.3125H9.25C8.55625 2.3125 8.09375 2.775 8.09375 3.46875V8.09375H6.9375C6.24375 8.09375 5.78125 8.55625 5.78125 9.25V32.375H3.46875C2.775 32.375 2.3125 32.8375 2.3125 33.5312C2.3125 34.225 2.775 34.6875 3.46875 34.6875H13.875V25.4375C13.875 24.7437 14.3375 24.2812 15.0312 24.2812H21.9688C22.6625 24.2812 23.125 24.7437 23.125 25.4375V34.6875H33.5312C34.225 34.6875 34.6875 34.225 34.6875 33.5312C34.6875 32.8375 34.225 32.375 33.5312 32.375ZM25.4375 11.5625C26.1313 11.5625 26.5938 12.025 26.5938 12.7188V15.0312C26.5938 15.725 26.1313 16.1875 25.4375 16.1875C24.7437 16.1875 24.2812 15.725 24.2812 15.0312V12.7188C24.2812 12.025 24.7437 11.5625 25.4375 11.5625ZM11.5625 28.9062C11.5625 29.6 11.1 30.0625 10.4062 30.0625C9.7125 30.0625 9.25 29.6 9.25 28.9062V26.5938C9.25 25.9 9.7125 25.4375 10.4062 25.4375C11.1 25.4375 11.5625 25.9 11.5625 26.5938V28.9062ZM12.7188 21.9688C12.7188 22.6625 12.2563 23.125 11.5625 23.125C10.8687 23.125 10.4062 22.6625 10.4062 21.9688V19.6562C10.4062 18.9625 10.8687 18.5 11.5625 18.5C12.2563 18.5 12.7188 18.9625 12.7188 19.6562V21.9688ZM12.7188 15.0312C12.7188 15.725 12.2563 16.1875 11.5625 16.1875C10.8687 16.1875 10.4062 15.725 10.4062 15.0312V12.7188C10.4062 12.025 10.8687 11.5625 11.5625 11.5625C12.2563 11.5625 12.7188 12.025 12.7188 12.7188V15.0312ZM13.875 10.4062C13.1812 10.4062 12.7188 9.94375 12.7188 9.25V6.9375C12.7188 6.24375 13.1812 5.78125 13.875 5.78125C14.5688 5.78125 15.0312 6.24375 15.0312 6.9375V9.25C15.0312 9.94375 14.5688 10.4062 13.875 10.4062ZM17.3438 21.9688C17.3438 22.6625 16.8813 23.125 16.1875 23.125C15.4937 23.125 15.0312 22.6625 15.0312 21.9688V19.6562C15.0312 18.9625 15.4937 18.5 16.1875 18.5C16.8813 18.5 17.3438 18.9625 17.3438 19.6562V21.9688ZM17.3438 15.0312C17.3438 15.725 16.8813 16.1875 16.1875 16.1875C15.4937 16.1875 15.0312 15.725 15.0312 15.0312V12.7188C15.0312 12.025 15.4937 11.5625 16.1875 11.5625C16.8813 11.5625 17.3438 12.025 17.3438 12.7188V15.0312ZM18.5 10.4062C17.8062 10.4062 17.3438 9.94375 17.3438 9.25V6.9375C17.3438 6.24375 17.8062 5.78125 18.5 5.78125C19.1938 5.78125 19.6562 6.24375 19.6562 6.9375V9.25C19.6562 9.94375 19.1938 10.4062 18.5 10.4062ZM21.9688 21.9688C21.9688 22.6625 21.5063 23.125 20.8125 23.125C20.1187 23.125 19.6562 22.6625 19.6562 21.9688V19.6562C19.6562 18.9625 20.1187 18.5 20.8125 18.5C21.5063 18.5 21.9688 18.9625 21.9688 19.6562V21.9688ZM21.9688 15.0312C21.9688 15.725 21.5063 16.1875 20.8125 16.1875C20.1187 16.1875 19.6562 15.725 19.6562 15.0312V12.7188C19.6562 12.025 20.1187 11.5625 20.8125 11.5625C21.5063 11.5625 21.9688 12.025 21.9688 12.7188V15.0312ZM23.125 10.4062C22.4312 10.4062 21.9688 9.94375 21.9688 9.25V6.9375C21.9688 6.24375 22.4312 5.78125 23.125 5.78125C23.8188 5.78125 24.2812 6.24375 24.2812 6.9375V9.25C24.2812 9.94375 23.8188 10.4062 23.125 10.4062ZM24.2812 21.9688V19.6562C24.2812 18.9625 24.7437 18.5 25.4375 18.5C26.1313 18.5 26.5938 18.9625 26.5938 19.6562V21.9688C26.5938 22.6625 26.1313 23.125 25.4375 23.125C24.7437 23.125 24.2812 22.6625 24.2812 21.9688ZM27.75 28.9062C27.75 29.6 27.2875 30.0625 26.5938 30.0625C25.9 30.0625 25.4375 29.6 25.4375 28.9062V26.5938C25.4375 25.9 25.9 25.4375 26.5938 25.4375C27.2875 25.4375 27.75 25.9 27.75 26.5938V28.9062Z" fill="#DBD3C2"/>
</svg>
