<svg width="26" height="26" viewBox="0 0 26 26" fill="none" xmlns="http://www.w3.org/2000/svg">
<path fill-rule="evenodd" clip-rule="evenodd" d="M26 13C26 20.1797 20.1797 26 13 26C5.8203 26 0 20.1797 0 13C0 5.8203 5.8203 0 13 0C20.1797 0 26 5.8203 26 13ZM11.4706 10.7059H14.5294V21.4118H11.4706V10.7059ZM13 8.41176C13.8447 8.41176 14.5294 7.72702 14.5294 6.88235C14.5294 6.03768 13.8447 5.35294 13 5.35294C12.1553 5.35294 11.4706 6.03768 11.4706 6.88235C11.4706 7.72702 12.1553 8.41176 13 8.41176Z" fill="#999999"/>
</svg>
