<svg width="30" height="28" viewBox="0 0 30 28" fill="none" xmlns="http://www.w3.org/2000/svg">
<path d="M8.93592 5.10915C10.3468 5.10915 11.4905 3.96543 11.4905 2.55458C11.4905 1.14372 10.3468 0 8.93592 0C7.52507 0 6.38135 1.14372 6.38135 2.55458C6.38135 3.96543 7.52507 5.10915 8.93592 5.10915Z" fill="#999999"/>
<path d="M8.51323 5.84937C8.39309 5.84937 8.30237 5.95835 8.32417 6.0765L8.48157 6.9291C8.49837 7.02028 8.57792 7.08644 8.67063 7.08644H9.31172C9.40443 7.08644 9.48398 7.02028 9.50079 6.9291L9.65818 6.0765C9.67998 5.95835 9.58927 5.84937 9.46912 5.84937H8.51323Z" fill="#999999"/>
<path d="M29.3822 14.6099C28.6024 14.6099 23.3477 14.6099 22.4598 14.6099V13.1495H25.5452C25.9366 13.1495 26.254 12.8321 26.254 12.4407V6.63652C26.254 6.24506 25.9367 5.92774 25.5452 5.92774H16.5423C16.1509 5.92774 15.8335 6.24512 15.8335 6.63652V12.4407C15.8335 12.8322 16.1508 13.1495 16.5423 13.1495H19.5984V14.6099H15.2525V8.75768C15.2525 8.75563 15.2525 8.75357 15.2525 8.75151C15.2445 7.15124 13.9261 5.84937 12.3136 5.84937H10.732C10.6564 6.25534 10.2554 8.21905 9.46628 8.81937L9.59847 8.19144C9.60282 8.1707 9.603 8.14931 9.59888 8.12851L9.4436 7.398C9.42909 7.32409 9.36429 7.2708 9.28891 7.2708H8.69346C8.61814 7.2708 8.55334 7.32409 8.53883 7.398L8.38355 8.12851C8.37944 8.14931 8.37961 8.1707 8.38396 8.19144L8.51615 8.81937C7.72706 8.21899 7.32602 6.25534 7.25047 5.84937H5.65331C4.04081 5.84937 2.72249 7.1513 2.71444 8.75151V8.75768V13.4395C2.71444 13.9857 3.07006 14.4481 3.56211 14.6099C3.36834 14.6099 0.786272 14.6099 0.617831 14.6099C0.276602 14.6099 0 14.8865 0 15.2278V15.8382C0 16.1794 0.276602 16.456 0.617831 16.456H1.91836V27.3335H28.0816V16.456H29.3822C29.7234 16.456 30 16.1794 30 15.8382V15.2278C30 14.8865 29.7234 14.6099 29.3822 14.6099V14.6099ZM10.3149 14.6099H9.32075C9.8128 14.4481 10.1684 13.9857 10.1684 13.4395C10.1684 12.7588 9.61663 12.207 8.93593 12.207H5.17942C5.17942 9.13305 5.17942 11.8453 5.17942 8.76209C5.18171 8.51915 5.39827 8.31429 5.65331 8.31429H5.71911V11.6304H8.93593C9.93506 11.6304 10.745 12.4403 10.745 13.4395C10.7451 13.886 10.583 14.2944 10.3149 14.6099V14.6099ZM12.7876 14.6099H12.2479V8.31429H12.3137C12.5687 8.31429 12.7853 8.51915 12.7876 8.76209V14.6099ZM21.0437 10.4984C20.5137 10.4984 20.084 10.0687 20.084 9.53861C20.084 9.00855 20.5137 8.57884 21.0437 8.57884C21.5738 8.57884 22.0035 9.00855 22.0035 9.53861C22.0035 10.0687 21.5738 10.4984 21.0437 10.4984V10.4984Z" fill="#999999"/>
</svg>
