<svg width="25" height="27" viewBox="0 0 25 27" fill="none" xmlns="http://www.w3.org/2000/svg">
<path d="M10.7407 10.6582C11.3378 10.6525 11.9349 10.6563 12.5301 10.6563C12.7526 10.6563 12.7526 10.6563 12.7526 10.8768V24.7961C12.7526 24.9958 12.7526 24.9958 12.9503 24.9958H21.1212C21.319 24.9958 21.319 24.9958 21.319 24.7961V12.5122C21.319 8.40484 21.319 4.29562 21.3209 0.186388C21.3209 0.068493 21.3152 -0.00186395 21.1612 3.75869e-05C17.6852 0.00384067 14.211 0.00384067 10.7369 3.75869e-05C10.6095 3.75869e-05 10.5791 0.0418715 10.5791 0.161668C10.5829 3.60916 10.5829 7.05475 10.5791 10.5022C10.5791 10.6296 10.6209 10.6601 10.7407 10.6582ZM18.6283 23.0619C18.5884 23.0733 18.5447 23.0752 18.5028 23.0771C17.8905 23.0771 17.2763 23.0904 16.6621 23.0714C16.143 23.0562 15.7513 22.6055 15.7703 22.0826C15.7893 21.6034 16.2419 21.1661 16.723 21.1623H17.5692C17.5692 21.1642 17.5692 21.1642 17.5692 21.1642C17.8506 21.1642 18.132 21.1623 18.4134 21.1642C18.9116 21.168 19.2824 21.5141 19.3414 22.0256C19.3984 22.5143 19.098 22.9516 18.6283 23.0619ZM16.5956 13.1739C17.0386 13.115 17.4912 13.1302 17.94 13.1245C18.132 13.1207 18.3241 13.1359 18.5142 13.1625C18.9535 13.2252 19.349 13.6455 19.3357 14.1608C19.3205 14.7332 18.9687 15.0964 18.4096 15.1287L17.5673 15.1762C17.2364 15.1534 16.8979 15.161 16.5747 15.1002C16.0765 15.0051 15.7703 14.6096 15.7703 14.1361C15.7722 13.7101 16.1392 13.2367 16.5956 13.1739ZM15.7703 10.4319C15.7627 9.91847 16.0879 9.51154 16.6051 9.44879C16.9169 9.41076 17.2402 9.44308 17.5578 9.44308C17.8753 9.44308 18.1967 9.42027 18.5123 9.44689C19.0429 9.49443 19.3547 9.89375 19.3433 10.4642C19.3338 10.9339 18.9858 11.3028 18.4762 11.3218C17.8639 11.3465 17.2497 11.3522 16.6374 11.3199C16.1696 11.2952 15.776 10.854 15.7703 10.4319ZM16.5899 17.3972C16.8998 17.344 17.2231 17.3611 17.5406 17.3459L18.4952 17.3953C19.0257 17.4657 19.3338 17.865 19.33 18.3955C19.3262 18.9641 18.9326 19.3349 18.4686 19.352C17.862 19.3748 17.2516 19.3786 16.645 19.3463C16.2039 19.3254 15.7855 18.8405 15.7703 18.4145C15.7532 17.9316 16.0936 17.4828 16.5899 17.3972ZM18.3469 7.71649C17.5216 7.74501 16.6964 7.7393 15.8711 7.74311C15.2531 7.74691 14.6351 7.74691 14.0171 7.74311C13.749 7.74121 13.4789 7.74691 13.2165 7.71268C12.6575 7.63662 12.3342 7.243 12.3304 6.67634C12.3285 6.28273 12.4388 5.93474 12.7868 5.72177C12.9332 5.6324 13.1177 5.56584 13.2869 5.56204L13.8878 5.55444L15.6923 5.53162C16.2875 5.53162 16.8846 5.52591 17.4798 5.53352C17.8202 5.53922 18.1681 5.53352 18.5009 5.59056C19.0257 5.68184 19.4022 6.18384 19.3699 6.68205C19.3338 7.23349 18.9002 7.69747 18.3469 7.71649ZM13.0416 2.0537C13.1443 2.02708 13.2527 2.00806 13.3592 2.00806C14.9926 2.00616 16.626 2.00236 18.2613 2.00996C18.7044 2.01187 19.0524 2.21533 19.2425 2.62226C19.4308 3.02729 19.3813 3.42091 19.0904 3.76699C18.8869 4.00658 18.615 4.11307 18.3051 4.11307C17.4741 4.11687 16.6431 4.11497 15.8121 4.11497C14.9907 4.11497 14.1692 4.11687 13.3477 4.11497C12.8058 4.11307 12.4388 3.82403 12.3475 3.29541C12.2468 2.69832 12.4901 2.19822 13.0416 2.0537Z" fill="#999999"/>
<path d="M4.70525 25.0034C6.54024 24.9977 8.37713 24.9977 10.2121 25.0034C10.3566 25.0034 10.3928 24.9615 10.3928 24.8189C10.389 20.2058 10.389 15.5907 10.389 10.9757C10.389 10.7913 10.389 10.7913 10.2026 10.7913H4.71096C4.52651 10.7913 4.52651 10.7913 4.52651 10.9776V17.8916C4.52651 20.202 4.52651 22.5123 4.52271 24.8208C4.52271 24.9653 4.56454 25.0034 4.70525 25.0034ZM9.46671 16.5872C9.42678 16.7906 9.22902 16.9028 8.9609 16.9047C8.49502 16.9085 8.03105 16.9066 7.56707 16.9066C7.12591 16.9066 6.68476 16.9047 6.2436 16.9047C6.18275 16.9047 6.1219 16.9028 6.06105 16.8952C5.6237 16.8439 5.56665 16.5282 5.64271 16.2125C5.68835 16.0186 5.8747 15.8969 6.10669 15.895C6.59348 15.8931 7.08218 15.895 7.57087 15.895C8.03485 15.895 8.49882 15.8931 8.9647 15.895C9.47241 15.8969 9.53516 16.2392 9.46671 16.5872ZM9.48762 18.9603C9.50474 19.3292 9.25374 19.4927 8.99132 19.4965C8.51404 19.5022 8.03485 19.4984 7.55756 19.4984C7.09168 19.4984 6.62771 19.4965 6.16373 19.5003C5.72068 19.5022 5.53623 19.1371 5.64271 18.7682C5.69405 18.5933 5.8804 18.4621 6.08767 18.4602C6.88442 18.4488 7.68116 18.4412 8.47791 18.4374C8.64524 18.4354 8.81448 18.4526 8.98182 18.4583C9.29177 18.4659 9.47241 18.656 9.48762 18.9603ZM6.04964 13.1625C6.2512 13.1473 6.45277 13.1378 6.65243 13.1359C7.31417 13.134 7.9759 13.1359 8.63574 13.1397C8.78596 13.1416 8.93428 13.153 9.0845 13.1625C9.31459 13.1815 9.47812 13.3583 9.48382 13.5922C9.49523 14.0125 9.3374 14.1722 8.91906 14.1741H7.54045C7.05175 14.1741 6.56496 14.1779 6.07626 14.1722C5.79674 14.1684 5.6237 13.9744 5.60658 13.6626C5.59327 13.3964 5.77582 13.1853 6.04964 13.1625ZM6.10669 21.1946C6.59348 21.1908 7.08218 21.1927 7.56897 21.1927C8.03295 21.1927 8.49882 21.1908 8.9628 21.1927C9.44009 21.1946 9.55418 21.5197 9.4591 21.9115C9.41727 22.0845 9.28226 22.1739 9.11302 22.1986C8.98752 22.2176 8.86012 22.2252 8.73462 22.2252C7.94167 22.2271 7.15063 22.2271 6.35769 22.2252C6.23599 22.2252 6.11429 22.2157 5.9945 22.1986C5.7568 22.1663 5.59517 21.94 5.60658 21.6738C5.61799 21.3847 5.81005 21.1965 6.10669 21.1946Z" fill="#999999"/>
<path d="M23.9887 25.2468C23.8347 25.1974 23.6674 25.1669 23.5076 25.165C23.0665 25.1612 22.7018 25.1594 22.2606 25.1632C22.1351 25.1651 21.9332 25.1593 21.8077 25.1631C21.5357 25.1726 21.4197 25.3229 21.4673 25.591C21.4692 25.6005 21.473 25.6081 21.4749 25.6176C21.5357 25.9561 21.3817 26.1538 21.0375 26.1729C20.9862 26.1767 20.9349 26.1748 20.8835 26.1748C20.1704 26.1653 19.4574 26.1519 18.7443 26.1481C16.877 26.1367 15.0078 26.1253 13.1404 26.1196C11.3853 26.1139 9.6283 26.1158 7.87318 26.1139C7.82564 26.1139 7.78 26.112 7.73246 26.112C7.30652 26.1063 6.87867 26.093 6.45273 26.0949C5.89367 26.0968 5.33652 26.1196 4.77937 26.1139C4.47132 26.1101 4.3249 25.9066 4.37434 25.6024C4.37815 25.5739 4.38765 25.5473 4.38956 25.5187C4.41237 25.2658 4.25481 25.1841 4 25.186C3.2584 25.1936 1.83959 25.186 1.83959 25.186C1.46499 25.1898 1.20291 25.2715 1.066 25.6023C0.925285 25.9408 0.966784 26.382 1.22159 26.6635C1.45548 26.9221 1.75973 27 2.0982 27C5.66739 26.9981 9.23468 26.9981 12.8039 26.9981C16.3636 26.9981 19.9213 27 23.481 26.9943C23.6655 26.9943 23.8575 26.9658 24.0306 26.905C24.388 26.7795 24.6048 26.4353 24.5934 26.0626C24.5763 25.6747 24.3595 25.3666 23.9887 25.2468Z" fill="#999999"/>
</svg>
