<svg width="25" height="30" viewBox="0 0 25 30" fill="none" xmlns="http://www.w3.org/2000/svg">
<path d="M12.5 12.9231C13.7692 12.9231 15.0098 12.5441 16.0651 11.834C17.1203 11.1239 17.9427 10.1146 18.4283 8.93374C18.9139 7.75291 19.0408 6.4536 18.7931 5.20012C18.5453 3.94664 17.934 2.7953 17.0364 1.89173C16.1388 0.988161 14.9952 0.37294 13.7504 0.12388C12.5056 -0.125181 11.2154 0.00310701 10.0429 0.492518C8.87051 0.981929 7.86855 1.81048 7.16376 2.87338C6.45898 3.93627 6.08305 5.18577 6.0835 6.46384C6.08591 8.17659 6.76278 9.81846 7.96566 11.0293C9.16853 12.2402 10.7992 12.9213 12.5 12.9231V12.9231Z" fill="#999999"/>
<path d="M25 21.4865V29.0024H1.17166e-06V21.4865C-0.000766626 20.2822 0.375841 19.1083 1.07619 18.1321C1.77653 17.1558 2.76491 16.427 3.90055 16.0494L5.85995 15.7233C6.67427 15.5854 7.43841 15.4591 7.45666 15.4591C7.57327 15.4591 7.68705 15.4953 7.78254 15.5627C7.87803 15.6301 7.95061 15.7254 7.99042 15.8358L11.8385 26.4734C11.8874 26.6083 11.9764 26.7248 12.0933 26.8072C12.2102 26.8895 12.3494 26.9337 12.492 26.9337C12.6347 26.9337 12.7739 26.8895 12.8908 26.8072C13.0077 26.7248 13.0966 26.6083 13.1455 26.4734L17.0027 15.8358C17.0525 15.698 17.1529 15.5847 17.2832 15.5193C17.4135 15.4539 17.5638 15.4414 17.703 15.4844L19.1401 15.7141L21.0972 16.0403H21.1086C21.1816 16.0632 21.2523 16.0885 21.323 16.1161C21.3937 16.1436 21.5328 16.1987 21.6355 16.2447C21.7381 16.2906 21.8385 16.3389 21.9389 16.3917C22.0141 16.4307 22.0871 16.4721 22.167 16.5134C23.2532 17.1455 24.098 18.1256 24.5666 19.2974C24.679 19.5726 24.7705 19.856 24.8403 20.145C24.8911 20.3554 24.9291 20.5686 24.9544 20.7836C24.9544 20.8387 24.9681 20.8962 24.9726 20.9513L24.9863 21.1213C24.9954 21.2361 25 21.3648 25 21.4865Z" fill="#999999"/>
<path d="M13.9485 15.1742C13.8695 15.0945 13.7751 15.0319 13.6711 14.9904C13.5671 14.949 13.4558 14.9294 13.344 14.933H11.6538C11.5412 14.9313 11.4295 14.9528 11.3255 14.9963C11.2216 15.0398 11.1276 15.1042 11.0493 15.1857C10.9389 15.3088 10.8695 15.4636 10.8511 15.6285C10.8327 15.7933 10.8661 15.9598 10.9467 16.1045L11.8591 17.4827L11.428 21.0707L12.2605 23.3034C12.2787 23.3527 12.3114 23.3951 12.3542 23.4251C12.397 23.4551 12.4479 23.4712 12.5 23.4712C12.5522 23.4712 12.6031 23.4551 12.6459 23.4251C12.6887 23.3951 12.7214 23.3527 12.7395 23.3034L13.5721 21.0707L13.1478 17.4759L14.0603 16.0976C14.1415 15.9531 14.1753 15.7865 14.1568 15.6215C14.1384 15.4565 14.0687 15.3015 13.9576 15.1788L13.9485 15.1742Z" fill="#999999"/>
</svg>
