<svg width="28" height="28" viewBox="0 0 28 28" fill="none" xmlns="http://www.w3.org/2000/svg">
<path d="M26.4445 19.4445C24.5078 19.4445 22.6333 19.1333 20.8911 18.5578C20.3545 18.3867 19.74 18.5111 19.3123 18.9389L15.8901 22.3689C11.4801 20.1289 7.87894 16.5278 5.63894 12.1256L9.06114 8.6878C9.48894 8.26 9.61333 7.6456 9.44227 7.10894C8.86674 5.36674 8.5556 3.49227 8.5556 1.5556C8.55553 0.692198 7.86333 0 7 0H1.55553C0.7 0 0 0.692198 0 1.55553C0 16.1622 11.8378 28 26.4445 28C27.3078 28 28 27.3078 28 26.4445V21C28 20.1367 27.3078 19.4445 26.4445 19.4445Z" fill="#BFA465"/>
</svg>
