<svg width="19" height="29" viewBox="0 0 19 29" fill="none" xmlns="http://www.w3.org/2000/svg">
<path d="M10.78 3.18913C10.0913 3.00992 9.379 2.98763 8.67873 3.06587C7.78833 3.17777 7.01664 3.62536 7.01664 3.62536C5.56834 4.40865 4.64222 5.84105 4.5708 7.419C6.06687 7.21749 9.22503 6.42284 10.78 3.18913V3.18913Z" fill="#999999"/>
<path d="M10.3171 6.5015C9.49768 7.23977 8.54791 7.83292 7.50353 8.25822C6.63678 8.60485 5.72272 8.85137 4.78455 8.9742C5.41386 10.8988 7.30134 12.2193 9.45037 12.2193C11.6347 12.2416 13.5699 10.8765 14.1519 8.88459C12.347 8.437 11.0652 7.34074 10.3171 6.5015V6.5015Z" fill="#999999"/>
<path d="M11.4214 5.29291C11.9556 5.93065 12.9291 6.87043 14.318 7.29573C14.2229 5.96431 13.5106 4.74435 12.3827 3.95013L12.2877 3.88281C12.0386 4.36407 11.7418 4.85625 11.4214 5.29291Z" fill="#999999"/>
<path d="M13.0476 13.9314L11.6703 19.5041C11.4806 20.276 10.8986 20.9137 10.1033 21.1935V28.6016H18.0576C18.3187 28.6016 18.5325 28.4001 18.5325 28.154V20.8132C18.5325 17.6127 16.2888 14.8153 13.0476 13.9314V13.9314ZM15.2083 21.1489H13.19C12.7272 21.1489 12.359 20.8018 12.359 20.3656C12.359 19.9294 12.7272 19.5823 13.19 19.5823H15.2083C15.6711 19.5823 16.0393 19.9294 16.0393 20.3656C16.0393 20.8018 15.6711 21.1489 15.2083 21.1489Z" fill="#999999"/>
<path d="M5.48483 13.9314L6.86217 19.5041C7.05185 20.276 7.63386 20.9137 8.4292 21.1935V28.6016H0.474893C0.213799 28.6016 8.68738e-06 28.4001 8.68738e-06 28.154V20.8132C8.68738e-06 17.6127 2.24365 14.8153 5.48483 13.9314V13.9314ZM3.3242 21.1489H5.34245C5.80528 21.1489 6.1735 20.8018 6.1735 20.3656C6.1735 19.9294 5.80528 19.5823 5.34245 19.5823H3.3242C2.86137 19.5823 2.49315 19.9294 2.49315 20.3656C2.49315 20.8018 2.86137 21.1489 3.3242 21.1489Z" fill="#999999"/>
<path d="M10.9463 13.6517H8.06128C7.75242 13.6517 7.45561 13.674 7.14722 13.7076L8.48839 19.1461C8.57187 19.4927 8.88027 19.7502 9.26008 19.7615H9.31944C9.6756 19.7279 9.96081 19.4818 10.0318 19.1461L11.3855 13.674C11.2547 13.663 11.1003 13.6517 10.9463 13.6517V13.6517Z" fill="#999999"/>
<path d="M8.6787 2.57368C8.6787 2.01418 9.15358 1.56659 9.74718 1.56659C10.3408 1.56659 10.8157 2.01418 10.8157 2.57368C10.8157 2.57368 10.8157 2.93167 10.78 3.18912C11.2669 3.33468 11.8721 3.60306 12.276 3.87188C12.276 3.87188 12.3233 3.9051 12.3711 3.93876L12.4778 4.017V2.57368C12.4778 1.15265 11.2548 0 9.74718 0C8.23952 0 7.0166 1.15265 7.0166 2.57368V3.62535C7.51514 3.35697 8.08509 3.16683 8.6787 3.07722V2.57368Z" fill="#999999"/>
</svg>
