<svg width="21" height="27" viewBox="0 0 21 27" fill="none" xmlns="http://www.w3.org/2000/svg">
<path d="M20.1923 3.375H17.7692V0.84375C17.7692 0.378 17.4074 0 16.9615 0H2.42308C1.08715 0 0 1.13569 0 2.53125V23.625C0 25.4863 1.449 27 3.23077 27H20.1923C20.6382 27 21 26.622 21 26.1562V4.21875C21 3.753 20.6382 3.375 20.1923 3.375ZM16.1538 21.0938C16.1538 21.5595 15.792 21.9375 15.3462 21.9375H5.65385C5.208 21.9375 4.84615 21.5595 4.84615 21.0938V19.4062C4.84615 17.0792 6.65862 15.1875 8.88462 15.1875H12.1154C14.343 15.1875 16.1538 17.0792 16.1538 19.4062V21.0938ZM7.26923 10.125C7.26923 8.26369 8.71823 6.75 10.5 6.75C12.2818 6.75 13.7308 8.26369 13.7308 10.125C13.7308 11.9863 12.2818 13.5 10.5 13.5C8.71823 13.5 7.26923 11.9863 7.26923 10.125ZM16.1538 3.375H2.42308C1.97723 3.375 1.61538 2.997 1.61538 2.53125C1.61538 2.0655 1.97723 1.6875 2.42308 1.6875H16.1538V3.375Z" fill="#999999"/>
</svg>
