<svg width="27" height="27" viewBox="0 0 27 27" fill="none" xmlns="http://www.w3.org/2000/svg">
<path d="M11.7487 20.4975C11.7487 20.2807 11.7487 20.2807 11.5357 20.2807C8.40478 20.2807 5.27385 20.2826 2.141 20.2826C1.79568 20.2826 1.64796 20.1426 1.63069 19.7972C1.62877 19.7454 1.62877 19.6936 1.62877 19.6418C1.63837 18.3833 1.65371 17.1229 1.65371 15.8644C1.65371 14.0323 1.63837 12.1982 1.63261 10.3661C1.63069 9.81164 1.63261 9.25721 1.63261 8.70277C1.63261 8.45913 1.63261 8.45913 1.86858 8.45913C4.89975 8.45913 7.93283 8.45913 10.964 8.45913C13.9952 8.45913 17.0283 8.45913 20.0594 8.45913C20.2954 8.45913 20.2954 8.45913 20.2954 8.70277C20.2954 9.66392 20.2973 10.627 20.2935 11.5881C20.2935 11.7148 20.3242 11.7627 20.4604 11.7608C20.892 11.7531 21.3218 11.7512 21.7534 11.7608C21.8954 11.7646 21.9261 11.7128 21.9261 11.5805C21.9222 9.48167 21.9242 7.38287 21.9222 5.28408C21.9222 5.15362 21.905 5.01933 21.88 4.89079C21.6652 3.76657 20.6561 3.19871 19.5625 3.43276C19.4551 3.45578 19.4187 3.50374 19.4187 3.61502C19.4187 3.90278 19.4263 4.19439 19.3899 4.47832C19.2863 5.2764 18.5285 5.99391 17.5386 5.90566C16.9822 5.85578 16.2628 5.44523 16.0805 4.62604C16.0057 4.29031 16.0249 3.93156 16.0172 3.5824C16.0134 3.44427 15.9885 3.39439 15.8369 3.39439C12.587 3.39823 9.33715 3.39823 6.08728 3.39439C5.94723 3.39439 5.9127 3.44043 5.9127 3.57281C5.91078 3.87976 5.92229 4.19247 5.87624 4.49367C5.73812 5.36273 4.92661 6.01117 3.99615 5.90374C3.2422 5.81741 2.57457 5.16705 2.51318 4.41118C2.49016 4.12916 2.49016 3.84523 2.48632 3.5613C2.48441 3.46729 2.45947 3.42509 2.35779 3.42317C1.94148 3.41741 1.50983 3.35027 1.1012 3.46729C0.704075 3.5824 0.387529 3.9047 0.186091 4.2577C0.0191846 4.54739 0 4.83132 0 5.15554C0.00383692 6.41789 0.00191846 7.68215 0.00191846 8.9445C0.00191846 12.768 0.00191846 16.5915 0.00383692 20.4131C0.00383692 20.4975 0 20.5934 0.0383692 20.6605C0.161151 20.8716 0.282014 21.0922 0.443164 21.2744C0.968823 21.8634 1.67098 21.9728 2.4115 21.9536C2.8374 21.9421 3.26138 21.9114 3.68728 21.9095C4.28776 21.9075 4.89016 21.9286 5.49063 21.9286C7.52804 21.9325 9.56544 21.9306 11.6009 21.9344C11.7237 21.9344 11.7506 21.8884 11.7506 21.7752C11.7448 21.3512 11.7487 20.9253 11.7487 20.4975Z" fill="#999999"/>
<path d="M26.9889 20.1617C26.962 19.8145 26.987 19.4711 26.9045 19.1219C26.7491 18.4601 26.5783 17.8059 26.256 17.2073C25.0052 14.8783 23.0311 13.6793 20.4124 13.52C19.8215 13.4836 19.2326 13.5603 18.6551 13.6984C15.5568 14.4505 13.5501 17.2303 13.4868 20.319C13.4772 20.7622 13.5424 21.2169 13.6383 21.6524C13.9952 23.2907 14.8585 24.6241 16.1995 25.6217C17.387 26.5061 18.7165 27.0356 20.2302 26.9934C20.234 26.9934 20.2398 26.9934 20.2436 26.9934C20.2436 26.9895 20.2436 26.9876 20.2436 26.9838C20.5467 26.9838 20.8575 27.026 21.151 26.9742C21.5635 26.9013 21.9702 26.7804 22.3673 26.6442C23.411 26.2835 24.3414 25.7368 25.1165 24.9368C25.9069 24.1234 26.4114 23.1507 26.728 22.0706C26.9102 21.449 27.0388 20.8198 26.9889 20.1617ZM20.2532 25.3416C17.5616 25.3761 15.1501 23.1545 15.1616 20.2385C15.1731 17.4644 17.4235 15.1718 20.2398 15.1737C23.1558 15.1756 25.3563 17.5756 25.3371 20.2922C25.3218 23.049 23.0215 25.3799 20.2532 25.3416Z" fill="#999999"/>
<path d="M11.7506 16.8716C11.7506 16.3748 11.7467 15.8779 11.7525 15.381C11.7544 15.2544 11.7122 15.2198 11.5894 15.2198C10.6053 15.2237 9.61916 15.2237 8.63499 15.2198C8.51221 15.2198 8.47192 15.2525 8.47192 15.3791C8.47576 16.3728 8.47576 17.3666 8.47192 18.3623C8.47192 18.4889 8.51029 18.5234 8.63499 18.5234C9.61916 18.5196 10.6053 18.5196 11.5894 18.5234C11.7122 18.5234 11.7544 18.4908 11.7525 18.3642C11.7487 17.8673 11.7506 17.3685 11.7506 16.8716Z" fill="#999999"/>
<path d="M3.5338 13.4394C4.52948 13.4356 5.52324 13.4356 6.51892 13.4394C6.63211 13.4394 6.66472 13.401 6.66472 13.2917C6.66089 12.296 6.66089 11.3023 6.66472 10.3066C6.66472 10.1934 6.62635 10.1608 6.51508 10.1608C5.5194 10.1646 4.52564 10.1646 3.52996 10.1608C3.41677 10.1608 3.38416 10.1991 3.38416 10.3085C3.38799 10.8015 3.38607 11.2946 3.38607 11.7857C3.38607 12.2826 3.38799 12.7814 3.38416 13.2783C3.38607 13.3895 3.4091 13.4413 3.5338 13.4394Z" fill="#999999"/>
<path d="M8.46993 13.3167C8.46801 13.428 8.50446 13.4644 8.61765 13.4644C9.61141 13.4606 10.6052 13.4606 11.5989 13.4644C11.7198 13.4644 11.7505 13.4222 11.7505 13.3071C11.7467 12.3172 11.7467 11.3292 11.7505 10.3392C11.7505 10.2222 11.716 10.1838 11.597 10.1838C10.6071 10.1877 9.61908 10.1877 8.62916 10.1838C8.50062 10.1838 8.46801 10.228 8.46993 10.3488C8.47568 10.8361 8.47185 11.3234 8.47185 11.8107C8.47185 12.3133 8.47568 12.816 8.46993 13.3167Z" fill="#999999"/>
<path d="M16.6772 10.1838C15.6911 10.1877 14.707 10.1877 13.7209 10.1838C13.5981 10.1838 13.5559 10.2184 13.5578 10.345C13.5616 11.3311 13.5616 12.3152 13.5578 13.3013C13.5578 13.4241 13.5904 13.4663 13.717 13.4644C14.2101 13.4587 14.7031 13.4625 15.1942 13.4625C15.6854 13.4625 16.1803 13.4587 16.6715 13.4644C16.7942 13.4663 16.8345 13.4318 16.8345 13.3052C16.8307 12.3191 16.8307 11.3349 16.8345 10.3488C16.8384 10.226 16.8058 10.1838 16.6772 10.1838Z" fill="#999999"/>
<path d="M3.58947 18.5253C4.55445 18.5196 5.52136 18.5196 6.48634 18.5253C6.61872 18.5253 6.66668 18.4946 6.66668 18.3527C6.66092 17.3685 6.66092 16.3843 6.66668 15.3982C6.66668 15.2659 6.63598 15.2179 6.49402 15.2179C5.52327 15.2237 4.55253 15.2237 3.58371 15.2179C3.44175 15.2179 3.40913 15.2659 3.41105 15.3982C3.41681 15.8855 3.41297 16.3728 3.41297 16.8601C3.41297 17.3531 3.41681 17.8443 3.40913 18.3373C3.40721 18.4774 3.44175 18.5253 3.58947 18.5253Z" fill="#999999"/>
<path d="M16.9228 4.35176C16.9938 4.74504 17.2816 5.00979 17.6403 5.0213C18.1046 5.03665 18.3866 4.83329 18.494 4.40164C18.5228 4.28845 18.5382 4.1695 18.5382 4.05248C18.542 3.54601 18.5401 3.03953 18.5401 2.53306C18.5401 2.53306 18.5401 2.53306 18.542 2.53306C18.542 1.99781 18.5477 1.46256 18.5401 0.927307C18.5362 0.639538 18.425 0.386301 18.2274 0.171433C18.1199 0.0563257 18.0048 -0.00890194 17.8418 0.00836421C17.7286 0.019875 17.6135 0.000690366 17.5022 0.0141196C17.4331 0.0217934 17.3545 0.0486519 17.3007 0.090858C17.0283 0.309562 16.8959 0.603087 16.894 0.944573C16.8883 1.96328 16.8921 2.98006 16.894 3.99876C16.8921 4.11771 16.9017 4.23665 16.9228 4.35176Z" fill="#999999"/>
<path d="M3.38415 3.05483C3.38223 3.28121 3.36113 3.50759 3.36497 3.73396C3.37072 4.01598 3.36113 4.30375 3.48199 4.57041C3.61245 4.85818 3.83115 5.01741 4.15729 5.02701C4.49878 5.0366 4.76928 4.91574 4.90165 4.59535C4.97264 4.42077 5.00909 4.22125 5.01101 4.03324C5.02252 3.2179 5.01676 2.40447 5.01676 1.58913C5.01676 1.33013 5.03019 1.06922 5.00909 0.812149C4.98607 0.533972 4.84986 0.305675 4.6465 0.108074C4.51221 -0.0223812 4.35489 0.0255803 4.20909 0.0179064C3.81389 -0.0703428 3.62204 0.180976 3.48967 0.478337C3.41485 0.645243 3.3784 0.840926 3.3688 1.02702C3.35346 1.28601 3.38415 1.54692 3.38607 1.80591C3.38799 2.2203 3.38607 2.6366 3.38415 3.05483Z" fill="#999999"/>
<path d="M23.0848 19.5172C22.9294 19.4673 22.7625 19.4366 22.5995 19.4328C22.1505 19.4213 21.6997 19.4232 21.2489 19.4328C21.1011 19.4366 21.0628 19.3848 21.0666 19.2448C21.0762 18.8898 21.0762 18.5349 21.0704 18.18C21.0685 17.9767 21.0704 17.7714 21.0359 17.5719C20.9669 17.1728 20.6714 16.9196 20.2858 16.9004C19.9002 16.8793 19.5894 17.1057 19.48 17.5028C19.4436 17.6371 19.4225 17.781 19.4206 17.921C19.4129 18.3623 19.4187 18.8016 19.4167 19.2428C19.4167 19.4289 19.4167 19.427 19.2326 19.4289C18.7031 19.4366 18.1717 19.4289 17.6441 19.4596C17.2067 19.4846 16.9055 19.8088 16.8882 20.2213C16.869 20.6337 17.128 20.981 17.552 21.0481C17.8589 21.0961 18.1736 21.0826 18.4863 21.098C18.4863 21.0942 18.4863 21.0884 18.4863 21.0846C18.7376 21.0846 18.9889 21.0903 19.2402 21.0826C19.3726 21.0788 19.4244 21.1172 19.4206 21.2591C19.4129 21.6946 19.4014 22.132 19.4244 22.5656C19.4359 22.7862 19.4896 23.0165 19.574 23.2217C19.6872 23.4961 19.929 23.6073 20.2263 23.615C20.5333 23.6227 20.7884 23.5248 20.917 23.239C20.9975 23.0587 21.0551 22.8515 21.0647 22.6558C21.0858 22.1877 21.0762 21.7177 21.0704 21.2496C21.0685 21.1153 21.1165 21.0788 21.2431 21.0807C21.7208 21.0865 22.2004 21.0884 22.6781 21.0788C22.8182 21.0769 22.9601 21.0462 23.0944 21.004C23.4071 20.9061 23.622 20.6126 23.6067 20.2385C23.5894 19.8951 23.4148 19.6227 23.0848 19.5172Z" fill="#999999"/>
</svg>
