<svg width="31" height="27" viewBox="0 0 31 27" fill="none" xmlns="http://www.w3.org/2000/svg">
<path d="M30.5934 4.11764C30.581 3.74835 30.4109 3.47241 30.0706 3.31681C29.9503 3.26079 29.8258 3.21515 29.6972 3.17573C27.1806 2.40602 24.6619 1.63838 22.1453 0.868672C21.3092 0.613484 20.4772 0.345849 19.6391 0.0989603C19.164 -0.0421189 18.7594 0.0844374 18.5083 0.422613C18.3569 0.628007 18.2926 0.864522 18.2947 1.11556C18.3009 2.22137 18.3133 3.32718 18.3175 4.433C18.3216 5.19026 18.3195 5.9496 18.3175 6.70686C18.3113 8.72969 18.3009 10.7525 18.2926 12.7753C18.2926 12.9828 18.2926 12.9828 18.083 12.9828C16.249 12.9828 14.415 12.9828 12.5809 12.9828C12.3133 12.9828 12.305 13.0368 12.305 12.711C12.305 8.92056 12.305 5.13009 12.305 1.33755C12.305 1.20477 12.305 1.07199 12.2988 0.937137C12.2822 0.47448 12.0104 0.121782 11.5706 0.0595411C11.3714 0.0304954 11.1494 0.0616158 10.9544 0.119707C9.93778 0.416389 8.92326 0.733817 7.90458 1.04295C5.7635 1.69647 3.62034 2.34585 1.47926 3.00146C1.16598 3.09689 0.846475 3.17988 0.553943 3.32304C0.20332 3.49731 0 3.78362 0 4.21515C0.00622408 11.5056 0.00622408 18.794 0 26.0845C0 26.3044 0.0622408 26.487 0.215768 26.6177C0.363071 26.7443 0.535271 26.8646 0.717844 26.9248C0.910791 26.9891 1.13071 26.9974 1.33818 26.9974C6.00416 27.0015 10.6722 26.9994 15.3382 26.9994C15.3382 26.9994 15.3382 26.9994 15.3382 26.9974C20.0146 26.9974 24.693 26.9974 29.3694 26.9953C29.5229 26.9953 29.6764 26.9849 29.8279 26.9621C30.2221 26.9082 30.4876 26.6633 30.5665 26.265C30.6038 26.0762 30.6225 25.8791 30.6225 25.6862C30.6246 18.9289 30.6246 12.1716 30.6246 5.41433C30.6225 4.98694 30.608 4.55125 30.5934 4.11764ZM9.12243 13.043C8.62658 13.099 8.38176 13.3832 8.33612 13.8895C8.32782 13.9911 8.305 14.0928 8.30915 14.1944C8.31537 14.3355 8.24898 14.3666 8.12243 14.3646C7.79048 14.3583 7.45645 14.3604 7.1245 14.3646C6.79877 14.3666 6.55811 14.5783 6.49587 14.9061C6.43155 15.2463 6.54773 15.4828 6.86724 15.6114C7.24483 15.7629 7.64525 15.7733 8.04566 15.7359C8.28218 15.7131 8.30708 15.7214 8.30708 15.9538C8.30708 18.9247 8.30708 21.8957 8.30708 24.8667C8.30708 25.0928 8.30708 25.0928 8.07886 25.0928C6.0913 25.0928 4.10375 25.0928 2.11619 25.0928C1.8942 25.0928 1.89212 25.0928 1.89212 24.875C1.89212 18.2608 1.89212 11.6467 1.88797 5.03466C1.88797 4.88528 1.93776 4.82096 2.08092 4.7774C4.78424 3.95374 7.48757 3.12594 10.1909 2.30021C10.2573 2.27946 10.3278 2.26702 10.4274 2.24212C10.4274 2.33133 10.4274 2.38527 10.4274 2.44129C10.4274 5.88943 10.4274 9.33757 10.4274 12.7836C10.4274 13.0098 10.4274 13.0077 10.1992 13.0119C9.83613 13.016 9.4772 13.0036 9.12243 13.043ZM16.8444 24.9393C16.8444 25.0596 16.7988 25.0969 16.6805 25.0949C16.1951 25.0887 15.7075 25.0928 15.22 25.0928C14.7324 25.0928 14.2469 25.0887 13.7594 25.0949C13.639 25.0969 13.5955 25.0596 13.5955 24.9393C13.5975 24.0741 13.5975 23.209 13.5955 22.3418C13.5955 22.2152 13.6411 22.1737 13.7677 22.1737C14.7366 22.1779 15.7034 22.1779 16.6722 22.1737C16.7988 22.1737 16.8444 22.2173 16.8444 22.3418C16.8424 23.2069 16.8424 24.0741 16.8444 24.9393ZM20.2303 25.0845C19.5664 25.0845 18.9295 25.0845 18.2698 25.0845C18.2594 24.9662 18.2407 24.8501 18.2407 24.736C18.2366 23.6592 18.2407 22.5845 18.2345 21.5077C18.2324 21.0554 17.9834 20.794 17.5332 20.7878C16.2946 20.7691 15.0561 20.765 13.8175 20.7588C13.5166 20.7567 13.2137 20.7671 12.9129 20.7857C12.444 20.8148 12.2096 21.0658 12.2096 21.5409C12.2054 22.626 12.2096 23.7131 12.2075 24.7982C12.2075 25.1426 12.2407 25.0887 11.9129 25.0907C11.4357 25.0928 10.9606 25.0928 10.4834 25.0907C10.1992 25.0887 10.2158 25.1343 10.2158 24.8314C10.2158 23.4372 10.2158 22.0451 10.2158 20.6509C10.2158 18.8065 10.2158 16.9621 10.2158 15.1177C10.2158 14.8895 10.2158 14.8895 10.444 14.8895C13.6349 14.8895 16.8278 14.8895 20.0187 14.8895C20.2324 14.8895 20.2324 14.8895 20.2324 15.1094C20.2324 18.3666 20.2324 21.626 20.2324 24.8833C20.2303 24.9455 20.2303 25.0057 20.2303 25.0845ZM28.5167 25.1198C26.4627 25.1156 24.4088 25.1177 22.3548 25.1177C22.1536 25.1177 22.1474 25.1115 22.1474 24.9102C22.1474 21.9144 22.1474 18.9164 22.1474 15.9206C22.1474 15.7214 22.1494 15.7235 22.3548 15.7193C22.7532 15.7131 23.1536 15.7131 23.5519 15.6903C23.9005 15.6695 24.1349 15.4164 24.1411 15.0845C24.1494 14.7048 23.9212 14.3957 23.5685 14.3666C23.166 14.3355 22.7615 14.3417 22.3569 14.3334C22.1432 14.3293 22.1494 14.3314 22.1391 14.1177C22.1266 13.8417 22.1038 13.5658 21.9108 13.3397C21.7158 13.1135 21.4627 13.0222 21.1764 13.0139C20.915 13.0056 20.6536 13.0036 20.3922 13.0139C20.2428 13.0202 20.2013 12.9704 20.2013 12.8231C20.2054 10.3791 20.2034 7.93508 20.2034 5.49317C20.2034 4.47449 20.2034 3.45374 20.2034 2.43507C20.2034 2.38112 20.2034 2.32511 20.2034 2.25042C20.2905 2.26909 20.3548 2.27946 20.415 2.29814C22.386 2.8998 24.3548 3.50353 26.3258 4.10519C27.0685 4.33341 27.8113 4.56163 28.5561 4.78362C28.6826 4.82096 28.7179 4.88113 28.7179 5.00976C28.7158 11.6488 28.7138 18.2878 28.7179 24.9268C28.72 25.0845 28.664 25.1198 28.5167 25.1198Z" fill="#999999"/>
<path d="M23.5727 11.6944C23.1536 11.6695 22.7283 11.6695 22.3092 11.6965C21.9897 11.7173 21.7532 12.0513 21.7677 12.3936C21.7822 12.7256 22.0125 12.987 22.3175 13.014C22.5416 13.0326 22.7657 13.043 23.0229 13.0596C23.22 13.043 23.4524 13.0451 23.6764 12.9974C23.9814 12.933 24.1578 12.6384 24.1391 12.292C24.1225 11.9994 23.8818 11.7152 23.5727 11.6944Z" fill="#999999"/>
<path d="M23.5934 9.03882C23.2117 8.99733 22.8216 9.01393 22.4357 9.016C22.0581 9.01808 21.8092 9.24214 21.7739 9.62181C21.7469 9.91849 21.8984 10.2567 22.2864 10.3376C22.5042 10.3832 22.7324 10.3708 22.9565 10.3832C22.9565 10.3791 22.9565 10.3729 22.9565 10.3687C23.1308 10.3687 23.305 10.3729 23.4772 10.3666C23.8133 10.3542 24.1142 10.0824 24.137 9.77326C24.1681 9.37492 23.9772 9.08032 23.5934 9.03882Z" fill="#999999"/>
<path d="M26.6121 11.7131C26.3963 11.682 26.1744 11.6862 25.9565 11.6737C25.9565 11.6779 25.9565 11.6841 25.9565 11.6882C25.7781 11.6882 25.5976 11.682 25.4192 11.6903C25.0665 11.7028 24.8196 11.9247 24.7822 12.2546C24.7407 12.6218 24.9316 12.9351 25.2636 13.0036C25.7221 13.0969 26.1868 13.1052 26.6474 13.0077C26.942 12.9455 27.1557 12.6571 27.1515 12.3542C27.1453 12.0181 26.942 11.7608 26.6121 11.7131Z" fill="#999999"/>
<path d="M25.4398 10.3687C25.6079 10.375 25.778 10.3708 25.9461 10.3708C25.9461 10.377 25.9461 10.3833 25.9481 10.3895C26.1826 10.3729 26.4191 10.375 26.6494 10.3335C26.9419 10.2816 27.166 9.9621 27.1514 9.66335C27.1349 9.3314 26.9295 9.06584 26.61 9.04301C26.1888 9.01189 25.7656 9.01189 25.3444 9.02019C25.1431 9.02434 24.9772 9.1343 24.8693 9.31687C24.5996 9.77953 24.9066 10.348 25.4398 10.3687Z" fill="#999999"/>
<path d="M22.3091 7.66539C22.7323 7.738 23.1639 7.73385 23.5871 7.66746C23.9336 7.61352 24.139 7.34589 24.1369 6.99734C24.1348 6.62389 23.8631 6.34381 23.4938 6.33966C23.1431 6.33551 22.7904 6.33551 22.4398 6.33966C22.0643 6.34173 21.805 6.57617 21.7676 6.93925C21.7323 7.28987 21.9523 7.60522 22.3091 7.66539Z" fill="#999999"/>
<path d="M25.2927 7.66533C25.4669 7.69645 25.6474 7.71097 25.8258 7.7089C26.1101 7.70475 26.3985 7.70267 26.6765 7.65288C26.9566 7.60309 27.1619 7.28358 27.1495 6.99313C27.1371 6.68192 26.9379 6.41429 26.6433 6.36449C26.4234 6.32715 26.1951 6.33752 25.9711 6.32715C25.9711 6.3313 25.9711 6.33752 25.9711 6.34167C25.7823 6.34167 25.5935 6.33752 25.4026 6.34167C25.0686 6.3479 24.8072 6.59478 24.7802 6.92259C24.7491 7.29811 24.9545 7.60516 25.2927 7.66533Z" fill="#999999"/>
<path d="M26.5187 14.3646C26.3341 14.3605 26.1515 14.3646 25.9669 14.3646C25.7719 14.3646 25.5789 14.3605 25.3839 14.3646C25.0706 14.3729 24.8092 14.6219 24.7822 14.931C24.749 15.3003 24.9441 15.6261 25.2656 15.6821C25.7241 15.763 26.1889 15.763 26.6495 15.6821C26.9441 15.6302 27.1785 15.292 27.1515 14.9953C27.1142 14.6281 26.859 14.3709 26.5187 14.3646Z" fill="#999999"/>
<path d="M8.25728 11.6882C8.07055 11.6654 7.88176 11.6633 7.67844 11.6488C7.47927 11.6613 7.2635 11.6696 7.05188 11.6903C6.73238 11.7193 6.48756 12.0077 6.48549 12.348C6.48341 12.7048 6.69711 12.9932 7.01246 13.0098C7.4191 13.0285 7.82989 13.0326 8.23653 13.016C8.61205 13.0015 8.82574 12.765 8.83404 12.4123C8.84442 12.0077 8.63072 11.7339 8.25728 11.6882Z" fill="#999999"/>
<path d="M5.37769 6.37291C5.14325 6.32934 4.90051 6.33764 4.66192 6.32312C4.66192 6.32934 4.66192 6.33557 4.66192 6.34179C4.4835 6.34179 4.303 6.33972 4.12457 6.34179C3.78225 6.34802 3.51047 6.59905 3.47934 6.93723C3.44822 7.2837 3.67022 7.60528 4.00009 7.66545C4.15984 7.69449 4.32374 7.70902 4.48765 7.70694C4.78225 7.70279 5.07893 7.70279 5.36939 7.65715C5.65155 7.61358 5.84865 7.32105 5.85072 7.02437C5.85072 6.69656 5.67437 6.42893 5.37769 6.37291Z" fill="#999999"/>
<path d="M5.19505 14.3646C4.83821 14.3604 4.48136 14.3604 4.12451 14.3646C3.77804 14.3666 3.50418 14.6218 3.47721 14.9579C3.45024 15.3189 3.67015 15.6529 4.0104 15.6861C4.40874 15.7235 4.81538 15.7359 5.21373 15.709C5.60584 15.682 5.84236 15.4019 5.84651 15.0471C5.85273 14.6529 5.58095 14.3666 5.19505 14.3646Z" fill="#999999"/>
<path d="M8.17233 9.01605C7.83208 9.0119 7.48975 9.0119 7.1495 9.01605C6.80095 9.0202 6.52295 9.25257 6.48975 9.55962C6.44618 9.95381 6.6329 10.2629 6.9939 10.3376C7.21174 10.3833 7.43996 10.3708 7.66403 10.3853C7.66403 10.3812 7.66403 10.3771 7.66403 10.3708C7.83208 10.3708 8.0022 10.3791 8.17025 10.3688C8.58519 10.3439 8.83415 10.0866 8.85283 9.6841C8.8715 9.29199 8.58727 9.02228 8.17233 9.01605Z" fill="#999999"/>
<path d="M4.16187 10.3708C4.32162 10.375 4.47929 10.3708 4.63905 10.3708C4.63905 10.377 4.63905 10.3833 4.64112 10.3895C4.87556 10.3729 5.11208 10.375 5.34237 10.3355C5.6515 10.2837 5.85897 9.98699 5.84859 9.65712C5.83822 9.32724 5.6432 9.07413 5.31954 9.04508C4.93573 9.01189 4.54568 9.01604 4.15979 9.01604C3.75523 9.01604 3.48137 9.28574 3.47929 9.66956C3.47514 10.0555 3.77182 10.3604 4.16187 10.3708Z" fill="#999999"/>
<path d="M7.01876 7.66748C7.42332 7.74217 7.83411 7.72972 8.23868 7.682C8.63702 7.63428 8.83826 7.38117 8.83826 7.0098C8.83826 6.60524 8.58308 6.34383 8.18059 6.33968C7.83411 6.33553 7.48764 6.3376 7.14116 6.33968C6.79676 6.34175 6.52291 6.57619 6.48971 6.89154C6.44614 7.29196 6.64946 7.59902 7.01876 7.66748Z" fill="#999999"/>
<path d="M5.26561 11.6903C5.11001 11.6778 4.95234 11.6841 4.79466 11.6841C4.55607 11.6841 4.3154 11.6778 4.07681 11.6903C3.74279 11.7089 3.48138 12.0036 3.47723 12.3521C3.47308 12.6944 3.70544 12.9849 4.01457 13.0139C4.23242 13.0347 4.45233 13.043 4.6847 13.0575C4.86727 13.0451 5.06022 13.0305 5.25317 13.0181C5.60794 12.9932 5.84238 12.7421 5.84653 12.3832C5.85275 12.0181 5.60794 11.7193 5.26561 11.6903Z" fill="#999999"/>
<path d="M12.0103 17.3211C12.1307 17.3564 12.2614 17.375 12.3879 17.375C13.3298 17.3792 14.2717 17.3771 15.2137 17.3771C16.1203 17.3771 17.0269 17.3792 17.9315 17.375C18.0581 17.375 18.1867 17.3647 18.3132 17.346C18.7386 17.2817 18.9274 17.0037 18.9294 16.6468C18.9336 16.292 18.6203 16.0037 18.2469 15.9891C17.8693 15.9746 17.4896 15.9622 17.112 15.9622C16.529 15.9642 15.946 15.9808 15.363 15.985C14.3796 15.9891 13.3962 15.985 12.4128 15.9871C12.3319 15.9871 12.2489 15.9871 12.168 15.9912C11.8049 16.0161 11.5311 16.2671 11.5062 16.6385C11.4916 16.9061 11.6099 17.2049 12.0103 17.3211Z" fill="#999999"/>
<path d="M18.5063 18.3584C18.359 18.3086 18.1993 18.2712 18.0437 18.2712C16.1847 18.265 14.3258 18.2671 12.4669 18.2692C12.3341 18.2692 12.2013 18.2816 12.0706 18.3065C11.8777 18.3418 11.7179 18.4372 11.6183 18.6177C11.3424 19.1198 11.6495 19.653 12.2242 19.6551C13.2283 19.6592 14.2325 19.6571 15.2345 19.6571C16.2366 19.6571 17.2428 19.6592 18.2449 19.6571C18.5769 19.6571 18.8383 19.4351 18.913 19.1281C19.0022 18.7588 18.7677 18.4455 18.5063 18.3584Z" fill="#999999"/>
</svg>
