<svg width="31" height="44" viewBox="0 0 31 44" fill="none" xmlns="http://www.w3.org/2000/svg">
<path d="M15.5 0C6.95325 0 0 7.14846 0 15.9351C0 26.8395 13.871 42.8479 14.4615 43.524C15.0163 44.1592 15.9847 44.1581 16.5384 43.524C17.129 42.8479 31 26.8395 31 15.9351C30.9998 7.14846 24.0467 0 15.5 0ZM15.5 23.9524C11.1999 23.9524 7.70164 20.3559 7.70164 15.9351C7.70164 11.5143 11.2 7.91778 15.5 7.91778C19.8 7.91778 23.2983 11.5143 23.2983 15.9352C23.2983 20.356 19.8 23.9524 15.5 23.9524Z" fill="#BFA465"/>
</svg>
