<svg width="198" height="163" viewBox="0 0 198 163" fill="none" xmlns="http://www.w3.org/2000/svg">
<path d="M58.2291 0C30.6235 0 7.34977 18.5577 0 43.9199H14.2318C21.0632 26.1815 38.164 13.5645 58.2261 13.5645C84.2974 13.5645 105.444 34.7945 105.444 60.979C105.444 68.6177 103.588 75.8096 100.406 82.2L109.362 93.7565C115.418 84.2795 118.943 73.0597 118.943 60.979C118.949 27.2928 91.7693 0 58.2291 0Z" fill="#BFA465"/>
<path d="M83.8148 102.87C76.2803 108.024 67.1788 111.033 57.3681 111.033C44.1374 111.033 32.2115 105.438 23.6521 96.557H46.5654V83.5705H14.7025H1.03977H0.145996C8.42231 107.327 30.8768 124.595 57.3652 124.595C70.3367 124.595 82.3311 120.471 92.2043 113.503L83.8148 102.87Z" fill="#BFA465"/>
<path d="M139.294 124.595C166.912 124.595 190.188 106.034 197.55 80.6657H183.3C176.475 98.416 159.374 111.033 139.294 111.033C113.217 111.033 92.0851 89.7971 92.0851 63.6186C92.0851 55.9768 93.9442 48.7849 97.126 42.3945L88.1585 30.841C82.1226 40.312 78.5922 51.5497 78.5922 63.6215C78.5892 97.2928 105.781 124.595 139.294 124.595Z" fill="#BFA465"/>
<path d="M112.836 24.3612C120.376 19.2071 129.495 16.207 139.294 16.207C152.531 16.207 164.439 21.7842 173.019 30.6712H150.094V43.6517H181.978H195.634H196.519C188.234 19.9043 165.771 2.6396 139.294 2.6396C126.328 2.6396 114.34 6.74797 104.455 13.7164L112.836 24.3612Z" fill="#BFA465"/>
<path d="M9.98046 154.572V151.312H17.5984V159.073C16.8565 159.866 15.781 160.563 14.3689 161.168C12.9627 161.769 11.5356 162.07 10.0877 162.07C8.25251 162.07 6.64968 161.644 5.28519 160.792C3.9207 159.94 2.89287 158.719 2.20764 157.137C1.52242 155.552 1.17981 153.827 1.17981 151.962C1.17981 149.939 1.56115 148.142 2.32681 146.569C3.09247 144.996 4.21565 143.793 5.68739 142.953C6.81354 142.309 8.2108 141.984 9.88811 141.984C12.0659 141.984 13.7671 142.485 14.9915 143.489C16.216 144.493 17.0025 145.878 17.3541 147.648L13.8088 148.381C13.5615 147.433 13.0997 146.689 12.4205 146.146C11.7442 145.601 10.8951 145.324 9.87917 145.324C8.34189 145.324 7.11444 145.869 6.20578 146.957C5.29711 148.044 4.84427 149.659 4.84427 151.804C4.84427 154.11 5.30605 155.844 6.23855 156.997C7.16509 158.153 8.38359 158.728 9.88811 158.728C10.6299 158.728 11.3777 158.564 12.1255 158.239C12.8733 157.914 13.5168 157.521 14.0531 157.056V154.569H9.98046V154.572Z" fill="#BFA465"/>
<path d="M20.95 142.348H24.4953V152.853C24.4953 154.521 24.537 155.602 24.6234 156.094C24.7753 156.889 25.1328 157.524 25.6989 158.007C26.265 158.489 27.0396 158.728 28.0197 158.728C29.0148 158.728 29.7656 158.501 30.272 158.045C30.7785 157.59 31.0824 157.032 31.1867 156.371C31.2879 155.71 31.3386 154.61 31.3386 153.079V142.348H34.8839V152.531C34.8839 154.861 34.7885 156.502 34.5979 157.464C34.4072 158.427 34.0557 159.237 33.5402 159.898C33.0278 160.56 32.3426 161.087 31.4846 161.48C30.6266 161.874 29.5064 162.07 28.124 162.07C26.4556 162.07 25.1895 161.856 24.3255 161.427C23.4645 160.998 22.7822 160.447 22.2817 159.761C21.7812 159.079 21.4505 158.361 21.2926 157.61C21.0602 156.502 20.947 154.861 20.947 152.692V142.348H20.95Z" fill="#BFA465"/>
<path d="M38.739 161.704V142.512H42.2843V158.445H51.1267V161.704H38.739V161.704Z" fill="#BFA465"/>
<path d="M52.7355 155.388L56.2003 155.021C56.4059 156.297 56.8289 157.235 57.4665 157.834C58.1011 158.433 58.9591 158.731 60.0376 158.731C61.1816 158.731 62.0456 158.465 62.6206 157.932C63.2015 157.399 63.4905 156.776 63.4905 156.064C63.4905 155.608 63.3684 155.218 63.1241 154.896C62.8798 154.575 62.4537 154.294 61.8489 154.056C61.4348 153.898 60.4874 153.615 59.0068 153.207C57.103 152.689 55.7683 152.048 55.0027 151.288C53.9242 150.225 53.385 148.923 53.385 147.389C53.385 146.4 53.6352 145.479 54.1447 144.621C54.6511 143.76 55.384 143.105 56.3403 142.658C57.2967 142.208 58.4496 141.981 59.8022 141.981C62.0098 141.981 63.6722 142.518 64.7895 143.581C65.9037 144.645 66.4906 146.069 66.5472 147.85L63.0019 148.014C62.85 147.016 62.5252 146.298 62.0217 145.86C61.5212 145.422 60.7645 145.205 59.7635 145.205C58.7267 145.205 57.9164 145.44 57.3324 145.908C56.9541 146.209 56.7664 146.611 56.7664 147.115C56.7664 147.573 56.9422 147.97 57.2937 148.294C57.7436 148.708 58.831 149.14 60.556 149.593C62.2809 150.043 63.562 150.511 64.3873 150.994C65.2155 151.476 65.865 152.135 66.3297 152.969C66.7975 153.806 67.0328 154.84 67.0328 156.067C67.0328 157.181 66.7528 158.224 66.1927 159.198C65.6326 160.173 64.8401 160.896 63.8152 161.367C62.7904 161.838 61.5153 162.076 59.9869 162.076C57.7644 162.076 56.0573 161.507 54.8656 160.369C53.6829 159.225 52.9679 157.566 52.7355 155.388Z" fill="#BFA465"/>
<path d="M70.1073 161.704V142.348H73.6526V149.969H80.5793V142.348H84.1246V161.701H80.5793V153.225H73.6526V161.701H70.1073V161.704Z" fill="#BFA465"/>
<path d="M103.668 161.704H99.852L98.3207 157.304H91.2718L89.8299 161.704H86.0254L92.7882 142.351H96.5361L103.668 161.704ZM97.1409 154.044L94.686 146.873L92.3384 154.044H97.1409Z" fill="#BFA465"/>
<path d="M105.611 161.704V142.348H109.067L116.247 155.251V142.348H119.548V161.701H115.982L108.912 149.075V161.701H105.611V161.704Z" fill="#BFA465"/>
<path d="M141.394 154.572L144.856 155.754C144.329 157.879 143.45 159.455 142.223 160.482C140.995 161.513 139.437 162.029 137.548 162.029C135.212 162.029 133.294 161.153 131.789 159.389C130.285 157.634 129.534 155.23 129.534 152.179C129.534 148.95 130.291 146.444 131.804 144.66C133.318 142.872 135.305 141.981 137.772 141.981C139.923 141.981 141.668 142.681 143.015 144.079C143.814 144.907 144.415 146.096 144.818 147.645L141.314 148.583C141.105 147.576 140.67 146.781 140.009 146.2C139.348 145.613 138.546 145.324 137.602 145.324C136.294 145.324 135.236 145.842 134.423 146.873C133.61 147.904 133.204 149.578 133.204 151.887C133.204 154.339 133.604 156.085 134.402 157.128C135.201 158.167 136.234 158.689 137.512 158.689C138.451 158.689 139.261 158.358 139.941 157.697C140.614 157.032 141.096 155.993 141.394 154.572Z" fill="#BFA465"/>
<path d="M147.979 161.704V142.512H151.524V158.445H160.366V161.704H147.979V161.704Z" fill="#BFA465"/>
<path d="M162.952 142.348H166.497V152.853C166.497 154.521 166.539 155.602 166.629 156.094C166.78 156.889 167.138 157.524 167.704 158.007C168.27 158.489 169.042 158.728 170.022 158.728C171.02 158.728 171.771 158.501 172.277 158.045C172.781 157.59 173.088 157.032 173.189 156.371C173.293 155.71 173.344 154.61 173.344 153.079V142.348H176.889V152.531C176.889 154.861 176.794 156.502 176.6 157.464C176.409 158.427 176.058 159.237 175.545 159.898C175.033 160.56 174.348 161.087 173.49 161.48C172.632 161.874 171.511 162.07 170.129 162.07C168.458 162.07 167.192 161.856 166.331 161.427C165.467 160.998 164.787 160.447 164.287 159.761C163.786 159.079 163.456 158.361 163.298 157.61C163.065 156.502 162.952 154.861 162.952 152.692V142.348Z" fill="#BFA465"/>
<path d="M180.702 142.348H187.707C189.092 142.348 190.126 142.41 190.805 142.541C191.487 142.667 192.095 142.938 192.634 143.346C193.173 143.754 193.62 144.296 193.978 144.972C194.338 145.652 194.517 146.408 194.517 147.252C194.517 148.163 194.297 149 193.85 149.763C193.406 150.526 192.804 151.098 192.041 151.479C193.111 151.822 193.933 152.403 194.508 153.222C195.083 154.044 195.372 155.012 195.372 156.124C195.372 157 195.187 157.852 194.818 158.677C194.446 159.502 193.942 160.164 193.302 160.658C192.658 161.153 191.869 161.457 190.93 161.57C190.343 161.641 188.922 161.683 186.667 161.704H180.705V142.348H180.702ZM184.248 145.607V150.088H186.554C187.927 150.088 188.779 150.067 189.113 150.022C189.715 149.942 190.188 149.709 190.534 149.328C190.879 148.944 191.049 148.44 191.049 147.812C191.049 147.213 190.903 146.724 190.605 146.355C190.307 145.976 189.867 145.75 189.28 145.673C188.931 145.631 187.927 145.607 186.271 145.607H184.248V145.607ZM184.248 153.35V158.445H187.513C188.785 158.445 189.589 158.406 189.929 158.325C190.453 158.221 190.879 157.968 191.21 157.566C191.538 157.163 191.705 156.624 191.705 155.945C191.705 155.373 191.577 154.89 191.323 154.491C191.073 154.092 190.701 153.803 190.224 153.618C189.741 153.439 188.702 153.344 187.096 153.344H184.248V153.35Z" fill="#BFA465"/>
</svg>
