<svg width="27" height="27" viewBox="0 0 27 27" fill="none" xmlns="http://www.w3.org/2000/svg">
<path d="M12.375 16.875C10.5142 16.875 9 15.3608 9 13.5C9 11.6392 10.5142 10.125 12.375 10.125H18V3.09375C18 1.38713 16.6129 0 14.9062 0H3.09375C1.38713 0 0 1.38713 0 3.09375V23.9062C0 25.6129 1.38713 27 3.09375 27H14.9062C16.6129 27 18 25.6129 18 23.9062V16.875H12.375Z" fill="#EB6147"/>
<path d="M20.6554 17.9314C20.2158 17.7919 19.9283 17.4634 19.9283 17.0999V14.4H11.6784C11.0279 14.4 10.4999 13.9968 10.4999 13.5C10.4999 13.0032 11.0279 12.6 11.6784 12.6H19.9283V9.90014C19.9283 9.53655 20.2158 9.20806 20.6554 9.06857C21.0962 8.92907 21.603 9.00647 21.9401 9.26386L26.6543 12.8637C27.1151 13.2156 27.1151 13.7844 26.6543 14.1363L21.9401 17.7361C21.603 17.9935 21.0962 18.0709 20.6554 17.9314Z" fill="#EB6147"/>
</svg>
