<svg width="26" height="27" viewBox="0 0 26 27" fill="none" xmlns="http://www.w3.org/2000/svg">
<path d="M18.8287 1.34733C18.8278 0.861318 18.9852 0.388289 19.277 0H1.34507C0.98853 0.000628216 0.64677 0.14278 0.394655 0.395317C0.142541 0.647853 0.000627166 0.990186 0 1.34733L0 1.79643H18.8287V1.34733Z" fill="#999999"/>
<path d="M22.4132 23.3489V1.34733C22.4132 0.989993 22.2715 0.647296 22.0192 0.394623C21.767 0.14195 21.4249 0 21.0681 0C20.7114 0 20.3693 0.14195 20.117 0.394623C19.8648 0.647296 19.723 0.989993 19.723 1.34733V2.24554C19.7234 2.30441 19.7121 2.36276 19.6898 2.41723C19.6675 2.47171 19.6347 2.52123 19.5933 2.56297C19.5518 2.6047 19.5025 2.63782 19.4483 2.66042C19.394 2.68302 19.3358 2.69465 19.2771 2.69465H3.58691V24.6986C3.58691 25.0559 3.72863 25.3986 3.98088 25.6513C4.23313 25.904 4.57525 26.0459 4.93199 26.0459C5.28872 26.0459 5.63085 25.904 5.8831 25.6513C6.13535 25.3986 6.27706 25.0559 6.27706 24.6986V23.8004C6.27675 23.7415 6.28805 23.6832 6.31033 23.6287C6.3326 23.5742 6.3654 23.5247 6.40684 23.483C6.44829 23.4412 6.49756 23.4081 6.55182 23.3855C6.60609 23.3629 6.66428 23.3513 6.72305 23.3513L22.4132 23.3489ZM21.5165 22.4507H20.6198V21.5453H21.5165V22.4507ZM21.5165 20.6543H6.27706V19.756H21.5165V20.6543ZM21.5165 18.8578H20.6198V17.9596H21.5165V18.8578ZM21.5165 17.0614H6.27706V16.1632H21.5165V17.0614ZM21.5165 15.2649H20.6198V14.3667H21.5165V15.2649ZM21.5165 12.5727V13.4661H6.27706V12.5727H21.5165ZM12.4853 3.82574L8.89841 9.66416C8.86327 9.72213 8.81522 9.77117 8.75802 9.80745C8.70082 9.84372 8.63601 9.86625 8.56867 9.87327H8.51648C8.45767 9.87339 8.39943 9.86168 8.34523 9.83882C8.29103 9.81596 8.24197 9.78242 8.20097 9.7402L6.40516 7.95089L7.03856 7.31406L8.43345 8.71366L11.7214 3.35525L12.4853 3.82574ZM8.51648 3.58812C9.20036 3.58808 9.87302 3.76225 10.4712 4.09426L10.0371 4.87842C9.43486 4.54431 8.73966 4.41781 8.05859 4.51842C7.37753 4.61902 6.74837 4.94115 6.26806 5.43517C5.78774 5.92918 5.48291 6.56769 5.40053 7.25232C5.31814 7.93696 5.46277 8.62973 5.81213 9.22392C6.1615 9.81812 6.69621 10.2808 7.33391 10.5406C7.9716 10.8004 8.6769 10.843 9.34114 10.6618C10.0054 10.4806 10.5917 10.0857 11.0098 9.53787C11.428 8.99003 11.6546 8.31969 11.655 7.6301C11.6545 7.22231 11.5739 6.8186 11.4178 6.44198L12.248 6.10455C12.5745 6.90625 12.6351 7.79179 12.421 8.63062C12.2069 9.46945 11.7295 10.2172 11.059 10.7636C10.3885 11.31 9.56048 11.6262 8.69701 11.6655C7.83354 11.7049 6.98031 11.4653 6.26308 10.982C5.54586 10.4988 5.00261 9.79758 4.71341 8.98167C4.42421 8.16576 4.40437 7.27836 4.65681 6.4503C4.90926 5.62224 5.42063 4.89733 6.11553 4.38244C6.81044 3.86755 7.65211 3.58993 8.51648 3.59049V3.58812ZM4.48363 12.5703H5.38034V13.4661H4.48363V12.5703ZM4.48363 14.3644H19.723V15.2626H4.48363V14.3644ZM4.48363 16.1608H5.38034V17.059H4.48363V16.1608ZM4.48363 17.9572H19.723V18.8554H4.48363V17.9572ZM4.48363 19.7537H5.38034V20.6519H4.48363V19.7537ZM4.48363 22.4483V21.5453H19.723V22.4436L4.48363 22.4483Z" fill="#999999"/>
<path d="M7.17138 24.2471V24.6962C7.17224 25.1822 7.01483 25.6552 6.72302 26.0435H24.655C25.0115 26.0429 25.3533 25.9007 25.6054 25.6482C25.8575 25.3957 25.9994 25.0533 26 24.6962V24.2471H7.17138Z" fill="#999999"/>
</svg>
