<svg width="23" height="22" viewBox="0 0 23 22" fill="none" xmlns="http://www.w3.org/2000/svg">
<path d="M8.46228 16.7924V21.2751C8.46228 21.5882 8.66203 21.8656 8.95781 21.9642C9.03176 21.9884 9.10762 22 9.18253 22C9.40724 22 9.62428 21.8937 9.76257 21.7042L12.3679 18.1359L8.46228 16.7924Z" fill="#999999"/>
<path d="M22.6981 0.13279C22.4777 -0.0228285 22.1883 -0.0438322 21.9487 0.0812352L0.38625 11.2991C0.131334 11.4318 -0.019124 11.703 0.00195929 11.9884C0.0240009 12.2748 0.214709 12.5192 0.485916 12.6118L6.48027 14.653L19.2462 3.77884L9.36772 15.6354L19.4139 19.0562C19.4886 19.081 19.5672 19.0943 19.6458 19.0943C19.7761 19.0943 19.9055 19.059 20.0196 18.9903C20.2016 18.8795 20.3253 18.6934 20.3569 18.4843L22.9923 0.822092C23.0316 0.554773 22.9185 0.289363 22.6981 0.13279V0.13279Z" fill="#999999"/>
</svg>
