<svg width="37" height="28" viewBox="0 0 37 28" fill="none" xmlns="http://www.w3.org/2000/svg">
<path d="M36.5529 4.58207C36.2797 4.45489 35.9582 4.49926 35.7309 4.69351C30.0994 9.46752 22.912 15.5868 20.6506 17.6245C19.3814 18.7702 17.6199 18.7702 16.3478 17.623C13.9374 15.4513 5.86623 8.58978 1.26913 4.69344C1.04026 4.49919 0.718104 4.45633 0.447107 4.582C0.174666 4.70854 0 4.98105 0 5.28139V24.6666C0 26.3672 1.3828 27.75 3.08336 27.75H33.9167C35.6172 27.75 37 26.3672 37 24.6666V5.28139C37 4.98105 36.8253 4.70782 36.5529 4.58207Z" fill="#BFA465"/>
<path d="M0.772265 2.25151C5.85037 6.55211 14.7609 14.1182 17.3798 16.4773C17.7313 16.7957 18.1084 16.9576 18.4999 16.9576C18.8906 16.9576 19.267 16.7972 19.6178 16.4803C22.2389 14.1189 31.1494 6.55211 36.2276 2.25151C36.5437 1.98427 36.5919 1.51454 36.336 1.18783C35.7443 0.432872 34.8621 9.53674e-07 33.9165 9.53674e-07H3.08325C2.1378 9.53674e-07 1.25551 0.432872 0.663867 1.1879C0.407902 1.51454 0.456103 1.98427 0.772265 2.25151Z" fill="#BFA465"/>
</svg>
