<svg width="58" height="42" viewBox="0 0 58 42" fill="none" xmlns="http://www.w3.org/2000/svg">
<path d="M55.5833 23H2.41667C1.08266 23 0 22.104 0 21C0 19.896 1.08266 19 2.41667 19H55.5833C56.9173 19 58 19.896 58 21C58 22.104 56.9173 23 55.5833 23Z" fill="#BFA465"/>
<path d="M55.5833 4H2.41667C1.08266 4 0 3.104 0 2C0 0.895996 1.08266 0 2.41667 0H55.5833C56.9173 0 58 0.895996 58 2C58 3.104 56.9173 4 55.5833 4Z" fill="#BFA465"/>
<path d="M55.5833 42H2.41667C1.08266 42 0 40.88 0 39.5C0 38.12 1.08266 37 2.41667 37H55.5833C56.9173 37 58 38.12 58 39.5C58 40.88 56.9173 42 55.5833 42Z" fill="#BFA465"/>
</svg>
