<svg width="24" height="27" viewBox="0 0 24 27" fill="none" xmlns="http://www.w3.org/2000/svg">
<path d="M2.1767 18.73C1.90149 18.73 1.64688 18.7469 1.396 18.7244C1.17321 18.7038 0.941063 18.6739 0.738867 18.5878C0.315754 18.4062 0.0648815 18.0673 0.0105882 17.6011C-0.0979983 16.6894 0.650874 16.1595 1.23687 16.1689C1.49523 16.1726 1.75172 16.167 2.01008 16.1708C2.11679 16.1726 2.15424 16.1352 2.15236 16.0247C2.14862 15.0905 2.14862 14.1563 2.15236 13.224C2.15236 13.0948 2.09994 13.0704 1.98761 13.0686C1.68245 13.063 1.37728 13.0686 1.07586 13.033C0.510461 12.9656 0.2184 12.5837 0.070498 12.0744C-0.0362163 11.7112 -0.0343441 11.348 0.212784 11.0335C0.394385 10.8014 0.594709 10.6703 0.871792 10.6085C1.23125 10.528 1.66372 10.4943 2.02693 10.4382C2.11305 10.425 2.14862 10.3988 2.14862 10.3108C2.14675 9.38599 2.14675 8.46113 2.14862 7.53627C2.14862 7.43705 2.10182 7.41458 2.01195 7.41083C1.7124 7.3996 1.41285 7.38837 1.11518 7.36029C0.487995 7.30225 0.154746 6.85105 0.0461597 6.27442C0.0105882 6.08533 0.0218213 5.87752 0.0573928 5.68656C0.121047 5.3402 0.362558 5.12303 0.684574 5.02755C0.931702 4.95453 1.18257 4.89462 1.43532 4.85156C1.56263 4.8291 1.68994 4.81037 1.81724 4.7954C1.89962 4.78604 2.07186 4.80476 2.13551 4.74298C2.17109 4.70928 2.17857 4.65498 2.17857 4.60818C2.17483 3.80314 2.17483 2.99997 2.1767 2.19494C2.17857 1.05852 2.96676 0.158003 4.09194 0.00635617C4.15934 -0.00300474 4.23049 0.000739627 4.29976 0.000739627C10.609 0.000739627 16.9201 0.000739627 23.2294 0.000739627C23.514 0.000739627 23.4821 -0.0179822 23.4821 0.255356C23.4821 9.09018 23.4821 17.9231 23.4821 26.758C23.4821 26.7991 23.4803 26.8422 23.4821 26.8834C23.4877 26.9658 23.4559 27.0051 23.3698 26.9995C23.3324 26.9976 23.2968 26.9995 23.2593 26.9995C17.0699 26.9995 10.8786 26.9995 4.68917 26.9995C4.32784 26.9995 3.97212 26.9733 3.6239 26.8609C2.80763 26.597 2.37141 26.0128 2.23287 25.1909C2.18794 24.9288 2.1767 24.6592 2.1767 24.3915C2.17296 22.5699 2.17483 20.7483 2.17483 18.9266C2.1767 18.8723 2.1767 18.8124 2.1767 18.73ZM22.6209 11.7543C22.6209 8.19528 22.6209 4.63626 22.6209 1.07537C22.6209 0.839477 22.6415 0.865688 22.4131 0.865688C17.9161 0.865688 13.4173 0.865688 8.9203 0.865688C8.69938 0.865688 8.69938 0.865688 8.69938 1.07912C8.69938 8.20277 8.69938 15.3264 8.69938 22.4501C8.69938 22.6616 8.69938 22.6616 8.91656 22.6616C13.4135 22.6616 17.9124 22.6616 22.4094 22.6616C22.6191 22.6616 22.6191 22.6616 22.6191 22.4463C22.6209 18.8836 22.6209 15.3189 22.6209 11.7543ZM3.05101 7.28914C3.05101 8.39747 3.05101 9.44777 3.05101 10.5411C3.35618 10.4382 3.64449 10.3595 3.91783 10.2416C4.30912 10.0731 4.7004 9.97947 5.12726 10.06C5.94353 10.2116 6.62313 11.0597 6.48272 11.9677C6.37413 12.6679 5.99034 13.1547 5.31822 13.3868C4.85018 13.5478 4.38775 13.4804 3.94966 13.2651C3.66883 13.1266 3.36741 13.0761 3.05288 13.018C3.05288 14.0814 3.05288 15.128 3.05288 16.1895C3.36741 16.1221 3.66696 16.0603 3.94779 15.9218C4.28852 15.7533 4.64611 15.669 5.03365 15.7289C6.09331 15.8899 6.75419 16.9402 6.42281 17.955C6.19253 18.657 5.58969 19.1382 4.80899 19.1475C4.48697 19.1513 4.18743 19.0446 3.88975 18.9173C3.62764 18.8049 3.34494 18.7375 3.05476 18.6439C3.05476 20.1304 3.05476 21.572 3.05476 23.0361C3.55276 22.832 4.05263 22.7084 4.5731 22.6916C5.03365 22.6766 5.49608 22.6841 5.95851 22.6785C6.52578 22.671 7.09305 22.6598 7.65845 22.6541C7.79138 22.6523 7.81384 22.5886 7.81384 22.4725C7.81197 15.3114 7.81197 8.15035 7.81384 0.989252C7.81384 0.863815 7.78014 0.818883 7.65096 0.818883C6.5108 0.826372 5.37439 0.828244 4.23797 0.843221C3.64262 0.85071 3.16334 1.25885 3.05663 1.83922C3.0248 2.00959 3.02106 2.18745 3.01918 2.36343C3.01544 3.13103 3.01731 3.89862 3.01918 4.66622C3.01918 4.728 3.03791 4.78978 3.05288 4.88713C3.35805 4.78042 3.65198 4.69992 3.92906 4.57822C4.32409 4.40411 4.72287 4.30676 5.1516 4.40037C6.29737 4.65124 6.86277 5.95615 6.25431 6.95964C5.92855 7.49696 5.43804 7.7834 4.81086 7.79838C4.50008 7.80587 4.20615 7.7029 3.91783 7.57933C3.64449 7.46138 3.3543 7.38837 3.05101 7.28914ZM13.4266 23.5041C10.5042 23.5041 7.58356 23.5041 4.66109 23.506C4.50382 23.506 4.34843 23.5153 4.19117 23.5322C3.64449 23.5884 3.19891 23.9759 3.04914 24.5207C2.91247 25.0168 3.12028 25.5935 3.54901 25.9099C3.85418 26.1345 4.20989 26.1869 4.5731 26.1869C10.0324 26.1888 15.4917 26.1888 20.9528 26.1869C21.4602 26.1869 21.9694 26.1682 22.4768 26.1664C22.6097 26.1664 22.6509 26.1195 22.6509 25.9866C22.6453 25.234 22.649 24.4795 22.649 23.7269C22.649 23.5079 22.649 23.5079 22.43 23.5079C19.427 23.5041 16.4259 23.5041 13.4266 23.5041ZM2.57173 5.61167C2.57173 5.61354 2.57173 5.61354 2.57173 5.61541C2.44255 5.61541 2.31337 5.61354 2.18419 5.61541C1.87903 5.62103 1.57573 5.62665 1.27057 5.63975C1.07024 5.64911 0.922341 5.76706 0.877408 5.93368C0.783799 6.27817 0.967273 6.5178 1.3286 6.52342C2.05876 6.53278 2.78891 6.54027 3.51718 6.54963C3.85418 6.55525 4.16309 6.65447 4.43081 6.86041C4.67045 7.04576 4.92132 7.04576 5.16658 6.89411C5.67581 6.57959 5.96225 5.87003 5.23959 5.32897C4.93443 5.10056 4.65547 5.10805 4.35405 5.34207C4.12752 5.51806 3.86915 5.60605 3.58458 5.6098C3.24759 5.61354 2.9106 5.61167 2.57173 5.61167ZM4.79401 12.6267C5.28078 12.6267 5.67394 12.2261 5.66645 11.7487C5.65896 11.2619 5.2658 10.8744 4.7884 10.8819C4.56373 10.8856 4.36716 10.9755 4.17994 11.0878C3.94966 11.2263 3.70066 11.2975 3.43106 11.2975C2.7421 11.2956 2.05314 11.2975 1.36605 11.2994C1.10769 11.2994 0.941063 11.3855 0.899875 11.5671C0.823115 11.9134 0.899875 12.2149 1.35294 12.2111C2.01008 12.2074 2.66534 12.2055 3.32248 12.2111C3.65011 12.213 3.96276 12.2841 4.24546 12.462C4.41209 12.5706 4.59556 12.6398 4.79401 12.6267ZM1.53642 16.9852C1.33422 16.9852 1.13764 16.9964 0.987867 17.1349C0.858687 17.2548 0.838093 17.4645 0.890514 17.6255C0.941063 17.7846 1.08522 17.8389 1.235 17.8651C1.26682 17.8707 1.29865 17.8688 1.33235 17.8688C1.96889 17.8782 2.60543 17.8801 3.24197 17.8988C3.43294 17.9044 3.62764 17.94 3.81112 17.9962C4.04888 18.0673 4.27542 18.1759 4.50944 18.262C4.87639 18.3949 5.20402 18.2957 5.45864 17.9812C5.71513 17.6648 5.74321 17.3091 5.5354 16.9814C5.2864 16.592 4.75282 16.2962 4.28291 16.7362C4.12939 16.8803 3.92345 16.9515 3.71189 16.9552C3.31499 16.9646 2.91996 16.959 2.52306 16.959" fill="#999999"/>
<path d="M10.9123 9.5188C10.8861 6.95391 13.0897 4.79529 15.6808 4.79529C18.2794 4.79529 20.4623 6.94081 20.4623 9.58995C20.4623 12.1698 18.3131 14.4146 15.5853 14.3472C12.9362 14.2816 10.8974 12.1829 10.9123 9.5188ZM12.4363 11.7018C12.5224 11.5614 12.5898 11.4565 12.6535 11.3498C12.8875 10.951 13.1309 10.556 13.4885 10.2527C13.7 10.073 13.9134 9.89698 14.1306 9.72287C14.2018 9.6667 14.213 9.61616 14.1624 9.53752C14.095 9.42894 14.0333 9.31286 13.979 9.19679C13.7824 8.76057 13.657 8.31125 13.7581 7.82822C14.0239 6.55701 15.5011 5.90362 16.6468 6.54578C17.3882 6.9614 17.7271 7.67845 17.5792 8.51719C17.5118 8.89537 17.3658 9.24172 17.1823 9.57497C17.1261 9.67607 17.1261 9.72849 17.2384 9.79027C17.9854 10.1984 18.5022 10.8125 18.8204 11.5988C18.8392 11.6437 18.8616 11.6868 18.8841 11.7336C18.9103 11.7205 18.9253 11.7167 18.9328 11.7074C18.9646 11.6681 18.9964 11.6288 19.0245 11.5857C19.6011 10.7095 19.7528 9.7547 19.5262 8.7381C19.0788 6.73861 17.1898 5.32512 15.0199 5.69394C14.0876 5.8512 13.3012 6.28367 12.6965 7.01195C11.9683 7.88813 11.6537 8.90473 11.7492 10.0468C11.7904 10.5391 11.9327 10.996 12.206 11.4078C12.2678 11.5014 12.3446 11.5876 12.4363 11.7018ZM15.692 13.5159C16.439 13.5159 17.143 13.3193 17.7795 12.8925C18.0753 12.694 18.1614 12.4563 18.0809 12.108C17.7982 10.8892 16.5401 10.0917 15.3419 10.2658C14.3122 10.4156 13.4491 11.2019 13.2432 12.2241C13.1833 12.5199 13.2601 12.7146 13.5165 12.8719C14.1774 13.2781 14.8889 13.5215 15.692 13.5159ZM15.677 9.38026C16.3098 9.38026 16.7947 8.90098 16.7947 8.27193C16.7947 7.64288 16.2967 7.13552 15.6789 7.13739C15.0723 7.13739 14.55 7.66347 14.5519 8.27193C14.5519 8.88788 15.0536 9.38026 15.677 9.38026Z" fill="#999999"/>
<path d="M14.3309 18.7825H13.5446V19.537H14.3309V18.7825Z" fill="#999999"/>
<path d="M16.0795 18.7825H15.2932V19.537H16.0795V18.7825Z" fill="#999999"/>
<path d="M17.8282 18.7825H17.0419V19.537H17.8282V18.7825Z" fill="#999999"/>
<path d="M20.0185 16.6182H11.3802V17.3764H20.0185V16.6182Z" fill="#999999"/>
</svg>
