<svg id="Layer_1" data-name="Layer 1" xmlns="http://www.w3.org/2000/svg" viewBox="0 0 83.94 100"><title>Gulshan Club Mobile App Icons</title><path d="M43,0a22.46,22.46,0,0,1,3.73,1.58,8.17,8.17,0,0,1,3.14,9.33l.77.28c9.64,3.23,15.28,10,17,19.9a87,87,0,0,1,.57,9.3,48.09,48.09,0,0,0,2.9,15,23,23,0,0,0,8.51,10.67c.57.4,1.13.82,1.68,1.25,3.27,2.56,3.59,6.19.83,9.33a15.43,15.43,0,0,1-7.21,4.22,68.34,68.34,0,0,1-15.43,2.61c-1.9.15-3.81.26-5.72.39,1.36,5.75,0,10.59-5,14-4.32,2.93-8.94,2.89-13.38.14-4.64-2.88-6.22-7.37-5.14-14.1-1.88-.13-3.75-.24-5.62-.39a66.19,66.19,0,0,1-16.1-2.79A14.36,14.36,0,0,1,1.8,76.58,7.05,7.05,0,0,1,0,71.27a4.92,4.92,0,0,1,2-3.45c1.33-1.08,2.73-2.08,4.07-3.15,4.17-3.33,6.53-7.78,7.91-12.84a52.14,52.14,0,0,0,1.74-13.27c0-4.14.23-8.25,1.69-12.2a23.8,23.8,0,0,1,15.32-15l1-.34a2.83,2.83,0,0,0,.28-.15,8.18,8.18,0,0,1-.07-4.8A8.19,8.19,0,0,1,40.49.14a1.9,1.9,0,0,0,.4-.14Zm-1.1,79.51,0-.4c3.43,0,6.86.06,10.29,0a98.83,98.83,0,0,0,16.64-1.61,22.14,22.14,0,0,0,8.11-2.77,9.13,9.13,0,0,0,2-2.1.85.85,0,0,0-.28-1.29c-.56-.41-1.1-.86-1.66-1.26A28.56,28.56,0,0,1,70,63.25c-3.62-5.16-5.31-11-6-17.18-.44-4-.47-8-.74-12-.6-9-6-16.48-15.4-18.73a2.42,2.42,0,0,0-1.89.24,8.23,8.23,0,0,1-8.24-.07,2,2,0,0,0-1.29-.24,19.57,19.57,0,0,0-10.82,6.28c-3.69,4.26-5.06,9.33-5.07,14.84a62.54,62.54,0,0,1-2.16,17.33A27.73,27.73,0,0,1,10,67.53c-1.47,1.28-3.07,2.4-4.6,3.6-.79.62-.87,1.08-.32,1.92a3,3,0,0,0,.85,1A22.37,22.37,0,0,0,9.35,75.9a44,44,0,0,0,13,2.6C28.87,79,35.38,79.19,41.88,79.51ZM42,84c-2,0-4,0-6,0a.9.9,0,0,0-1,.64,7.59,7.59,0,0,0,2.29,9,7.53,7.53,0,0,0,11.56-8.89,1,1,0,0,0-1.1-.7C45.84,84,43.92,84,42,84ZM42,11.9a3.58,3.58,0,0,0-.1-7.16,3.7,3.7,0,0,0-3.55,3.59A3.63,3.63,0,0,0,42,11.9Z"/></svg>