<svg width="10" height="42" viewBox="0 0 10 42" fill="none" xmlns="http://www.w3.org/2000/svg">
<path d="M5 10C7.76142 10 10 7.76142 10 5C10 2.23858 7.76142 0 5 0C2.23858 0 0 2.23858 0 5C0 7.76142 2.23858 10 5 10Z" fill="#BFA465"/>
<path d="M5 26C7.76142 26 10 23.7614 10 21C10 18.2386 7.76142 16 5 16C2.23858 16 0 18.2386 0 21C0 23.7614 2.23858 26 5 26Z" fill="#BFA465"/>
<path d="M5 42C7.76142 42 10 39.7614 10 37C10 34.2386 7.76142 32 5 32C2.23858 32 0 34.2386 0 37C0 39.7614 2.23858 42 5 42Z" fill="#BFA465"/>
</svg>
