<svg id="Layer_1" data-name="Layer 1" xmlns="http://www.w3.org/2000/svg" viewBox="0 0 110.34 100"><defs><style>.cls-1{fill:#3f3f42;}.cls-2{fill:#fff;}.cls-3{fill:#fdfdfd;}</style></defs><title>Gulshan Club Mobile App Icons</title><path class="cls-1" d="M110.34,87.35c-5.27-4.09-11.1-6.5-16.9-9.06.26-.89.54-1.67.72-2.48a22.45,22.45,0,0,0,.38-2.59c.06-.68-1.2-1.35-.32-1.94L97.67,73l.42-.41-1.15-3L98.59,66,101.45,68c-.47-1.34-.85-2.46-1.26-3.66h2.9l-2.77-2,4.48-1.12c-1.58-2.14-3.81-1.61-6-1.6l1.29-.59-.61-1h2.8c-.64-.73-1.15-1.31-1.69-1.91,2.69-1.25,3.5-3.49,1.64-5-1.25-1-1.34-2.1-1.45-3.42l2.75.16-1.48-1.79,3.21-1.52-.09-.44-3.6-.55c-.75-1.59-1.43-3-2.19-4.6,0-.07.22-.37.43-.7l-1.07-.28c0-.1,0-.2,0-.31h4.55l.1-.54-4.4-1.59c-.78-1.73,2-1.88,1.79-3.76l-2.5.29c.19-.88-1.5-1.1-.76-2.29-.22-.13-.44-.35-.67-.37a6,6,0,0,0-1.25.14c.15-2,2.38-1.16,3-2.58l-1.72-.16v.92a3.8,3.8,0,0,1-1.37-3.31c.09-.26.57-.39.87-.57l.21.29c-.18.48-.37,1-.56,1.45l.33.24,2-2.35-.23-.4-5.3,1.3c-.19-.54-.43-1.22-.67-1.87l2.21-1.05c0-.12-.07-.24-.11-.36l-2.86-.43c-.52-1.4-1-2.77-1.49-3.95l-2.11,1.49-.85-.68c.41-1.08.76-2,1.1-2.9l-.31-.17L86.3,15.73c-.34-1.31-.67-2.52-1-3.89l-2,2.11A2.43,2.43,0,0,1,83,11.11c.25-.47,0-1.19,0-2.18l-1.38,1.64-.53-1.31c-1.35,2-1.66,2.15-2.76,1.39l1.5-2-.29-.3L77.37,9.64,76.58,9,77.75,6.9l-1.5.86-.47-.84c-.91.49-.55,2.31-2.09,1.33,1.11-2,1.1-2.37,0-5.2L70.59,6.51,68.9,4.11l-.26.15.2,1.43L66.22,4.32c.29-1.45.36-2.9-1.28-4.1l-1.15,4.3-3-1.44.75-1.42H59.8c.08-.52.15-1,.24-1.62-2.69,2-2.69,2-3.89,2.2L55,.35c-.47.77-.81,1.35-1,1.71C51.79,3,51.36.77,49.92,0c.11.68.19,1.17.29,1.75H48.59l.69,1.35-3,1.42L45.07.33h-.7c-.32,1.32-.63,2.64-1,4.2L41.21,5.69c.06-.56.11-1.1.2-2l-2,2.82-3.09-3.4c-1,1.87-1.17,3.64.33,5.25-1.77.81-1.54-.9-2.28-1.34l-.56.76-1.13-.54c-.3,1,2.16,2,.06,2.66l-2.28-1.5-.33.36,1.77,2.15c-1.71.83-2.34-.47-3-1.71-.23.59-.38,1-.57,1.46L26.91,9a6.88,6.88,0,0,0,.2,2.29c.57,1.08.41,1.89-.64,2.85l-1.81-2-.93,3.61-1.49-1.15-.3.16c.4,1,.79,2,1.21,3l-.84.76-2.22-1.72c-.46,1.31-.93,2.68-1.4,4l-3,.49c0,.12,0,.24,0,.35l2.17,1c-.25.68-.49,1.36-.75,2.07a7.83,7.83,0,0,0-5.6-1.22l2.16,2.72-2.83,1.17a11.61,11.61,0,0,0,2.35.93A6.71,6.71,0,0,0,15.08,28l-.95,1.69-2.51-.51c.62.74,1,1.15,1.23,1.49l-1.47,1.6L9.3,31.77l-.3.4a5.41,5.41,0,0,0,1.1,1.54c.87.59,1.11,1.24.84,1.93L6.63,37.27l.15.52h4.5c0,.08,0,.17,0,.25l-1.06.33.53,1-.37-.09-2,4.31-3.67.66c0,.15,0,.3,0,.45L8,46.13l-1.4,1.7H9.17c0,.77-.09,1.54-.13,2.37a3.34,3.34,0,0,0-2.18,3.07c0,1.66,1.16,2.36,2.52,2.94l-1.79,2h2.67c-.13.41-.22.71-.31,1l1.42.57c-4.07-.31-5.35,0-5.94,1.58l4.25,1.12L7.27,64.13c.05.09.09.17.13.26H9.82C9.41,65.57,9,66.69,8.58,68l2.86-2,1.65,3.61-1.22,3.13.46.41,3.75-2.24c0,.68-.12,1.34-.1,2a17.64,17.64,0,0,0,.2,2.73A26.57,26.57,0,0,0,17,78.35c-6,2.56-11.72,5.09-16.95,9l8,3c-.77,3.26-1.5,6.38-2.23,9.49A82.84,82.84,0,0,1,30.94,88.3c-.84,1.16-2.29,1.9-1.75,3.64l1.88-1.33L32.13,93l.37,0,.61-3.14,2,.84L34.39,93l1.9-1.24c.51.87,1,1.71,1.7,2.84.26-1.11.42-1.77.6-2.48a12.4,12.4,0,0,0,1.25.7c.41.18.85.29,1.28.43-.88,2-.81,2.5.63,3.9l2.11-2.8c.3.44.6.88,1,1.55.17-.88.28-1.41.38-2L47,94.6l.85,3.9c2.19-.66,2.22-3.44,4.51-3.3L53,96.33c.2-.53.34-.89.53-1.41,1,1.21,2,1.2,3,.09l.56,1.23,1-1.47c.83.89,1.51,1.66,2.23,2.39.46.47,1,.89,1.47,1.33l.49-.12L63,94.65,64.71,94c.13.62.26,1.19.4,1.85l1.14-1.28,2,2.62c1.62-1.23,1.27-2.57.67-3.79l2.5-1.15c.17.64.35,1.33.63,2.42.69-1.19,1.18-2,1.66-2.84L75.57,93c-.3-1-.47-1.59-.66-2.2.63-.5,1.2-1.46,2-.74.27,1.11.47,2,.68,2.85l.34-.08q.53-1.11,1-2.19l1.79,1.27.43-.35-1.86-3.32A75.34,75.34,0,0,1,104.42,100l.26-.27c-.74-3.14-1.48-6.28-2.22-9.44Zm-19.94-16c1.89.8,2.54,1.77,2.21,3.82A18.34,18.34,0,0,1,89.15,83a3,3,0,0,1-.74.57c1-2.37,2.13-4.79,2.87-7.33.61-2.16-.29-3.54-2.3-4.49a53.94,53.94,0,0,1-5.57-2.93,17,17,0,0,1,1.69.47C86.87,70,88.65,70.62,90.4,71.36ZM20,71.29c2.38-1,4.8-1.87,7.19-2.79l.15.35c-1.82.86-3.6,1.82-5.47,2.56-3.4,1.36-3.5,3.68-2.7,6A66.21,66.21,0,0,0,22,83.68c-.35-.29-.92-.53-1.13-1a57.14,57.14,0,0,1-3.18-7.06C17,73.46,17.77,72.19,20,71.29Zm-11.73,25c.5-2.23.9-4.25,1.41-6.25.21-.81,0-1.16-.77-1.42-1.7-.57-3.37-1.23-5.35-2L9,83.53a.64.64,0,0,1,.1.13L6.85,86.2l5,1.77c-.44,1.93-.86,3.8-1.34,5.91l3.88-1.37.08.21ZM27.73,85.48a7.14,7.14,0,0,0-4.74.46c-2.61,1.26-3.61.78-4.56-2-.36-1.09-.67-2.2-1-3.41l-3.2.84-.06-.21L18,79.56c.53,1.41,1,2.75,1.54,4.08a1.89,1.89,0,0,0,2.67,1.21,8.11,8.11,0,0,1,7.22,1C28.87,85.75,28.31,85.59,27.73,85.48Zm39.79-5.41a10.16,10.16,0,0,0-.64.8L65.62,80c-.07.47-.13.87-.19,1.21l-2.63.39c-.23-.53-.49-1.16-.84-2l-2,1.62L59,80.73v1.55c-.39-.06-.76-.13-1.14-.17s-.71-.19-.91,0a3,3,0,0,1-3.84,0,.77.77,0,0,0-.67-.09C50.88,83,51,81.74,51,80.63c-.45.33-.73.52-1,.69l-1.94-1.7c-.36.82-.65,1.46-.91,2l-2.61-.43c0-.31,0-.72-.08-1.31l-1.33,1-1.53-1.61a103.17,103.17,0,0,1,26.74,0C68,79.6,67.76,79.82,67.52,80.07Zm-35-.8c7.45-5.52,34.74-5.71,45.11-.1A89,89,0,0,0,32.52,79.27ZM26,67.11c.42-1.52.42-1.52,2.42-2.41-.38-.15-.66-.26-.95-.35s-.62-.16-.9-.23c.42-.9.83-1.76,1.23-2.63l-.3-.29-2.71,1.23c-.28-.64-.53-1.26-.81-1.91l2.21-.43-3.73-2.26c1.13-.85,2.35-1.68,3.47-2.64A7.06,7.06,0,0,0,27,53.49l-.19-.34-5.14,1.64c0-.88-.1-2-.15-3.25h1.56L21.46,49l4.28-2L23.2,45.58c.53-.75,1.36-1.43,1.52-2.24a8.4,8.4,0,0,0-.52-2.87l1.66-.15L24,39l3-1.56-4.17-.36,1-2.31c1.08-.09,2.09-.17,2.35,1.67.61-3.11,1.21-3.48,5-3.37a6.23,6.23,0,0,1-1.2-1.86,6.34,6.34,0,0,1,.31-2.12l3.94,1.37c-.53-2.23-1-4.15-1.49-6.31.09-.25.32-.88.51-1.42l2.28,2.56c.44-1.49.19-3.21,2.25-2.87.36.57.73,1.13,1.25,1.94l.16-1.78,1.47.44-1-2.81,2.21,1.18V18.82L44,17.48l.91,1.46c1.28-.76-.2-2.62,1.26-3.07l1.39,3.21L48,19c.22-.47.43-.95.64-1.4l2.84,3c.16-1.38.27-2.41.4-3.57l.68.5c.1-.56.18-1.06.27-1.56l.27-.11c.19.41.39.82.58,1.2,1-1.1,1.68-1.07,2.65.11.14-.42.28-.87.42-1.32l.35.08.29,1.59.8-.5c0,.93.1,1.76.15,2.58,0,.22.07.44.16,1l3-2.58-.2-.42.26.37L61.5,18c.17.38.37.82.69,1.5.67-1.35,1.2-2.38,1.79-3.57,1.14.61-.07,2.21,1.08,3.06l1-1.45,2.15,1.3v2.67l2.33-1.34-1.16,3,1.48-.47c0,.56.06,1,.11,1.84.56-.83,1-1.42,1.33-2,2-.34,1.8,1.32,2.31,2.79l2.26-2.5.56,1.82a23,23,0,0,0-1,2.65A30.6,30.6,0,0,0,76,30.37l3.62-1.18c.83,1.39.13,2.64-.79,3.92,1.31,0,2.6-.35,3.46.1s1.11,1.71,1.52,2.4l2.42-1.21c.44,1,.77,1.84,1.2,2.85-.79,0-1.41,0-2,0s-1.27.14-2.28.25L86.05,39l-1.86,1.31,1.74.12c-1.19,2.92-1,3.88,1.32,4.9l-2.84,1.5c.83.47,1.44.86,2.09,1.17s1.37.56,2.07.83l-1.64,2.72,1.58-.09c-.12,1.1-.23,2.2-.32,3.2l-5.26-1.58c.86,2.57,2.89,3.52,4.78,4.65L83.8,60.07l2.28.45c-.3.65-.59,1.27-.88,1.91l-2.72-1.27-.3.19,1.27,2.75-1.68.45,2.42,1.86-.25.37C64.58,60.89,45.26,60.79,26,67.11ZM91.7,84.83c-.71,1.71-1.61,2.23-3.13,1.52a9.44,9.44,0,0,0-7.52-.53,8.51,8.51,0,0,1,7.08-1c1.68.49,2.24.24,2.89-1.39.49-1.24.94-2.49,1.44-3.83l4,1.61-.07.21-3.28-.85C92.63,82,92.26,83.47,91.7,84.83Zm4.09,7.9a1.59,1.59,0,0,1,.07-.2l3.88,1.33L98.42,88l4.93-1.74-2.52-3,5.87,3.43L100.42,89c.51,2.38,1,4.74,1.56,7.29Z"/><path class="cls-2" d="M77.63,79.17a89,89,0,0,0-45.11.1C40,73.75,67.27,73.56,77.63,79.17Z"/><path class="cls-2" d="M3.51,86.69,9,83.53l.11.13L6.85,86.2l5,1.77-1.35,5.91,3.89-1.37.08.21-6.2,3.59c.49-2.23.89-4.25,1.4-6.25.21-.81,0-1.16-.77-1.42C7.16,88.07,5.49,87.41,3.51,86.69Z"/><path class="cls-2" d="M106.7,86.7,100.42,89c.51,2.38,1,4.74,1.56,7.29l-6.19-3.56.07-.2,3.88,1.33L98.42,88l4.93-1.74-2.52-3Z"/><path class="cls-2" d="M88.41,83.55c1-2.36,2.13-4.78,2.87-7.32.62-2.16-.3-3.53-2.3-4.49a52.06,52.06,0,0,1-5.57-2.93,17,17,0,0,1,1.69.47c1.77.67,3.55,1.34,5.3,2.08s2.54,1.77,2.22,3.82A18.36,18.36,0,0,1,89.15,83,2.57,2.57,0,0,1,88.41,83.55Z"/><path class="cls-2" d="M27.29,68.85c-1.82.86-3.6,1.82-5.47,2.56-3.4,1.36-3.5,3.68-2.7,6A66.21,66.21,0,0,0,22,83.68c-.35-.29-.92-.53-1.13-1a57.14,57.14,0,0,1-3.18-7.06c-.71-2.2.11-3.47,2.29-4.37,2.38-1,4.8-1.87,7.19-2.79Z"/><path class="cls-2" d="M17.39,80.53l-3.2.84-.06-.21L18,79.56c.53,1.41,1,2.75,1.54,4.08a1.89,1.89,0,0,0,2.67,1.21,8.09,8.09,0,0,1,7.21,1c-.57-.14-1.13-.3-1.71-.42a7.2,7.2,0,0,0-4.74.47c-2.6,1.26-3.61.78-4.56-2C18.06,82.85,17.76,81.74,17.39,80.53Z"/><path class="cls-2" d="M81.05,85.82a8.51,8.51,0,0,1,7.08-1c1.68.49,2.24.23,2.89-1.39.49-1.24.94-2.5,1.44-3.83l4,1.61-.07.21-3.28-.85c-.49,1.5-.87,2.93-1.43,4.29-.71,1.71-1.61,2.23-3.13,1.52A9.44,9.44,0,0,0,81.05,85.82Z"/><path class="cls-3" d="M37.09,85c2.55,1.57,5.3.72,5.41-2.74a3,3,0,0,1-.62,3.78C40.45,87.12,38.71,86.84,37.09,85Z"/><path class="cls-3" d="M41.67,81.64c-2.71-.57-3.72.11-4.13,2.59a2.23,2.23,0,0,1,.6-3C39.14,80.43,40.26,80.51,41.67,81.64Z"/><path class="cls-3" d="M41,84.79A2,2,0,0,0,41,83a1.85,1.85,0,0,0-1.56-.91A1.44,1.44,0,0,1,40,82a1.52,1.52,0,0,1,1.2.54A1.67,1.67,0,0,1,41,84.79Z"/><path class="cls-3" d="M40.05,84.94a1,1,0,0,1-.42.08,1.25,1.25,0,0,1-1-.49,1.22,1.22,0,0,1,0-1.63,1.82,1.82,0,0,0,.17,1.41A1.73,1.73,0,0,0,40.05,84.94Z"/><circle class="cls-3" cx="39.9" cy="83.51" r="0.33"/><path class="cls-3" d="M39.21,84.08a1.1,1.1,0,0,0,1,0,1,1,0,0,0,.51-.87.88.88,0,0,1,.06.33.83.83,0,0,1-.3.67A.94.94,0,0,1,39.21,84.08Z"/><path class="cls-3" d="M39.12,83.56a.59.59,0,0,1,0-.23.73.73,0,0,1,.27-.54.7.7,0,0,1,.92,0,1,1,0,0,0-.79.1A1,1,0,0,0,39.12,83.56Z"/><path class="cls-3" d="M68.55,80c-1,2.81.34,5.34,3.75,4.76a3,3,0,0,1-3.83.15C67.15,83.7,67.07,81.93,68.55,80Z"/><path class="cls-3" d="M72.75,83.8c0-2.77-.84-3.63-3.35-3.53a2.22,2.22,0,0,1,3,0C73.44,81.08,73.59,82.19,72.75,83.8Z"/><path class="cls-3" d="M69.53,83.73a2,2,0,0,0,1.75-.33,1.86,1.86,0,0,0,.58-1.71,1.54,1.54,0,0,1,.23.56,1.48,1.48,0,0,1-.3,1.28A1.67,1.67,0,0,1,69.53,83.73Z"/><path class="cls-3" d="M69.2,82.86a1,1,0,0,1-.16-.39,1.25,1.25,0,0,1,.29-1,1.22,1.22,0,0,1,1.6-.3,1.87,1.87,0,0,0-1.34.45A1.71,1.71,0,0,0,69.2,82.86Z"/><circle class="cls-3" cx="70.57" cy="82.44" r="0.33"/><path class="cls-3" d="M69.88,81.87a1.15,1.15,0,0,0,.18,1,1.08,1.08,0,0,0,1,.32.9.9,0,0,1-.32.13.85.85,0,0,1-.72-.17A.94.94,0,0,1,69.88,81.87Z"/><path class="cls-3" d="M70.37,81.69a.62.62,0,0,1,.22-.1.73.73,0,0,1,.75,1.07,1,1,0,0,0-.25-.76A1,1,0,0,0,70.37,81.69Z"/><path class="cls-3" d="M85.4,63.39c-.1,3,2,5,5,3.34a3,3,0,0,1-3.58,1.34C85.23,67.35,84.61,65.7,85.4,63.39Z"/><path class="cls-3" d="M90.59,65.69c-.84-2.63-1.94-3.18-4.3-2.3a2.22,2.22,0,0,1,2.87-.94C90.38,62.9,90.88,63.91,90.59,65.69Z"/><path class="cls-3" d="M87.51,66.64a2,2,0,0,0,1.56-.86,1.89,1.89,0,0,0,0-1.81,1.45,1.45,0,0,1,.39.46,1.5,1.5,0,0,1,.12,1.31A1.66,1.66,0,0,1,87.51,66.64Z"/><path class="cls-3" d="M86.92,65.92a1.22,1.22,0,0,1-.28-.32,1.3,1.3,0,0,1,0-1.08A1.23,1.23,0,0,1,88,63.74a1.8,1.8,0,0,0-1.14.84A1.73,1.73,0,0,0,86.92,65.92Z"/><circle class="cls-3" cx="88.09" cy="65.09" r="0.33"/><path class="cls-3" d="M87.25,64.76a1.14,1.14,0,0,0,.49.88,1,1,0,0,0,1,0,.92.92,0,0,1-.26.22.85.85,0,0,1-.74.07A1,1,0,0,1,87.25,64.76Z"/><path class="cls-3" d="M87.66,64.44a.55.55,0,0,1,.18-.16.71.71,0,0,1,.61,0,.69.69,0,0,1,.44.81,1,1,0,0,0-.48-.64A.93.93,0,0,0,87.66,64.44Z"/><path class="cls-3" d="M95.88,52.35c-2.94.52-4.44,3-2.23,5.63a3,3,0,0,1-2.05-3.23C92,53,93.45,52.06,95.88,52.35Z"/><path class="cls-3" d="M94.7,57.9c2.4-1.37,2.71-2.55,1.36-4.67a2.22,2.22,0,0,1,1.52,2.61C97.39,57.13,96.5,57.82,94.7,57.9Z"/><path class="cls-3" d="M93.13,55.08a2,2,0,0,0,1.17,1.35,1.87,1.87,0,0,0,1.77-.35,1.63,1.63,0,0,1-.37.47,1.54,1.54,0,0,1-1.26.39A1.68,1.68,0,0,1,93.13,55.08Z"/><path class="cls-3" d="M93.72,54.36A1.2,1.2,0,0,1,94,54a1.3,1.3,0,0,1,1-.27c.62.09,1,.49,1.06,1.24A1.87,1.87,0,0,0,95,54.05,1.73,1.73,0,0,0,93.72,54.36Z"/><circle class="cls-3" cx="94.77" cy="55.33" r="0.33"/><path class="cls-3" d="M94.92,54.45a1.14,1.14,0,0,0-.77.65,1.07,1.07,0,0,0,.21,1,.9.9,0,0,1-.27-.21.84.84,0,0,1-.22-.71A1,1,0,0,1,94.92,54.45Z"/><path class="cls-3" d="M95.32,54.78a.52.52,0,0,1,.19.14.7.7,0,0,1,.15.59c0,.35-.27.54-.69.6a1.07,1.07,0,0,0,.53-.6A1,1,0,0,0,95.32,54.78Z"/><path class="cls-3" d="M94.3,40.82c0,3,2.15,4.89,5.15,3.18a3,3,0,0,1-3.54,1.45C94.25,44.79,93.58,43.16,94.3,40.82Z"/><path class="cls-3" d="M99.55,43c-.92-2.61-2-3.12-4.36-2.16a2.23,2.23,0,0,1,2.84-1C99.27,40.17,99.79,41.17,99.55,43Z"/><path class="cls-3" d="M96.5,44A2.05,2.05,0,0,0,98,43.1a1.91,1.91,0,0,0,0-1.81,1.88,1.88,0,0,1,.4.44,1.5,1.5,0,0,1,.16,1.32A1.68,1.68,0,0,1,96.5,44Z"/><path class="cls-3" d="M95.9,43.3a1,1,0,0,1-.29-.31,1.29,1.29,0,0,1,1.32-1.9,1.88,1.88,0,0,0-1.11.87A1.72,1.72,0,0,0,95.9,43.3Z"/><circle class="cls-3" cx="97.04" cy="42.43" r="0.33"/><path class="cls-3" d="M96.19,42.14a1.17,1.17,0,0,0,.51.86,1.06,1.06,0,0,0,1,0,.76.76,0,0,1-.25.22.86.86,0,0,1-.74.1A1,1,0,0,1,96.19,42.14Z"/><path class="cls-3" d="M96.59,41.8a.91.91,0,0,1,.17-.17.71.71,0,0,1,.61,0,.69.69,0,0,1,.47.79,1.08,1.08,0,0,0-.5-.63A1,1,0,0,0,96.59,41.8Z"/><path class="cls-3" d="M85.37,29.66c0,3,2.15,4.89,5.15,3.18A3,3,0,0,1,87,34.29C85.33,33.63,84.65,32,85.37,29.66Z"/><path class="cls-3" d="M90.63,31.8c-.93-2.61-2-3.12-4.37-2.16a2.23,2.23,0,0,1,2.84-1C90.34,29,90.86,30,90.63,31.8Z"/><path class="cls-3" d="M87.57,32.85a2,2,0,0,0,1.54-.91,1.88,1.88,0,0,0,0-1.81,1.68,1.68,0,0,1,.4.44,1.5,1.5,0,0,1,.16,1.32A1.68,1.68,0,0,1,87.57,32.85Z"/><path class="cls-3" d="M87,32.14a1,1,0,0,1-.29-.31,1.26,1.26,0,0,1-.08-1.08A1.22,1.22,0,0,1,88,29.93a1.88,1.88,0,0,0-1.12.87A1.77,1.77,0,0,0,87,32.14Z"/><circle class="cls-3" cx="88.11" cy="31.27" r="0.33"/><path class="cls-3" d="M87.26,31a1.15,1.15,0,0,0,.52.86,1,1,0,0,0,1,0,.76.76,0,0,1-.25.22.84.84,0,0,1-.73.1A1,1,0,0,1,87.26,31Z"/><path class="cls-3" d="M87.66,30.64a.73.73,0,0,1,.18-.17.69.69,0,0,1,.6,0,.68.68,0,0,1,.47.79,1.08,1.08,0,0,0-.5-.63A1,1,0,0,0,87.66,30.64Z"/><path class="cls-3" d="M85.43,16.88c-2.91.67-4.28,3.2-1.93,5.74a3,3,0,0,1-2.22-3.12C81.55,17.74,83,16.71,85.43,16.88Z"/><path class="cls-3" d="M84.54,22.49c2.33-1.5,2.57-2.7,1.11-4.75a2.22,2.22,0,0,1,1.66,2.53C87.19,21.57,86.33,22.3,84.54,22.49Z"/><path class="cls-3" d="M82.83,19.75A2,2,0,0,0,84.06,21a1.9,1.9,0,0,0,1.75-.45,1.6,1.6,0,0,1-.34.49,1.5,1.5,0,0,1-1.24.46A1.68,1.68,0,0,1,82.83,19.75Z"/><path class="cls-3" d="M83.37,19a1.21,1.21,0,0,1,.24-.35,1.29,1.29,0,0,1,1-.33c.63.06,1,.44,1.13,1.19a1.87,1.87,0,0,0-1.11-.89A1.8,1.8,0,0,0,83.37,19Z"/><circle class="cls-3" cx="84.48" cy="19.91" r="0.33"/><path class="cls-3" d="M84.58,19a1.13,1.13,0,0,0-.73.7,1,1,0,0,0,.25,1,.7.7,0,0,1-.27-.19.85.85,0,0,1-.26-.7A1,1,0,0,1,84.58,19Z"/><path class="cls-3" d="M85,19.33a.66.66,0,0,1,.2.14.71.71,0,0,1,.18.58c0,.35-.25.55-.67.63a1,1,0,0,0,.5-.62A1,1,0,0,0,85,19.33Z"/><path class="cls-3" d="M75.38,9.62c-2.91.68-4.27,3.21-1.92,5.75a3,3,0,0,1-2.22-3.12C71.51,10.49,72.94,9.46,75.38,9.62Z"/><path class="cls-3" d="M74.49,15.23c2.33-1.49,2.58-2.69,1.12-4.74A2.22,2.22,0,0,1,77.26,13C77.14,14.32,76.29,15.05,74.49,15.23Z"/><path class="cls-3" d="M72.78,12.5A2.07,2.07,0,0,0,74,13.79a1.89,1.89,0,0,0,1.75-.46,1.64,1.64,0,0,1-.34.5,1.5,1.5,0,0,1-1.24.45A1.67,1.67,0,0,1,72.78,12.5Z"/><path class="cls-3" d="M73.33,11.75a1.09,1.09,0,0,1,.24-.35,1.26,1.26,0,0,1,1-.33c.62.06,1,.44,1.13,1.18a1.88,1.88,0,0,0-1.11-.88A1.69,1.69,0,0,0,73.33,11.75Z"/><circle class="cls-3" cx="74.44" cy="12.66" r="0.33"/><path class="cls-3" d="M74.53,11.77a1.13,1.13,0,0,0-.72.69,1.06,1.06,0,0,0,.25,1,1,1,0,0,1-.28-.19.85.85,0,0,1-.25-.7A.94.94,0,0,1,74.53,11.77Z"/><path class="cls-3" d="M75,12.08a.46.46,0,0,1,.2.13.72.72,0,0,1,.19.58.71.71,0,0,1-.67.64,1.07,1.07,0,0,0,.5-.63A1,1,0,0,0,75,12.08Z"/><path class="cls-3" d="M56.72,13.05c2.64,1.4,5.33.38,5.22-3.07a3,3,0,0,1-.37,3.81C60.21,14.94,58.45,14.77,56.72,13.05Z"/><path class="cls-3" d="M61.07,9.4c-2.74-.4-3.71.34-4,2.85a2.23,2.23,0,0,1,.4-3C58.47,8.35,59.59,8.36,61.07,9.4Z"/><path class="cls-3" d="M60.57,12.59a2,2,0,0,0-.09-1.79A1.94,1.94,0,0,0,58.86,10a1.59,1.59,0,0,1,.58-.14,1.53,1.53,0,0,1,1.24.47A1.68,1.68,0,0,1,60.57,12.59Z"/><path class="cls-3" d="M59.66,12.79a1,1,0,0,1-.41.11,1.29,1.29,0,0,1-1.07-2.06,1.92,1.92,0,0,0,.26,1.4A1.75,1.75,0,0,0,59.66,12.79Z"/><circle class="cls-3" cx="59.42" cy="11.38" r="0.33"/><path class="cls-3" d="M58.77,12a1.15,1.15,0,0,0,1-.05,1,1,0,0,0,.45-.91.9.9,0,0,1,.09.32.88.88,0,0,1-.27.7A.94.94,0,0,1,58.77,12Z"/><path class="cls-3" d="M58.65,11.48a.49.49,0,0,1-.06-.23.72.72,0,0,1,.24-.56.69.69,0,0,1,.92,0,1.07,1.07,0,0,0-.79.14A1,1,0,0,0,58.65,11.48Z"/><path class="cls-3" d="M48,4.62c-.44,3,1.42,5.15,4.65,3.89a3,3,0,0,1-3.72.92C47.4,8.53,47,6.82,48,4.62Z"/><path class="cls-3" d="M52.91,7.49c-.54-2.71-1.57-3.38-4-2.77a2.22,2.22,0,0,1,3-.61C53,4.69,53.4,5.76,52.91,7.49Z"/><path class="cls-3" d="M49.74,8.09a2.06,2.06,0,0,0,1.65-.68,1.91,1.91,0,0,0,.22-1.8,1.56,1.56,0,0,1,.33.5,1.52,1.52,0,0,1,0,1.32A1.67,1.67,0,0,1,49.74,8.09Z"/><path class="cls-3" d="M49.24,7.3A1,1,0,0,1,49,7a1.29,1.29,0,0,1,.07-1.08,1.24,1.24,0,0,1,1.52-.61A1.86,1.86,0,0,0,49.36,6,1.71,1.71,0,0,0,49.24,7.3Z"/><circle class="cls-3" cx="50.49" cy="6.61" r="0.33"/><path class="cls-3" d="M49.7,6.19a1.15,1.15,0,0,0,.38.93,1.06,1.06,0,0,0,1,.13.9.9,0,0,1-.28.18.87.87,0,0,1-.74,0A1,1,0,0,1,49.7,6.19Z"/><path class="cls-3" d="M50.14,5.91a.53.53,0,0,1,.2-.13.72.72,0,0,1,.95.89,1,1,0,0,0-.4-.69A1,1,0,0,0,50.14,5.91Z"/><path class="cls-3" d="M41.59,11.49c-2.94.49-4.46,2.93-2.28,5.61a3,3,0,0,1-2-3.25C37.68,12.1,39.17,11.17,41.59,11.49Z"/><path class="cls-3" d="M40.35,17c2.42-1.34,2.74-2.53,1.42-4.66A2.22,2.22,0,0,1,43.26,15C43.06,16.28,42.16,17,40.35,17Z"/><path class="cls-3" d="M38.82,14.19A2,2,0,0,0,40,15.56a1.94,1.94,0,0,0,1.78-.34,1.67,1.67,0,0,1-.38.47,1.49,1.49,0,0,1-1.26.37A1.67,1.67,0,0,1,38.82,14.19Z"/><path class="cls-3" d="M39.41,13.48a1.46,1.46,0,0,1,.26-.34,1.29,1.29,0,0,1,1-.26c.62.1,1,.5,1.05,1.25a1.92,1.92,0,0,0-1.05-1A1.74,1.74,0,0,0,39.41,13.48Z"/><circle class="cls-3" cx="40.46" cy="14.46" r="0.33"/><path class="cls-3" d="M40.61,13.58a1.14,1.14,0,0,0-.77.65,1.07,1.07,0,0,0,.19,1,1,1,0,0,1-.26-.21.84.84,0,0,1-.21-.71A.94.94,0,0,1,40.61,13.58Z"/><path class="cls-3" d="M41,13.91a.58.58,0,0,1,.19.15.74.74,0,0,1,.15.59c-.06.35-.28.54-.71.59.32-.2.49-.38.54-.59A1,1,0,0,0,41,13.91Z"/><path class="cls-3" d="M28.19,17.31c2.76,1.15,5.35-.12,4.91-3.55a3,3,0,0,1,0,3.83C31.84,18.87,30.08,18.87,28.19,17.31Z"/><path class="cls-3" d="M32.18,13.27c-2.76-.15-3.66.69-3.67,3.2a2.23,2.23,0,0,1,.13-3C29.49,12.47,30.61,12.37,32.18,13.27Z"/><path class="cls-3" d="M32,16.49a2,2,0,0,0-.25-1.77A1.92,1.92,0,0,0,30,14.07a1.56,1.56,0,0,1,.56-.2,1.52,1.52,0,0,1,1.28.35A1.68,1.68,0,0,1,32,16.49Z"/><path class="cls-3" d="M31.1,16.78a1,1,0,0,1-.4.15,1.3,1.3,0,0,1-1-.34A1.24,1.24,0,0,1,29.44,15a1.89,1.89,0,0,0,.39,1.37A1.73,1.73,0,0,0,31.1,16.78Z"/><circle class="cls-3" cx="30.73" cy="15.39" r="0.33"/><path class="cls-3" d="M30.13,16.06a1.17,1.17,0,0,0,1-.14,1,1,0,0,0,.36-.95.82.82,0,0,1,.12.32.87.87,0,0,1-.2.71A.94.94,0,0,1,30.13,16.06Z"/><path class="cls-3" d="M30,15.57a.63.63,0,0,1-.08-.23.67.67,0,0,1,.19-.58.69.69,0,0,1,.9-.13,1,1,0,0,0-.76.22A1,1,0,0,0,30,15.57Z"/><path class="cls-3" d="M24.57,26.4c-1.05,2.79.3,5.33,3.72,4.78a3,3,0,0,1-3.83.12C23.14,30.1,23.08,28.33,24.57,26.4Z"/><path class="cls-3" d="M28.75,30.24c.05-2.76-.82-3.63-3.33-3.55a2.21,2.21,0,0,1,3,0C29.45,27.53,29.59,28.65,28.75,30.24Z"/><path class="cls-3" d="M25.52,30.15a2,2,0,0,0,1.76-.31,1.92,1.92,0,0,0,.6-1.71,1.71,1.71,0,0,1,.21.56,1.48,1.48,0,0,1-.3,1.28A1.68,1.68,0,0,1,25.52,30.15Z"/><path class="cls-3" d="M25.2,29.28a1.11,1.11,0,0,1-.16-.39,1.26,1.26,0,0,1,.3-1A1.22,1.22,0,0,1,27,27.57,1.86,1.86,0,0,0,25.6,28,1.75,1.75,0,0,0,25.2,29.28Z"/><circle class="cls-3" cx="26.57" cy="28.87" r="0.33"/><path class="cls-3" d="M25.89,28.29a1.14,1.14,0,0,0,.17,1,1.08,1.08,0,0,0,1,.34.77.77,0,0,1-.31.12.84.84,0,0,1-.72-.17A1,1,0,0,1,25.89,28.29Z"/><path class="cls-3" d="M26.38,28.11A.85.85,0,0,1,26.6,28a.73.73,0,0,1,.74,1.08,1.07,1.07,0,0,0-.24-.76A1,1,0,0,0,26.38,28.11Z"/><path class="cls-3" d="M16.41,31.49c-3,.35-4.6,2.72-2.53,5.5A3,3,0,0,1,12,33.65C12.47,31.93,14,31.06,16.41,31.49Z"/><path class="cls-3" d="M14.92,37c2.48-1.23,2.85-2.4,1.62-4.6a2.22,2.22,0,0,1,1.37,2.7C17.65,36.34,16.73,37,14.92,37Z"/><path class="cls-3" d="M13.52,34.06a2,2,0,0,0,1.08,1.42,1.89,1.89,0,0,0,1.79-.26,1.51,1.51,0,0,1-.39.45,1.48,1.48,0,0,1-1.28.32A1.67,1.67,0,0,1,13.52,34.06Z"/><path class="cls-3" d="M14.14,33.38a1,1,0,0,1,.28-.33,1.27,1.27,0,0,1,1.06-.21,1.24,1.24,0,0,1,1,1.3,1.89,1.89,0,0,0-1-1A1.75,1.75,0,0,0,14.14,33.38Z"/><circle class="cls-3" cx="15.14" cy="34.4" r="0.33"/><path class="cls-3" d="M15.33,33.53a1.13,1.13,0,0,0-.79.61,1.08,1.08,0,0,0,.14,1,1,1,0,0,1-.25-.22.85.85,0,0,1-.18-.72A.94.94,0,0,1,15.33,33.53Z"/><path class="cls-3" d="M15.72,33.88a.55.55,0,0,1,.18.16.66.66,0,0,1,.12.59c-.07.35-.3.53-.73.56a1,1,0,0,0,.56-.57A.93.93,0,0,0,15.72,33.88Z"/><path class="cls-3" d="M15.33,46.53c2.68,1.33,5.34.23,5.13-3.22a3,3,0,0,1-.26,3.82C18.87,48.32,17.11,48.2,15.33,46.53Z"/><path class="cls-3" d="M19.57,42.76c-2.74-.33-3.69.45-3.86,3a2.22,2.22,0,0,1,.32-3C16.94,41.79,18.07,41.76,19.57,42.76Z"/><path class="cls-3" d="M19.16,46A2,2,0,0,0,19,44.18a1.86,1.86,0,0,0-1.64-.76,1.57,1.57,0,0,1,1.82.27A1.67,1.67,0,0,1,19.16,46Z"/><path class="cls-3" d="M18.27,46.19a1,1,0,0,1-.41.12,1.3,1.3,0,0,1-1-.4,1.24,1.24,0,0,1-.12-1.63,1.9,1.9,0,0,0,.3,1.39A1.77,1.77,0,0,0,18.27,46.19Z"/><circle class="cls-3" cx="17.99" cy="44.78" r="0.33"/><path class="cls-3" d="M17.35,45.41a1.14,1.14,0,0,0,1-.08,1.05,1.05,0,0,0,.43-.92.9.9,0,0,1,.09.32.86.86,0,0,1-.24.71A1,1,0,0,1,17.35,45.41Z"/><path class="cls-3" d="M17.22,44.9a.62.62,0,0,1-.07-.23.7.7,0,0,1,.23-.56.69.69,0,0,1,.91-.07,1.08,1.08,0,0,0-.78.17A1,1,0,0,0,17.22,44.9Z"/><path class="cls-3" d="M9.49,50.74c-.59,2.93,1.16,5.22,4.44,4.13a3,3,0,0,1-3.76.73C8.68,54.62,8.33,52.89,9.49,50.74Z"/><path class="cls-3" d="M14.23,53.87c-.39-2.74-1.39-3.46-3.85-3a2.21,2.21,0,0,1,3-.46C14.49,51.08,14.81,52.16,14.23,53.87Z"/><path class="cls-3" d="M11,54.3a2,2,0,0,0,1.69-.6A1.89,1.89,0,0,0,13,51.92a1.6,1.6,0,0,1,.31.52,1.51,1.51,0,0,1-.1,1.32A1.69,1.69,0,0,1,11,54.3Z"/><path class="cls-3" d="M10.58,53.49a1.13,1.13,0,0,1-.22-.36,1.24,1.24,0,0,1,.13-1.08A1.22,1.22,0,0,1,12,51.52a1.86,1.86,0,0,0-1.27.64A1.76,1.76,0,0,0,10.58,53.49Z"/><circle class="cls-3" cx="11.87" cy="52.86" r="0.33"/><path class="cls-3" d="M11.1,52.4a1.12,1.12,0,0,0,.33,1,1.06,1.06,0,0,0,1,.18.92.92,0,0,1-.29.17.86.86,0,0,1-.74-.06A.94.94,0,0,1,11.1,52.4Z"/><path class="cls-3" d="M11.55,52.15a.63.63,0,0,1,.2-.13.74.74,0,0,1,.61.07.71.71,0,0,1,.3.87,1,1,0,0,0-.36-.71A1,1,0,0,0,11.55,52.15Z"/><path class="cls-3" d="M22.75,62.44c-2.94.54-4.42,3-2.19,5.65a3,3,0,0,1-2.07-3.21C18.84,63.13,20.32,62.17,22.75,62.44Z"/><path class="cls-3" d="M21.6,68c2.4-1.39,2.69-2.58,1.33-4.69a2.22,2.22,0,0,1,1.54,2.6C24.29,67.21,23.4,67.91,21.6,68Z"/><path class="cls-3" d="M20,65.2a2,2,0,0,0,1.17,1.34A1.88,1.88,0,0,0,23,66.17a1.6,1.6,0,0,1-.36.47,1.49,1.49,0,0,1-1.26.4A1.67,1.67,0,0,1,20,65.2Z"/><path class="cls-3" d="M20.6,64.47a1.2,1.2,0,0,1,.25-.34,1.3,1.3,0,0,1,1-.28c.62.09,1,.48,1.07,1.23a1.89,1.89,0,0,0-1.07-.93A1.74,1.74,0,0,0,20.6,64.47Z"/><circle class="cls-3" cx="21.66" cy="65.43" r="0.33"/><path class="cls-3" d="M21.8,64.55a1.13,1.13,0,0,0-.76.66,1.07,1.07,0,0,0,.21,1A.9.9,0,0,1,21,66a.85.85,0,0,1-.22-.71A.93.93,0,0,1,21.8,64.55Z"/><path class="cls-3" d="M22.21,64.88a.62.62,0,0,1,.19.14.7.7,0,0,1,.15.59c0,.35-.27.54-.69.6a1.07,1.07,0,0,0,.53-.6A1,1,0,0,0,22.21,64.88Z"/><path class="cls-3" d="M46.87,89.41c-.06,3,2.06,4.93,5.1,3.28a3,3,0,0,1-3.57,1.38C46.76,93.38,46.12,91.73,46.87,89.41Z"/><path class="cls-3" d="M52.09,91.65c-.87-2.63-2-3.16-4.32-2.25a2.23,2.23,0,0,1,2.86-1C51.85,88.86,52.36,89.86,52.09,91.65Z"/><path class="cls-3" d="M49,92.64a2.09,2.09,0,0,0,1.56-.88,1.93,1.93,0,0,0,0-1.81,1.71,1.71,0,0,1,.39.45,1.51,1.51,0,0,1,.14,1.31A1.68,1.68,0,0,1,49,92.64Z"/><path class="cls-3" d="M48.43,91.92a1,1,0,0,1-.28-.32,1.29,1.29,0,0,1-.07-1.08,1.24,1.24,0,0,1,1.43-.8,1.86,1.86,0,0,0-1.13.86A1.7,1.7,0,0,0,48.43,91.92Z"/><circle class="cls-3" cx="49.58" cy="91.07" r="0.33"/><path class="cls-3" d="M48.75,90.76a1.15,1.15,0,0,0,.49.88,1.08,1.08,0,0,0,1,0,.8.8,0,0,1-.26.22.83.83,0,0,1-.73.08A.94.94,0,0,1,48.75,90.76Z"/><path class="cls-3" d="M49.15,90.43a.55.55,0,0,1,.18-.16.73.73,0,0,1,.6,0,.7.7,0,0,1,.46.8,1.07,1.07,0,0,0-.49-.63A1,1,0,0,0,49.15,90.43Z"/><path class="cls-3" d="M65.28,86.61c-2.82,1-3.9,3.64-1.29,5.91a3,3,0,0,1-2.54-2.86C61.53,87.88,62.84,86.7,65.28,86.61Z"/><path class="cls-3" d="M65,92.28c2.16-1.74,2.27-3,.6-4.84a2.22,2.22,0,0,1,1.92,2.34C67.54,91.08,66.77,91.9,65,92.28Z"/><path class="cls-3" d="M63,89.74a2,2,0,0,0,1.37,1.15,1.88,1.88,0,0,0,1.69-.64,1.62,1.62,0,0,1-.29.53,1.53,1.53,0,0,1-1.18.59A1.68,1.68,0,0,1,63,89.74Z"/><path class="cls-3" d="M63.47,88.94a1.07,1.07,0,0,1,.2-.38,1.26,1.26,0,0,1,1-.43c.63,0,1,.33,1.25,1.05a1.89,1.89,0,0,0-1.2-.76A1.76,1.76,0,0,0,63.47,88.94Z"/><circle class="cls-3" cx="64.67" cy="89.73" r="0.33"/><path class="cls-3" d="M64.67,88.83a1.16,1.16,0,0,0-.65.77,1.09,1.09,0,0,0,.36,1,.92.92,0,0,1-.29-.16.83.83,0,0,1-.33-.67A.94.94,0,0,1,64.67,88.83Z"/><path class="cls-3" d="M65.12,89.09a.7.7,0,0,1,.21.11.74.74,0,0,1,.25.56.7.7,0,0,1-.59.7,1,1,0,0,0,.42-.67A1,1,0,0,0,65.12,89.09Z"/></svg>