<svg id="Layer_1" data-name="Layer 1" xmlns="http://www.w3.org/2000/svg" viewBox="0 0 100 100"><title>Gulshan Club Mobile App Icons</title><path d="M49.88,0A50,50,0,1,1,0,49.88,50.07,50.07,0,0,1,49.88,0Zm33.8,80.94A45.75,45.75,0,0,0,46.74,4.28,46,46,0,0,0,5.73,38C1.09,55,7.21,71.78,16.24,80.8q4-20.35,23.54-27.47c-5.45-3.41-8.88-8.2-9.8-14.56A19.55,19.55,0,0,1,35.17,22a20.17,20.17,0,0,1,29.17-.44,19.21,19.21,0,0,1,5.91,14.24C70.18,43.4,66.62,49.2,60.17,53.4A34.37,34.37,0,0,1,75.88,63.79,33.77,33.77,0,0,1,83.68,80.94ZM50.08,56c-1.13.08-2.26.12-3.39.24a28.84,28.84,0,0,0-18.25,9,28.56,28.56,0,0,0-8,16.44c-.49,3.89-.94,2.73,2,5a44.72,44.72,0,0,0,30.27,9.07A45.79,45.79,0,0,0,78.45,86a2.6,2.6,0,0,0,1.25-3c-.17-.64-.15-1.34-.26-2A29.89,29.89,0,0,0,50.08,56Zm16-20.18a16.09,16.09,0,1,0-16.29,16A16.07,16.07,0,0,0,66.09,35.83Z"/></svg>