<svg width="35" height="35" viewBox="0 0 35 35" fill="none" xmlns="http://www.w3.org/2000/svg">
<path d="M34.5725 32.5104L24.6194 22.5574C26.5473 20.1759 27.7081 17.1499 27.7081 13.8541C27.7081 6.2154 21.4927 0 13.854 0C6.21533 0 0 6.21533 0 13.854C0 21.4927 6.2154 27.7081 13.8541 27.7081C17.1499 27.7081 20.1759 26.5473 22.5574 24.6194L32.5104 34.5725C32.7948 34.8568 33.1681 34.9998 33.5415 34.9998C33.9149 34.9998 34.2882 34.8568 34.5725 34.5725C35.1427 34.0023 35.1427 33.0806 34.5725 32.5104ZM13.8541 24.7915C7.82245 24.7915 2.91667 19.8857 2.91667 13.854C2.91667 7.82238 7.82245 2.9166 13.8541 2.9166C19.8858 2.9166 24.7915 7.82238 24.7915 13.854C24.7915 19.8857 19.8857 24.7915 13.8541 24.7915Z" fill="white"/>
</svg>
