<?xml version="1.0" encoding="utf-8"?>
<!-- Generator: Adobe Illustrator 23.0.0, SVG Export Plug-In . SVG Version: 6.00 Build 0)  -->
<svg version="1.1" id="Layer_1" xmlns="http://www.w3.org/2000/svg" xmlns:xlink="http://www.w3.org/1999/xlink" x="0px" y="0px"
	 viewBox="0 0 18 18" style="enable-background:new 0 0 18 18;" xml:space="preserve">
<style type="text/css">
	.st0{fill-rule:evenodd;clip-rule:evenodd;fill:#BFA465;}
</style>
<path class="st0" d="M15.3,2.6C13.7,0.9,11.4,0,9,0C4.1,0,0.1,4,0.1,8.9c0,1.6,0.4,3.1,1.2,4.5L0,18l4.7-1.2
	c1.3,0.7,2.8,1.1,4.3,1.1h0c4.9,0,8.9-4,8.9-8.9C18,6.5,17,4.3,15.3,2.6z M9,16.3L9,16.3c-1.3,0-2.6-0.4-3.8-1L5,15.1l-2.8,0.7
	l0.7-2.7l-0.2-0.3C2,11.7,1.6,10.3,1.6,8.9C1.6,4.8,5,1.5,9,1.5c2,0,3.8,0.8,5.2,2.2c1.4,1.4,2.2,3.3,2.2,5.2
	C16.4,13,13.1,16.3,9,16.3z M13.1,10.8c-0.2-0.1-1.3-0.7-1.5-0.7c-0.2-0.1-0.4-0.1-0.5,0.1c-0.1,0.2-0.6,0.7-0.7,0.9
	c-0.1,0.1-0.3,0.2-0.5,0.1C9.7,11,9,10.8,8.1,10C7.4,9.4,7,8.7,6.9,8.5C6.7,8.2,6.9,8.1,7,8c0.2-0.3,0.5-0.6,0.6-0.8
	c0.1-0.1,0-0.3,0-0.4C7.4,6.7,7,5.6,6.8,5.2C6.6,4.8,6.4,4.8,6.3,4.8c-0.1,0-0.3,0-0.4,0c-0.1,0-0.4,0.1-0.6,0.3
	C5.1,5.3,4.5,5.8,4.5,6.9c0,1.1,0.8,2.2,0.9,2.3c0.1,0.1,1.6,2.4,3.8,3.4c0.5,0.2,0.9,0.4,1.3,0.5c0.5,0.2,1,0.1,1.4,0.1
	c0.4-0.1,1.3-0.5,1.5-1.1c0.2-0.5,0.2-1,0.1-1.1C13.5,11,13.3,10.9,13.1,10.8z"/>
</svg>
