<svg id="Layer_1" data-name="Layer 1" xmlns="http://www.w3.org/2000/svg" xmlns:xlink="http://www.w3.org/1999/xlink" viewBox="0 0 27 27"><defs><style>.cls-1{fill:url(#linear-gradient);}.cls-2{fill:url(#linear-gradient-2);}.cls-3{fill:url(#linear-gradient-3);}</style><linearGradient id="linear-gradient" x1="2.27" y1="533.6" x2="24.73" y2="556.07" gradientTransform="matrix(1, 0, 0, -1, 0, 558.34)" gradientUnits="userSpaceOnUse"><stop offset="0" stop-color="#ffd600"/><stop offset="0.5" stop-color="#ff0100"/><stop offset="1" stop-color="#d800b9"/></linearGradient><linearGradient id="linear-gradient-2" x1="8.6" y1="539.94" x2="18.4" y2="549.74" gradientTransform="matrix(1, 0, 0, -1, 0, 558.34)" gradientUnits="userSpaceOnUse"><stop offset="0" stop-color="#ff6400"/><stop offset="0.5" stop-color="#ff0100"/><stop offset="1" stop-color="#fd0056"/></linearGradient><linearGradient id="linear-gradient-3" x1="19.56" y1="550.9" x2="21.85" y2="553.19" gradientTransform="matrix(1, 0, 0, -1, 0, 558.34)" gradientUnits="userSpaceOnUse"><stop offset="0" stop-color="#f30072"/><stop offset="1" stop-color="#e50097"/></linearGradient></defs><title>Gulshan Club Mobile App Icons</title><path class="cls-1" d="M26.92,7.93a9.85,9.85,0,0,0-.63-3.27,6.56,6.56,0,0,0-1.56-2.39A6.56,6.56,0,0,0,22.34.71,9.85,9.85,0,0,0,19.07.08C17.63,0,17.17,0,13.5,0S9.37,0,7.93.08A10.11,10.11,0,0,0,4.66.71,6.56,6.56,0,0,0,2.27,2.27,6.56,6.56,0,0,0,.71,4.66,9.85,9.85,0,0,0,.08,7.93C0,9.37,0,9.83,0,13.5s0,4.13.08,5.57a10.11,10.11,0,0,0,.63,3.27,6.56,6.56,0,0,0,1.56,2.39,6.56,6.56,0,0,0,2.39,1.56,9.85,9.85,0,0,0,3.27.63c1.44.06,1.9.08,5.57.08s4.13,0,5.57-.08a9.85,9.85,0,0,0,3.27-.63,6.86,6.86,0,0,0,3.95-3.95,9.85,9.85,0,0,0,.63-3.27c.06-1.44.08-1.9.08-5.57S27,9.37,26.92,7.93ZM24.49,19a7.26,7.26,0,0,1-.47,2.5A4.43,4.43,0,0,1,21.46,24a7.26,7.26,0,0,1-2.5.47c-1.43.06-1.85.08-5.46.08s-4,0-5.46-.08A7.26,7.26,0,0,1,5.54,24,4,4,0,0,1,4,23a4,4,0,0,1-1-1.55A7.26,7.26,0,0,1,2.51,19c-.06-1.43-.08-1.85-.08-5.46s0-4,.08-5.46A7.26,7.26,0,0,1,3,5.54,4,4,0,0,1,4,4,4,4,0,0,1,5.54,3,7.26,7.26,0,0,1,8,2.51c1.43-.06,1.86-.08,5.46-.08h0c3.6,0,4,0,5.46.08a7.26,7.26,0,0,1,2.5.47A4,4,0,0,1,23,4a4,4,0,0,1,1,1.55A7.26,7.26,0,0,1,24.49,8c.06,1.43.08,1.86.08,5.46S24.55,17.53,24.49,19Z"/><path class="cls-2" d="M13.5,6.57a6.93,6.93,0,1,0,6.93,6.93A6.93,6.93,0,0,0,13.5,6.57ZM13.5,18A4.5,4.5,0,1,1,18,13.5,4.49,4.49,0,0,1,13.5,18Z"/><path class="cls-3" d="M22.33,6.29a1.62,1.62,0,1,1-1.62-1.62A1.62,1.62,0,0,1,22.33,6.29Z"/></svg>