<svg width="138" height="88" viewBox="0 0 138 88" fill="none" xmlns="http://www.w3.org/2000/svg">
<g clip-path="url(#clip0)">
<path d="M7.04 0H130.24C134.128 0 137.28 3.15198 137.28 7.04V80.96C137.28 84.8482 134.128 88 130.24 88H7.04C3.15198 88 0 84.8482 0 80.96V7.04C0 3.15198 3.15198 0 7.04 0Z" fill="#16366F"/>
<path d="M79.0256 44C79.0256 61.4492 64.8805 75.592 47.4318 75.592C29.9832 75.592 15.8398 61.4485 15.8398 44C15.8398 26.5526 29.9836 12.408 47.4318 12.408C64.88 12.408 79.0256 26.5531 79.0256 44Z" fill="#D9222A"/>
<path d="M89.847 12.4073C81.6842 12.4073 74.2459 15.5042 68.639 20.5853C67.4968 21.6218 66.4306 22.739 65.449 23.9286H71.8319C72.7059 24.9911 73.5102 26.1089 74.2404 27.2749H63.0406C62.3671 28.3522 61.7594 29.4694 61.2206 30.6203H76.0595C76.5687 31.7089 77.0154 32.8256 77.3971 33.965H59.883C59.515 35.0624 59.2086 36.1793 58.9648 37.3106H78.3143C78.7875 39.5088 79.026 41.7512 79.0255 44C79.0255 47.5084 78.4528 50.8839 77.3968 54.0355H59.8827C60.2635 55.1758 60.7099 56.2927 61.2194 57.3813H76.0592C75.5199 58.5323 74.9117 59.6497 74.2381 60.7276H63.0401C63.7712 61.8943 64.5766 63.0119 65.4487 64.0709H71.8301C70.8498 65.2627 69.7832 66.381 68.6392 67.417C74.2466 72.4976 81.684 75.5929 89.8472 75.5929C107.295 75.5927 121.441 61.4492 121.441 44.0009C121.441 26.554 107.296 12.4089 89.8472 12.4089" fill="#EE9F2D"/>
<path d="M117.231 61.6106C117.231 61.0472 117.687 60.5896 118.251 60.5896C118.815 60.5896 119.271 61.0472 119.271 61.6106C119.271 62.1736 118.815 62.6312 118.251 62.6312C117.687 62.631 117.23 62.174 117.231 61.6106ZM118.251 62.3864C118.679 62.3862 119.026 62.0388 119.026 61.6106C119.026 61.1824 118.679 60.8355 118.251 60.8355H118.251C117.823 60.8348 117.476 61.181 117.476 61.6085V61.6108C117.475 62.0388 117.822 62.3862 118.25 62.3866C118.25 62.3864 118.25 62.3864 118.251 62.3864ZM118.113 62.059H117.904V61.1625H118.282C118.361 61.1625 118.442 61.1625 118.512 61.2072C118.584 61.2561 118.625 61.3427 118.625 61.4321C118.625 61.5324 118.566 61.6264 118.47 61.663L118.635 62.059H118.403L118.266 61.7042H118.113V62.059H118.113V62.059ZM118.113 61.5504H118.229C118.272 61.5504 118.317 61.5539 118.356 61.5328C118.391 61.5108 118.408 61.4696 118.408 61.43C118.408 61.3957 118.387 61.3561 118.358 61.3392C118.321 61.3161 118.263 61.3214 118.224 61.3214H118.113V61.5504V61.5504ZM40.0568 47.4593C39.6969 47.4176 39.5385 47.4063 39.2912 47.4063C37.3473 47.4063 36.3631 48.0732 36.3631 49.3895C36.3631 50.201 36.8436 50.7176 37.5928 50.7176C38.9899 50.7176 39.9968 49.387 40.0568 47.4593V47.4593ZM42.5509 53.2666H39.7092L39.7745 51.9156C38.9077 52.9834 37.7512 53.4908 36.1797 53.4908C34.3208 53.4908 33.0462 52.0388 33.0462 49.9305C33.0462 46.7583 35.2631 44.9075 39.0684 44.9075C39.457 44.9075 39.9556 44.9427 40.466 45.0076C40.5725 44.578 40.6003 44.3941 40.6003 44.1628C40.6003 43.299 40.0026 42.9769 38.4003 42.9769C36.7225 42.9579 35.3386 43.3766 34.7703 43.5637C34.8062 43.3472 35.2455 40.6319 35.2455 40.6319C36.9548 40.131 38.0821 39.9425 39.3507 39.9425C42.2957 39.9425 43.8556 41.2646 43.8528 43.7638C43.8584 44.4335 43.7477 45.2598 43.5747 46.3459C43.2769 48.2346 42.6384 52.2803 42.5509 53.2666V53.2666ZM31.6111 53.2666H28.1812L30.1459 40.9471L25.7591 53.2666H23.4218L23.1332 41.0175L21.068 53.2666H17.8574L20.5393 37.2411H25.4708L25.77 46.2111L28.7782 37.2411H34.2636L31.6111 53.2666V53.2666ZM94.0876 47.4593C93.7291 47.4176 93.5698 47.4063 93.3234 47.4063C91.3802 47.4063 90.3958 48.0732 90.3958 49.3895C90.3958 50.201 90.8756 50.7176 91.6248 50.7176C93.0221 50.7176 94.0297 49.387 94.0876 47.4593ZM96.5838 53.2666H93.7423L93.8065 51.9156C92.9397 52.9834 91.7825 53.4908 90.2126 53.4908C88.353 53.4908 87.0798 52.0388 87.0798 49.9305C87.0798 46.7583 89.2951 44.9075 93.1011 44.9075C93.4897 44.9075 93.9876 44.9427 94.4975 45.0076C94.6038 44.578 94.6318 44.3941 94.6318 44.1628C94.6318 43.299 94.0348 42.9769 92.4325 42.9769C90.7547 42.9579 89.3722 43.3766 88.8016 43.5637C88.8377 43.3472 89.2784 40.6319 89.2784 40.6319C90.9879 40.131 92.1143 39.9425 93.3813 39.9425C96.3277 39.9425 97.8876 41.2646 97.8848 43.7638C97.8904 44.4335 97.7797 45.2598 97.6067 46.3459C97.3107 48.2346 96.6704 52.2803 96.5838 53.2666ZM57.7952 53.0686C56.8564 53.3643 56.1246 53.4908 55.3312 53.4908C53.5777 53.4908 52.6208 52.4832 52.6208 50.6278C52.5958 50.0523 52.873 48.5371 53.0907 47.1541C53.2887 45.9367 54.5779 38.2609 54.5779 38.2609H57.9872L57.5891 40.2336H59.6483L59.1831 43.3657H57.1165C56.7205 45.8443 56.1566 48.9317 56.1501 49.3409C56.1501 50.0127 56.5086 50.3059 57.324 50.3059C57.7149 50.3059 58.0176 50.2662 58.2489 50.1827L57.7952 53.0686V53.0686ZM68.248 52.963C67.0769 53.3208 65.9468 53.494 64.7493 53.491C60.9331 53.4873 58.9436 51.4941 58.9436 47.6774C58.9436 43.2223 61.4744 39.9427 64.91 39.9427C67.7207 39.9427 69.5159 41.7789 69.5159 44.6588C69.5159 45.6143 69.3927 46.5471 69.0958 47.8641H62.3066C62.0771 49.7547 63.2869 50.5423 65.2699 50.5423C66.4904 50.5423 67.591 50.2906 68.8149 49.7216L68.248 52.963V52.963ZM66.3319 45.2366C66.3507 44.965 66.6934 42.9104 64.7456 42.9104C63.6595 42.9104 62.883 43.7383 62.5667 45.2366H66.3319V45.2366ZM44.6099 44.3536C44.6099 46.0022 45.4092 47.1388 47.222 47.9926C48.611 48.6454 48.8259 48.839 48.8259 49.4305C48.8259 50.2431 48.2134 50.6097 46.8561 50.6097C45.8332 50.6097 44.8813 50.4501 43.7835 50.0958C43.7835 50.0958 43.3324 52.9681 43.3118 53.1056C44.0915 53.2756 44.7867 53.4331 46.8811 53.491C50.5 53.491 52.1713 52.1131 52.1713 49.135C52.1713 47.3442 51.4717 46.2933 49.7535 45.5036C48.3155 44.8436 48.1504 44.6961 48.1504 44.0875C48.1504 43.3828 48.7203 43.0234 49.8291 43.0234C50.5023 43.0234 51.4219 43.0952 52.2931 43.2193L52.7815 40.1965C51.8934 40.0557 50.547 39.9427 49.7631 39.9427C45.9263 39.9427 44.5982 41.9468 44.6099 44.3536ZM84.9298 40.2852C85.8825 40.2852 86.7706 40.5351 87.9945 41.1511L88.5554 37.673C88.0531 37.4759 86.2843 36.3178 84.7862 36.3178C82.4908 36.3178 80.5506 37.4565 79.1859 39.3362C77.1953 38.6769 76.3771 40.0094 75.3739 41.3368L74.483 41.5443C74.5504 41.1073 74.6114 40.6731 74.5908 40.2338H71.4412C71.0108 44.2672 70.248 48.3527 69.6511 52.391L69.4955 53.2668H72.9268C73.4995 49.5456 73.8135 47.1629 74.0041 45.5506L75.2963 44.8318C75.4891 44.1137 76.0934 43.8712 77.3055 43.9004C77.1425 44.7818 77.061 45.6763 77.0621 46.5728C77.0621 50.8364 79.3626 53.491 83.0549 53.491C84.006 53.491 84.8223 53.3657 86.0858 53.0234L86.6896 49.3696C85.5527 49.9293 84.6197 50.1926 83.7749 50.1926C81.7812 50.1926 80.5747 48.7209 80.5747 46.2882C80.5745 42.7594 82.369 40.2852 84.9298 40.2852Z" fill="black"/>
<path d="M32.5974 52.3142H29.167L31.133 39.9963L26.7462 52.3142H24.4085L24.1195 40.0667L22.0545 52.3142H18.8438L21.5256 36.2908H26.4572L26.5958 46.2105L29.923 36.2908H35.2499L32.5974 52.3142" fill="white"/>
<path d="M113.963 37.2416L113.203 41.8718C112.264 40.6377 111.257 39.7445 109.927 39.7445C108.196 39.7445 106.621 41.0564 105.59 42.9873C104.154 42.6895 102.669 42.1842 102.669 42.1842L102.668 42.196C102.784 41.1166 102.83 40.458 102.82 40.2343H99.6694C99.2405 44.2677 98.4779 48.3532 97.8818 52.3915L97.7246 53.2673H101.155C101.619 50.2582 101.974 47.7597 102.235 45.7783C103.407 44.7193 103.993 43.7953 105.178 43.8569C104.653 45.1251 104.346 46.5856 104.346 48.0839C104.346 51.3422 105.995 53.4915 108.488 53.4915C109.745 53.4915 110.709 53.0582 111.65 52.0536L111.489 53.2651H114.734L117.346 37.2416H113.963V37.2416ZM109.674 50.2554C108.506 50.2554 107.917 49.3914 107.917 47.6863C107.917 45.125 109.02 43.3083 110.576 43.3083C111.755 43.3083 112.393 44.2066 112.393 45.8617C112.393 48.4456 111.272 50.2554 109.674 50.2554V50.2554Z" fill="black"/>
<path d="M41.0424 46.5097C40.683 46.4682 40.5239 46.4569 40.2775 46.4569C38.3334 46.4569 37.3499 47.1236 37.3499 48.4399C37.3499 49.2502 37.8304 49.7682 38.5784 49.7682C39.9767 49.768 40.9836 48.4378 41.0424 46.5097V46.5097ZM43.5379 52.3149H40.6962L40.7608 50.9662C39.8947 52.0317 38.7368 52.5414 37.1667 52.5414C35.3069 52.5414 34.0332 51.0894 34.0332 48.9811C34.0332 45.8075 36.2492 43.9577 40.0552 43.9577C40.444 43.9577 40.9426 43.9929 41.4523 44.0582C41.5586 43.6284 41.5864 43.4445 41.5864 43.212C41.5864 42.3482 40.9896 42.0276 39.3871 42.0276C37.7086 42.0085 36.3256 42.4274 35.7564 42.6122C35.7923 42.3965 36.2316 39.6839 36.2316 39.6839C37.9404 39.1809 39.0689 38.9923 40.3361 38.9923C43.282 38.9923 44.8424 40.3154 44.8396 42.8123C44.8447 43.4847 44.7331 44.3105 44.5608 45.3951C44.2639 47.2827 43.6245 51.3307 43.5379 52.3149V52.3149ZM89.5408 36.7227L88.979 40.2017C87.7558 39.5864 86.867 39.3356 85.9154 39.3356C83.3544 39.3356 81.5594 41.8098 81.5594 45.3385C81.5594 47.771 82.7662 49.2423 84.7596 49.2423C85.6044 49.2423 86.5365 48.9797 87.6731 48.4192L87.0712 52.0712C85.8068 52.416 84.9915 52.5414 84.0394 52.5414C80.3476 52.5414 78.0466 49.8867 78.0466 45.6231C78.0466 39.8943 81.225 35.8903 85.7709 35.8903C87.2681 35.8904 89.0378 36.5254 89.5408 36.7227V36.7227ZM95.0746 46.5097C94.7154 46.4682 94.557 46.4569 94.3097 46.4569C92.3663 46.4569 91.3821 47.1236 91.3821 48.4399C91.3821 49.2502 91.8624 49.7682 92.6113 49.7682C94.0082 49.768 95.0158 48.4378 95.0746 46.5097ZM97.5701 52.3149H94.7277L94.7928 50.9662C93.9262 52.0317 92.7688 52.5414 91.1989 52.5414C89.3398 52.5414 88.0654 51.0894 88.0654 48.9811C88.0654 45.8075 90.2821 43.9577 94.0867 43.9577C94.4762 43.9577 94.9741 43.9929 95.4843 44.0582C95.5901 43.6284 95.6186 43.4445 95.6186 43.212C95.6186 42.3482 95.0216 42.0276 93.4193 42.0276C91.7415 42.0085 90.3576 42.4274 89.7886 42.6122C89.8245 42.3965 90.2645 39.6839 90.2645 39.6839C91.9733 39.1809 93.1009 38.9923 94.3681 38.9923C97.3147 38.9923 98.8744 40.3154 98.8707 42.8123C98.8767 43.4847 98.766 44.3105 98.5928 45.3951C98.2968 47.2827 97.6558 51.3307 97.5701 52.3149V52.3149ZM58.7814 52.1175C57.842 52.4131 57.1101 52.5414 56.3174 52.5414C54.564 52.5414 53.607 51.5337 53.607 49.6786C53.5828 49.1012 53.86 47.5876 54.0778 46.2047C54.275 44.9858 55.5643 37.3109 55.5643 37.3109H58.9729L58.5753 39.2842H60.3251L59.8594 42.4149H58.1038C57.7078 44.8949 57.1424 47.9799 57.1365 48.39C57.1365 49.064 57.4959 49.355 58.3106 49.355C58.7014 49.355 59.0037 49.3168 59.2353 49.2332L58.7814 52.1175V52.1175ZM69.2344 52.0134C68.064 52.3713 66.9324 52.5437 65.7356 52.5414C61.9192 52.5377 59.9298 50.5445 59.9298 46.7276C59.9298 42.2711 62.4607 38.9924 65.8962 38.9924C68.707 38.9924 70.5022 40.8279 70.5022 43.7092C70.5022 44.6654 70.379 45.5982 70.0829 46.9145H63.2937C63.0639 48.805 64.2739 49.5934 66.257 49.5934C67.4767 49.5934 68.5781 49.3411 69.8012 48.7705L69.2344 52.0134V52.0134ZM67.3174 44.2849C67.338 44.0142 67.6798 41.9587 65.7312 41.9587C64.6459 41.9587 63.8693 42.7889 63.5532 44.2849H67.3174ZM45.5955 43.4042C45.5955 45.0525 46.3949 46.1878 48.2077 47.043C49.5965 47.6956 49.8114 47.8899 49.8114 48.4809C49.8114 49.2935 49.1984 49.6601 47.8425 49.6601C46.8187 49.6601 45.8669 49.5003 44.7683 49.1462C44.7683 49.1462 44.3188 52.0185 44.2984 52.1558C45.0763 52.326 45.7722 52.4814 47.8666 52.5414C51.4864 52.5414 53.157 51.1635 53.157 48.1861C53.157 46.3945 52.4581 45.3437 50.7391 44.554C49.3017 43.8926 49.1354 43.7474 49.1354 43.1379C49.1354 42.4339 49.7065 42.0717 50.8146 42.0717C51.4871 42.0717 52.4067 42.1457 53.2793 42.2697L53.767 39.2461C52.8798 39.1053 51.5334 38.9924 50.7493 38.9924C46.9118 38.9924 45.5846 40.9951 45.5955 43.4042V43.4042ZM115.723 52.3149H112.478L112.639 51.1018C111.698 52.108 110.734 52.5414 109.477 52.5414C106.983 52.5414 105.336 50.392 105.336 47.1338C105.336 42.799 107.891 39.1447 110.917 39.1447C112.247 39.1447 113.254 39.6882 114.191 40.9216L114.952 36.2914H118.335L115.723 52.3149V52.3149ZM110.664 49.3037C112.261 49.3037 113.383 47.4939 113.383 44.912C113.383 43.2567 112.744 42.3584 111.566 42.3584C110.01 42.3584 108.905 44.1742 108.905 46.7364C108.905 48.4412 109.496 49.3037 110.664 49.3037ZM100.659 39.2842C100.23 43.3176 99.4672 47.4031 98.8707 51.4393L98.7139 52.3149H102.144C103.371 44.3465 103.668 42.7903 105.592 42.9853C105.898 41.3545 106.469 39.9259 106.894 39.205C105.457 38.9058 104.655 39.7177 103.605 41.2598C103.688 40.5933 103.84 39.9458 103.81 39.2842H100.659V39.2842ZM72.4253 39.2842C71.9948 43.3176 71.232 47.4031 70.6359 51.4393L70.4798 52.3149H73.9118C75.1371 44.3465 75.4335 42.7903 77.356 42.9853C77.664 41.3545 78.2345 39.9259 78.6584 39.205C77.2232 38.9058 76.4203 39.7177 75.371 41.2598C75.4537 40.5933 75.6042 39.9458 75.5755 39.2842H72.4253V39.2842ZM117.23 51.2948C117.23 50.7292 117.687 50.274 118.25 50.274C118.812 50.2735 119.269 50.7293 119.27 51.2922V51.2948C119.269 51.858 118.813 52.3146 118.25 52.3149C117.687 52.3146 117.23 51.858 117.23 51.2948ZM118.25 52.0699C118.678 52.0701 119.025 51.7232 119.025 51.2954V51.295C119.025 50.8668 118.678 50.5196 118.25 50.5192H118.25C117.821 50.5194 117.474 50.8666 117.474 51.295C117.474 51.723 117.822 52.0699 118.25 52.0699ZM118.112 51.7408H117.903V50.846H118.282C118.36 50.846 118.442 50.8474 118.51 50.8907C118.583 50.9405 118.625 51.0257 118.625 51.115C118.625 51.2162 118.565 51.3109 118.469 51.3468L118.634 51.7403H118.402L118.265 51.3869H118.112V51.7403V51.7408V51.7408ZM118.112 51.2339H118.227C118.27 51.2339 118.317 51.2371 118.355 51.2163C118.389 51.1943 118.407 51.1528 118.407 51.113C118.405 51.0761 118.387 51.0419 118.357 51.0208C118.321 51.0002 118.261 51.0058 118.222 51.0058H118.112V51.2339H118.112V51.2339Z" fill="white"/>
</g>
<defs>
<clipPath id="clip0">
<rect width="137.28" height="88" fill="white"/>
</clipPath>
</defs>
</svg>
