<svg width="27" height="27" viewBox="0 0 27 27" fill="none" xmlns="http://www.w3.org/2000/svg">
<path d="M0.840474 0C0.374501 0 0 0.381049 0 0.847023V22.9955C0 25.2206 1.79893 27 4.00453 27H22.9889C25.317 27 27.0001 25.1089 27.0001 22.9955C27.0001 22.9955 27.0001 17.2298 27.0001 14.347C27.0001 13.8784 26.6216 13.5 26.153 13.5H20.6719V0.847076C20.6719 0.402175 20.3142 5.28128e-05 19.8051 5.28128e-05H0.840474V0ZM5.06418 5.9046H15.6078C16.7338 5.9046 16.7338 7.59374 15.6078 7.59374H5.06418C3.93809 7.59379 3.93809 5.9046 5.06418 5.9046V5.9046ZM5.06418 10.1283H15.6078C16.7366 10.1283 16.7366 11.8158 15.6078 11.8158H5.06418C3.94332 11.8158 3.94332 10.1283 5.06418 10.1283ZM5.06418 14.3438H15.6078C16.7366 14.3438 16.7366 16.0329 15.6078 16.0329H5.06418C3.94332 16.0329 3.94332 14.3438 5.06418 14.3438ZM20.6719 15.1875H25.3125V22.9955C25.3125 24.2949 24.2658 25.3126 22.9889 25.3126C21.712 25.3126 20.6718 24.2949 20.6718 22.9955V15.1875H20.6719ZM5.06418 18.5609H15.6078C16.7366 18.5609 16.7366 20.2484 15.6078 20.2484H5.06418C3.94332 20.2484 3.94332 18.5609 5.06418 18.5609V18.5609Z" fill="#999999"/>
</svg>
