<svg width="31" height="27" viewBox="0 0 31 27" fill="none" xmlns="http://www.w3.org/2000/svg">
<path d="M10.7999 7.20003V0.900004C10.7999 0.402962 11.2029 0 11.6999 0C12.197 0 12.5999 0.402962 12.5999 0.900004V7.20003H10.7999Z" fill="#999999"/>
<path d="M8.1 25.2C7.3788 25.2 6.7008 24.9192 6.1908 24.4092C3.4932 21.7116 1.3752 18.4584 0 14.865V26.1C0 26.5968 0.4032 27 0.9 27H22.5C22.9968 27 23.4 26.5968 23.4 26.1V25.2H8.1Z" fill="#999999"/>
<path d="M30.4566 21.8634C25.9722 17.379 23.4 11.2752 23.4 5.11744V4.50004C23.4 4.00324 22.9968 3.60004 22.5 3.60004H14.4V8.10004C14.4 8.59684 13.9968 9.00004 13.5 9.00004H9.9C9.4032 9.00004 9 8.59684 9 8.10004V3.60004H0.9C0.4032 3.60004 0 4.00324 0 4.50004V5.11744C0 12.0522 2.8062 18.4794 7.4634 23.1366C7.6326 23.3052 7.8612 23.4 8.1 23.4H29.82C30.1842 23.4 30.5124 23.181 30.6516 22.8444C30.7908 22.5084 30.714 22.1208 30.4566 21.8634V21.8634ZM11.7 10.8H18.9C19.3968 10.8 19.8 11.2032 19.8 11.7C19.8 12.1968 19.3968 12.6 18.9 12.6H11.7C11.2032 12.6 10.8 12.1968 10.8 11.7C10.8 11.2032 11.2032 10.8 11.7 10.8ZM18.9 19.8H9.9C9.4032 19.8 9 19.3968 9 18.9C9 18.4032 9.4032 18 9.9 18H18.9C19.3968 18 19.8 18.4032 19.8 18.9C19.8 19.3968 19.3968 19.8 18.9 19.8ZM20.7 16.2H8.1C7.6032 16.2 7.2 15.7968 7.2 15.3C7.2 14.8032 7.6032 14.4 8.1 14.4H20.7C21.1968 14.4 21.6 14.8032 21.6 15.3C21.6 15.7968 21.1968 16.2 20.7 16.2Z" fill="#999999"/>
</svg>
