<svg width="25" height="26" viewBox="0 0 25 26" fill="none" xmlns="http://www.w3.org/2000/svg">
<path d="M24.0634 14.5353C23.8071 14.4819 23.5402 14.5163 23.3058 14.633L24.5855 16.5807C24.7533 16.4384 24.8777 16.2517 24.9445 16.042C25.0114 15.8324 25.018 15.6081 24.9635 15.3949C24.9091 15.1817 24.7959 14.988 24.6367 14.8361C24.4776 14.6841 24.2789 14.5799 24.0634 14.5353V14.5353Z" fill="#999999"/>
<path d="M3.90562 19.733C3.56397 19.733 3.22999 19.8343 2.94592 20.0241C2.66185 20.2139 2.44045 20.4837 2.30971 20.7993C2.17897 21.115 2.14476 21.4623 2.21142 21.7974C2.27808 22.1325 2.4426 22.4403 2.68419 22.6818C2.92577 22.9234 3.23357 23.0879 3.56866 23.1546C3.90374 23.2212 4.25107 23.187 4.56671 23.0563C4.88234 22.9255 5.15212 22.7041 5.34192 22.42C5.53173 22.1359 5.63303 21.802 5.63302 21.4603C5.63249 21.0023 5.45033 20.5633 5.12649 20.2395C4.80265 19.9156 4.36359 19.7335 3.90562 19.733V19.733ZM4.89474 21.1822L3.87354 22.1585C3.81865 22.211 3.7454 22.2399 3.66946 22.2391C3.59352 22.2382 3.52093 22.2077 3.46723 22.154L2.91179 21.5986C2.85843 21.5439 2.82878 21.4704 2.82926 21.3939C2.82974 21.3175 2.86031 21.2443 2.91435 21.1903C2.96839 21.1362 3.04155 21.1057 3.11799 21.1052C3.19442 21.1047 3.26796 21.1343 3.32269 21.1877L3.67721 21.5422L4.49308 20.7622C4.52053 20.7352 4.55307 20.7139 4.58883 20.6996C4.62459 20.6852 4.66284 20.6781 4.70136 20.6787C4.73989 20.6793 4.77791 20.6875 4.81322 20.7029C4.84853 20.7183 4.88043 20.7406 4.90706 20.7684C4.93368 20.7963 4.9545 20.8291 4.96831 20.8651C4.98212 20.9011 4.98864 20.9394 4.98748 20.9779C4.98633 21.0165 4.97753 21.0543 4.9616 21.0894C4.94567 21.1245 4.92292 21.1561 4.89468 21.1823L4.89474 21.1822Z" fill="#999999"/>
<path d="M3.90562 13.9211C3.56397 13.9211 3.22999 14.0224 2.94592 14.2122C2.66185 14.402 2.44045 14.6718 2.30971 14.9874C2.17897 15.3031 2.14476 15.6504 2.21142 15.9855C2.27808 16.3206 2.4426 16.6284 2.68419 16.87C2.92577 17.1115 3.23357 17.276 3.56866 17.3427C3.90374 17.4093 4.25107 17.3751 4.56671 17.2444C4.88234 17.1136 5.15212 16.8922 5.34192 16.6081C5.53173 16.324 5.63303 15.9901 5.63302 15.6484C5.63249 15.1904 5.45033 14.7514 5.12649 14.4276C4.80265 14.1037 4.36359 13.9216 3.90562 13.9211V13.9211ZM4.89474 15.3703L3.87354 16.3467C3.81865 16.3991 3.7454 16.4281 3.66946 16.4272C3.59352 16.4264 3.52093 16.3958 3.46723 16.3421L2.91179 15.7867C2.85843 15.732 2.82878 15.6585 2.82926 15.582C2.82974 15.5056 2.86031 15.4325 2.91435 15.3784C2.96839 15.3244 3.04155 15.2938 3.11799 15.2933C3.19442 15.2928 3.26796 15.3224 3.32269 15.3758L3.67721 15.7303L4.49308 14.9504C4.52053 14.9233 4.55307 14.902 4.58883 14.8877C4.62459 14.8733 4.66284 14.8662 4.70136 14.8668C4.73989 14.8674 4.77791 14.8756 4.81322 14.891C4.84853 14.9064 4.88043 14.9287 4.90706 14.9565C4.93368 14.9844 4.9545 15.0173 4.96831 15.0532C4.98212 15.0892 4.98864 15.1275 4.98748 15.1661C4.98633 15.2046 4.97753 15.2425 4.9616 15.2775C4.94567 15.3126 4.92292 15.3442 4.89468 15.3704L4.89474 15.3703Z" fill="#999999"/>
<path d="M14.5681 4.84822C14.7015 4.84823 14.832 4.80866 14.943 4.73451C15.054 4.66036 15.1405 4.55495 15.1916 4.43164C15.2427 4.30832 15.256 4.17262 15.23 4.04171C15.2039 3.9108 15.1396 3.79055 15.0452 3.69618C14.9508 3.60181 14.8306 3.53755 14.6997 3.51154C14.5687 3.48552 14.433 3.49892 14.3097 3.55002C14.1864 3.60113 14.0811 3.68766 14.0069 3.79867C13.9328 3.90967 13.8933 4.04016 13.8933 4.17364C13.8936 4.3525 13.9648 4.52396 14.0912 4.65042C14.2177 4.77687 14.3892 4.84801 14.5681 4.84822V4.84822Z" fill="#999999"/>
<path d="M3.66663 4.84822C3.80011 4.84822 3.93059 4.80864 4.04156 4.73448C4.15254 4.66032 4.23903 4.55492 4.2901 4.4316C4.34117 4.30828 4.35452 4.17258 4.32846 4.04167C4.30241 3.91077 4.23811 3.79053 4.14372 3.69616C4.04932 3.6018 3.92906 3.53755 3.79814 3.51153C3.66723 3.48552 3.53154 3.49892 3.40823 3.55003C3.28493 3.60114 3.17956 3.68767 3.10543 3.79867C3.03131 3.90968 2.99178 4.04017 2.99182 4.17364C2.99208 4.35251 3.06327 4.52398 3.18977 4.65044C3.31627 4.77689 3.48776 4.84802 3.66663 4.84822V4.84822Z" fill="#999999"/>
<path d="M7.30042 4.84822C7.43389 4.8482 7.56435 4.8086 7.67532 4.73442C7.78628 4.66025 7.87275 4.55484 7.9238 4.43152C7.97485 4.30819 7.98819 4.1725 7.96212 4.0416C7.93605 3.9107 7.87174 3.79047 7.77734 3.69612C7.68294 3.60177 7.56268 3.53753 7.43177 3.51153C7.30085 3.48552 7.16517 3.49893 7.04187 3.55004C6.91858 3.60116 6.81321 3.68768 6.73909 3.79868C6.66498 3.90969 6.62544 4.04017 6.62549 4.17364C6.62575 4.35253 6.69695 4.52402 6.82348 4.65048C6.95001 4.77694 7.12153 4.84805 7.30042 4.84822V4.84822Z" fill="#999999"/>
<path d="M10.9343 4.84822C11.0678 4.84822 11.1983 4.80864 11.3093 4.73448C11.4202 4.66032 11.5067 4.55492 11.5578 4.4316C11.6089 4.30828 11.6222 4.17258 11.5962 4.04167C11.5701 3.91077 11.5058 3.79053 11.4114 3.69616C11.317 3.6018 11.1968 3.53755 11.0658 3.51153C10.9349 3.48552 10.7992 3.49892 10.6759 3.55003C10.5526 3.60114 10.4473 3.68767 10.3731 3.79867C10.299 3.90968 10.2595 4.04017 10.2595 4.17364C10.2598 4.35251 10.331 4.52398 10.4575 4.65044C10.584 4.77689 10.7555 4.84802 10.9343 4.84822V4.84822Z" fill="#999999"/>
<path d="M3.90562 8.10925C3.56397 8.10925 3.22999 8.21057 2.94592 8.40038C2.66185 8.59019 2.44045 8.85997 2.30971 9.17562C2.17897 9.49126 2.14476 9.83858 2.21142 10.1737C2.27808 10.5088 2.4426 10.8165 2.68419 11.0581C2.92577 11.2997 3.23357 11.4642 3.56866 11.5309C3.90374 11.5975 4.25107 11.5633 4.56671 11.4325C4.88234 11.3018 5.15212 11.0804 5.34192 10.7963C5.53173 10.5122 5.63303 10.1782 5.63302 9.83659C5.63249 9.37862 5.45033 8.93956 5.12649 8.61574C4.80265 8.29191 4.36359 8.10976 3.90562 8.10925V8.10925ZM4.89474 9.55844L3.87354 10.5348C3.81865 10.5873 3.7454 10.6162 3.66946 10.6154C3.59352 10.6145 3.52093 10.584 3.46723 10.5303L2.91179 9.97491C2.85843 9.92019 2.82878 9.84665 2.82926 9.77022C2.82974 9.69379 2.86031 9.62062 2.91435 9.56657C2.96839 9.51252 3.04155 9.48194 3.11799 9.48145C3.19442 9.48096 3.26796 9.5106 3.32269 9.56396L3.67721 9.91848L4.49308 9.13853C4.52053 9.11149 4.55307 9.09018 4.58883 9.07584C4.62459 9.06149 4.66284 9.0544 4.70136 9.05498C4.73989 9.05555 4.77791 9.06378 4.81322 9.07919C4.84853 9.0946 4.88043 9.11687 4.90706 9.14472C4.93368 9.17256 4.9545 9.20543 4.96831 9.24139C4.98212 9.27736 4.98864 9.31572 4.98748 9.35422C4.98633 9.39273 4.97753 9.43063 4.9616 9.46571C4.94567 9.50079 4.92292 9.53235 4.89468 9.55855L4.89474 9.55844Z" fill="#999999"/>
<path d="M23.6232 16.1766L14.7396 22.0104L15.2252 22.7498L24.1087 16.916L23.6232 16.1766Z" fill="#999999"/>
<path d="M12.682 22.917L14.61 22.8665L13.557 21.2638L12.682 22.917Z" fill="#999999"/>
<path d="M22.8147 14.9438L13.9325 20.7768L14.418 21.5161L23.3002 15.6831L22.8147 14.9438Z" fill="#999999"/>
<path d="M18.5979 24.4243V21.226L15.3038 23.3861C15.303 23.3867 15.2974 23.387 15.2965 23.3875C15.2873 23.3934 15.2777 23.3987 15.2679 23.4035C15.2653 23.4047 15.2629 23.4064 15.2603 23.4076C15.2482 23.4131 15.2358 23.4177 15.2231 23.4216C15.2173 23.4233 15.2115 23.4243 15.2057 23.4257C15.1986 23.4273 15.1915 23.4293 15.1843 23.4304C15.177 23.4315 15.1708 23.4319 15.1641 23.4325C15.1583 23.433 15.1531 23.4343 15.1474 23.4344L12.2004 23.5123C12.1978 23.5123 12.1953 23.5138 12.1928 23.5138C12.1435 23.5143 12.095 23.5022 12.0518 23.4786C12.0085 23.4551 11.9721 23.4208 11.9458 23.3791C11.9191 23.338 11.9041 23.2904 11.9024 23.2414C11.9006 23.1924 11.9122 23.1438 11.936 23.1009L12.3955 22.2485H7.97385C7.89678 22.2485 7.82286 22.2178 7.76837 22.1634C7.71387 22.1089 7.68326 22.0349 7.68326 21.9579C7.68326 21.8808 7.71387 21.8069 7.76837 21.7524C7.82286 21.6979 7.89678 21.6673 7.97385 21.6673H12.6233C12.6484 21.6676 12.6734 21.6712 12.6976 21.678L13.0107 21.0861H7.97385C7.89678 21.0861 7.82286 21.0555 7.76837 21.001C7.71387 20.9465 7.68326 20.8726 7.68326 20.7955C7.68326 20.7184 7.71387 20.6445 7.76837 20.59C7.82286 20.5355 7.89678 20.5049 7.97385 20.5049H13.342C13.35 20.5049 13.3608 20.4759 13.3695 20.47C13.3708 20.4692 13.3741 20.4544 13.3753 20.4536L18.5979 17.024V3.44355C18.5979 2.64239 17.9366 2.02325 17.1354 2.02325H15.227V3.10484C15.4615 3.24931 15.6419 3.46681 15.7406 3.72388C15.8394 3.98095 15.8509 4.26334 15.7734 4.52758C15.6959 4.79183 15.5337 5.02329 15.3118 5.18635C15.0899 5.3494 14.8206 5.43501 14.5452 5.43001C14.2699 5.425 14.0039 5.32966 13.788 5.15864C13.5722 4.98763 13.4185 4.75042 13.3507 4.48354C13.2829 4.21665 13.3046 3.93486 13.4126 3.68155C13.5206 3.42824 13.7089 3.21744 13.9484 3.08159V2.02325H11.5656V3.08839C11.8035 3.22684 11.9894 3.43966 12.0946 3.69408C12.1997 3.9485 12.2184 4.23044 12.1476 4.4965C12.0769 4.76255 11.9207 4.99799 11.703 5.16658C11.4854 5.33516 11.2183 5.42755 10.943 5.42953C10.6677 5.4315 10.3994 5.34296 10.1794 5.17752C9.95934 5.01208 9.79975 4.77891 9.72519 4.51389C9.65063 4.24888 9.66523 3.96671 9.76673 3.7108C9.86823 3.45489 10.051 3.23943 10.287 3.09757V2.02325H7.96222V3.10664C8.19624 3.25172 8.3761 3.46967 8.47412 3.72697C8.57215 3.98427 8.5829 4.26665 8.50473 4.53066C8.42657 4.79467 8.26381 5.02567 8.0415 5.18813C7.8192 5.35058 7.54967 5.43548 7.27439 5.42977C6.99911 5.42405 6.73334 5.32803 6.51797 5.15648C6.3026 4.98493 6.14958 4.74737 6.08244 4.48034C6.0153 4.21331 6.03778 3.93162 6.1464 3.67862C6.25502 3.42561 6.44378 3.21531 6.68362 3.08008V2.02325H4.30076V3.08996C4.53839 3.22904 4.72372 3.44236 4.82825 3.69708C4.93277 3.95181 4.95068 4.23382 4.87924 4.49973C4.80779 4.76563 4.65094 5.00069 4.43282 5.16872C4.21471 5.33675 3.94742 5.42845 3.67208 5.4297C3.39675 5.43096 3.12864 5.34169 2.909 5.17565C2.68937 5.0096 2.53039 4.77598 2.45653 4.51074C2.38266 4.2455 2.39802 3.96333 2.50022 3.70767C2.60242 3.452 2.78581 3.23701 3.02216 3.09577V2.02325H1.44343C0.642267 2.02325 0 2.64239 0 3.44355V24.4243C0 25.2255 0.642267 25.9099 1.44343 25.9099H17.1354C17.9366 25.9099 18.5979 25.2255 18.5979 24.4243ZM7.97385 8.88123H16.6916C16.7687 8.88123 16.8426 8.91184 16.8971 8.96634C16.9516 9.02084 16.9822 9.09475 16.9822 9.17182C16.9822 9.24889 16.9516 9.3228 16.8971 9.3773C16.8426 9.4318 16.7687 9.46241 16.6916 9.46241H7.97385C7.89678 9.46241 7.82286 9.4318 7.76837 9.3773C7.71387 9.3228 7.68326 9.24889 7.68326 9.17182C7.68326 9.09475 7.71387 9.02084 7.76837 8.96634C7.82286 8.91184 7.89678 8.88123 7.97385 8.88123V8.88123ZM7.97385 10.0436H12.6233C12.7004 10.0436 12.7743 10.0742 12.8288 10.1287C12.8833 10.1832 12.9139 10.2571 12.9139 10.3342C12.9139 10.4113 12.8833 10.4852 12.8288 10.5397C12.7743 10.5942 12.7004 10.6248 12.6233 10.6248H7.97385C7.89678 10.6248 7.82286 10.5942 7.76837 10.5397C7.71387 10.4852 7.68326 10.4113 7.68326 10.3342C7.68326 10.2571 7.71387 10.1832 7.76837 10.1287C7.82286 10.0742 7.89678 10.0436 7.97385 10.0436V10.0436ZM7.97385 14.6931H16.6916C16.7687 14.6931 16.8426 14.7237 16.8971 14.7782C16.9516 14.8327 16.9822 14.9066 16.9822 14.9837C16.9822 15.0607 16.9516 15.1346 16.8971 15.1891C16.8426 15.2436 16.7687 15.2743 16.6916 15.2743H7.97385C7.89678 15.2743 7.82286 15.2436 7.76837 15.1891C7.71387 15.1346 7.68326 15.0607 7.68326 14.9837C7.68326 14.9066 7.71387 14.8327 7.76837 14.7782C7.82286 14.7237 7.89678 14.6931 7.97385 14.6931V14.6931ZM7.97385 15.8554H12.6233C12.7004 15.8554 12.7743 15.8861 12.8288 15.9406C12.8833 15.995 12.9139 16.069 12.9139 16.146C12.9139 16.2231 12.8833 16.297 12.8288 16.3515C12.7743 16.406 12.7004 16.4366 12.6233 16.4366H7.97385C7.89678 16.4366 7.82286 16.406 7.76837 16.3515C7.71387 16.297 7.68326 16.2231 7.68326 16.146C7.68326 16.069 7.71387 15.995 7.76837 15.9406C7.82286 15.8861 7.89678 15.8554 7.97385 15.8554V15.8554ZM1.33672 9.00909C1.33672 9.08616 1.30611 9.16007 1.25161 9.21457C1.19711 9.26907 1.1232 9.29968 1.04613 9.29968C0.969062 9.29968 0.895149 9.26907 0.840652 9.21457C0.786155 9.16007 0.75554 9.08616 0.75554 9.00909V5.63822C0.75554 5.56115 0.786155 5.48724 0.840652 5.43274C0.895149 5.37824 0.969062 5.34763 1.04613 5.34763C1.1232 5.34763 1.19711 5.37824 1.25161 5.43274C1.30611 5.48724 1.33672 5.56115 1.33672 5.63822V9.00909ZM1.33672 4.53397C1.33672 4.61104 1.30611 4.68495 1.25161 4.73945C1.19711 4.79395 1.1232 4.82456 1.04613 4.82456C0.969062 4.82456 0.895149 4.79395 0.840652 4.73945C0.786155 4.68495 0.75554 4.61104 0.75554 4.53397V4.16811C0.75554 4.09104 0.786155 4.01713 0.840652 3.96264C0.895149 3.90814 0.969062 3.87752 1.04613 3.87752C1.1232 3.87752 1.19711 3.90814 1.25161 3.96264C1.30611 4.01713 1.33672 4.09104 1.33672 4.16811V4.53397ZM3.90556 23.7688C3.44896 23.7688 3.00262 23.6334 2.62298 23.3798C2.24334 23.1261 1.94744 22.7656 1.77271 22.3437C1.59798 21.9219 1.55226 21.4577 1.64134 21.0099C1.73041 20.5621 1.95028 20.1507 2.27315 19.8279C2.59601 19.505 3.00736 19.2851 3.45518 19.196C3.903 19.107 4.36718 19.1527 4.78901 19.3274C5.21085 19.5021 5.5714 19.798 5.82507 20.1777C6.07874 20.5573 6.21414 21.0037 6.21414 21.4603C6.21346 22.0723 5.97002 22.6591 5.53722 23.0919C5.10443 23.5247 4.51762 23.7682 3.90556 23.7688V23.7688ZM3.90556 17.957C3.44896 17.957 3.00262 17.8216 2.62298 17.5679C2.24334 17.3143 1.94744 16.9537 1.77271 16.5319C1.59798 16.11 1.55226 15.6459 1.64134 15.198C1.73041 14.7502 1.95028 14.3389 2.27315 14.016C2.59601 13.6931 3.00736 13.4733 3.45518 13.3842C3.903 13.2951 4.36718 13.3408 4.78901 13.5156C5.21085 13.6903 5.5714 13.9862 5.82507 14.3658C6.07874 14.7455 6.21414 15.1918 6.21414 15.6484C6.21346 16.2605 5.97002 16.8473 5.53722 17.2801C5.10443 17.7129 4.51762 17.9563 3.90556 17.957V17.957ZM3.90556 12.1452C3.44896 12.1452 3.00262 12.0098 2.62298 11.7561C2.24334 11.5024 1.94744 11.1419 1.77271 10.72C1.59798 10.2982 1.55226 9.83402 1.64134 9.3862C1.73041 8.93838 1.95028 8.52703 2.27315 8.20417C2.59601 7.88131 3.00736 7.66144 3.45518 7.57236C3.903 7.48328 4.36718 7.529 4.78901 7.70373C5.21085 7.87846 5.5714 8.17436 5.82507 8.554C6.07874 8.93365 6.21414 9.37999 6.21414 9.83658C6.21346 10.4486 5.97002 11.0354 5.53722 11.4682C5.10443 11.901 4.51762 12.1445 3.90556 12.1452V12.1452Z" fill="#999999"/>
<path d="M3.95203 0.290592C3.95203 0.213522 3.92142 0.139609 3.86692 0.0851125C3.81243 0.0306159 3.73851 0 3.66144 0C3.58437 0 3.51046 0.0306159 3.45596 0.0851125C3.40147 0.139609 3.37085 0.213522 3.37085 0.290592V2.95317H3.95203V0.290592Z" fill="#999999"/>
<path d="M7.61353 0.290592C7.61353 0.213522 7.58292 0.139609 7.52842 0.0851125C7.47392 0.0306159 7.40001 0 7.32294 0C7.24587 0 7.17196 0.0306159 7.11746 0.0851125C7.06296 0.139609 7.03235 0.213522 7.03235 0.290592V2.95317H7.61353V0.290592Z" fill="#999999"/>
<path d="M11.2168 0.290592C11.2168 0.213522 11.1862 0.139609 11.1317 0.0851125C11.0772 0.0306159 11.0033 0 10.9262 0C10.8491 0 10.7752 0.0306159 10.7207 0.0851125C10.6662 0.139609 10.6356 0.213522 10.6356 0.290592V2.95317H11.2168V0.290592Z" fill="#999999"/>
<path d="M14.8783 0.290592C14.8783 0.213522 14.8477 0.139609 14.7932 0.0851125C14.7387 0.0306159 14.6648 0 14.5877 0C14.5106 0 14.4367 0.0306159 14.3822 0.0851125C14.3277 0.139609 14.2971 0.213522 14.2971 0.290592V2.95317H14.8783V0.290592Z" fill="#999999"/>
</svg>
