<svg width="20" height="23" viewBox="0 0 20 23" fill="none" xmlns="http://www.w3.org/2000/svg">
<path d="M15.5837 8.6981C15.5837 7.12003 14.9691 5.60658 13.8751 4.49071C12.7811 3.37484 11.2974 2.74796 9.75022 2.74796C8.20308 2.74796 6.71932 3.37484 5.62533 4.49071C4.53134 5.60658 3.91674 7.12003 3.91674 8.6981C3.91674 15.6399 1 17.6233 1 17.6233H18.5004C18.5004 17.6233 15.5837 15.6399 15.5837 8.6981Z" stroke="#BFA465" stroke-width="2" stroke-linecap="round" stroke-linejoin="round"/>
<path d="M8 21.9999L11.5001 21.9999" stroke="#BFA465" stroke-width="2" stroke-linecap="round"/>
<path d="M15.4398 7.87564C17.6146 7.87564 19.3776 6.11262 19.3776 3.93782C19.3776 1.76302 17.6146 0 15.4398 0C13.265 0 11.502 1.76302 11.502 3.93782C11.502 6.11262 13.265 7.87564 15.4398 7.87564Z" fill="#FF2626"/>
</svg>
