<svg width="61" height="61" viewBox="0 0 61 61" fill="none" xmlns="http://www.w3.org/2000/svg">
<path d="M43.9824 20.8222C44.9132 21.7529 44.9132 23.2617 43.9824 24.1921L27.9971 40.1778C27.0663 41.1082 25.558 41.1082 24.6272 40.1778L17.0176 32.5677C16.0868 31.6374 16.0868 30.1286 17.0176 29.1983C17.9479 28.2675 19.4567 28.2675 20.387 29.1983L26.3119 35.1232L40.6125 20.8222C41.5433 19.8918 43.0521 19.8918 43.9824 20.8222V20.8222ZM61 30.5C61 47.3589 47.3565 61 30.5 61C13.6411 61 0 47.3565 0 30.5C0 13.6411 13.6435 0 30.5 0C47.3589 0 61 13.6435 61 30.5ZM56.2344 30.5C56.2344 16.2753 44.7229 4.76562 30.5 4.76562C16.2753 4.76562 4.76562 16.2771 4.76562 30.5C4.76562 44.7247 16.2771 56.2344 30.5 56.2344C44.7247 56.2344 56.2344 44.7229 56.2344 30.5Z" fill="#272727"/>
</svg>
