<svg width="39" height="37" viewBox="0 0 39 37" fill="none" xmlns="http://www.w3.org/2000/svg">
<path d="M31.3856 20.3165L14.1523 17.6131L16.4369 27.8934L31.3856 20.3165Z" fill="#D12053"/>
<path d="M31.3862 20.3165L18.4004 2.25452L14.1562 17.6163L31.3862 20.3165Z" fill="#E2136E"/>
<path d="M13.753 17.4081L0.146484 0L17.9647 2.13088L13.753 17.4081Z" fill="#D12053"/>
<path d="M7.55559 10.1338L0 3.00598H1.98883L7.55559 10.1338Z" fill="#9E1638"/>
<path d="M35.0607 11.536L31.863 20.2189L26.6797 13.0423L35.0607 11.536Z" fill="#D12053"/>
<path d="M18.4492 27.3728L30.9964 22.3271L31.5228 20.7232L18.4492 27.3728Z" fill="#E2136E"/>
<path d="M8.41406 36.8951L13.7891 18.0198L16.5156 30.3008L8.41406 36.8951Z" fill="#9E1638"/>
<path d="M35.5616 11.6043L34.2422 15.1894L38.9998 15.1113L35.5616 11.6043Z" fill="#E2136E"/>
</svg>
