<svg width="39" height="37" viewBox="0 0 39 37" fill="none" xmlns="http://www.w3.org/2000/svg">
<path d="M34.5822 19.7822C34.5822 20.2951 34.5822 20.7347 34.5089 21.1743C34.3624 23.2258 33.8495 25.1307 33.0436 26.8891C32.7505 27.6218 32.3842 28.2812 31.9445 28.9406C28.8673 33.7763 23.4455 37 17.2911 37C14.6535 37 12.1624 36.4139 9.96435 35.3882C4.10297 32.6773 0 26.6693 0 19.7822C0 12.9684 3.95644 7.10697 9.59802 4.32281C9.15841 4.90895 8.71881 5.49509 8.35247 6.1545C8.35247 6.22777 8.27921 6.22776 8.27921 6.30103C8.0594 6.52083 7.8396 6.66737 7.6198 6.88717C7.32673 7.10697 7.10693 7.40004 6.81386 7.61984L6.66733 7.76638L6.52079 7.91291C6.44752 7.98618 6.37426 8.13272 6.22772 8.20598C6.08119 8.42578 5.86139 8.64559 5.71485 8.86539C4.98218 9.81786 4.39604 10.8436 3.95643 11.9426C3.88317 12.0159 3.88317 12.1624 3.8099 12.2357C3.73663 12.3822 3.73663 12.5288 3.66337 12.602C3.66337 12.6753 3.5901 12.7486 3.5901 12.8218C3.51683 13.0416 3.44356 13.1882 3.3703 13.408C3.29703 13.5545 3.29703 13.701 3.22376 13.7743C3.22376 13.8476 3.15049 13.9208 3.15049 13.9941C3.15049 14.1406 3.07723 14.2872 3.07723 14.4337L2.85742 15.7525C2.85742 15.8991 2.85743 15.9723 2.78416 16.1189V17.8773C2.78416 22.5664 4.90891 26.8159 8.35247 29.5268C10.9901 31.6515 14.2871 32.9703 17.8772 32.9703C21.1743 32.9703 24.1782 31.9446 26.6693 30.1129C28.501 28.7941 29.9663 27.1089 31.0653 25.1307C31.2119 24.8377 31.3584 24.6179 31.5049 24.3248C32.3842 22.4931 32.897 20.5149 32.897 18.3901V17.8773C32.897 17.3644 32.897 16.9248 32.8238 16.4119L32.897 16.4852C33.1168 16.705 33.3366 16.8515 33.5564 17.0713C33.7762 16.705 33.996 16.4119 34.2158 16.0456C34.3624 16.705 34.4356 17.3644 34.5089 18.0971C34.5822 18.7565 34.5822 19.2693 34.5822 19.7822V19.7822Z" fill="#ED1C24"/>
<path d="M19.3431 5.93465L16.1193 0C10.7708 2.41782 7.10742 7.76634 7.10742 13.9941C7.10742 17.1446 8.0599 20.0752 9.67178 22.4931C9.52524 21.6871 9.52524 20.8812 9.52524 20.002C9.59851 13.6277 13.6282 8.20594 19.3431 5.93465V5.93465Z" fill="#F7941D"/>
<path d="M21.9069 8.86535C23.2257 8.49902 24.691 8.35248 26.0831 8.35248C26.9623 8.35248 27.9148 8.42575 28.7207 8.57228L28.6475 5.93466L28.5009 0.659413C27.9148 0.586146 27.2554 0.512878 26.596 0.512878C23.6653 0.512878 20.9544 1.46535 18.7564 3.00397L20.5148 6.22773C17.3643 7.32674 14.7999 9.52476 13.1881 12.3822C12.3821 13.7743 11.796 15.3861 11.5762 17.0713C12.0158 16.1921 12.5286 15.3861 13.1148 14.6535C15.2395 11.8693 18.3168 9.74456 21.9069 8.86535V8.86535Z" fill="#ED1C24"/>
<path d="M29.5994 5.86139L29.746 9.59802C28.5004 9.23169 27.2549 9.01188 25.8628 9.01188C23.2984 9.01188 20.8806 9.74456 18.7559 10.9901C16.1182 12.602 14.0668 15.1663 13.041 18.1703C14.0668 16.7782 15.3123 15.5327 16.7776 14.5802C18.9024 13.1881 21.4668 12.3822 24.1776 12.3822C26.2291 12.3822 28.1341 12.8218 29.8925 13.6277C31.2113 14.2139 32.3836 15.0198 33.4093 16.0455L35.4608 12.9683L38.0984 8.93862C35.7539 7.03367 32.8232 5.86139 29.5994 5.86139V5.86139Z" fill="#F7941D"/>
<path d="M32.8961 18.0237V18.5366C32.8961 21.6138 31.6505 24.1782 31.504 24.4713C31.3575 24.7643 31.2109 24.9841 31.0644 25.2772C29.9654 27.2554 28.5 28.9406 26.6683 30.2594C24.1773 32.0178 21.1733 33.1168 17.8763 33.1168C14.2862 33.1168 10.9159 31.8713 8.35152 29.6733C4.98122 26.8891 2.7832 22.7129 2.7832 18.0237V16.2653C2.7832 16.1188 2.7832 16.0455 2.85647 15.899L3.07627 14.5802C3.07627 14.4336 3.14954 14.2871 3.14954 14.1406C3.14954 14.0673 3.22281 13.994 3.22281 13.9208C3.29607 13.7742 3.29607 13.6277 3.36934 13.5544C3.44261 13.3346 3.51588 13.1148 3.58914 12.9683C3.58914 12.895 3.66241 12.8218 3.66241 12.7485C3.73568 12.602 3.73568 12.4554 3.80895 12.3822C3.88221 12.3089 3.88221 12.1624 3.95548 12.0891C4.39508 10.9901 5.05449 9.96434 5.7139 9.01187C5.86043 8.79206 6.08023 8.57226 6.22677 8.35246C6.30003 8.27919 6.3733 8.13266 6.51984 8.05939C6.5931 7.98612 6.5931 7.91286 6.66637 7.91286C6.73964 7.83959 6.73964 7.76632 6.81291 7.76632C7.03271 7.47325 7.32578 7.25345 7.61885 7.03365C7.83865 6.81385 8.05845 6.66731 8.27825 6.44751C8.27825 6.52078 8.20498 6.52078 8.20498 6.59404C8.20498 6.66731 8.13172 6.74058 8.13172 6.74058C7.25251 8.499 6.66637 10.6237 6.44657 12.8218C6.3733 13.4079 6.3733 13.994 6.3733 14.6535C6.3733 22.5663 10.9891 28.9406 16.704 28.9406H17.2901C18.0961 28.9406 18.902 28.794 19.708 28.6475C23.5911 27.6218 26.4485 24.0317 26.4485 19.8554V19.6356C26.3753 17.1445 25.3495 14.8733 23.6644 13.3346C24.8367 13.3346 26.0089 13.5544 27.108 13.8475C29.2327 14.3604 31.1377 15.3861 32.8228 16.7049L32.8961 16.7782C32.8228 17.0713 32.8961 17.5841 32.8961 18.0237V18.0237Z" fill="#F7941D"/>
<path d="M32.8962 18.0238V18.5367C32.8962 21.7604 31.4308 24.5446 31.4308 24.5446C31.2843 24.8376 31.1378 25.0574 30.9912 25.3505C29.8922 27.3287 28.3536 29.0139 26.5219 30.3327C23.9576 32.2376 20.8803 33.1901 17.6566 33.1901C14.1397 33.1901 10.7694 31.9446 8.05855 29.7466C4.54172 26.8891 2.49023 22.5664 2.49023 18.0238C2.49023 13.4812 4.54172 9.15844 8.05855 6.30101L8.20509 6.15448C8.20509 6.22775 8.13182 6.22775 8.13182 6.30101C8.13182 6.37428 8.05855 6.37428 8.05855 6.44755C4.61499 9.30497 2.63677 13.4812 2.63677 18.0238C2.63677 22.5664 4.61499 26.7426 8.13182 29.6733C10.7694 31.8713 14.213 33.0436 17.6566 33.0436C20.8071 33.0436 23.8843 32.0911 26.4486 30.1862C28.2803 28.8673 29.7457 27.1822 30.8447 25.204C30.9912 24.9109 31.1378 24.6911 31.211 24.398C31.211 24.398 32.6764 21.6872 32.6764 18.4634V17.9505C32.6764 17.4376 32.6764 16.998 32.6031 16.4852V16.4119L32.6764 16.4852L32.7496 16.5584C32.8962 17.1446 32.8962 17.5842 32.8962 18.0238V18.0238Z" fill="#F7941D"/>
</svg>
