<svg width="27" height="27" viewBox="0 0 27 27" fill="none" xmlns="http://www.w3.org/2000/svg">
<path d="M13.0559 11.4435C13.9776 10.4105 13.9179 8.82912 12.9213 7.86881C11.9244 6.90911 10.3494 6.91658 9.36186 7.88641L4.96771 12.3033C4.94888 12.2211 4.93725 12.1377 4.93269 12.0536V4.52346L4.93725 4.51237H4.93269V1.44643C4.93269 0.647759 5.5772 0 6.37186 0H25.5608C26.3555 0 27 0.647759 27 1.44643V12.0536C27 12.8522 26.3555 13.5 25.5608 13.5H11.1801L13.0559 11.4435ZM7.81104 1.44643H6.85159V2.89286H7.81104V1.44643ZM9.72993 1.44643H8.77048V2.89286H9.72993V1.44643ZM11.6488 1.44643H10.6894V2.89286H11.6488V1.44643ZM13.5677 1.44643H12.6083V2.89286H13.5677V1.44643ZM26.0406 4.53214V2.21786C26.0406 1.5255 25.4822 0.964286 24.7933 0.964286H22.4906C21.8017 0.964286 21.2433 1.5255 21.2433 2.21786V4.53214C21.2433 5.2245 21.8017 5.78571 22.4906 5.78571H24.7933C25.4822 5.78571 26.0406 5.2245 26.0406 4.53214ZM23.6419 11.0893H25.5608V10.125H23.6419V11.0893ZM23.6419 8.19643H25.5608V7.23214H23.6419V8.19643ZM20.7636 8.19643H22.6825V7.23214H20.7636V8.19643ZM17.8852 8.19643H19.8041V7.23214H17.8852V8.19643ZM15.0069 11.0893H16.9258V10.125H15.0069V11.0893ZM15.0069 8.19643H16.9258V7.23214H15.0069V8.19643Z" fill="#999999"/>
<path d="M24.6641 14.5385L24.1608 15.8365L20.7698 14.5385H24.6641Z" fill="#999999"/>
<path d="M22.3797 4.93265C22.2076 4.93265 22.0682 4.7931 22.0682 4.62111V3.89418H23.1067V2.85572H22.0682V2.1288C22.0682 1.9568 22.2076 1.81726 22.3797 1.81726H24.8721C25.0441 1.81726 25.1836 1.9568 25.1836 2.1288V2.85572H24.1451V3.89418H25.1836V4.62111C25.1836 4.7931 25.0441 4.93265 24.8721 4.93265H22.3797Z" fill="#999999"/>
<path d="M2.46632 11.8985C2.30422 11.5486 2.29417 11.1504 2.43802 10.7934L3.94479 7.00952V12.0196C3.94553 12.3502 4.01678 12.6777 4.1543 12.9807L3.29306 12.6593C2.92356 12.5227 2.62593 12.2488 2.46632 11.8985Z" fill="#999999"/>
<path d="M1.56681 7.78598L3.13213 6.23077L1.49724 10.4414C1.01653 11.6766 1.63686 13.064 2.88308 13.5397L3.37853 13.7313L1.59084 15.5039L2.27398 16.1814L9.97235 8.54388C10.5922 7.9315 11.5917 7.92156 12.224 8.52197C12.856 9.12189 12.8892 10.1129 12.2988 10.7533L8.33721 15.0366C8.19553 15.1899 8.16969 15.4171 8.27404 15.598C9.37726 17.5095 9.33015 19.8682 8.15169 21.7353L7.94213 22.0673H-0.000451407V11.5234C0.0034136 10.121 0.56698 8.77756 1.56681 7.78598Z" fill="#999999"/>
<path d="M6.32873 23.1058H7.78906V27H0.000600867V23.1058H6.32873ZM5.84195 25.0529H6.8155V24.0793H5.84195V25.0529Z" fill="#999999"/>
<path d="M18.1443 14.5385V14.5413L23.8848 16.7286L23.0734 18.8153C22.7868 19.5518 21.9517 19.9186 21.2081 19.6347L9.60592 15.2112L10.2307 14.5385H18.1443Z" fill="#999999"/>
</svg>
