<svg width="18" height="18" viewBox="0 0 18 18" fill="none" xmlns="http://www.w3.org/2000/svg">
<path d="M17.1328 16.1109L12.2004 11.1786C13.1559 9.99843 13.7311 8.49884 13.7311 6.86557C13.7311 3.08012 10.651 0 6.86553 0C3.08008 0 0 3.08008 0 6.86554C0 10.651 3.08012 13.7311 6.86557 13.7311C8.49884 13.7311 9.99843 13.1559 11.1786 12.2004L16.1109 17.1328C16.2519 17.2737 16.4369 17.3446 16.6219 17.3446C16.8069 17.3446 16.9919 17.2737 17.1328 17.1328C17.4154 16.8502 17.4154 16.3935 17.1328 16.1109ZM6.86557 12.2857C3.87651 12.2857 1.44539 9.85459 1.44539 6.86554C1.44539 3.87648 3.87651 1.44536 6.86557 1.44536C9.85463 1.44536 12.2857 3.87648 12.2857 6.86554C12.2857 9.85459 9.85459 12.2857 6.86557 12.2857Z" fill="#272727"/>
</svg>
