<svg width="37" height="37" viewBox="0 0 37 37" fill="none" xmlns="http://www.w3.org/2000/svg">
<path d="M35.3182 18.6552V13.4549C35.3182 11.6915 33.9504 10.2575 32.2223 10.1184L27.3928 1.68318C26.9453 0.903038 26.2226 0.345445 25.3579 0.11391C24.4972 -0.116049 23.5972 0.00472492 22.8269 0.453054L6.27133 10.0913H3.36366C1.50859 10.0913 0 11.5998 0 13.4549V33.6364C0 35.4914 1.50851 37 3.36366 37H31.9546C33.8096 37 35.3182 35.4915 35.3182 33.6364V28.4361C36.2949 28.0878 37 27.1632 37 26.0683V21.023C37 19.9281 36.2949 19.0035 35.3182 18.6552ZM30.268 10.0913H22.9387L28.4357 6.89095L30.268 10.0913ZM27.6002 5.4315L19.5961 10.0913H16.2761L26.77 3.98166L27.6002 5.4315ZM23.6736 1.90652C24.0538 1.68397 24.498 1.62484 24.9226 1.7382C25.3521 1.85314 25.7102 2.13072 25.9327 2.51913L25.9345 2.52221L12.9338 10.0913H9.61394L23.6736 1.90652ZM33.6363 33.6364C33.6363 34.5635 32.8817 35.3182 31.9546 35.3182H3.36366C2.43656 35.3182 1.68187 34.5635 1.68187 33.6364V13.4549C1.68187 12.5278 2.43656 11.7731 3.36366 11.7731H31.9546C32.8817 11.7731 33.6363 12.5278 33.6363 13.4549V18.5003H28.5909C25.8086 18.5003 23.5454 20.7634 23.5454 23.5456C23.5454 26.3279 25.8086 28.591 28.5909 28.591H33.6363V33.6364V33.6364ZM35.3182 26.0683C35.3182 26.5323 34.9413 26.9093 34.4773 26.9093H28.5909C26.7358 26.9093 25.2272 25.4008 25.2272 23.5456C25.2272 21.6906 26.7357 20.182 28.5909 20.182H34.4773C34.9412 20.182 35.3182 20.5589 35.3182 21.023V26.0683V26.0683Z" fill="#CABEA4"/>
<path d="M28.5919 21.8639C27.6648 21.8639 26.9102 22.6186 26.9102 23.5457C26.9102 24.4727 27.6648 25.2274 28.5919 25.2274C29.519 25.2274 30.2737 24.4727 30.2737 23.5457C30.2738 22.6186 29.5191 21.8639 28.5919 21.8639Z" fill="#CABEA4"/>
</svg>
