<svg width="29" height="37" viewBox="0 0 29 37" fill="none" xmlns="http://www.w3.org/2000/svg">
<path d="M26.9986 36.8938C27.228 37.0314 27.5122 37.0359 27.7438 36.9034C27.9762 36.7724 28.1197 36.526 28.1197 36.2596V0.739993C28.1197 0.331517 27.7889 0 27.3797 0H0.739993C0.330777 0 0 0.331517 0 0.739993V36.2596C0 36.526 0.142819 36.7717 0.375176 36.9034C0.606794 37.0344 0.890951 37.0314 1.12035 36.8946L3.40841 35.5233L5.69646 36.8946C5.9303 37.0344 6.22334 37.0351 6.45717 36.8946L8.74005 35.5241L11.0229 36.8946C11.2568 37.0351 11.5505 37.0351 11.7844 36.8946L14.0658 35.5248L16.3487 36.8946C16.4656 36.9641 16.598 36.9996 16.729 36.9996C16.86 36.9996 16.9925 36.9648 17.1101 36.8938L19.393 35.5233L21.6759 36.8938C21.9097 37.0344 22.2035 37.0344 22.4373 36.8938L24.7187 35.5241L26.9986 36.8938ZM22.057 35.3961L19.7741 34.0263C19.5402 33.8857 19.2465 33.8857 19.0126 34.0263L16.7298 35.3968L14.4469 34.0263C14.213 33.8857 13.9193 33.8857 13.6854 34.0263L11.404 35.3961L9.12115 34.0263C8.88731 33.8857 8.59353 33.8857 8.3597 34.0263L6.07682 35.3968L3.78876 34.0263C3.67184 33.956 3.54012 33.9213 3.40841 33.9213C3.27669 33.9213 3.14571 33.956 3.02805 34.0263L1.47999 34.9535V1.47999H26.6397V34.9513L25.0998 34.0263C24.8667 33.8865 24.5729 33.8857 24.3384 34.0263L22.057 35.3961Z" fill="#CABEA4"/>
<path d="M15.4566 12.0597H12.6646C12.5069 12.0597 12.3782 11.9309 12.3782 11.7733C12.3782 11.3648 12.0474 11.0333 11.6382 11.0333C11.229 11.0333 10.8982 11.3648 10.8982 11.7733C10.8982 12.7471 11.69 13.5397 12.6646 13.5397H13.3202V13.8889C13.3202 14.2974 13.651 14.6289 14.0602 14.6289C14.4694 14.6289 14.8002 14.2974 14.8002 13.8889V13.5397H15.4566C16.4304 13.5397 17.2229 12.7471 17.2229 11.7733V10.0025C17.2229 9.02868 16.4311 8.23614 15.4566 8.23614H12.6646C12.5069 8.23614 12.3782 8.10813 12.3782 7.94977V6.17896C12.3782 6.02135 12.5069 5.89259 12.6646 5.89259H15.4566C15.6142 5.89259 15.7429 6.02135 15.7429 6.17896C15.7429 6.58744 16.0737 6.91896 16.4829 6.91896C16.8921 6.91896 17.2229 6.58744 17.2229 6.17896C17.2229 5.20513 16.4311 4.4126 15.4566 4.4126H14.8002V4.06333C14.8002 3.65485 14.4694 3.32333 14.0602 3.32333C13.651 3.32333 13.3202 3.65485 13.3202 4.06333V4.4126H12.6638C11.69 4.4126 10.8975 5.20513 10.8975 6.17896V7.94977C10.8975 8.9236 11.6893 9.71613 12.6638 9.71613H15.4558C15.6134 9.71613 15.7422 9.84489 15.7422 10.0025V11.7733C15.7422 11.9317 15.6142 12.0597 15.4566 12.0597V12.0597Z" fill="#CABEA4"/>
<path d="M23.5706 16.8874H4.55054C4.14132 16.8874 3.81055 17.2189 3.81055 17.6274C3.81055 18.0359 4.14132 18.3674 4.55054 18.3674H23.5698C23.979 18.3674 24.3098 18.0359 24.3098 17.6274C24.3098 17.2189 23.979 16.8874 23.5706 16.8874Z" fill="#CABEA4"/>
<path d="M23.5706 21.149H4.55054C4.14132 21.149 3.81055 21.4805 3.81055 21.889C3.81055 22.2975 4.14132 22.629 4.55054 22.629H23.5698C23.979 22.629 24.3098 22.2975 24.3098 21.889C24.3098 21.4805 23.979 21.149 23.5706 21.149Z" fill="#CABEA4"/>
<path d="M23.5706 25.4106H4.55054C4.14132 25.4106 3.81055 25.7421 3.81055 26.1506C3.81055 26.5591 4.14132 26.8906 4.55054 26.8906H23.5698C23.979 26.8906 24.3098 26.5591 24.3098 26.1506C24.3098 25.7421 23.979 25.4106 23.5706 25.4106Z" fill="#CABEA4"/>
<path d="M23.5706 29.6722H4.55054C4.14132 29.6722 3.81055 30.0037 3.81055 30.4122C3.81055 30.8207 4.14132 31.1522 4.55054 31.1522H23.5698C23.979 31.1522 24.3098 30.8207 24.3098 30.4122C24.3098 30.0037 23.979 29.6722 23.5706 29.6722Z" fill="#CABEA4"/>
</svg>
