<svg width="8" height="11" viewBox="0 0 8 11" fill="none" xmlns="http://www.w3.org/2000/svg">
<g opacity="0.8">
<path fill-rule="evenodd" clip-rule="evenodd" d="M4 10.6735C1.9712 10.6735 0.326531 9.0288 0.326531 7C0.326531 4.9712 1.9712 3.32653 4 3.32653C6.0288 3.32653 7.67347 4.9712 7.67347 7C7.67347 9.0288 6.0288 10.6735 4 10.6735ZM4 11C1.79086 11 4.76837e-07 9.20914 4.76837e-07 7C4.76837e-07 4.79086 1.79086 3 4 3C6.20914 3 8 4.79086 8 7C8 9.20914 6.20914 11 4 11Z" fill="#BFA465"/>
<path fill-rule="evenodd" clip-rule="evenodd" d="M4.02915 5.59601C3.71807 5.59601 3.46588 5.34382 3.46588 5.03274C3.46588 4.72166 3.71807 4.46947 4.02915 4.46947C4.34023 4.46947 4.59241 4.72166 4.59241 5.03274C4.59241 5.34382 4.34023 5.59601 4.02915 5.59601ZM4.02915 5.92254C3.53773 5.92254 3.13935 5.52416 3.13935 5.03274C3.13935 4.54132 3.53773 4.14294 4.02915 4.14294C4.52057 4.14294 4.91895 4.54132 4.91895 5.03274C4.91895 5.52416 4.52057 5.92254 4.02915 5.92254Z" fill="#BFA465"/>
<path fill-rule="evenodd" clip-rule="evenodd" d="M3.46588 9.1306V7.17141C3.46588 6.86033 3.71807 6.60815 4.02915 6.60815C4.34023 6.60815 4.59241 6.86033 4.59241 7.17141V9.1306C4.59241 9.44168 4.34023 9.69386 4.02915 9.69386C3.71807 9.69386 3.46588 9.44168 3.46588 9.1306ZM4.02915 6.28162C4.52057 6.28162 4.91895 6.67999 4.91895 7.17141V9.1306C4.91895 9.62202 4.52057 10.0204 4.02915 10.0204C3.53773 10.0204 3.13935 9.62202 3.13935 9.1306V7.17141C3.13935 6.67999 3.53773 6.28162 4.02915 6.28162Z" fill="#BFA465"/>
<path fill-rule="evenodd" clip-rule="evenodd" d="M5.91934 4.85255C5.85142 4.91186 5.84444 5.01499 5.90375 5.08291C6.63069 5.91538 6.76608 6.72765 6.65838 7.39863C6.54934 8.07793 6.1889 8.62327 5.91128 8.90089C5.84752 8.96465 5.84752 9.06803 5.91128 9.13179C5.97504 9.19554 6.07841 9.19554 6.14217 9.13178C6.46047 8.81349 6.8592 8.20781 6.98078 7.45038C7.10369 6.68463 6.94113 5.77445 6.1497 4.86814C6.0904 4.80022 5.98726 4.79324 5.91934 4.85255Z" fill="#BFA465"/>
<path fill-rule="evenodd" clip-rule="evenodd" d="M2.10117 4.85255C2.16909 4.91186 2.17607 5.01499 2.11676 5.08291C1.38982 5.91538 1.25443 6.72765 1.36213 7.39863C1.47117 8.07793 1.83161 8.62327 2.10923 8.90089C2.17299 8.96465 2.17299 9.06803 2.10923 9.13179C2.04547 9.19554 1.9421 9.19554 1.87834 9.13178C1.56004 8.81349 1.1613 8.20781 1.03973 7.45038C0.916814 6.68463 1.07938 5.77445 1.8708 4.86814C1.93011 4.80022 2.03325 4.79324 2.10117 4.85255Z" fill="#BFA465"/>
</g>
</svg>
