<svg width="26" height="26" viewBox="0 0 26 26" fill="none" xmlns="http://www.w3.org/2000/svg">
<g clip-path="url(#clip0)">
<path d="M19.9651 23.6786H2.32227V24.6072C2.32227 25.3965 2.92575 26 3.71512 26H20.4294C20.1043 25.5822 19.9651 25.1179 19.9651 24.6072V23.6786Z" fill="#999999"/>
<path d="M23.2137 0H6.49944C6.22083 0 6.03516 0.185669 6.03516 0.464286V22.75H20.8923V24.6071C20.8923 25.3965 21.4958 26 22.2852 26C23.0745 26 23.678 25.3965 23.678 24.6071V0.464286C23.678 0.185669 23.4923 0 23.2137 0ZM12.0709 1.39286H17.6423V2.32143H12.0709V1.39286ZM9.28516 21.3571H7.42801V20.4286H9.28516V21.3571ZM9.28516 19.5H7.42801V18.5714H9.28516V19.5ZM9.28516 17.6429H7.42801V16.7143H9.28516V17.6429ZM9.28516 15.7857H7.42801V14.8571H9.28516V15.7857ZM9.28516 13.9286H7.42801V13H9.28516V13.9286ZM9.28516 12.0714H7.42801V11.1429H9.28516V12.0714ZM9.28516 10.2143H7.42801V9.28571H9.28516V10.2143ZM9.28516 8.35714H7.42801V7.42857H9.28516V8.35714ZM9.28516 6.5H7.42801V5.57143H9.28516V6.5ZM9.28516 4.64286H7.42801V3.71429H9.28516V4.64286ZM13.928 21.3571H10.678V20.4286H13.928V21.3571ZM13.928 19.5H10.678V18.5714H13.928V19.5ZM13.928 17.6429H10.678V16.7143H13.928V17.6429ZM13.928 15.7857H10.678V14.8571H13.928V15.7857ZM13.928 13.9286H10.678V13H13.928V13.9286ZM13.928 12.0714H10.678V11.1429H13.928V12.0714ZM13.928 10.2143H10.678V9.28571H13.928V10.2143ZM13.928 8.35714H10.678V7.42857H13.928V8.35714ZM13.928 6.5H10.678V5.57143H13.928V6.5ZM13.928 4.64286H10.678V3.71429H13.928V4.64286ZM22.2852 21.3571H15.3209V20.4286H22.2852V21.3571ZM22.2852 19.5H15.3209V18.5714H22.2852V19.5ZM22.2852 17.6429H15.3209V16.7143H22.2852V17.6429ZM22.2852 15.7857H15.3209V14.8571H22.2852V15.7857ZM22.2852 13.9286H15.3209V13H22.2852V13.9286ZM22.2852 12.0714H15.3209V11.1429H22.2852V12.0714ZM22.2852 10.2143H15.3209V9.28571H22.2852V10.2143ZM22.2852 8.35714H15.3209V7.42857H22.2852V8.35714ZM22.2852 6.5H15.3209V5.57143H22.2852V6.5ZM22.2852 4.64286H15.3209V3.71429H22.2852V4.64286Z" fill="#999999"/>
</g>
<defs>
<clipPath id="clip0">
<rect width="26" height="26" fill="white"/>
</clipPath>
</defs>
</svg>
