<svg width="38" height="37" viewBox="0 0 38 37" fill="none" xmlns="http://www.w3.org/2000/svg">
<path d="M12.4701 28.3219C12.4607 28.2757 12.4469 28.2301 12.4289 28.186C12.4108 28.1427 12.3884 28.1008 12.3624 28.0617C12.3363 28.022 12.306 27.9851 12.2727 27.9519C12.2395 27.9186 12.2026 27.8883 12.1629 27.8623C12.1239 27.8362 12.082 27.8138 12.0379 27.7958C11.9945 27.7777 11.949 27.7632 11.9027 27.7546C11.8095 27.7358 11.7134 27.7358 11.6209 27.7546C11.5746 27.7632 11.5291 27.7777 11.485 27.7958C11.4416 27.8138 11.3997 27.8362 11.3607 27.8623C11.3209 27.8883 11.2841 27.9186 11.2508 27.9519C11.2176 27.9851 11.1872 28.022 11.1612 28.0617C11.1345 28.1008 11.1128 28.1427 11.0947 28.186C11.0766 28.2301 11.0622 28.2757 11.0535 28.3219C11.0441 28.3682 11.0391 28.4159 11.0391 28.4628C11.0391 28.5098 11.0441 28.5575 11.0535 28.6038C11.0622 28.65 11.0766 28.6956 11.0947 28.7389C11.1128 28.783 11.1345 28.8249 11.1612 28.8639C11.1872 28.9037 11.2176 28.9406 11.2508 28.9738C11.2841 29.007 11.3209 29.0374 11.3607 29.0634C11.3997 29.0895 11.4416 29.1119 11.485 29.13C11.5291 29.1481 11.5746 29.1625 11.6209 29.1712C11.6671 29.1806 11.7148 29.1856 11.7618 29.1856C11.8088 29.1856 11.8565 29.1806 11.9027 29.1712C11.949 29.1625 11.9945 29.1481 12.0379 29.13C12.082 29.1119 12.1239 29.0894 12.1629 29.0634C12.2026 29.0374 12.2395 29.007 12.2727 28.9738C12.306 28.9406 12.3363 28.9037 12.3624 28.8639C12.3884 28.8249 12.4108 28.783 12.4289 28.7389C12.4469 28.6956 12.4607 28.65 12.4701 28.6038C12.4794 28.5575 12.4845 28.5098 12.4845 28.4628C12.4845 28.4159 12.4794 28.3682 12.4701 28.3219Z" fill="#CABEA4"/>
<path d="M33.2447 28.5445C33.2419 28.5373 33.239 28.5301 33.2359 28.523C32.5707 26.9665 31.0107 26.3912 29.1644 27.0218L24.1294 28.4142C23.8382 27.5326 23.1121 26.7824 22.0854 26.4014C22.0791 26.3991 22.0727 26.3968 22.0663 26.3946L16.5316 24.5161C16.0709 23.9207 14.628 22.397 11.9262 22.397C10.0381 22.397 8.36781 23.6923 7.41223 25.1041H0.722722C0.323562 25.1041 0 25.4277 0 25.8269V34.9387C0 35.3379 0.323562 35.6614 0.722722 35.6614H5.01981C5.41897 35.6614 5.74253 35.3379 5.74253 34.9387V34.3147H7.75769C8.15685 34.3147 8.48041 33.9911 8.48041 33.592V33.384C9.65513 33.4865 10.0415 33.7093 11.1204 34.3314C11.9501 34.8098 13.2041 35.5329 15.4623 36.5483C15.4727 36.553 15.4834 36.5575 15.494 36.5617C15.9274 36.7321 16.7747 37 17.8192 37C18.5463 37 19.3691 36.8701 20.2137 36.4873L31.3429 32.5025C31.3627 32.4954 31.3822 32.4875 31.4013 32.4786C32.4649 31.9893 34.0499 30.6101 33.2447 28.5445ZM4.29709 34.2159H1.44544V26.5495H4.29709V34.2159ZM7.03497 32.8692H5.74253V26.5495H7.03497V32.8692ZM30.8238 31.1529L19.6995 35.1359C19.6898 35.1394 19.6765 35.1446 19.6669 35.1485C19.6572 35.1525 19.6474 35.1567 19.6378 35.1611C18.0885 35.8731 16.6158 35.4469 16.0386 35.2224C13.8573 34.2409 12.6931 33.5696 11.8424 33.0791C10.6598 32.3971 10.0899 32.0684 8.48041 31.9355V26.1146C9.16548 24.9917 10.494 23.8424 11.9263 23.8424C14.3825 23.8424 15.4233 25.44 15.4642 25.5044C15.5525 25.648 15.6881 25.7562 15.8476 25.8103L21.5915 27.7598C22.5088 28.1041 22.9936 28.8897 22.7708 29.6731C22.6679 30.0349 22.4303 30.335 22.1018 30.518C21.776 30.6995 21.3995 30.7444 21.0406 30.6451L14.5655 28.5931C14.1848 28.4725 13.7788 28.6833 13.6582 29.0638C13.5376 29.4443 13.7483 29.8505 14.1288 29.9711L20.6152 32.0266C20.6221 32.0287 20.6289 32.0308 20.6359 32.0328C20.8948 32.1064 21.1585 32.1429 21.4205 32.1429C21.9003 32.1429 22.3747 32.0206 22.8053 31.7807C23.4712 31.4097 23.9527 30.8016 24.1611 30.0684C24.1777 30.0099 24.1925 29.9514 24.2052 29.8928L29.6317 28.3896C30.4154 28.1219 31.4442 28.0254 31.9022 29.0803C32.3763 30.3189 31.1441 31.0002 30.8238 31.1529Z" fill="#CABEA4"/>
<path d="M25.9493 9.5052C25.9399 9.45894 25.9262 9.41341 25.9074 9.36932C25.8893 9.32596 25.8676 9.28404 25.8409 9.24502C25.8149 9.20527 25.7845 9.16841 25.7513 9.13516C25.718 9.10192 25.6812 9.07156 25.6414 9.04555C25.6024 9.01953 25.5605 8.99712 25.5171 8.97906C25.473 8.96099 25.4275 8.94653 25.382 8.93786C25.2887 8.91907 25.1926 8.91907 25.0994 8.93786C25.0531 8.94653 25.0076 8.96099 24.9642 8.97906C24.9201 8.99712 24.8782 9.01953 24.8392 9.04555C24.7994 9.07156 24.7626 9.10192 24.7293 9.13516C24.6961 9.16841 24.6657 9.20527 24.6397 9.24502C24.6137 9.28404 24.5913 9.32596 24.5732 9.36932C24.5552 9.41341 24.5407 9.45894 24.532 9.5052C24.5226 9.55145 24.5176 9.59915 24.5176 9.64613C24.5176 9.6931 24.5226 9.7408 24.532 9.78706C24.5407 9.83331 24.5552 9.87884 24.5732 9.92221C24.5913 9.96629 24.6137 10.0082 24.6397 10.0472C24.6657 10.087 24.6961 10.1238 24.7293 10.1571C24.7626 10.1903 24.7994 10.2207 24.8392 10.2467C24.8782 10.2727 24.9201 10.2951 24.9642 10.3132C25.0076 10.3313 25.0531 10.345 25.0994 10.3544C25.1456 10.3638 25.1933 10.3688 25.2403 10.3688C25.2873 10.3688 25.335 10.3638 25.382 10.3544C25.4275 10.345 25.473 10.3313 25.5171 10.3132C25.5605 10.2951 25.6024 10.2727 25.6414 10.2467C25.6812 10.2207 25.718 10.1903 25.7513 10.1571C25.7845 10.1238 25.8149 10.087 25.8409 10.0472C25.8676 10.0082 25.8893 9.96629 25.9074 9.92221C25.9262 9.87884 25.9399 9.83331 25.9493 9.78706C25.9587 9.7408 25.963 9.6931 25.963 9.64613C25.963 9.59915 25.9587 9.55145 25.9493 9.5052Z" fill="#CABEA4"/>
<path d="M36.2813 2.4477H31.9842C31.585 2.4477 31.2615 2.77126 31.2615 3.17042V3.79441H29.2463C28.8472 3.79441 28.5236 4.11798 28.5236 4.51714V4.72514C27.3489 4.62258 26.9625 4.39984 25.8837 3.77772C25.054 3.29928 23.8 2.5762 21.5417 1.56084C21.5313 1.55607 21.5207 1.55166 21.5099 1.54747C20.7749 1.25824 18.8483 0.689169 16.7906 1.6217L13.8824 2.66299L11.431 0.211667C11.1488 -0.0705557 10.6912 -0.0705557 10.4089 0.211667L2.36086 8.25968C2.10054 8.52007 2.0506 8.97156 2.36086 9.28182L16.1133 23.0343C16.3334 23.2544 16.8487 23.321 17.1355 23.0343L24.483 15.6868C24.674 15.7033 24.8723 15.7122 25.0777 15.7122C26.9659 15.7122 28.6361 14.4169 29.5916 13.0051H36.2813C36.6805 13.0051 37.004 12.6816 37.004 12.2824V3.17042C37.004 2.77126 36.6805 2.4477 36.2813 2.4477ZM10.9199 1.74478L12.5671 3.392C12.0775 3.69482 11.5114 3.85686 10.9199 3.85686C10.3284 3.85686 9.76233 3.6949 9.27268 3.392L10.9199 1.74478ZM5.54127 10.418L3.89404 8.77071L5.54127 7.12349C5.84409 7.61313 6.00613 8.17924 6.00613 8.77071C6.00613 9.36219 5.84416 9.9283 5.54127 10.418ZM16.6244 21.5011L14.9775 19.8542C15.983 19.2336 17.2657 19.2336 18.2713 19.8542L16.6244 21.5011ZM19.3126 18.813C17.7155 17.6545 15.5333 17.6545 13.9363 18.813L6.5825 11.4592C7.14687 10.683 7.45157 9.75058 7.45157 8.77071C7.45157 7.79078 7.14694 6.85846 6.5825 6.08226L8.23153 4.4333C9.00773 4.99767 9.94004 5.30237 10.92 5.30237C11.8999 5.30237 12.8322 4.99767 13.6084 4.4333L15.1716 5.99648C14.8343 6.04627 14.5054 6.15742 14.1987 6.32835C13.6806 6.617 13.2742 7.04926 13.0211 7.57222C12.2058 7.7232 11.4511 8.11788 10.8591 8.70986C9.25281 10.3162 9.25281 12.9298 10.8591 14.5361C11.6622 15.3392 12.7172 15.7408 13.7722 15.7408C14.8272 15.7408 15.8822 15.3392 16.6853 14.5361C17.2079 14.0136 17.5739 13.3713 17.7573 12.6715L20.1975 13.4996C19.9228 14.7722 20.2041 16.111 20.9631 17.1625L19.3126 18.813ZM14.9186 11.7077C14.9249 11.71 14.9313 11.7123 14.9377 11.7145L16.3829 12.205C16.2738 12.6975 16.0268 13.1504 15.6633 13.514C14.6205 14.5566 12.9239 14.5567 11.8813 13.514C10.8385 12.4713 10.8385 10.7747 11.8813 9.73201C12.1328 9.48035 12.4296 9.2837 12.753 9.15036C12.8864 10.2606 13.6858 11.2502 14.9186 11.7077ZM22.0044 16.1211C21.7255 15.6665 21.5676 15.1476 21.5427 14.6181C21.8889 14.8684 22.312 15.1136 22.8173 15.3082L22.0044 16.1211ZM28.5235 11.9943C27.8385 13.1172 26.51 14.2666 25.0777 14.2666C24.8097 14.2666 24.5586 14.2475 24.3238 14.2135C24.3229 14.2134 24.3219 14.2132 24.321 14.2131C22.7602 13.9864 21.9206 13.0993 21.6439 12.7481C21.6291 12.7264 21.5663 12.6442 21.557 12.6306C21.4728 12.4801 21.3348 12.3591 21.1587 12.2993L15.4125 10.3491C14.4955 10.0049 14.0108 9.21967 14.2329 8.43653C14.2331 8.43602 14.2332 8.43552 14.2334 8.43501C14.2336 8.43443 14.2337 8.43378 14.2339 8.4332C14.3372 8.07256 14.5744 7.77343 14.9022 7.5908C15.2278 7.40932 15.6043 7.3643 15.9633 7.46382L22.4384 9.51569C22.819 9.63646 23.2252 9.42557 23.3457 9.04506C23.4663 8.66455 23.2556 8.25838 22.8751 8.13775L17.7253 6.50585L17.6804 6.4609C17.68 6.46046 17.6795 6.45996 17.679 6.45952L15.0129 3.7934L17.3045 2.97282C17.3122 2.97001 17.3218 2.96646 17.3294 2.96336C17.3314 2.96256 17.3351 2.96112 17.337 2.96032C17.3469 2.95635 17.3565 2.95215 17.3662 2.94775C18.9154 2.23572 20.388 2.66191 20.9652 2.88639C23.1466 3.86792 24.3109 4.53925 25.1616 5.02976C26.3442 5.71179 26.9141 6.04042 28.5235 6.17332V11.9943V11.9943ZM31.2615 11.5596H29.969V5.23986H31.2615V11.5596ZM35.5586 11.5596H32.7069V3.89314H35.5586V11.5596Z" fill="#CABEA4"/>
</svg>
