<svg width="158" height="158" viewBox="0 0 158 158" fill="none" xmlns="http://www.w3.org/2000/svg">
<path d="M79.3971 86.4609H77.5708V87.5266H79.3971V86.4609Z" fill="white"/>
<path d="M83.0497 86.4609H81.2234V87.5266H83.0497V86.4609Z" fill="white"/>
<path d="M86.702 86.4609H84.8757V87.5266H86.702V86.4609Z" fill="white"/>
<path d="M90.3549 86.4609H88.5286V87.5266H90.3549V86.4609Z" fill="white"/>
<path d="M94.0072 86.4609H92.1809V87.5266H94.0072V86.4609Z" fill="white"/>
<path d="M97.6598 86.4609H95.8335V87.5266H97.6598V86.4609Z" fill="white"/>
<path d="M101.312 86.4609H99.4861V87.5266H101.312V86.4609Z" fill="white"/>
<path d="M104.965 86.4609H103.139V87.5266H104.965V86.4609Z" fill="white"/>
<path d="M108.618 86.4609H106.791V87.5266H108.618V86.4609Z" fill="white"/>
<path d="M112.27 86.4609H110.444V87.5266H112.27V86.4609Z" fill="white"/>
<path d="M115.922 86.4609H114.096V87.5266H115.922V86.4609Z" fill="white"/>
<path d="M91.7243 92.8555C91.5225 92.8555 91.329 92.9357 91.1863 93.0784C91.0436 93.2212 90.9634 93.4148 90.9634 93.6166C90.9634 93.8185 91.0436 94.0121 91.1863 94.1549C91.329 94.2976 91.5225 94.3778 91.7243 94.3778H104.813C105.014 94.3778 105.208 94.2976 105.351 94.1549C105.493 94.0121 105.574 93.8185 105.574 93.6166C105.574 93.4148 105.493 93.2212 105.351 93.0784C105.208 92.9357 105.014 92.8555 104.813 92.8555H91.7243Z" fill="white"/>
<path d="M105.665 44.9453C105.558 44.9454 105.453 44.9705 105.357 45.0187C105.261 45.0669 105.179 45.1368 105.115 45.2229C105.051 45.3089 105.009 45.4087 104.99 45.5142C104.972 45.6197 104.979 45.728 105.01 45.8304L105.588 47.7233C105.641 47.8969 105.761 48.0423 105.921 48.1276C106.081 48.2129 106.269 48.231 106.442 48.178C106.616 48.125 106.762 48.0053 106.847 47.845C106.932 47.6848 106.951 47.4972 106.898 47.3234L106.321 45.4306C106.278 45.2902 106.191 45.1674 106.073 45.08C105.955 44.9927 105.812 44.9455 105.665 44.9453Z" fill="white"/>
<path d="M75.3641 87.5273C75.1824 87.5273 75.0082 87.5995 74.8798 87.728C74.7513 87.8565 74.6792 88.0307 74.6792 88.2124C74.6792 88.3941 74.7513 88.5683 74.8798 88.6968C75.0082 88.8253 75.1824 88.8974 75.3641 88.8974H77.3425C77.5242 88.8974 77.6984 88.8253 77.8268 88.6968C77.9552 88.5683 78.0274 88.3941 78.0274 88.2124C78.0274 88.0307 77.9552 87.8565 77.8268 87.728C77.6984 87.5995 77.5242 87.5273 77.3425 87.5273H75.3641Z" fill="white"/>
<path d="M119.831 87.1465C119.831 92.9605 117.522 98.5363 113.412 102.647C109.302 106.759 103.728 109.068 97.9153 109.068C92.103 109.068 86.5288 106.759 82.4188 102.647C78.3089 98.5363 76 92.9605 76 87.1465H119.831Z" fill="white"/>
<path d="M78.4839 130.374C108.575 130.374 132.968 128.738 132.968 126.72C132.968 124.702 108.575 123.066 78.4839 123.066C48.3933 123.066 24 124.702 24 126.72C24 128.738 48.3933 130.374 78.4839 130.374Z" fill="white"/>
<path d="M119.048 87.2862L105.108 45.7204C107.836 44.8028 110.719 44.4322 113.59 44.6298C116.462 44.8274 119.267 45.5893 121.844 46.872C124.421 48.1546 126.72 49.9329 128.609 52.1051C130.499 54.2772 131.941 56.8006 132.855 59.531C133.003 59.971 133.137 60.414 133.255 60.857C134.69 66.2434 134.02 71.9744 131.381 76.884C128.742 81.7937 124.332 85.5133 119.048 87.2862Z" fill="white"/>
<path d="M119.575 90.5722C121.088 90.5722 122.315 89.3454 122.315 87.832C122.315 86.3186 121.088 85.0918 119.575 85.0918C118.062 85.0918 116.836 86.3186 116.836 87.832C116.836 89.3454 118.062 90.5722 119.575 90.5722Z" fill="white"/>
<path d="M116.379 126.804L113.654 126.904L103.836 105.784L106.32 104.629L116.379 126.804Z" fill="white"/>
<path d="M80.0059 126.804L82.731 126.904L92.5487 105.784L90.0647 104.629L80.0059 126.804Z" fill="white"/>
<path d="M109.531 115H87.0066V116.522H109.531V115Z" fill="white"/>
<path d="M91.7244 82.502H83.5062C83.4544 82.502 83.4042 82.5035 83.354 82.508C82.817 82.5464 82.3145 82.7866 81.9475 83.1805C81.5804 83.5744 81.3761 84.0926 81.3755 84.6311C81.3749 85.1695 81.5782 85.6883 81.9444 86.0829C82.3106 86.4776 82.8125 86.7189 83.3494 86.7584C83.4011 86.763 83.4529 86.7645 83.5062 86.7645H91.7244C92.2895 86.7645 92.8314 86.5399 93.231 86.1403C93.6306 85.7406 93.8551 85.1985 93.8551 84.6332C93.8551 84.068 93.6306 83.5259 93.231 83.1262C92.8314 82.7265 92.2895 82.502 91.7244 82.502V82.502Z" fill="white"/>
<path opacity="0.2" d="M82.6783 86.5955C84.0785 86.4159 85.1803 84.6484 85.1803 82.502H84.876C84.876 84.6012 83.7832 86.3078 82.4409 86.3078V86.4783L82.6783 86.5955Z" fill="black"/>
<path opacity="0.2" d="M85.637 86.6123V86.3078C86.9796 86.3078 88.072 84.6005 88.072 82.502H88.3764C88.3764 84.7684 87.1475 86.6123 85.637 86.6123Z" fill="black"/>
<path opacity="0.2" d="M88.8328 86.6123V86.3078C90.1754 86.3078 91.2678 84.6005 91.2678 82.502H91.5722C91.5722 84.7684 90.3433 86.6123 88.8328 86.6123Z" fill="black"/>
<path d="M106.639 82.502H98.4207C98.369 82.502 98.3187 82.5035 98.2685 82.508C97.7316 82.5464 97.2291 82.7866 96.862 83.1805C96.495 83.5744 96.2906 84.0926 96.29 84.6311C96.2895 85.1695 96.4927 85.6883 96.8589 86.0829C97.2251 86.4776 97.7271 86.7189 98.2639 86.7584C98.3157 86.763 98.3675 86.7645 98.4207 86.7645H106.639C107.204 86.7645 107.746 86.5399 108.146 86.1403C108.545 85.7406 108.77 85.1985 108.77 84.6332C108.77 84.068 108.545 83.5259 108.146 83.1262C107.746 82.7265 107.204 82.502 106.639 82.502V82.502Z" fill="white"/>
<path opacity="0.2" d="M97.5929 86.5955C98.993 86.4159 100.095 84.6484 100.095 82.502H99.7905C99.7905 84.6012 98.6978 86.3078 97.3555 86.3078V86.4783L97.5929 86.5955Z" fill="black"/>
<path opacity="0.2" d="M100.552 86.6123V86.3078C101.894 86.3078 102.987 84.6005 102.987 82.502H103.291C103.291 84.7684 102.062 86.6123 100.552 86.6123Z" fill="black"/>
<path opacity="0.2" d="M103.747 86.6123V86.3078C105.09 86.3078 106.182 84.6005 106.182 82.502H106.487C106.487 84.7684 105.258 86.6123 103.747 86.6123Z" fill="black"/>
<path d="M91.123 62.0361C90.046 61.4541 88.7144 62.0889 88.1777 63.1191C87.5249 64.3723 88.066 65.8789 88.8273 66.95C89.6183 68.063 90.692 68.9818 91.2201 70.268C91.7252 71.4785 91.7851 72.8289 91.3891 74.0794C90.9931 75.3299 90.1668 76.3995 89.057 77.0983C88.5617 77.4117 89.0193 78.2024 89.5179 77.887C90.6064 77.2068 91.4675 76.2176 91.9913 75.0457C92.5152 73.8737 92.678 72.5722 92.459 71.3073C92.3479 70.6513 92.1359 70.0164 91.8307 69.4253C91.4998 68.8219 91.1011 68.2583 90.6424 67.7454C89.8502 66.8076 88.853 65.7737 88.8032 64.4688C88.7942 64.2996 88.806 64.1298 88.8384 63.9635C88.8621 63.8472 88.8974 63.7337 88.9438 63.6245C89.0545 63.3901 89.2188 63.185 89.4235 63.0258C89.6132 62.8744 89.8377 62.7728 90.0765 62.73C90.2769 62.7003 90.4815 62.7334 90.6622 62.8248C91.1792 63.1042 91.6408 62.3159 91.123 62.0361V62.0361Z" fill="white"/>
<path d="M104.863 67.5614C104.405 67.4139 103.915 67.3937 103.445 67.5028C102.976 67.6118 102.545 67.8462 102.199 68.1808C102.02 68.3651 101.887 68.5894 101.812 68.8352C101.736 69.0809 101.721 69.3411 101.766 69.5942C101.853 70.1477 102.202 70.6393 102.581 71.0355C103.323 71.8107 104.361 72.3119 104.983 73.2019C105.259 73.5811 105.432 74.0252 105.485 74.4911C105.517 74.9096 105.44 75.3294 105.262 75.7095C104.798 76.6528 103.878 77.2943 102.906 77.7073C102.679 77.8038 102.629 78.1385 102.743 78.3321C102.806 78.4343 102.906 78.5083 103.022 78.5388C103.138 78.5693 103.262 78.554 103.367 78.496C105.154 77.736 106.808 76.0337 106.315 73.9423C106.056 72.8422 105.261 72.0658 104.405 71.3908C103.98 71.0791 103.579 70.7364 103.204 70.3655C102.908 70.051 102.601 69.6217 102.655 69.1956C102.677 69.0474 102.749 68.9114 102.86 68.8107C102.995 68.6878 103.147 68.5864 103.312 68.51C103.515 68.4128 103.735 68.3568 103.96 68.3451C104.184 68.3335 104.409 68.3664 104.621 68.4421C104.737 68.4732 104.862 68.4572 104.967 68.3975C105.072 68.3378 105.149 68.2393 105.182 68.1231C105.212 68.0064 105.195 67.8827 105.136 67.778C105.076 67.6733 104.979 67.5956 104.863 67.5614V67.5614Z" fill="white"/>
<path d="M97.9117 54.5683C97.6396 54.3357 97.2962 54.2034 96.9384 54.1934C96.5992 54.1997 96.2694 54.3064 95.9906 54.4999C95.3609 54.9574 94.9155 55.625 94.7347 56.3822C94.2732 58.1501 94.8751 60.0557 95.7114 61.6127C96.1341 62.3999 96.6265 63.147 97.0521 63.9325C97.4624 64.6839 97.7774 65.4835 97.9898 66.3128C98.4231 68.0133 98.4617 69.7904 98.1029 71.5082C97.7374 73.218 96.9687 74.911 95.6609 76.0907C95.5753 76.1763 95.5272 76.2925 95.5272 76.4136C95.5272 76.5347 95.5753 76.6509 95.6609 76.7365C95.7465 76.8222 95.8627 76.8703 95.9837 76.8703C96.1048 76.8703 96.221 76.8222 96.3066 76.7365C97.4674 75.6895 98.2436 74.2532 98.7123 72.7763C99.2293 71.1082 99.3805 69.3482 99.1556 67.6164C99.0539 66.7539 98.8576 65.9053 98.5702 65.0859C98.2588 64.2604 97.8699 63.4663 97.4087 62.7143C96.5504 61.2627 95.6368 59.7946 95.5126 58.0663C95.4515 57.2164 95.5578 56.3305 96.0834 55.647C96.0546 55.6844 96.1064 55.6198 96.1067 55.6195C96.1385 55.5814 96.1716 55.5442 96.2058 55.5081C96.271 55.4381 96.3411 55.3728 96.4156 55.3127C96.3997 55.3253 96.3593 55.3523 96.4329 55.3013C96.4695 55.2759 96.5068 55.2516 96.5452 55.229C96.5764 55.2106 96.6085 55.1943 96.6405 55.1774C96.6594 55.1677 96.6787 55.1586 96.6982 55.15C96.6538 55.1692 96.6563 55.1693 96.7057 55.1506C96.7414 55.1394 96.9183 55.1011 96.8201 55.1135C96.8529 55.1096 96.8858 55.1075 96.9187 55.1071C96.9327 55.1069 97.0559 55.1132 96.9957 55.1066C96.9254 55.0989 97.0513 55.1191 97.0523 55.1193C97.0917 55.129 97.1304 55.1412 97.1682 55.1561C97.0732 55.1181 97.324 55.2591 97.2661 55.2141C97.3535 55.2962 97.469 55.342 97.5889 55.342C97.7089 55.342 97.8243 55.2962 97.9117 55.2141C98.0693 55.0565 98.1075 54.7205 97.9117 54.5682L97.9117 54.5683Z" fill="white"/>
<path d="M67.8686 60.5534C67.6494 60.1292 66.4912 57.4935 66.4912 57.4935L64.5503 52.4644C64.5503 52.4644 63.1729 50.3438 63.1729 49.9499C63.1729 49.5561 60.6686 47.9807 60.6686 47.9807C60.6686 47.9807 58.6339 47.3748 58.4773 47.3142C58.3208 47.2536 55.9104 46.4562 55.9104 46.4562C55.9104 46.4562 54.9613 45.208 54.826 45.534L54.8259 45.5348C54.821 45.5266 54.8159 45.5195 54.811 45.511C54.6171 45.1486 54.4943 44.7525 54.4492 44.344C54.444 44.3077 54.4396 44.2694 54.435 44.2316C55.0602 43.8078 55.5726 43.238 55.9279 42.5716C56.2831 41.9051 56.4706 41.162 56.4739 40.4068C56.4734 40.208 56.4601 40.0094 56.4338 39.8123C56.451 39.8015 56.469 39.792 56.4877 39.7839C56.5266 39.767 56.5167 39.7532 56.4881 39.7389C56.4979 39.7337 56.5077 39.7283 56.5176 39.7241C56.5694 39.7016 56.5348 39.6845 56.4846 39.6642L56.4876 39.6627C56.5583 39.632 56.469 39.6117 56.3972 39.5793C56.3934 39.5583 56.3898 39.5373 56.3856 39.5164C56.4015 39.4765 56.4112 39.4344 56.4144 39.3916C56.4207 39.3947 56.4266 39.3981 56.4333 39.4011C56.4507 39.323 56.4503 39.242 56.432 39.1641C56.4275 39.1799 56.4221 39.1955 56.4157 39.2107C56.4202 39.14 56.4056 39.0695 56.3736 39.0064C56.3415 38.9434 56.2931 38.89 56.2335 38.852C56.2299 38.8489 56.2259 38.8455 56.2223 38.8423L56.355 37.4832C58.3126 37.3907 58.656 34.0603 58.2096 33.8753C57.7631 33.6902 58.2096 33.2893 58.2096 32.4876C58.2096 31.6858 56.7328 30.7915 56.7328 30.7915C56.7328 30.7915 56.1146 31.0999 55.153 29.558C54.1914 28.0162 50.6541 27.7695 50.4137 28.1704C50.1733 28.5712 48.5935 29.0955 46.5329 29.6814C44.4723 30.2673 44.8501 32.7034 45.1935 33.2277C45.4764 33.6611 45.6421 34.1605 45.6743 34.677C45.6743 34.9854 46.3268 36.2805 46.3268 36.2805C46.121 36.7293 46.6448 39.1879 46.7999 39.8867C46.7975 39.9082 46.7949 39.9296 46.7927 39.9512C46.7914 39.9533 46.7897 39.9551 46.7884 39.9572C46.781 39.9685 46.7743 39.9802 46.7684 39.9923C46.7351 40.0648 46.7241 40.1454 46.7367 40.2241C46.7254 40.3101 46.7374 40.3976 46.7715 40.4774C46.7833 41.1357 46.9356 41.7839 47.2182 42.3786C47.5009 42.9733 47.9073 43.5007 48.4103 43.9255C48.4128 43.9676 48.4152 44.0099 48.4175 44.0532C48.4463 44.6239 48.4626 45.2989 48.4325 45.9448C48.431 45.9779 48.4285 46.0102 48.4267 46.0431C48.3131 46.0661 48.2065 46.1154 48.1155 46.1872C48.0245 46.259 47.9517 46.3511 47.9028 46.4562C47.7088 46.8295 46.5818 47.4051 46.5818 47.4051C46.5818 47.4051 44.6097 47.496 44.4218 47.8595C44.234 48.2231 41.3853 49.4349 41.3853 49.4349C41.3853 49.4349 39.8827 50.3135 40.1019 51.3132C40.2164 51.8356 39.8949 52.6472 39.5619 53.3034C38.8653 53.0393 38.1399 52.8584 37.4009 52.7646L38.9968 54.2913C38.9633 54.3435 38.9436 54.3731 38.9436 54.3731L38.0358 57.5844C38.0358 57.5844 37.7228 58.7053 37.4097 58.978C37.0967 59.2507 37.6915 61.7349 37.6915 61.7349C37.6915 61.7349 37.3471 63.4921 37.0654 63.9465C36.7836 64.4009 37.5036 65.5219 37.5036 65.5219L38.9436 68.7938L42.7627 69.7632C42.7627 69.7632 43.0172 69.8171 43.4285 69.9052C43.4155 69.9834 43.4023 70.0613 43.3888 70.1389C43.2047 71.1811 42.9631 72.1396 42.6688 72.399C41.9488 73.0352 41.9801 75.8829 41.9801 75.8829L42.0114 79.9123C42.0114 79.9123 42.2618 84.8808 42.1366 85.0625C42.0576 85.1773 42.2162 85.3644 42.6347 85.5325C42.6227 85.6073 42.611 85.6832 42.5999 85.7605C42.4822 86.5846 42.4296 87.525 42.7001 87.9406C42.8176 88.1654 42.8818 88.4142 42.8879 88.6677C42.8879 89.0616 43.4827 89.8795 43.4827 89.8795C43.4827 89.8795 43.0131 93.2423 43.7957 94.3936C44.5783 95.5448 45.2357 97.6352 44.8601 98.1199C44.8601 98.1199 44.2027 99.5438 44.5157 100.18C44.8288 100.816 44.5157 101.18 44.1088 101.331C43.7018 101.483 43.7369 102.725 43.7369 102.725L44.4844 108.633C44.4844 108.633 44.8914 109.844 44.547 110.268C44.2027 110.693 44.2027 112.813 44.7349 113.54C45.267 114.267 43.9836 115.6 43.9836 115.6C43.9836 115.6 43.201 116.721 44.4531 117.085C44.4531 117.085 44.7036 117.146 44.234 117.63C43.7644 118.115 43.6705 118.721 43.9836 118.933C44.0485 118.972 44.1164 119.006 44.1866 119.034C44.175 119.106 44.1624 119.18 44.1476 119.259C44.0274 119.892 43.8008 120.716 43.3888 121.114C42.5904 121.932 41.9014 122.851 41.339 123.846C40.9095 124.66 40.7217 125.422 41.1975 125.78C42.3245 126.628 43.7644 126.901 44.6096 126.568C45.4549 126.234 46.6444 125.204 46.6444 125.204L46.9261 124.023C46.9261 124.023 46.7383 123.296 47.6774 123.023C48.6166 122.75 49.4931 121.781 49.4931 121.781V120.21C49.7205 120.08 49.94 119.937 50.1505 119.781C50.1505 119.781 50.5887 118.236 50.1505 117.721C49.7122 117.206 49.5557 117.024 50.1192 116.691C50.6826 116.358 50.759 115.631 50.3458 114.995C49.9313 114.358 49.274 113.419 49.8374 112.086C50.4009 110.753 50.6075 106.663 50.6075 106.663C50.6075 106.663 50.3446 103.876 50.6075 103.24C50.8705 102.604 50.307 101.331 50.307 101.331C50.307 101.331 50.4948 99.7559 50.8392 99.0288C51.1835 98.3017 51.4652 94.4542 51.4652 94.4542C51.4652 94.4542 52.0913 92.8182 52.0913 91.7579C52.0913 90.6975 51.1209 88.1527 52.5609 87.4862C52.5609 87.4862 53.187 88.0315 52.9365 90.2128C52.9365 90.2128 53.6565 92.7576 53.6565 93.5453C53.6565 94.333 54.1887 97.1808 54.1887 97.1808C54.1887 97.1808 54.2513 98.0897 54.4704 98.4229C54.6895 98.7562 54.4704 99.665 54.4704 99.665C54.4704 99.665 55.2843 100.422 55.0652 100.907C54.8461 101.392 55.1028 102.485 55.1028 102.485L54.9087 109.269C54.9087 109.269 54.3452 112.177 55.66 113.934C55.66 113.934 55.1904 116.509 54.9087 116.691C54.6269 116.873 55.9417 118.448 55.9417 118.448C55.9417 118.448 55.5773 119.469 56.3174 119.519V121.205C56.5743 121.659 56.9268 122.052 57.3504 122.356C58.0391 122.841 57.7573 124.507 57.7573 124.507C57.7573 124.507 58.6339 126.628 60.9504 126.174C63.2669 125.719 63.5799 125.507 63.4547 124.75C63.4096 124.474 63.3094 123.98 63.1654 123.42C62.9162 122.447 62.5343 121.273 62.0773 120.694C61.3573 119.781 60.7625 117.873 60.7625 117.873C60.7625 117.873 60.4808 117.236 60.7625 117.024C61.0443 116.812 60.9191 116.419 60.9191 116.419C60.9191 116.419 61.1933 115.631 60.9466 115.146C60.6999 114.661 61.4199 113.662 61.4199 113.662L61.2008 108.996L61.4199 102.21C61.4199 102.21 60.4495 101.089 60.8564 100.422C61.2634 99.7559 60.3869 98.8168 60.3869 98.8168C60.3869 98.8168 60.293 98.7865 60.5434 98.0291C60.6933 97.5827 60.6709 97.0965 60.4808 96.6658C60.4808 96.6658 59.9486 94.7875 60.8877 93.3636C60.8877 93.3636 61.2947 91.4852 61.4199 90.5158C61.5063 89.842 62.0473 87.325 62.3691 85.8527C62.3873 85.7695 62.4047 85.6898 62.4214 85.6137C62.8849 85.639 63.2355 85.6685 63.2355 85.6685C63.2355 85.6685 62.5156 80.6697 63.2355 79.6396C63.9555 78.6096 62.6721 70.7327 62.6721 70.7327C62.6721 70.7327 62.3653 69.3561 62.1762 67.9516C62.1654 67.8716 62.1556 67.7916 62.1456 67.7117C62.7268 67.6652 63.3102 67.6522 63.8929 67.6729C65.3955 67.7638 66.8668 67.1881 66.8981 66.6125C66.9294 66.0369 67.7433 63.7647 67.8686 63.2497C67.9938 62.7347 68.0877 60.9775 67.8686 60.5534Z" fill="url(#paint0_linear)"/>
<path d="M49.6027 118.996V121.801C49.6027 121.801 48.7581 122.767 47.8532 123.038C46.9483 123.309 47.1293 124.033 47.1293 124.033L46.8578 125.21C46.8578 125.21 45.7116 126.235 44.8972 126.567C44.0827 126.899 42.6952 126.627 41.6093 125.783C41.1508 125.427 41.3318 124.668 41.7457 123.857C42.2849 122.87 42.9487 121.956 43.7208 121.138C44.1177 120.741 44.3361 119.92 44.452 119.29C44.5376 118.819 44.5654 118.453 44.5654 118.453L49.6027 118.996Z" fill="#D1D1D1"/>
<path opacity="0.1" d="M49.6027 121.092V121.804C49.6027 121.804 48.7581 122.769 47.8532 123.04C46.9483 123.312 47.1293 124.036 47.1293 124.036L46.8578 125.212C46.8578 125.212 45.7116 126.238 44.8972 126.569C44.0827 126.901 42.6952 126.63 41.6093 125.785C41.1508 125.429 41.3318 124.67 41.7457 123.86C41.7264 124.711 41.9785 125.668 43.208 125.634C44.535 125.592 45.8137 125.127 46.8578 124.307C46.8578 124.307 46.8276 122.316 48.2152 121.864C48.7223 121.697 49.1931 121.435 49.6027 121.092V121.092Z" fill="black"/>
<path d="M60.6424 126.176C58.4103 126.628 57.5657 124.517 57.5657 124.517C57.5657 124.517 57.8372 122.858 57.1736 122.375C56.7633 122.069 56.4237 121.678 56.1782 121.229V118.454L58.8929 116.523L60.3625 117.824L60.4614 117.911C60.4614 117.911 61.0346 119.811 61.7283 120.72C62.1687 121.297 62.5367 122.466 62.7768 123.435C62.9156 123.992 63.0121 124.483 63.0555 124.758C63.1762 125.512 62.8745 125.723 60.6424 126.176Z" fill="#D1D1D1"/>
<path opacity="0.1" d="M60.6424 126.176C58.4103 126.629 57.5657 124.517 57.5657 124.517C57.5657 124.517 57.8372 122.858 57.1736 122.376C56.7633 122.069 56.4237 121.679 56.1782 121.229V120.154C56.609 120.609 57.421 121.49 57.5959 121.863C57.8372 122.376 57.8674 124.246 58.9834 124.577C60.0995 124.909 62.2713 125.211 62.4522 124.366C62.5275 124.045 62.6363 123.733 62.7768 123.435C62.9156 123.992 63.0121 124.483 63.0555 124.758C63.1762 125.513 62.8745 125.724 60.6424 126.176Z" fill="black"/>
<path opacity="0.1" d="M44.5653 118.453L49.6026 118.996V120.479C49.0343 120.816 48.2199 121.173 47.7626 120.806C47.087 120.265 45.0781 119.579 44.4519 119.29C44.5376 118.819 44.5653 118.453 44.5653 118.453Z" fill="black"/>
<path opacity="0.1" d="M60.4614 118.152C59.7677 117.911 58.531 118.967 56.9021 119.63C56.6757 119.737 56.4285 119.792 56.1782 119.792V118.454L58.8929 116.523L60.3625 117.824C60.3852 117.936 60.4183 118.046 60.4614 118.152Z" fill="black"/>
<path d="M62.241 84.9436C62.241 84.9436 62.1457 85.3876 62.0093 86.0319C61.6993 87.4978 61.178 90.0038 61.0948 90.6746C60.9741 91.6399 60.582 93.51 60.582 93.51C59.6771 94.9277 60.1899 96.7978 60.1899 96.7978C60.3733 97.2281 60.3947 97.7103 60.2502 98.1552C60.0089 98.9093 60.0994 98.9394 60.0994 98.9394C60.0994 98.9394 60.944 99.8745 60.5518 100.538C60.1597 101.202 61.0948 102.318 61.0948 102.318L60.8836 109.074L61.0948 113.72C61.0948 113.72 60.401 114.715 60.6387 115.198C60.8764 115.68 60.6122 116.464 60.6122 116.464C60.6122 116.464 60.7328 116.857 60.4613 117.068C60.1899 117.279 60.4613 117.912 60.4613 117.912C59.7676 117.671 58.5309 118.727 56.902 119.39C55.2732 120.054 55.8162 118.485 55.8162 118.485C55.8162 118.485 54.5493 116.917 54.8208 116.736C55.0922 116.555 55.5447 113.991 55.5447 113.991C54.2778 112.242 54.8208 109.346 54.8208 109.346L55.0078 102.592C55.0078 102.592 54.7604 101.503 54.9716 101.021C55.1827 100.538 54.3985 99.784 54.3985 99.784C54.3985 99.784 54.6096 98.8791 54.3985 98.5473C54.1873 98.2155 54.127 97.3106 54.127 97.3106C54.127 97.3106 53.6142 94.4752 53.6142 93.691C53.6142 92.9067 52.9205 90.373 52.9205 90.373C53.1618 88.2012 52.5585 87.6583 52.5585 87.6583C51.171 88.3219 52.106 90.8556 52.106 91.9113C52.106 92.9671 51.5028 94.5959 51.5028 94.5959C51.5028 94.5959 51.2313 98.4267 50.8995 99.1506C50.5677 99.8745 50.3867 101.443 50.3867 101.443C50.3867 101.443 50.9297 102.71 50.6763 103.343C50.4229 103.977 50.6763 106.752 50.6763 106.752C50.6763 106.752 50.4772 110.824 49.9343 112.151C49.3913 113.478 50.0248 114.413 50.4241 115.047C50.8223 115.68 50.7487 116.404 50.2057 116.736C49.6628 117.068 49.8136 117.249 50.2359 117.761C50.6582 118.274 50.2359 119.813 50.2359 119.813C50.2359 119.813 48.5166 121.17 47.7625 120.567C47.0084 119.963 44.5953 119.179 44.2937 118.968C43.992 118.757 44.0825 118.154 44.535 117.671C44.9874 117.188 44.7461 117.128 44.7461 117.128C43.5396 116.766 44.2937 115.65 44.2937 115.65C44.2937 115.65 45.5304 114.323 45.0176 113.599C44.5048 112.875 44.5048 110.764 44.8366 110.341C45.1684 109.919 44.7763 108.712 44.7763 108.712L44.056 102.831C44.056 102.831 44.0222 101.594 44.4143 101.443C44.8065 101.292 45.1081 100.93 44.8065 100.297C44.5048 99.6634 45.1383 98.2457 45.1383 98.2457C45.5002 97.7631 44.8668 95.6818 44.1127 94.5356C43.3586 93.3893 43.8111 90.0412 43.8111 90.0412C43.8111 90.0412 43.238 89.2268 43.238 88.8346C43.2323 88.5829 43.1705 88.3355 43.057 88.1107C42.7964 87.6969 42.847 86.7606 42.9604 85.9402C43.0702 85.1463 43.238 84.4609 43.238 84.4609L62.241 84.9436Z" fill="#BFA465"/>
<path d="M56.3291 50.7675L50.3869 52.155C50.3869 52.155 47.4611 49.6816 48.185 48.3544C48.4335 47.8983 48.5433 47.1201 48.5807 46.2973C48.6097 45.6542 48.594 44.9821 48.5662 44.4139C48.524 43.5922 48.4565 42.9853 48.4565 42.9853C48.4565 42.9853 54.5495 39.5467 54.3383 42.9853C54.2954 43.5579 54.3088 44.1334 54.3782 44.7034C54.4212 45.109 54.5395 45.503 54.7268 45.8653C55.0526 46.4457 55.4544 46.4541 55.4544 46.4541L56.3291 50.7675Z" fill="#FDC2CC"/>
<path opacity="0.1" d="M54.378 44.7034C53.5192 45.3194 52.477 45.6262 51.4215 45.5736C50.3659 45.521 49.3594 45.1122 48.5661 44.4139C48.5239 43.5922 48.4563 42.9853 48.4563 42.9853C48.4563 42.9853 54.5493 39.5467 54.3382 42.9853C54.2953 43.5579 54.3086 44.1334 54.378 44.7034V44.7034Z" fill="black"/>
<path d="M51.6536 45.4601C54.2357 45.4601 56.329 43.3668 56.329 40.7847C56.329 38.2026 54.2357 36.1094 51.6536 36.1094C49.0715 36.1094 46.9783 38.2026 46.9783 40.7847C46.9783 43.3668 49.0715 45.4601 51.6536 45.4601Z" fill="#FDC2CC"/>
<path opacity="0.1" d="M56.3291 50.7674L50.3869 52.1549C50.3869 52.1549 47.4611 49.6815 48.185 48.3543C48.4335 47.8983 48.5433 47.12 48.5807 46.2972C48.7119 47.0127 49.0961 47.6572 49.663 48.113C51.0204 49.0179 50.8092 50.134 50.8092 50.134L53.2525 50.0435C53.1016 49.0481 54.0066 48.5051 54.3082 48.3845C54.6098 48.2638 54.459 47.7209 54.459 47.7209L54.7268 45.8652C55.0526 46.4456 55.4544 46.454 55.4544 46.454L56.3291 50.7674Z" fill="black"/>
<path opacity="0.1" d="M62.2412 84.9436C62.2412 84.9436 62.1459 85.3876 62.0096 86.0319C61.3532 85.9969 60.4857 85.9715 60.0996 86.0596C59.436 86.2104 56.7816 86.2708 56.7816 86.2708L50.206 86.5036V86.3009C49.4496 86.307 48.6942 86.3574 47.9437 86.4517C46.8277 86.6025 45.0782 86.3914 43.9621 86.2104C43.6186 86.1612 43.2823 86.0704 42.9607 85.9402C43.0705 85.1462 43.2382 84.4609 43.2382 84.4609L62.2412 84.9436Z" fill="black"/>
<path d="M61.7286 65.7887C61.6333 66.3522 61.7033 67.2861 61.8239 68.2079C62.0061 69.6062 62.3017 70.9769 62.3017 70.9769C62.3017 70.9769 63.5384 78.8194 62.8446 79.8449C62.1509 80.8705 62.8446 85.8475 62.8446 85.8475C62.8446 85.8475 60.7634 85.6665 60.0998 85.8173C59.4362 85.9681 56.7818 86.0285 56.7818 86.0285L50.2061 86.2613V86.0586C49.4497 86.0647 48.6944 86.1151 47.9439 86.2094C46.8278 86.3603 45.0783 86.1491 43.9623 85.9681C42.8462 85.7872 42.3938 85.4252 42.5144 85.2442C42.6351 85.0632 42.3938 80.1164 42.3938 80.1164L42.3636 76.1047C42.3636 76.1047 42.3334 73.2693 43.0272 72.6359C43.3107 72.3777 43.5436 71.4233 43.721 70.3857C43.9755 68.8835 44.1131 67.2064 44.1131 67.2064L39.5282 54.9299L39.4377 54.6886C39.4377 54.6886 40.7649 52.6374 40.5538 51.642C40.3426 50.6466 41.7905 49.7719 41.7905 49.7719C41.7905 49.7719 44.5354 48.5654 44.7164 48.2034C44.8973 47.8414 46.7976 47.7509 46.7976 47.7509C46.7976 47.7509 47.8835 47.1778 48.0706 46.8062C48.1161 46.7024 48.1857 46.611 48.2736 46.5394C48.3615 46.4679 48.4652 46.4183 48.5761 46.3948C48.7039 47.1191 49.0902 47.7725 49.6632 48.2336C51.0205 49.1385 50.8094 50.2545 50.8094 50.2545L53.2526 50.164C53.1018 49.1686 54.0067 48.6257 54.3084 48.505C54.61 48.3844 54.4592 47.8414 54.4592 47.8414L54.7415 45.888C54.8718 45.5635 55.7864 46.8062 55.7864 46.8062C55.7864 46.8062 58.109 47.6001 58.2598 47.6605C58.4106 47.7208 60.3712 48.3241 60.3712 48.3241C60.3712 48.3241 62.7843 49.8926 62.7843 50.2847C62.7843 50.6768 64.1115 52.7883 64.1115 52.7883C64.1115 52.7883 64.0958 52.8727 64.0669 53.0272C63.7604 54.6898 61.9494 64.4917 61.7286 65.7887Z" fill="white"/>
<path d="M52.0762 60.9029C52.0762 60.9029 46.8579 59.5154 46.3451 59.1836C45.8323 58.8518 42.816 60.7823 46.4959 63.4065C46.4959 63.4065 50.9958 64.3416 52.1996 63.4065C53.4034 62.4715 52.0762 60.9029 52.0762 60.9029Z" fill="#FDC2CC"/>
<path opacity="0.1" d="M63.357 52.6367L63.9904 52.6669L65.8606 57.674C65.8606 57.674 66.9766 60.2983 67.1877 60.7205C67.3989 61.1428 67.3084 62.8923 67.1877 63.4051C67.0671 63.9179 66.2828 66.1801 66.2527 66.7533C66.2225 67.3264 64.8048 67.8995 63.357 67.809C61.9091 67.7185 58.5308 68.1709 58.5308 68.1709C58.5308 68.1709 54.9229 67.7938 52.7093 68.925C52.7093 68.925 51.2916 65.9992 51.4424 60.5396C51.4424 60.5396 53.946 60.3887 54.5794 60.6301C55.2128 60.8714 58.2895 61.5651 58.6816 61.2032C59.0738 60.8412 60.8534 61.8668 60.8534 61.8668C60.944 61.6679 60.9908 61.4519 60.9908 61.2333C60.9908 61.0148 60.944 60.7988 60.8534 60.5999C60.5518 59.876 60.039 57.6137 60.7026 56.8898C61.3662 56.1659 63.357 52.6367 63.357 52.6367Z" fill="black"/>
<path opacity="0.1" d="M61.8237 68.2065C60.3263 68.3079 58.6517 68.5323 58.6517 68.5323C58.6517 68.5323 55.0441 68.1546 52.8301 69.2864C52.8301 69.2864 51.4124 66.3605 51.5632 60.9009C51.5632 60.9009 54.0668 60.7501 54.7002 60.9914C55.3337 61.2327 58.4104 61.9265 58.8025 61.5645C59.1946 61.2025 60.9743 62.2281 60.9743 62.2281C61.0648 62.0292 61.1117 61.8132 61.1117 61.5947C61.1117 61.3761 61.0648 61.1601 60.9743 60.9612C60.6726 60.2373 60.1598 57.975 60.8234 57.2511C61.487 56.5272 63.4778 52.998 63.4778 52.998L64.0666 53.0258C63.7602 54.6884 61.9492 64.4904 61.7284 65.7874C61.633 66.3508 61.703 67.2847 61.8237 68.2065Z" fill="black"/>
<path d="M63.4778 52.7578L64.1113 52.788L65.9814 57.7951C65.9814 57.7951 67.0975 60.4194 67.3086 60.8416C67.5197 61.2639 67.4293 63.0134 67.3086 63.5262C67.1879 64.039 66.4037 66.3012 66.3735 66.8743C66.3434 67.4475 64.9257 68.0206 63.4778 67.9301C62.03 67.8396 58.6517 68.292 58.6517 68.292C58.6517 68.292 55.0437 67.9149 52.8301 69.0461C52.8301 69.0461 51.4124 66.1203 51.5632 60.6607C51.5632 60.6607 54.0668 60.5098 54.7002 60.7511C55.3337 60.9925 58.4104 61.6862 58.8025 61.3243C59.1946 60.9623 60.9743 61.9879 60.9743 61.9879C61.0648 61.789 61.1117 61.573 61.1117 61.3544C61.1117 61.1359 61.0648 60.9199 60.9743 60.721C60.6726 59.9971 60.1598 57.7348 60.8234 57.0109C61.487 56.2869 63.4778 52.7578 63.4778 52.7578Z" fill="#FCFCFC"/>
<path d="M57.105 63.8367L57.8577 64.3027L62.0519 57.5289L61.2993 57.0629L57.105 63.8367Z" fill="#CABEA4"/>
<path d="M64.2027 56.6136C64.9439 55.4164 64.8641 54.0245 64.0245 53.5046C63.1848 52.9847 61.9032 53.5337 61.162 54.7308C60.4207 55.928 60.5005 57.3199 61.3402 57.8398C62.1798 58.3597 63.4614 57.8107 64.2027 56.6136Z" fill="#CABEA4"/>
<path opacity="0.1" d="M63.7737 56.3483C64.3057 55.489 64.2485 54.4898 63.6458 54.1166C63.0431 53.7434 62.1231 54.1375 61.5911 54.9968C61.059 55.8561 61.1163 56.8553 61.719 57.2284C62.3217 57.6016 63.2416 57.2076 63.7737 56.3483Z" fill="black"/>
<path d="M54.9615 67.2996L55.7141 67.7656L58.3239 63.5508L57.5712 63.0848L54.9615 67.2996Z" fill="#53526B"/>
<path d="M50.5375 67.5991L52.3775 67.0863C52.3775 67.0863 61.4567 67.3276 58.4102 63.5874C58.4102 63.5874 56.8115 62.049 53.4634 63.2857C50.1152 64.5224 49.1802 64.6732 49.1802 64.6732L50.5375 67.5991Z" fill="#FDC2CC"/>
<path opacity="0.1" d="M49.1801 51.8216C49.38 51.8216 49.542 51.6595 49.542 51.4596C49.542 51.2597 49.38 51.0977 49.1801 51.0977C48.9802 51.0977 48.8181 51.2597 48.8181 51.4596C48.8181 51.6595 48.9802 51.8216 49.1801 51.8216Z" fill="black"/>
<path opacity="0.1" d="M55.3939 51.6106C55.5939 51.6106 55.7559 51.4486 55.7559 51.2487C55.7559 51.0488 55.5939 50.8867 55.3939 50.8867C55.194 50.8867 55.032 51.0488 55.032 51.2487C55.032 51.4486 55.194 51.6106 55.3939 51.6106Z" fill="black"/>
<path opacity="0.1" d="M49.6933 56.8313C49.8932 56.8313 50.0552 56.6693 50.0552 56.4694C50.0552 56.2695 49.8932 56.1074 49.6933 56.1074C49.4934 56.1074 49.3313 56.2695 49.3313 56.4694C49.3313 56.6693 49.4934 56.8313 49.6933 56.8313Z" fill="black"/>
<path opacity="0.1" d="M55.5751 56.4661C55.775 56.4661 55.9371 56.3041 55.9371 56.1041C55.9371 55.9042 55.775 55.7422 55.5751 55.7422C55.3752 55.7422 55.2131 55.9042 55.2131 56.1041C55.2131 56.3041 55.3752 56.4661 55.5751 56.4661Z" fill="black"/>
<path opacity="0.1" d="M55.4242 73.9349C55.6241 73.9349 55.7862 73.7728 55.7862 73.5729C55.7862 73.373 55.6241 73.2109 55.4242 73.2109C55.2243 73.2109 55.0623 73.373 55.0623 73.5729C55.0623 73.7728 55.2243 73.9349 55.4242 73.9349Z" fill="black"/>
<path opacity="0.1" d="M50.6603 73.9349C50.8602 73.9349 51.0223 73.7728 51.0223 73.5729C51.0223 73.373 50.8602 73.2109 50.6603 73.2109C50.4604 73.2109 50.2983 73.373 50.2983 73.5729C50.2983 73.7728 50.4604 73.9349 50.6603 73.9349Z" fill="black"/>
<path opacity="0.1" d="M51.0224 79.9954C51.2223 79.9954 51.3843 79.8334 51.3843 79.6334C51.3843 79.4335 51.2223 79.2715 51.0224 79.2715C50.8225 79.2715 50.6604 79.4335 50.6604 79.6334C50.6604 79.8334 50.8225 79.9954 51.0224 79.9954Z" fill="black"/>
<path opacity="0.1" d="M55.5751 79.6321C55.775 79.6321 55.9371 79.4701 55.9371 79.2702C55.9371 79.0703 55.775 78.9082 55.5751 78.9082C55.3752 78.9082 55.2131 79.0703 55.2131 79.2702C55.2131 79.4701 55.3752 79.6321 55.5751 79.6321Z" fill="black"/>
<path d="M55.4242 73.8138C55.6241 73.8138 55.7862 73.6517 55.7862 73.4518C55.7862 73.2519 55.6241 73.0898 55.4242 73.0898C55.2243 73.0898 55.0623 73.2519 55.0623 73.4518C55.0623 73.6517 55.2243 73.8138 55.4242 73.8138Z" fill="#333333"/>
<path d="M51.0224 79.8763C51.2223 79.8763 51.3843 79.7142 51.3843 79.5143C51.3843 79.3144 51.2223 79.1523 51.0224 79.1523C50.8225 79.1523 50.6604 79.3144 50.6604 79.5143C50.6604 79.7142 50.8225 79.8763 51.0224 79.8763Z" fill="#333333"/>
<path d="M50.6603 73.8138C50.8602 73.8138 51.0223 73.6517 51.0223 73.4518C51.0223 73.2519 50.8602 73.0898 50.6603 73.0898C50.4604 73.0898 50.2983 73.2519 50.2983 73.4518C50.2983 73.6517 50.4604 73.8138 50.6603 73.8138Z" fill="#333333"/>
<path d="M55.5751 79.511C55.775 79.511 55.9371 79.349 55.9371 79.1491C55.9371 78.9492 55.775 78.7871 55.5751 78.7871C55.3752 78.7871 55.2131 78.9492 55.2131 79.1491C55.2131 79.349 55.3752 79.511 55.5751 79.511Z" fill="#333333"/>
<path d="M49.1801 51.7005C49.38 51.7005 49.542 51.5384 49.542 51.3385C49.542 51.1386 49.38 50.9766 49.1801 50.9766C48.9802 50.9766 48.8181 51.1386 48.8181 51.3385C48.8181 51.5384 48.9802 51.7005 49.1801 51.7005Z" fill="#333333"/>
<path d="M49.6933 56.7103C49.8932 56.7103 50.0552 56.5482 50.0552 56.3483C50.0552 56.1484 49.8932 55.9863 49.6933 55.9863C49.4934 55.9863 49.3313 56.1484 49.3313 56.3483C49.3313 56.5482 49.4934 56.7103 49.6933 56.7103Z" fill="#333333"/>
<path d="M55.3939 51.4896C55.5939 51.4896 55.7559 51.3275 55.7559 51.1276C55.7559 50.9277 55.5939 50.7656 55.3939 50.7656C55.194 50.7656 55.032 50.9277 55.032 51.1276C55.032 51.3275 55.194 51.4896 55.3939 51.4896Z" fill="#333333"/>
<path d="M55.5751 56.347C55.775 56.347 55.9371 56.1849 55.9371 55.985C55.9371 55.7851 55.775 55.623 55.5751 55.623C55.3752 55.623 55.2131 55.7851 55.2131 55.985C55.2131 56.1849 55.3752 56.347 55.5751 56.347Z" fill="#333333"/>
<path opacity="0.1" d="M56.1179 68.6836C56.1179 68.6836 56.1782 76.9484 56.3592 78.4264C56.3592 78.4264 56.4249 69.0732 56.1179 68.6836Z" fill="black"/>
<path opacity="0.1" d="M57.6564 72.5156C57.5321 72.5156 60.1298 82.1981 60.2505 82.8919C60.3711 83.5856 58.3804 72.5156 57.6564 72.5156Z" fill="black"/>
<path opacity="0.1" d="M59.7073 70.9473C59.7073 71.0378 61.1551 76.1957 61.8791 76.4672C62.603 76.7387 59.7073 70.9473 59.7073 70.9473Z" fill="black"/>
<path opacity="0.1" d="M65.4083 60.9023C65.4083 60.9023 62.3316 61.0395 62.2411 61.4837C62.1506 61.9279 65.4083 60.9023 65.4083 60.9023Z" fill="black"/>
<path opacity="0.1" d="M59.9789 100.234C59.9789 100.234 57.777 101.169 58.1088 101.23C58.4406 101.29 59.9789 100.234 59.9789 100.234Z" fill="black"/>
<path opacity="0.1" d="M55.4243 98.8494C55.3385 98.6564 56.9023 99.6336 56.9023 99.7543C56.9023 99.8749 55.545 99.1208 55.4243 98.8494Z" fill="black"/>
<path opacity="0.1" d="M57.4751 102.015C57.4751 102.015 59.1944 101.929 59.3151 102.59C59.4357 103.252 57.4751 102.015 57.4751 102.015Z" fill="black"/>
<path opacity="0.1" d="M45.1084 102.01C45.1084 102.01 46.9785 101.644 47.1294 102.01C47.2802 102.376 45.1084 102.01 45.1084 102.01Z" fill="black"/>
<path opacity="0.1" d="M45.802 113.385C45.802 113.385 45.9247 114.923 45.4712 115.285C45.0178 115.647 45.802 113.385 45.802 113.385Z" fill="black"/>
<path opacity="0.1" d="M45.5737 116.643C46.1641 116.703 49.271 116.16 49.2408 116.643C49.2106 117.126 45.5737 116.643 45.5737 116.643Z" fill="black"/>
<path opacity="0.1" d="M59.8279 114.776C59.8279 114.776 58.7683 114.613 59.0267 115.328L59.8279 114.776Z" fill="black"/>
<path opacity="0.1" d="M40.131 54.5683H39.5579L38.6831 57.7657C38.6831 57.7657 38.3815 58.8817 38.0799 59.1532C37.7782 59.4247 38.3513 61.8981 38.3513 61.8981C38.3513 61.8981 38.0195 63.6476 37.7481 64.1C37.4766 64.5525 38.1703 65.6685 38.1703 65.6685L39.5579 68.9262L43.2378 69.8914C43.2378 69.8914 49.723 71.3091 50.0246 71.5202C50.3262 71.7314 50.5977 71.4297 50.8089 69.4691C51.02 67.5085 51.5931 63.7079 52.0456 63.5269C52.0456 63.5269 48.4259 63.919 48.1243 63.8587C47.8227 63.7984 46.3748 63.8889 46.3748 63.8889C46.3748 63.8889 44.4745 63.7682 44.1729 63.9492C43.8713 64.1302 44.565 63.0731 44.565 63.0731C44.692 62.5891 44.692 62.0805 44.565 61.5964C44.3539 60.782 44.2332 51.552 40.131 54.5683Z" fill="black"/>
<path opacity="0.1" d="M51.9253 63.8882C51.4728 64.0692 50.8997 67.8698 50.6886 69.8304C50.4774 71.7911 50.206 72.0927 49.9043 71.8816C49.6594 71.7102 45.3364 70.7426 43.7208 70.3854C43.9754 68.8833 44.1129 67.2062 44.1129 67.2062L39.5281 54.9297H40.0107C44.1129 51.9133 44.2336 61.1433 44.4447 61.9578C44.5717 62.4418 44.5717 62.9505 44.4447 63.4346C44.4447 63.4346 43.751 64.4915 44.0526 64.3105C44.3542 64.1295 46.2545 64.2502 46.2545 64.2502C46.2545 64.2502 47.7024 64.1597 48.004 64.22C48.3057 64.2804 51.9253 63.8882 51.9253 63.8882Z" fill="black"/>
<path d="M40.0106 54.6894H39.4375L38.5628 57.8868C38.5628 57.8868 38.2611 59.0028 37.9595 59.2743C37.6579 59.5457 38.231 62.0192 38.231 62.0192C38.231 62.0192 37.8992 63.7686 37.6277 64.2211C37.3562 64.6736 38.05 65.7896 38.05 65.7896L39.4375 69.0473L43.1175 70.0125C43.1175 70.0125 49.6026 71.4302 49.9043 71.6413C50.2059 71.8525 50.4774 71.5508 50.6885 69.5902C50.8997 67.6296 51.4728 63.829 51.9252 63.648C51.9252 63.648 48.3056 64.0401 48.004 63.9798C47.7023 63.9195 46.2545 64.01 46.2545 64.01C46.2545 64.01 44.3542 63.8893 44.0525 64.0703C43.7509 64.2513 44.4447 63.1942 44.4447 63.1942C44.5717 62.7102 44.5717 62.2016 44.4447 61.7175C44.2335 60.9031 44.1129 51.6731 40.0106 54.6894Z" fill="#FCFCFC"/>
<path opacity="0.1" d="M41.9712 65.6074C41.9712 65.6074 40.3122 68.7444 40.0106 68.3825C39.709 68.0205 41.9712 65.6074 41.9712 65.6074Z" fill="black"/>
<path opacity="0.1" d="M40.252 63.8223C40.252 63.8223 38.7137 65.0958 39.4376 65.4276C40.1615 65.7594 40.252 63.8223 40.252 63.8223Z" fill="black"/>
<path opacity="0.1" d="M41.7 62.2578C41.8206 62.288 43.932 62.7073 43.9622 62.8898C43.9924 63.0722 41.7 62.2578 41.7 62.2578Z" fill="black"/>
<path opacity="0.1" d="M56.3424 40.1622C56.2768 40.1852 56.2209 40.2296 56.1835 40.2883C56.1461 40.3469 56.1294 40.4163 56.1361 40.4855C56.013 40.5941 55.8405 40.4662 55.7403 40.3275C55.639 40.1899 55.5244 40.0198 55.3711 40.0391C55.2984 40.0623 55.2277 40.0918 55.16 40.1272C54.9187 40.2044 54.7148 39.9209 54.5796 39.6723C54.3444 39.2368 54.1091 38.8016 53.8738 38.3668C53.4021 38.6407 52.8446 38.3536 52.3765 38.07C51.9084 37.7865 51.3509 37.4981 50.878 37.772C50.1842 38.1726 50.1589 39.5082 49.4398 39.8376C49.2081 39.9438 48.9391 39.9209 48.7243 40.0669C48.5119 40.2116 48.3973 40.4903 48.302 40.757C48.2667 40.9088 48.1839 41.0453 48.0655 41.1467C47.9903 41.186 47.9067 41.2063 47.8218 41.2058C47.6086 41.2421 47.3894 41.2113 47.1944 41.1177C47.0922 41.0535 47.015 40.9563 46.9755 40.8422C46.936 40.7282 46.9366 40.604 46.9772 40.4903C46.9829 40.4783 46.9894 40.4666 46.9965 40.4554C47.0738 40.3619 47.1432 40.2622 47.204 40.1573C47.2764 39.9655 47.1727 39.7423 47.1956 39.5348C47.233 39.18 47.6082 38.993 47.6722 38.6443C47.6987 38.508 47.671 38.362 47.6963 38.2245C47.6999 38.2064 47.7047 38.1887 47.7108 38.1714L47.49 38.3234C47.7374 38.035 47.8616 37.6345 48.0426 37.2846C48.2437 36.9015 48.5203 36.5631 48.8559 36.29C49.1914 36.0169 49.5789 35.8146 49.9948 35.6955C50.7815 35.4663 51.6128 35.529 52.4067 35.7233C53.1616 35.9114 53.8848 36.2094 54.5531 36.6077C54.7918 36.7357 55.004 36.9081 55.1781 37.1156C55.324 37.3308 55.4481 37.56 55.5485 37.7998C55.7826 38.2848 56.422 38.7336 55.9129 38.8012C55.4894 38.8579 55.8755 39.1547 56.0975 39.355C56.1476 39.3943 56.1908 39.4415 56.2254 39.4949C56.2622 39.5713 56.2791 39.6557 56.2745 39.7403C56.2698 39.8249 56.2438 39.907 56.1988 39.9788C56.1132 40.0874 56.4607 40.1091 56.3424 40.1622Z" fill="black"/>
<path d="M56.3424 40.043C56.2768 40.0661 56.2209 40.1105 56.1835 40.1691C56.1461 40.2277 56.1294 40.2972 56.1361 40.3664C56.013 40.475 55.8405 40.3471 55.7403 40.2083C55.639 40.0708 55.5244 39.9007 55.3712 39.92C55.2984 39.9432 55.2277 39.9727 55.16 40.008C54.9187 40.0853 54.7148 39.8017 54.5796 39.5532C54.3444 39.1176 54.1091 38.6825 53.8738 38.2477C53.4021 38.5216 52.8446 38.2344 52.3765 37.9509C51.9084 37.6673 51.3509 37.379 50.878 37.6529C50.1842 38.0534 50.1589 39.3891 49.4398 39.7185C49.2081 39.8247 48.9391 39.8017 48.7243 39.9477C48.5119 40.0925 48.3973 40.3712 48.302 40.6379C48.2667 40.7896 48.1839 40.9262 48.0655 41.0276C47.9903 41.0669 47.9067 41.0872 47.8218 41.0867C47.6086 41.1229 47.3894 41.0922 47.1944 40.9986C47.0922 40.9344 47.015 40.8372 46.9755 40.7231C46.936 40.609 46.9366 40.4849 46.9772 40.3712C46.9829 40.3592 46.9894 40.3475 46.9965 40.3362C47.0738 40.2428 47.1432 40.1431 47.2041 40.0382C47.2764 39.8464 47.1727 39.6232 47.1956 39.4156C47.233 39.0609 47.6082 38.8739 47.6722 38.5252C47.6987 38.3889 47.671 38.2429 47.6963 38.1053C47.6999 38.0873 47.7047 38.0696 47.7108 38.0522L47.49 38.2043C47.7374 37.9159 47.8616 37.5153 48.0426 37.1654C48.2437 36.7823 48.5203 36.444 48.8559 36.1709C49.1914 35.8977 49.5789 35.6955 49.9948 35.5764C50.7815 35.3472 51.6128 35.4099 52.4067 35.6042C53.1616 35.7922 53.8848 36.0902 54.5531 36.4886C54.7918 36.6166 55.004 36.789 55.1781 36.9965C55.324 37.2117 55.4481 37.4408 55.5485 37.6806C55.7826 38.1657 56.422 38.6145 55.9129 38.682C55.4894 38.7388 55.8755 39.0356 56.0975 39.2359C56.1476 39.2751 56.1908 39.3224 56.2254 39.3758C56.2622 39.4521 56.2791 39.5365 56.2745 39.6211C56.2698 39.7058 56.2438 39.7878 56.1988 39.8596C56.1132 39.9682 56.4607 39.9899 56.3424 40.043Z" fill="#865A61"/>
<path opacity="0.1" d="M56.0975 39.2359L56.0493 39.7438C56.0493 39.7438 50.9866 33.3274 47.0485 40.5727C47.0485 40.5727 47.0291 40.4846 46.9966 40.3362C47.0739 40.2428 47.1433 40.1431 47.2041 40.0382C47.2765 39.8464 47.1727 39.6232 47.1957 39.4156C47.2331 39.0609 47.6083 38.8739 47.6722 38.5252C47.6988 38.3889 47.671 38.2429 47.6964 38.1053C47.6999 38.0873 47.7048 38.0696 47.7109 38.0522L47.4901 38.2043C47.7374 37.9159 47.8617 37.5153 48.0427 37.1654C48.2437 36.7823 48.5204 36.444 48.8559 36.1709C49.1915 35.8977 49.5789 35.6955 49.9948 35.5764C50.7815 35.3472 51.6128 35.4099 52.4067 35.6042C53.1617 35.7922 53.8849 36.0902 54.5532 36.4886C54.7919 36.6166 55.004 36.789 55.1781 36.9965C55.324 37.2117 55.4481 37.4408 55.5486 37.6806C55.7826 38.1657 56.4221 38.6145 55.9129 38.682C55.4894 38.7388 55.8755 39.0356 56.0975 39.2359Z" fill="black"/>
<g opacity="0.1">
<path opacity="0.1" d="M56.2221 39.9763C56.1972 40.0044 56.179 40.0378 56.1691 40.074C56.1591 40.1102 56.1576 40.1483 56.1648 40.1851C56.0417 40.2937 55.8691 40.1658 55.769 40.0271C55.6677 39.8895 55.553 39.7194 55.3998 39.7387C55.327 39.7619 55.2564 39.7914 55.1887 39.8268C54.9474 39.904 54.7434 39.6205 54.6083 39.3719C54.373 38.9364 54.1378 38.5012 53.9025 38.0664C53.4307 38.3403 52.8733 38.0532 52.4052 37.7696C51.937 37.4861 51.3796 37.1977 50.9067 37.4716C50.2129 37.8722 50.1875 39.2078 49.4684 39.5372C49.2368 39.6434 48.9677 39.6205 48.753 39.7665C48.5406 39.9112 48.426 40.19 48.3307 40.4566C48.2954 40.6084 48.2125 40.7449 48.0942 40.8463C48.019 40.8856 47.9353 40.9059 47.8505 40.9054C47.6373 40.9417 47.4181 40.9109 47.2231 40.8174C47.1062 40.7399 47.0224 40.6216 46.988 40.4857C46.964 40.5938 46.9737 40.7066 47.0157 40.809C47.0577 40.9114 47.1301 40.9986 47.2231 41.0587C47.4181 41.1522 47.6373 41.183 47.8505 41.1468C47.9353 41.1472 48.019 41.1269 48.0942 41.0876C48.2125 40.9862 48.2954 40.8497 48.3307 40.6979C48.426 40.4313 48.5406 40.1526 48.753 40.0078C48.9677 39.8618 49.2368 39.8847 49.4684 39.7785C50.1875 39.4491 50.2129 38.1135 50.9067 37.7129C51.3796 37.439 51.937 37.7274 52.4052 38.0109C52.8733 38.2945 53.4307 38.5816 53.9025 38.3078C54.1378 38.7421 54.373 39.1773 54.6083 39.6132C54.7434 39.8618 54.9474 40.1453 55.1887 40.0681C55.2564 40.0327 55.327 40.0032 55.3998 39.98C55.553 39.9607 55.6677 40.1308 55.769 40.2684C55.8691 40.4071 56.0417 40.535 56.1648 40.4264C56.158 40.3572 56.1747 40.2878 56.2121 40.2292C56.2495 40.1706 56.3055 40.1262 56.3711 40.1031C56.4651 40.0609 56.2651 40.0383 56.2221 39.9763Z" fill="black"/>
<path opacity="0.1" d="M55.8276 38.772C55.8641 38.7573 55.9024 38.7476 55.9415 38.7432C56.166 38.7134 56.167 38.6094 56.0781 38.4609C56.0358 38.4837 55.9894 38.4977 55.9415 38.5019C55.6993 38.5343 55.7223 38.6454 55.8276 38.772Z" fill="black"/>
<path opacity="0.1" d="M56.29 39.7809C56.3068 39.7031 56.3064 39.6225 56.2887 39.5449C56.278 39.593 56.2572 39.6383 56.2276 39.6777C56.1898 39.7256 56.2364 39.7566 56.29 39.7809Z" fill="black"/>
<path opacity="0.1" d="M47.2315 39.4336C47.229 39.4474 47.2261 39.461 47.2246 39.4753C47.2196 39.584 47.2275 39.6928 47.2481 39.7997C47.2623 39.6775 47.2568 39.5539 47.2315 39.4336V39.4336Z" fill="black"/>
<path opacity="0.1" d="M47.7215 37.9609C47.6647 38.0685 47.5968 38.1699 47.519 38.2634L47.7138 38.1293C47.7128 38.0731 47.7154 38.0168 47.7215 37.9609V37.9609Z" fill="black"/>
</g>
<path d="M47.0481 40.4506C47.0481 40.4506 46.3201 37.1961 46.5517 36.6741C46.5517 36.6741 45.923 35.3846 45.923 35.0776C45.8925 34.5653 45.7331 34.0689 45.4597 33.6346C45.1288 33.1126 44.7648 30.6871 46.7503 30.1037C48.7358 29.5204 50.258 28.9984 50.4897 28.5993C50.7213 28.2002 54.1298 28.4458 55.0564 29.9809C55.9829 31.5161 56.5786 31.209 56.5786 31.209C56.5786 31.209 58.0015 32.0994 58.0015 32.8977C58.0015 33.696 57.5713 34.0951 58.0015 34.2793C58.4317 34.4635 58.1008 37.7794 56.2146 37.8716L56.0491 39.6216C56.0491 39.6216 50.986 33.2047 47.0481 40.4506Z" fill="white"/>
<path opacity="0.1" d="M47.2649 30.7383C47.2649 30.7383 46.8276 33.3022 47.6269 34.1618L47.2649 30.7383Z" fill="black"/>
<path opacity="0.1" d="M49.3161 30.1504C49.3161 30.1504 48.2 32.8953 48.4715 33.4231L49.3161 30.1504Z" fill="black"/>
<path opacity="0.1" d="M50.2812 29.2754C50.2812 29.2754 49.5271 32.8498 49.8891 33.1363L50.2812 29.2754Z" fill="black"/>
<path opacity="0.1" d="M51.5783 30.2402C51.5783 30.2402 50.6432 32.5327 51.0203 32.8494L51.5783 30.2402Z" fill="black"/>
<path opacity="0.1" d="M53.3429 30.5117C53.3429 30.5117 52.2419 32.3819 52.4681 32.7137L53.3429 30.5117Z" fill="black"/>
<path opacity="0.1" d="M55.6051 32.3359C55.6051 32.3359 54.4288 32.6527 54.6701 33.0297L55.6051 32.3359Z" fill="black"/>
<path opacity="0.1" d="M56.7211 34.2832C56.7211 34.2832 55.6654 34.796 55.8614 35.0675L56.7211 34.2832Z" fill="black"/>
<path opacity="0.1" d="M46.5518 36.6754C46.5518 36.6754 53.2949 33.9364 56.2146 37.8728C56.2146 37.8728 52.6706 34.8596 46.5518 36.6754Z" fill="black"/>
<path d="M44.1152 59.179L45.0548 58.2285L47.7113 60.8544L46.7717 61.805L44.3286 59.39L44.1152 59.179Z" fill="#53526B"/>
<path d="M37.9509 53.0879C37.9509 53.0879 42.0633 53.4378 45.8907 57.7459L44.2955 59.3597L37.9509 53.0879Z" fill="#CABEA4"/>
<path d="M50.2859 60.7888C50.2859 60.7888 46.3334 59.348 45.945 59.0034C45.5566 58.6589 43.2718 60.6635 46.0592 63.3887C46.0592 63.3887 49.4676 64.3597 50.3794 63.3887C51.2912 62.4176 50.2859 60.7888 50.2859 60.7888Z" fill="#FDC2CC"/>
<path d="M91.7812 93C91.574 93 91.3753 93.1054 91.2288 93.2929C91.0823 93.4804 91 93.7348 91 94C91 94.2652 91.0823 94.5196 91.2288 94.7071C91.3753 94.8946 91.574 95 91.7812 95H105.219C105.426 95 105.625 94.8946 105.771 94.7071C105.918 94.5196 106 94.2652 106 94C106 93.7348 105.918 93.4804 105.771 93.2929C105.625 93.1054 105.426 93 105.219 93H91.7812Z" fill="#CCCCCC"/>
<defs>
<linearGradient id="paint0_linear" x1="52.5" y1="126.706" x2="52.5" y2="28" gradientUnits="userSpaceOnUse">
<stop stop-color="#808080" stop-opacity="0.25"/>
<stop offset="0.53514" stop-color="#808080" stop-opacity="0.12"/>
<stop offset="1" stop-color="#808080" stop-opacity="0.1"/>
</linearGradient>
</defs>
</svg>
