<svg width="15" height="15" viewBox="0 0 15 15" fill="none" xmlns="http://www.w3.org/2000/svg">
<path d="M13.75 2H13.5V0.75C13.5 0.3365 13.1635 0 12.75 0H12.25C11.8365 0 11.5 0.3365 11.5 0.75V2H3.5V0.75C3.5 0.3365 3.1635 0 2.75 0H2.25C1.8365 0 1.5 0.3365 1.5 0.75V2H1.25C0.56075 2 0 2.56075 0 3.25V13.75C0 14.4392 0.56075 15 1.25 15H13.75C14.4392 15 15 14.4392 15 13.75V3.25C15 2.56075 14.4392 2 13.75 2ZM12 2.25V0.75C12 0.612 12.112 0.5 12.25 0.5H12.75C12.888 0.5 13 0.612 13 0.75V2.25V3.25C13 3.388 12.888 3.5 12.75 3.5H12.25C12.112 3.5 12 3.388 12 3.25V2.25ZM2 2.25V0.75C2 0.612 2.112 0.5 2.25 0.5H2.75C2.888 0.5 3 0.612 3 0.75V2.25V3.25C3 3.388 2.888 3.5 2.75 3.5H2.25C2.112 3.5 2 3.388 2 3.25V2.25ZM14.5 13.75C14.5 14.1635 14.1635 14.5 13.75 14.5H1.25C0.8365 14.5 0.5 14.1635 0.5 13.75V6.5H14.5V13.75ZM14.5 6H0.5V3.25C0.5 2.8365 0.8365 2.5 1.25 2.5H1.5V3.25C1.5 3.6635 1.8365 4 2.25 4H2.75C3.1635 4 3.5 3.6635 3.5 3.25V2.5H11.5V3.25C11.5 3.6635 11.8365 4 12.25 4H12.75C13.1635 4 13.5 3.6635 13.5 3.25V2.5H13.75C14.1635 2.5 14.5 2.8365 14.5 3.25V6Z" fill="#999999"/>
<path d="M10.25 3.25H4.75C4.61175 3.25 4.5 3.36175 4.5 3.5V5C4.5 5.13825 4.61175 5.25 4.75 5.25H10.25C10.3882 5.25 10.5 5.13825 10.5 5V3.5C10.5 3.36175 10.3882 3.25 10.25 3.25ZM10 4.75H5V3.75H10V4.75Z" fill="#999999"/>
<path d="M3.24951 7.25H1.74951C1.61126 7.25 1.49951 7.36175 1.49951 7.5V8.75C1.49951 8.88825 1.61126 9 1.74951 9H3.24951C3.38776 9 3.49951 8.88825 3.49951 8.75V7.5C3.49951 7.36175 3.38776 7.25 3.24951 7.25ZM2.99951 8.5H1.99951V7.75H2.99951V8.5Z" fill="#999999"/>
<path d="M6.50049 7.25H5.00049C4.86224 7.25 4.75049 7.36175 4.75049 7.5V8.75C4.75049 8.88825 4.86224 9 5.00049 9H6.50049C6.63874 9 6.75049 8.88825 6.75049 8.75V7.5C6.75049 7.36175 6.63874 7.25 6.50049 7.25ZM6.25049 8.5H5.25049V7.75H6.25049V8.5Z" fill="#999999"/>
<path d="M10 7.25H8.5C8.36175 7.25 8.25 7.36175 8.25 7.5V8.75C8.25 8.88825 8.36175 9 8.5 9H10C10.1383 9 10.25 8.88825 10.25 8.75V7.5C10.25 7.36175 10.1383 7.25 10 7.25ZM9.75 8.5H8.75V7.75H9.75V8.5Z" fill="#999999"/>
<path d="M13.2495 7.25H11.7495C11.6113 7.25 11.4995 7.36175 11.4995 7.5V8.75C11.4995 8.88825 11.6113 9 11.7495 9H13.2495C13.3878 9 13.4995 8.88825 13.4995 8.75V7.5C13.4995 7.36175 13.3878 7.25 13.2495 7.25ZM12.9995 8.5H11.9995V7.75H12.9995V8.5Z" fill="#999999"/>
<path d="M3.24951 9.75H1.74951C1.61126 9.75 1.49951 9.86175 1.49951 10V11.25C1.49951 11.3882 1.61126 11.5 1.74951 11.5H3.24951C3.38776 11.5 3.49951 11.3882 3.49951 11.25V10C3.49951 9.86175 3.38776 9.75 3.24951 9.75ZM2.99951 11H1.99951V10.25H2.99951V11Z" fill="#999999"/>
<path d="M6.50049 9.75H5.00049C4.86224 9.75 4.75049 9.86175 4.75049 10V11.25C4.75049 11.3882 4.86224 11.5 5.00049 11.5H6.50049C6.63874 11.5 6.75049 11.3882 6.75049 11.25V10C6.75049 9.86175 6.63874 9.75 6.50049 9.75ZM6.25049 11H5.25049V10.25H6.25049V11Z" fill="#999999"/>
<path d="M10 9.75H8.5C8.36175 9.75 8.25 9.86175 8.25 10V11.25C8.25 11.3882 8.36175 11.5 8.5 11.5H10C10.1383 11.5 10.25 11.3882 10.25 11.25V10C10.25 9.86175 10.1383 9.75 10 9.75ZM9.75 11H8.75V10.25H9.75V11Z" fill="#999999"/>
<path d="M13.2495 9.75H11.7495C11.6113 9.75 11.4995 9.86175 11.4995 10V11.25C11.4995 11.3882 11.6113 11.5 11.7495 11.5H13.2495C13.3878 11.5 13.4995 11.3882 13.4995 11.25V10C13.4995 9.86175 13.3878 9.75 13.2495 9.75ZM12.9995 11H11.9995V10.25H12.9995V11Z" fill="#999999"/>
<path d="M3.24951 12.25H1.74951C1.61126 12.25 1.49951 12.3617 1.49951 12.5V13.75C1.49951 13.8882 1.61126 14 1.74951 14H3.24951C3.38776 14 3.49951 13.8882 3.49951 13.75V12.5C3.49951 12.3617 3.38776 12.25 3.24951 12.25ZM2.99951 13.5H1.99951V12.75H2.99951V13.5Z" fill="#999999"/>
<path d="M6.50049 12.25H5.00049C4.86224 12.25 4.75049 12.3617 4.75049 12.5V13.75C4.75049 13.8882 4.86224 14 5.00049 14H6.50049C6.63874 14 6.75049 13.8882 6.75049 13.75V12.5C6.75049 12.3617 6.63874 12.25 6.50049 12.25ZM6.25049 13.5H5.25049V12.75H6.25049V13.5Z" fill="#999999"/>
<path d="M10.058 12.0898L8.98324 13.3796L8.42674 12.8231L8.07324 13.1766L8.82324 13.9266C8.86999 13.9738 8.93374 13.9998 8.99999 13.9998C9.00374 13.9998 9.00749 13.9998 9.01124 13.9996C9.08149 13.9963 9.14699 13.9638 9.19224 13.9101L10.4422 12.4101L10.058 12.0898Z" fill="#999999"/>
<path d="M13.0585 12.0898L11.9837 13.3796L11.4272 12.8231L11.0737 13.1766L11.8237 13.9266C11.8705 13.9738 11.9342 13.9998 12.0005 13.9998C12.0042 13.9998 12.008 13.9998 12.0117 13.9996C12.082 13.9963 12.1475 13.9638 12.1927 13.9101L13.4427 12.4101L13.0585 12.0898Z" fill="#999999"/>
<rect x="10.3755" y="3.65625" width="1.375" height="5.625" transform="rotate(90 10.3755 3.65625)" fill="#999999"/>
<rect x="3.21826" y="7.4375" width="1.375" height="1.53125" transform="rotate(90 3.21826 7.4375)" fill="#999999"/>
<rect x="3.21826" y="9.9375" width="1.375" height="1.53125" transform="rotate(90 3.21826 9.9375)" fill="#999999"/>
<rect x="3.21826" y="12.4375" width="1.375" height="1.53125" transform="rotate(90 3.21826 12.4375)" fill="#999999"/>
<rect x="6.46924" y="7.4375" width="1.375" height="1.53125" transform="rotate(90 6.46924 7.4375)" fill="#999999"/>
<rect x="6.46924" y="9.9375" width="1.375" height="1.53125" transform="rotate(90 6.46924 9.9375)" fill="#999999"/>
<rect x="6.46924" y="12.4375" width="1.375" height="1.53125" transform="rotate(90 6.46924 12.4375)" fill="#999999"/>
<rect x="10" y="7.4375" width="1.375" height="1.53125" transform="rotate(90 10 7.4375)" fill="#999999"/>
<rect x="10" y="9.9375" width="1.375" height="1.53125" transform="rotate(90 10 9.9375)" fill="#999999"/>
<rect x="13.4375" y="7.4375" width="1.375" height="1.53124" transform="rotate(90 13.4375 7.4375)" fill="#999999"/>
<rect x="13.4375" y="9.9375" width="1.375" height="1.53124" transform="rotate(90 13.4375 9.9375)" fill="#999999"/>
<path d="M1.81152 0.5H3.12145V3.5H1.81152L1.81152 0.5Z" fill="#999999"/>
<path d="M12 0.5H13.3099V3.5H12L12 0.5Z" fill="#999999"/>
</svg>
