<svg width="27" height="28" viewBox="0 0 27 28" fill="none" xmlns="http://www.w3.org/2000/svg">
<path d="M25.5194 10.5687L23.4043 10.2998C23.23 9.76315 23.0151 9.24563 22.7642 8.75399L24.0704 7.07204C24.5991 6.39139 24.5373 5.4306 23.9331 4.84558L22.1612 3.07363C21.5705 2.46385 20.6097 2.4031 19.928 2.93075L18.2483 4.23693C17.7566 3.98604 17.2391 3.77116 16.7013 3.59677L16.4324 1.48506C16.3312 0.637901 15.6123 0 14.7606 0H12.2405C11.3888 0 10.6699 0.637901 10.5687 1.48169L10.2998 3.59677C9.76203 3.77116 9.24451 3.98492 8.75286 4.23693L7.07204 2.93075C6.39252 2.4031 5.43173 2.46385 4.84558 3.068L3.07363 4.83883C2.46385 5.4306 2.40197 6.39139 2.93075 7.07317L4.23693 8.75399C3.98492 9.24563 3.77116 9.76315 3.59677 10.2998L1.48506 10.5687C0.637902 10.6699 0 11.3888 0 12.2405V14.7606C0 15.6123 0.637902 16.3312 1.48169 16.4324L3.59677 16.7013C3.77116 17.238 3.98604 17.7555 4.23693 18.2471L2.93075 19.9291C2.40197 20.6097 2.46385 21.5705 3.068 22.1555L4.83995 23.9275C5.43173 24.5361 6.39139 24.5969 7.07317 24.0692L8.75399 22.7631C9.24563 23.0151 9.76316 23.23 10.2998 23.4032L10.5687 25.5138C10.6699 26.3632 11.3888 27.0011 12.2405 27.0011H14.7606C15.6123 27.0011 16.3312 26.3632 16.4324 25.5194L16.7013 23.4043C17.238 23.23 17.7555 23.0151 18.2471 22.7642L19.9291 24.0704C20.6097 24.5991 21.5705 24.5373 22.1555 23.9331L23.9275 22.1612C24.5373 21.5694 24.5991 20.6097 24.0704 19.9279L22.7642 18.2471C23.0162 17.7555 23.2311 17.238 23.4043 16.7013L25.5149 16.4324C26.3621 16.3312 27 15.6123 27 14.7606V12.2405C27.0011 11.3888 26.3632 10.6699 25.5194 10.5687V10.5687ZM13.5006 19.1258C10.3988 19.1258 7.87533 16.6023 7.87533 13.5006C7.87533 10.3988 10.3988 7.87533 13.5006 7.87533C16.6023 7.87533 19.1258 10.3988 19.1258 13.5006C19.1258 16.6023 16.6023 19.1258 13.5006 19.1258Z" fill="#999999"/>
</svg>
