<svg width="15" height="15" viewBox="0 0 15 15" fill="none" xmlns="http://www.w3.org/2000/svg">
<path d="M14.6053 12.7537L8.72356 6.87187L1.85169 0H1.31465L1.20499 0.278642C0.915569 1.01411 0.791907 1.76634 0.847424 2.4539C0.910705 3.23765 1.20845 3.9162 1.70852 4.41626L7.07306 9.78081L7.78064 9.07323L12.7402 14.6189C13.2335 15.1123 14.0827 15.1416 14.6053 14.6189C15.1196 14.1046 15.1196 13.2679 14.6053 12.7537Z" fill="#999999"/>
<path d="M4.58715 8.53833L0.385663 12.7398C-0.128555 13.254 -0.128555 14.0908 0.385663 14.605C0.874159 15.0935 1.71923 15.1366 2.25085 14.605L6.45236 10.4035L4.58715 8.53833Z" fill="#999999"/>
<path d="M14.3584 2.49757L11.975 4.88087L11.3533 4.25913L13.7366 1.8758L13.1149 1.25407L10.7316 3.63736L10.1098 3.01563L12.4931 0.632328L11.8714 0.0106201L8.76275 3.11931C8.38245 3.49961 8.15537 4.00457 8.12326 4.54123C8.11515 4.6772 8.08433 4.81094 8.0332 4.93814L10.0526 6.95754C10.1798 6.90636 10.3136 6.87557 10.4495 6.86746C10.9862 6.83543 11.4911 6.6083 11.8714 6.22799L14.9801 3.11934L14.3584 2.49757Z" fill="#999999"/>
</svg>
