<svg width="138" height="88" viewBox="0 0 138 88" fill="none" xmlns="http://www.w3.org/2000/svg">
<g clip-path="url(#clip0)">
<path d="M7.04 0H130.24C134.128 0 137.28 3.15198 137.28 7.04V80.96C137.28 84.8482 134.128 88 130.24 88H7.04C3.15198 88 0 84.8482 0 80.96V7.04C0 3.15198 3.15198 0 7.04 0Z" fill="#0E4595"/>
<path d="M51.6037 61.3765L57.4752 26.9227H66.8666L60.9908 61.3765H51.6037ZM94.9191 27.6655C93.0587 26.9674 90.143 26.2184 86.5024 26.2184C77.2228 26.2184 70.6862 30.8912 70.6307 37.5885C70.5781 42.5394 75.2972 45.3012 78.8591 46.9492C82.5148 48.638 83.7434 49.7149 83.7262 51.2231C83.7031 53.5324 80.807 54.5875 78.1079 54.5875C74.3491 54.5875 72.3522 54.0653 69.2679 52.7789L68.0578 52.2315L66.7397 59.9444C68.9332 60.906 72.9895 61.7392 77.2008 61.7824C87.0726 61.7824 93.4808 57.1631 93.554 50.0111C93.589 46.0918 91.0872 43.1091 85.669 40.65C82.3866 39.0564 80.3764 37.9926 80.3977 36.3789C80.3977 34.9468 82.0992 33.4152 85.7757 33.4152C88.8467 33.3677 91.0715 34.0374 92.8048 34.7352L93.6462 35.133L94.9191 27.6655V27.6655ZM119.086 26.9222H111.829C109.581 26.9222 107.898 27.5359 106.911 29.7794L92.9642 61.3538H102.826C102.826 61.3538 104.438 57.1081 104.803 56.1762C105.881 56.1762 115.46 56.191 116.83 56.191C117.111 57.3971 117.972 61.3538 117.972 61.3538H126.687L119.086 26.9212V26.9222ZM107.572 49.1704C108.349 47.1853 111.314 39.5391 111.314 39.5391C111.258 39.631 112.085 37.5443 112.559 36.2507L113.193 39.2214C113.193 39.2214 114.992 47.4457 115.368 49.1704H107.572ZM43.6312 26.9222L34.437 50.4182L33.4572 45.6433C31.7456 40.1393 26.4128 34.176 20.4512 31.1906L28.858 61.3218L38.7942 61.3105L53.579 26.9219H43.6312" fill="white"/>
<path d="M25.8588 26.921H10.7156L10.5957 27.6378C22.3768 30.4897 30.1722 37.3817 33.4088 45.662L30.1159 29.829C29.5474 27.6475 27.8988 26.9965 25.8591 26.9203" fill="#F2AE14"/>
</g>
<defs>
<clipPath id="clip0">
<rect width="137.28" height="88" fill="white"/>
</clipPath>
</defs>
</svg>
