<svg id="Layer_1" data-name="Layer 1" xmlns="http://www.w3.org/2000/svg" viewBox="0 0 38.56 27"><defs><style>.cls-1{fill:red;}.cls-2{fill:#fff;}</style></defs><title>Gulshan Club Mobile App Icons</title><path class="cls-1" d="M37.77,4.22A4.83,4.83,0,0,0,34.37.83C31.35,0,19.28,0,19.28,0S7.21,0,4.19.79A5,5,0,0,0,.79,4.22C0,7.24,0,13.5,0,13.5s0,6.29.79,9.28a4.83,4.83,0,0,0,3.4,3.39C7.24,27,19.28,27,19.28,27s12.07,0,15.09-.79a4.86,4.86,0,0,0,3.4-3.4c.79-3,.79-9.28.79-9.28S38.59,7.24,37.77,4.22Z"/><path class="cls-2" d="M15.44,19.28l10-5.78-10-5.78Z"/></svg>